<svg viewBox="0 0 761.4000244140625 400" xmlns="http://www.w3.org/2000/svg"><g><g><g><g><g><line x1="50" y1="376.5976001112792" x2="45" y2="376.5976001112792" style="visibility: inherit;" fill="rgb(0, 0, 0)" stroke="rgb(204, 204, 204)" stroke-width="1px"></line><line x1="50" y1="342.72117789990455" x2="45" y2="342.72117789990455" style="visibility: inherit;" fill="rgb(0, 0, 0)" stroke="rgb(204, 204, 204)" stroke-width="1px"></line><line x1="50" y1="308.8447556885299" x2="45" y2="308.8447556885299" style="visibility: inherit;" fill="rgb(0, 0, 0)" stroke="rgb(204, 204, 204)" stroke-width="1px"></line><line x1="50" y1="274.9683334771557" x2="45" y2="274.9683334771557" style="visibility: inherit;" fill="rgb(0, 0, 0)" stroke="rgb(204, 204, 204)" stroke-width="1px"></line><line x1="50" y1="241.09191126578102" x2="45" y2="241.09191126578102" style="visibility: inherit;" fill="rgb(0, 0, 0)" stroke="rgb(204, 204, 204)" stroke-width="1px"></line><line x1="50" y1="207.21548905440645" x2="45" y2="207.21548905440645" style="visibility: inherit;" fill="rgb(0, 0, 0)" stroke="rgb(204, 204, 204)" stroke-width="1px"></line><line x1="50" y1="173.33906684303182" x2="45" y2="173.33906684303182" style="visibility: inherit;" fill="rgb(0, 0, 0)" stroke="rgb(204, 204, 204)" stroke-width="1px"></line><line x1="50" y1="139.46264463165718" x2="45" y2="139.46264463165718" style="visibility: inherit;" fill="rgb(0, 0, 0)" stroke="rgb(204, 204, 204)" stroke-width="1px"></line><line x1="50" y1="105.58622242028257" x2="45" y2="105.58622242028257" style="visibility: inherit;" fill="rgb(0, 0, 0)" stroke="rgb(204, 204, 204)" stroke-width="1px"></line><line x1="50" y1="71.70980020890795" x2="45" y2="71.70980020890795" style="visibility: inherit;" fill="rgb(0, 0, 0)" stroke="rgb(204, 204, 204)" stroke-width="1px"></line><line x1="50" y1="37.83337799753336" x2="45" y2="37.83337799753336" style="visibility: inherit;" fill="rgb(0, 0, 0)" stroke="rgb(204, 204, 204)" stroke-width="1px"></line><line x1="50" y1="3.9569557861587334" x2="45" y2="3.9569557861587334" style="visibility: inherit;" fill="rgb(0, 0, 0)" stroke="rgb(204, 204, 204)" stroke-width="1px"></line></g><g transform="translate(40, 0)"><text x="0" y="376.5976001112792" dx="0em" dy="0.3em" style="text-anchor: end; visibility: hidden; font-family: Roboto, sans-serif; font-size: 12px; font-weight: 200;" fill="rgb(50, 49, 63)" stroke="none" stroke-width="1px">0.79</text><text x="0" y="342.72117789990455" dx="0em" dy="0.3em" style="text-anchor: end; visibility: inherit; font-family: Roboto, sans-serif; font-size: 12px; font-weight: 200;" fill="rgb(50, 49, 63)" stroke="none" stroke-width="1px">0.8</text><text x="0" y="308.8447556885299" dx="0em" dy="0.3em" style="text-anchor: end; visibility: inherit; font-family: Roboto, sans-serif; font-size: 12px; font-weight: 200;" fill="rgb(50, 49, 63)" stroke="none" stroke-width="1px">0.81</text><text x="0" y="274.9683334771557" dx="0em" dy="0.3em" style="text-anchor: end; visibility: inherit; font-family: Roboto, sans-serif; font-size: 12px; font-weight: 200;" fill="rgb(50, 49, 63)" stroke="none" stroke-width="1px">0.82</text><text x="0" y="241.09191126578102" dx="0em" dy="0.3em" style="text-anchor: end; visibility: inherit; font-family: Roboto, sans-serif; font-size: 12px; font-weight: 200;" fill="rgb(50, 49, 63)" stroke="none" stroke-width="1px">0.83</text><text x="0" y="207.21548905440645" dx="0em" dy="0.3em" style="text-anchor: end; visibility: inherit; font-family: Roboto, sans-serif; font-size: 12px; font-weight: 200;" fill="rgb(50, 49, 63)" stroke="none" stroke-width="1px">0.84</text><text x="0" y="173.33906684303182" dx="0em" dy="0.3em" style="text-anchor: end; visibility: inherit; font-family: Roboto, sans-serif; font-size: 12px; font-weight: 200;" fill="rgb(50, 49, 63)" stroke="none" stroke-width="1px">0.85</text><text x="0" y="139.46264463165718" dx="0em" dy="0.3em" style="text-anchor: end; visibility: inherit; font-family: Roboto, sans-serif; font-size: 12px; font-weight: 200;" fill="rgb(50, 49, 63)" stroke="none" stroke-width="1px">0.86</text><text x="0" y="105.58622242028257" dx="0em" dy="0.3em" style="text-anchor: end; visibility: inherit; font-family: Roboto, sans-serif; font-size: 12px; font-weight: 200;" fill="rgb(50, 49, 63)" stroke="none" stroke-width="1px">0.87</text><text x="0" y="71.70980020890795" dx="0em" dy="0.3em" style="text-anchor: end; visibility: inherit; font-family: Roboto, sans-serif; font-size: 12px; font-weight: 200;" fill="rgb(50, 49, 63)" stroke="none" stroke-width="1px">0.88</text><text x="0" y="37.83337799753336" dx="0em" dy="0.3em" style="text-anchor: end; visibility: inherit; font-family: Roboto, sans-serif; font-size: 12px; font-weight: 200;" fill="rgb(50, 49, 63)" stroke="none" stroke-width="1px">0.89</text><text x="0" y="3.9569557861587334" dx="0em" dy="0.3em" style="text-anchor: end; visibility: hidden; font-family: Roboto, sans-serif; font-size: 12px; font-weight: 200;" fill="rgb(50, 49, 63)" stroke="none" stroke-width="1px">0.9</text></g><line x1="50" y1="0" x2="50" y2="378" fill="rgb(0, 0, 0)" stroke="rgb(204, 204, 204)" stroke-width="1px"></line></g></g><g transform="translate(50, 0)" clip-path="url(#clip_0)"><clipPath id="clip_0"><rect width="711" height="378"></rect></clipPath><g><g><g><line x1="8.598613965369518" y1="0" x2="8.598613965369518" y2="378" fill="rgb(0, 0, 0)" stroke="rgb(60, 60, 60)" stroke-width="1px" opacity="0.25"></line><line x1="78.8579900813685" y1="0" x2="78.8579900813685" y2="378" fill="rgb(0, 0, 0)" stroke="rgb(60, 60, 60)" stroke-width="1px" opacity="0.25"></line><line x1="149.11736619736746" y1="0" x2="149.11736619736746" y2="378" fill="rgb(0, 0, 0)" stroke="rgb(60, 60, 60)" stroke-width="1px" opacity="0.25"></line><line x1="219.37674231336646" y1="0" x2="219.37674231336646" y2="378" fill="rgb(0, 0, 0)" stroke="rgb(60, 60, 60)" stroke-width="1px" opacity="0.25"></line><line x1="289.6361184293654" y1="0" x2="289.6361184293654" y2="378" fill="rgb(0, 0, 0)" stroke="rgb(60, 60, 60)" stroke-width="1px" opacity="0.25"></line><line x1="359.8954945453644" y1="0" x2="359.8954945453644" y2="378" fill="rgb(0, 0, 0)" stroke="rgb(60, 60, 60)" stroke-width="1px" opacity="0.25"></line><line x1="430.15487066136336" y1="0" x2="430.15487066136336" y2="378" fill="rgb(0, 0, 0)" stroke="rgb(60, 60, 60)" stroke-width="1px" opacity="0.25"></line><line x1="500.41424677736234" y1="0" x2="500.41424677736234" y2="378" fill="rgb(0, 0, 0)" stroke="rgb(60, 60, 60)" stroke-width="1px" opacity="0.25"></line><line x1="570.6736228933613" y1="0" x2="570.6736228933613" y2="378" fill="rgb(0, 0, 0)" stroke="rgb(60, 60, 60)" stroke-width="1px" opacity="0.25"></line><line x1="640.9329990093603" y1="0" x2="640.9329990093603" y2="378" fill="rgb(0, 0, 0)" stroke="rgb(60, 60, 60)" stroke-width="1px" opacity="0.25"></line><line x1="711.1923751253593" y1="0" x2="711.1923751253593" y2="378" fill="rgb(0, 0, 0)" stroke="rgb(60, 60, 60)" stroke-width="1px" opacity="0.25"></line></g><g><line x1="0" y1="376.5976001112792" x2="711.4" y2="376.5976001112792" fill="rgb(0, 0, 0)" stroke="rgb(60, 60, 60)" stroke-width="1px" opacity="0.25"></line><line x1="0" y1="342.72117789990455" x2="711.4" y2="342.72117789990455" fill="rgb(0, 0, 0)" stroke="rgb(60, 60, 60)" stroke-width="1px" opacity="0.25"></line><line x1="0" y1="308.8447556885299" x2="711.4" y2="308.8447556885299" fill="rgb(0, 0, 0)" stroke="rgb(60, 60, 60)" stroke-width="1px" opacity="0.25"></line><line x1="0" y1="274.9683334771557" x2="711.4" y2="274.9683334771557" fill="rgb(0, 0, 0)" stroke="rgb(60, 60, 60)" stroke-width="1px" opacity="0.25"></line><line x1="0" y1="241.09191126578102" x2="711.4" y2="241.09191126578102" fill="rgb(0, 0, 0)" stroke="rgb(60, 60, 60)" stroke-width="1px" opacity="0.25"></line><line x1="0" y1="207.21548905440645" x2="711.4" y2="207.21548905440645" fill="rgb(0, 0, 0)" stroke="rgb(60, 60, 60)" stroke-width="1px" opacity="0.25"></line><line x1="0" y1="173.33906684303182" x2="711.4" y2="173.33906684303182" fill="rgb(0, 0, 0)" stroke="rgb(60, 60, 60)" stroke-width="1px" opacity="0.25"></line><line x1="0" y1="139.46264463165718" x2="711.4" y2="139.46264463165718" fill="rgb(0, 0, 0)" stroke="rgb(60, 60, 60)" stroke-width="1px" opacity="0.25"></line><line x1="0" y1="105.58622242028257" x2="711.4" y2="105.58622242028257" fill="rgb(0, 0, 0)" stroke="rgb(60, 60, 60)" stroke-width="1px" opacity="0.25"></line><line x1="0" y1="71.70980020890795" x2="711.4" y2="71.70980020890795" fill="rgb(0, 0, 0)" stroke="rgb(60, 60, 60)" stroke-width="1px" opacity="0.25"></line><line x1="0" y1="37.83337799753336" x2="711.4" y2="37.83337799753336" fill="rgb(0, 0, 0)" stroke="rgb(60, 60, 60)" stroke-width="1px" opacity="0.25"></line><line x1="0" y1="3.9569557861587334" x2="711.4" y2="3.9569557861587334" fill="rgb(0, 0, 0)" stroke="rgb(60, 60, 60)" stroke-width="1px" opacity="0.25"></line></g></g></g><g><g><line x1="0" y1="3052.8349548098713" x2="711.4" y2="3052.8349548098713" fill="rgb(0, 0, 0)" stroke="rgb(153, 153, 153)" stroke-width="1.5px"></line></g></g><g><g><line x1="8.598613965369518" y1="0" x2="8.598613965369518" y2="378" fill="rgb(0, 0, 0)" stroke="rgb(153, 153, 153)" stroke-width="1.5px"></line></g></g><g><g><g><g><g><path stroke="rgb(0, 153, 136)" stroke-width="2px" d="M8.598613965369518,295.65599049269997L22.650489188569313,167.45586793732835L36.7023644117691,173.60249064598545L50.7542396349689,137.6011029628368L64.8061148581687,84.03799380329966L78.8579900813685,52.42713744885372L92.9098653045683,41.0120386811223L106.96174052776809,47.15866138977941L121.01361575096787,19.93813444482502L135.06549097416766,25.206610503899373L149.11736619736746,18.181841145659458L163.16924142056726,17.303896415287866L177.22111664376706,20.816079175196613L191.27299186696686,11.157273706630756L205.32486709016666,18.181841145659458L219.37674231336646,9.400980407465195L233.42861753656626,21.694225824779416L247.48049275976607,23.450317204733768L261.5323679829658,19.05998779524226L275.58424320616564,19.05998779524226L289.6361184293654,14.669658385750713L303.6879936525652,15.547603116122305L317.739868875765,18.181841145659458L331.7917440989648,17.303896415287866L345.8436193221646,17.303896415287866L359.8954945453644,19.93813444482502L373.94736976856416,18.181841145659458L387.99924499176393,17.303896415287866L402.05112021496376,15.547603116122305L416.10299543816353,15.547603116122305L430.15487066136336,16.425749765705106L444.20674588456313,15.547603116122305L458.25862110776296,15.547603116122305L472.31049633096274,15.547603116122305L486.36237155416256,14.669658385750713L500.41424677736234,14.669658385750713L514.4661220005621,14.669658385750713L528.5179972237619,14.669658385750713L542.5698724469618,14.669658385750713L556.6217476701615,14.669658385750713L570.6736228933613,14.669658385750713L584.7254981165611,14.669658385750713L598.777373339761,14.669658385750713L612.8292485629607,14.669658385750713L626.8811237861605,14.669658385750713L640.9329990093603,14.669658385750713L654.9848742325602,14.669658385750713L669.03674945576,14.669658385750713L683.0886246789597,14.669658385750713L697.1404999021595,14.669658385750713" style="fill: none;" fill="none"></path></g><g><path stroke="rgb(238, 51, 119)" stroke-width="2px" d="M8.598613965369518,360.63399650075735L22.650489188569313,372.04909526848877L36.7023644117691,206.09149365001414L50.7542396349689,181.50520473459696L64.8061148581687,120.03938148644826L78.8579900813685,80.5258110433909L92.9098653045683,72.62309695477944L106.96174052776809,54.18322882880811L121.01361575096787,62.964089567002375L135.06549097416766,54.18322882880811L149.11736619736746,49.79289941931656L163.16924142056726,60.329851537465224L177.22111664376706,54.18322882880811L191.27299186696686,45.40236809061385L205.32486709016666,48.91475276973376L219.37674231336646,47.15866138977941L233.42861753656626,48.91475276973376L247.48049275976607,45.40236809061385L261.5323679829658,48.036606120151L275.58424320616564,46.28051474019661L289.6361184293654,42.76813006107669L303.6879936525652,46.28051474019661L317.739868875765,46.28051474019661L331.7917440989648,48.91475276973376L345.8436193221646,49.79289941931656L359.8954945453644,48.036606120151L373.94736976856416,48.036606120151L387.99924499176393,47.15866138977941L402.05112021496376,44.52442336024225L416.10299543816353,44.52442336024225L430.15487066136336,44.52442336024225L444.20674588456313,44.52442336024225L458.25862110776296,46.28051474019661L472.31049633096274,46.28051474019661L486.36237155416256,46.28051474019661L500.41424677736234,46.28051474019661L514.4661220005621,46.28051474019661L528.5179972237619,46.28051474019661L542.5698724469618,46.28051474019661L556.6217476701615,46.28051474019661L570.6736228933613,46.28051474019661L584.7254981165611,46.28051474019661L598.777373339761,46.28051474019661L612.8292485629607,46.28051474019661L626.8811237861605,46.28051474019661L640.9329990093603,46.28051474019661L654.9848742325602,46.28051474019661L669.03674945576,46.28051474019661L683.0886246789597,46.28051474019661L697.1404999021595,46.28051474019661" style="fill: none;" fill="none"></path></g><g><path stroke="rgb(204, 51, 17)" stroke-width="2px" d="M8.598613965369518,301.8026132013571L22.650489188569313,194.67639488228272L36.7023644117691,151.6504397601054L50.7542396349689,128.82024222464253L64.8061148581687,55.06137547839087L78.8579900813685,61.207998187047984L92.9098653045683,53.305284098436516L106.96174052776809,28.718793263808077L121.01361575096787,48.036606120151L135.06549097416766,29.59693991339088L149.11736619736746,33.10932459251084L163.16924142056726,34.865415972465186L177.22111664376706,31.353031293345232L191.27299186696686,30.47508656297368L205.32486709016666,28.718793263808077L219.37674231336646,32.231177942928035L233.42861753656626,34.865415972465186L247.48049275976607,30.47508656297368L261.5323679829658,32.231177942928035L275.58424320616564,34.865415972465186L289.6361184293654,32.231177942928035L303.6879936525652,30.47508656297368L317.739868875765,30.47508656297368L331.7917440989648,33.98747124209363L345.8436193221646,33.98747124209363L359.8954945453644,33.98747124209363L373.94736976856416,33.98747124209363L387.99924499176393,33.98747124209363L402.05112021496376,33.98747124209363L416.10299543816353,33.98747124209363L430.15487066136336,33.98747124209363L444.20674588456313,33.98747124209363L458.25862110776296,33.98747124209363L472.31049633096274,33.98747124209363L486.36237155416256,33.98747124209363L500.41424677736234,33.98747124209363L514.4661220005621,33.98747124209363L528.5179972237619,33.98747124209363L542.5698724469618,33.98747124209363L556.6217476701615,33.98747124209363L570.6736228933613,33.98747124209363L584.7254981165611,33.98747124209363L598.777373339761,33.98747124209363L612.8292485629607,33.98747124209363L626.8811237861605,33.98747124209363L640.9329990093603,33.98747124209363L654.9848742325602,33.98747124209363L669.03674945576,33.98747124209363L683.0886246789597,33.98747124209363L697.1404999021595,33.98747124209363" style="fill: none;" fill="none"></path></g><g><path stroke="rgb(0, 119, 187)" stroke-width="2px" d="M8.598613965369518,300.0463199021915L22.650489188569313,230.6777825654314L36.7023644117691,142.86957902191114L50.7542396349689,105.99004468917968L64.8061148581687,81.40375577376246L78.8579900813685,60.329851537465224L92.9098653045683,36.62170927163079L106.96174052776809,26.084555234270923L121.01361575096787,18.181841145659458L135.06549097416766,47.15866138977941L149.11736619736746,22.572372474362176L163.16924142056726,16.425749765705106L177.22111664376706,20.816079175196613L191.27299186696686,14.669658385750713L205.32486709016666,15.547603116122305L219.37674231336646,10.279127057047997L233.42861753656626,4.132504348390886L247.48049275976607,5.010650997973646L261.5323679829658,5.888797647556448L275.58424320616564,12.03521843700235L289.6361184293654,5.010650997973646L303.6879936525652,4.132504348390886L317.739868875765,3.254559618019293L331.7917440989648,4.132504348390886L345.8436193221646,4.132504348390886L359.8954945453644,5.010650997973646L373.94736976856416,4.132504348390886L387.99924499176393,6.76674237792804L402.05112021496376,6.76674237792804L416.10299543816353,6.76674237792804L430.15487066136336,6.76674237792804L444.20674588456313,6.76674237792804L458.25862110776296,6.76674237792804L472.31049633096274,6.76674237792804L486.36237155416256,6.76674237792804L500.41424677736234,6.76674237792804L514.4661220005621,6.76674237792804L528.5179972237619,6.76674237792804L542.5698724469618,6.76674237792804L556.6217476701615,6.76674237792804L570.6736228933613,6.76674237792804L584.7254981165611,6.76674237792804L598.777373339761,6.76674237792804L612.8292485629607,6.76674237792804L626.8811237861605,6.76674237792804L640.9329990093603,6.76674237792804L654.9848742325602,6.76674237792804L669.03674945576,6.76674237792804L683.0886246789597,6.76674237792804L697.1404999021595,6.76674237792804" style="fill: none;" fill="none"></path></g><g><path stroke="rgb(255, 112, 67)" stroke-width="2px" d="M8.598613965369518,278.97241566589423L22.650489188569313,192.04215685274556L36.7023644117691,163.94368517741964L50.7542396349689,134.08871828371687L64.8061148581687,89.30667178158517L78.8579900813685,56.81746685834526L92.9098653045683,61.207998187047984L106.96174052776809,26.084555234270923L121.01361575096787,34.865415972465186L135.06549097416766,27.840848533436528L149.11736619736746,28.718793263808077L163.16924142056726,28.718793263808077L177.22111664376706,33.98747124209363L191.27299186696686,21.694225824779416L205.32486709016666,19.93813444482502L219.37674231336646,31.353031293345232L233.42861753656626,27.840848533436528L247.48049275976607,28.718793263808077L261.5323679829658,26.962701883853725L275.58424320616564,23.450317204733768L289.6361184293654,25.206610503899373L303.6879936525652,25.206610503899373L317.739868875765,25.206610503899373L331.7917440989648,25.206610503899373L345.8436193221646,25.206610503899373L359.8954945453644,25.206610503899373L373.94736976856416,25.206610503899373L387.99924499176393,25.206610503899373L402.05112021496376,25.206610503899373L416.10299543816353,25.206610503899373L430.15487066136336,25.206610503899373L444.20674588456313,25.206610503899373L458.25862110776296,25.206610503899373L472.31049633096274,25.206610503899373L486.36237155416256,25.206610503899373L500.41424677736234,25.206610503899373L514.4661220005621,25.206610503899373L528.5179972237619,25.206610503899373L542.5698724469618,25.206610503899373L556.6217476701615,25.206610503899373L570.6736228933613,25.206610503899373L584.7254981165611,25.206610503899373L598.777373339761,25.206610503899373L612.8292485629607,25.206610503899373L626.8811237861605,25.206610503899373L640.9329990093603,25.206610503899373L654.9848742325602,25.206610503899373L669.03674945576,25.206610503899373L683.0886246789597,25.206610503899373L697.1404999021595,25.206610503899373" style="fill: none;" fill="none"></path></g><g><path stroke="rgb(51, 187, 238)" stroke-width="2px" d="M8.598613965369518,307.949033990803L22.650489188569313,197.31063291181988L36.7023644117691,195.55454153186554L50.7542396349689,87.55037848241957L64.8061148581687,83.16004907292806L78.8579900813685,72.62309695477944L92.9098653045683,64.72018094695673L106.96174052776809,39.25594730116794L121.01361575096787,32.231177942928035L135.06549097416766,33.10932459251084L149.11736619736746,43.64627671065945L163.16924142056726,26.084555234270923L177.22111664376706,34.865415972465186L191.27299186696686,29.59693991339088L205.32486709016666,34.865415972465186L219.37674231336646,25.206610503899373L233.42861753656626,23.450317204733768L247.48049275976607,25.206610503899373L261.5323679829658,22.572372474362176L275.58424320616564,25.206610503899373L289.6361184293654,26.084555234270923L303.6879936525652,22.572372474362176L317.739868875765,27.840848533436528L331.7917440989648,24.32846385431657L345.8436193221646,23.450317204733768L359.8954945453644,23.450317204733768L373.94736976856416,23.450317204733768L387.99924499176393,23.450317204733768L402.05112021496376,23.450317204733768L416.10299543816353,23.450317204733768L430.15487066136336,23.450317204733768L444.20674588456313,23.450317204733768L458.25862110776296,23.450317204733768L472.31049633096274,23.450317204733768L486.36237155416256,23.450317204733768L500.41424677736234,23.450317204733768L514.4661220005621,23.450317204733768L528.5179972237619,23.450317204733768L542.5698724469618,23.450317204733768L556.6217476701615,23.450317204733768L570.6736228933613,23.450317204733768L584.7254981165611,23.450317204733768L598.777373339761,23.450317204733768L612.8292485629607,23.450317204733768L626.8811237861605,23.450317204733768L640.9329990093603,23.450317204733768L654.9848742325602,23.450317204733768L669.03674945576,23.450317204733768L683.0886246789597,23.450317204733768L697.1404999021595,23.450317204733768" style="fill: none;" fill="none"></path></g></g></g></g></g></g><g transform="translate(50, 378)" clip-path="url(#clip_1)"><clipPath id="clip_1"><rect width="711" height="22"></rect></clipPath><g><g><line x1="8.598613965369518" y1="0" x2="8.598613965369518" y2="5" style="visibility: inherit;" fill="rgb(0, 0, 0)" stroke="rgb(204, 204, 204)" stroke-width="1px"></line><line x1="78.8579900813685" y1="0" x2="78.8579900813685" y2="5" style="visibility: inherit;" fill="rgb(0, 0, 0)" stroke="rgb(204, 204, 204)" stroke-width="1px"></line><line x1="149.11736619736746" y1="0" x2="149.11736619736746" y2="5" style="visibility: inherit;" fill="rgb(0, 0, 0)" stroke="rgb(204, 204, 204)" stroke-width="1px"></line><line x1="219.37674231336646" y1="0" x2="219.37674231336646" y2="5" style="visibility: inherit;" fill="rgb(0, 0, 0)" stroke="rgb(204, 204, 204)" stroke-width="1px"></line><line x1="289.6361184293654" y1="0" x2="289.6361184293654" y2="5" style="visibility: inherit;" fill="rgb(0, 0, 0)" stroke="rgb(204, 204, 204)" stroke-width="1px"></line><line x1="359.8954945453644" y1="0" x2="359.8954945453644" y2="5" style="visibility: inherit;" fill="rgb(0, 0, 0)" stroke="rgb(204, 204, 204)" stroke-width="1px"></line><line x1="430.15487066136336" y1="0" x2="430.15487066136336" y2="5" style="visibility: inherit;" fill="rgb(0, 0, 0)" stroke="rgb(204, 204, 204)" stroke-width="1px"></line><line x1="500.41424677736234" y1="0" x2="500.41424677736234" y2="5" style="visibility: inherit;" fill="rgb(0, 0, 0)" stroke="rgb(204, 204, 204)" stroke-width="1px"></line><line x1="570.6736228933613" y1="0" x2="570.6736228933613" y2="5" style="visibility: inherit;" fill="rgb(0, 0, 0)" stroke="rgb(204, 204, 204)" stroke-width="1px"></line><line x1="640.9329990093603" y1="0" x2="640.9329990093603" y2="5" style="visibility: inherit;" fill="rgb(0, 0, 0)" stroke="rgb(204, 204, 204)" stroke-width="1px"></line><line x1="711.1923751253593" y1="0" x2="711.1923751253593" y2="5" style="visibility: inherit;" fill="rgb(0, 0, 0)" stroke="rgb(204, 204, 204)" stroke-width="1px"></line></g><g transform="translate(0, 8)"><text x="8.598613965369518" y="0" dx="0em" dy="0.95em" style="text-anchor: middle; visibility: inherit; font-family: Roboto, sans-serif; font-size: 12px; font-weight: 200;" fill="rgb(50, 49, 63)" stroke="none" stroke-width="1px">0</text><text x="78.8579900813685" y="0" dx="0em" dy="0.95em" style="text-anchor: middle; visibility: inherit; font-family: Roboto, sans-serif; font-size: 12px; font-weight: 200;" fill="rgb(50, 49, 63)" stroke="none" stroke-width="1px">5</text><text x="149.11736619736746" y="0" dx="0em" dy="0.95em" style="text-anchor: middle; visibility: inherit; font-family: Roboto, sans-serif; font-size: 12px; font-weight: 200;" fill="rgb(50, 49, 63)" stroke="none" stroke-width="1px">10</text><text x="219.37674231336646" y="0" dx="0em" dy="0.95em" style="text-anchor: middle; visibility: inherit; font-family: Roboto, sans-serif; font-size: 12px; font-weight: 200;" fill="rgb(50, 49, 63)" stroke="none" stroke-width="1px">15</text><text x="289.6361184293654" y="0" dx="0em" dy="0.95em" style="text-anchor: middle; visibility: inherit; font-family: Roboto, sans-serif; font-size: 12px; font-weight: 200;" fill="rgb(50, 49, 63)" stroke="none" stroke-width="1px">20</text><text x="359.8954945453644" y="0" dx="0em" dy="0.95em" style="text-anchor: middle; visibility: inherit; font-family: Roboto, sans-serif; font-size: 12px; font-weight: 200;" fill="rgb(50, 49, 63)" stroke="none" stroke-width="1px">25</text><text x="430.15487066136336" y="0" dx="0em" dy="0.95em" style="text-anchor: middle; visibility: inherit; font-family: Roboto, sans-serif; font-size: 12px; font-weight: 200;" fill="rgb(50, 49, 63)" stroke="none" stroke-width="1px">30</text><text x="500.41424677736234" y="0" dx="0em" dy="0.95em" style="text-anchor: middle; visibility: inherit; font-family: Roboto, sans-serif; font-size: 12px; font-weight: 200;" fill="rgb(50, 49, 63)" stroke="none" stroke-width="1px">35</text><text x="570.6736228933613" y="0" dx="0em" dy="0.95em" style="text-anchor: middle; visibility: inherit; font-family: Roboto, sans-serif; font-size: 12px; font-weight: 200;" fill="rgb(50, 49, 63)" stroke="none" stroke-width="1px">40</text><text x="640.9329990093603" y="0" dx="0em" dy="0.95em" style="text-anchor: middle; visibility: inherit; font-family: Roboto, sans-serif; font-size: 12px; font-weight: 200;" fill="rgb(50, 49, 63)" stroke="none" stroke-width="1px">45</text><text x="711.1923751253593" y="0" dx="0em" dy="0.95em" style="text-anchor: middle; visibility: hidden; font-family: Roboto, sans-serif; font-size: 12px; font-weight: 200;" fill="rgb(50, 49, 63)" stroke="none" stroke-width="1px">50</text></g><line x1="0" y1="0" x2="711.4" y2="0" fill="rgb(0, 0, 0)" stroke="rgb(204, 204, 204)" stroke-width="1px"></line></g></g></g></g></svg>