<svg viewBox="0 0 761.4000244140625 400" xmlns="http://www.w3.org/2000/svg"><g><g><g><g><g><line x1="40" y1="375.7188761498212" x2="35" y2="375.7188761498212" style="visibility: inherit;" fill="rgb(0, 0, 0)" stroke="rgb(204, 204, 204)" stroke-width="1px"></line><line x1="40" y1="342.2827828495659" x2="35" y2="342.2827828495659" style="visibility: inherit;" fill="rgb(0, 0, 0)" stroke="rgb(204, 204, 204)" stroke-width="1px"></line><line x1="40" y1="308.8466895493105" x2="35" y2="308.8466895493105" style="visibility: inherit;" fill="rgb(0, 0, 0)" stroke="rgb(204, 204, 204)" stroke-width="1px"></line><line x1="40" y1="275.41059624905506" x2="35" y2="275.41059624905506" style="visibility: inherit;" fill="rgb(0, 0, 0)" stroke="rgb(204, 204, 204)" stroke-width="1px"></line><line x1="40" y1="241.97450294879968" x2="35" y2="241.97450294879968" style="visibility: inherit;" fill="rgb(0, 0, 0)" stroke="rgb(204, 204, 204)" stroke-width="1px"></line><line x1="40" y1="208.5384096485443" x2="35" y2="208.5384096485443" style="visibility: inherit;" fill="rgb(0, 0, 0)" stroke="rgb(204, 204, 204)" stroke-width="1px"></line><line x1="40" y1="175.10231634828892" x2="35" y2="175.10231634828892" style="visibility: inherit;" fill="rgb(0, 0, 0)" stroke="rgb(204, 204, 204)" stroke-width="1px"></line><line x1="40" y1="141.6662230480336" x2="35" y2="141.6662230480336" style="visibility: inherit;" fill="rgb(0, 0, 0)" stroke="rgb(204, 204, 204)" stroke-width="1px"></line><line x1="40" y1="108.23012974777816" x2="35" y2="108.23012974777816" style="visibility: inherit;" fill="rgb(0, 0, 0)" stroke="rgb(204, 204, 204)" stroke-width="1px"></line><line x1="40" y1="74.79403644752281" x2="35" y2="74.79403644752281" style="visibility: inherit;" fill="rgb(0, 0, 0)" stroke="rgb(204, 204, 204)" stroke-width="1px"></line><line x1="40" y1="41.35794314726742" x2="35" y2="41.35794314726742" style="visibility: inherit;" fill="rgb(0, 0, 0)" stroke="rgb(204, 204, 204)" stroke-width="1px"></line><line x1="40" y1="7.921849847012028" x2="35" y2="7.921849847012028" style="visibility: inherit;" fill="rgb(0, 0, 0)" stroke="rgb(204, 204, 204)" stroke-width="1px"></line></g><g transform="translate(30, 0)"><text x="0" y="375.7188761498212" dx="0em" dy="0.3em" style="text-anchor: end; visibility: hidden; font-family: Roboto, sans-serif; font-size: 12px; font-weight: 200;" fill="rgb(50, 49, 63)" stroke="none" stroke-width="1px">1</text><text x="0" y="342.2827828495659" dx="0em" dy="0.3em" style="text-anchor: end; visibility: inherit; font-family: Roboto, sans-serif; font-size: 12px; font-weight: 200;" fill="rgb(50, 49, 63)" stroke="none" stroke-width="1px">1.2</text><text x="0" y="308.8466895493105" dx="0em" dy="0.3em" style="text-anchor: end; visibility: inherit; font-family: Roboto, sans-serif; font-size: 12px; font-weight: 200;" fill="rgb(50, 49, 63)" stroke="none" stroke-width="1px">1.4</text><text x="0" y="275.41059624905506" dx="0em" dy="0.3em" style="text-anchor: end; visibility: inherit; font-family: Roboto, sans-serif; font-size: 12px; font-weight: 200;" fill="rgb(50, 49, 63)" stroke="none" stroke-width="1px">1.6</text><text x="0" y="241.97450294879968" dx="0em" dy="0.3em" style="text-anchor: end; visibility: inherit; font-family: Roboto, sans-serif; font-size: 12px; font-weight: 200;" fill="rgb(50, 49, 63)" stroke="none" stroke-width="1px">1.8</text><text x="0" y="208.5384096485443" dx="0em" dy="0.3em" style="text-anchor: end; visibility: inherit; font-family: Roboto, sans-serif; font-size: 12px; font-weight: 200;" fill="rgb(50, 49, 63)" stroke="none" stroke-width="1px">2</text><text x="0" y="175.10231634828892" dx="0em" dy="0.3em" style="text-anchor: end; visibility: inherit; font-family: Roboto, sans-serif; font-size: 12px; font-weight: 200;" fill="rgb(50, 49, 63)" stroke="none" stroke-width="1px">2.2</text><text x="0" y="141.6662230480336" dx="0em" dy="0.3em" style="text-anchor: end; visibility: inherit; font-family: Roboto, sans-serif; font-size: 12px; font-weight: 200;" fill="rgb(50, 49, 63)" stroke="none" stroke-width="1px">2.4</text><text x="0" y="108.23012974777816" dx="0em" dy="0.3em" style="text-anchor: end; visibility: inherit; font-family: Roboto, sans-serif; font-size: 12px; font-weight: 200;" fill="rgb(50, 49, 63)" stroke="none" stroke-width="1px">2.6</text><text x="0" y="74.79403644752281" dx="0em" dy="0.3em" style="text-anchor: end; visibility: inherit; font-family: Roboto, sans-serif; font-size: 12px; font-weight: 200;" fill="rgb(50, 49, 63)" stroke="none" stroke-width="1px">2.8</text><text x="0" y="41.35794314726742" dx="0em" dy="0.3em" style="text-anchor: end; visibility: inherit; font-family: Roboto, sans-serif; font-size: 12px; font-weight: 200;" fill="rgb(50, 49, 63)" stroke="none" stroke-width="1px">3</text><text x="0" y="7.921849847012028" dx="0em" dy="0.3em" style="text-anchor: end; visibility: inherit; font-family: Roboto, sans-serif; font-size: 12px; font-weight: 200;" fill="rgb(50, 49, 63)" stroke="none" stroke-width="1px">3.2</text></g><line x1="40" y1="0" x2="40" y2="378" fill="rgb(0, 0, 0)" stroke="rgb(204, 204, 204)" stroke-width="1px"></line></g></g><g transform="translate(40, 0)" clip-path="url(#clip_0)"><clipPath id="clip_0"><rect width="721" height="378"></rect></clipPath><g><g><g><line x1="14.61979986362153" y1="0" x2="14.61979986362153" y2="378" fill="rgb(0, 0, 0)" stroke="rgb(60, 60, 60)" stroke-width="1px" opacity="0.25"></line><line x1="83.48208773546037" y1="0" x2="83.48208773546037" y2="378" fill="rgb(0, 0, 0)" stroke="rgb(60, 60, 60)" stroke-width="1px" opacity="0.25"></line><line x1="152.3443756072992" y1="0" x2="152.3443756072992" y2="378" fill="rgb(0, 0, 0)" stroke="rgb(60, 60, 60)" stroke-width="1px" opacity="0.25"></line><line x1="221.20666347913806" y1="0" x2="221.20666347913806" y2="378" fill="rgb(0, 0, 0)" stroke="rgb(60, 60, 60)" stroke-width="1px" opacity="0.25"></line><line x1="290.0689513509769" y1="0" x2="290.0689513509769" y2="378" fill="rgb(0, 0, 0)" stroke="rgb(60, 60, 60)" stroke-width="1px" opacity="0.25"></line><line x1="358.93123922281575" y1="0" x2="358.93123922281575" y2="378" fill="rgb(0, 0, 0)" stroke="rgb(60, 60, 60)" stroke-width="1px" opacity="0.25"></line><line x1="427.79352709465456" y1="0" x2="427.79352709465456" y2="378" fill="rgb(0, 0, 0)" stroke="rgb(60, 60, 60)" stroke-width="1px" opacity="0.25"></line><line x1="496.65581496649344" y1="0" x2="496.65581496649344" y2="378" fill="rgb(0, 0, 0)" stroke="rgb(60, 60, 60)" stroke-width="1px" opacity="0.25"></line><line x1="565.5181028383322" y1="0" x2="565.5181028383322" y2="378" fill="rgb(0, 0, 0)" stroke="rgb(60, 60, 60)" stroke-width="1px" opacity="0.25"></line><line x1="634.3803907101711" y1="0" x2="634.3803907101711" y2="378" fill="rgb(0, 0, 0)" stroke="rgb(60, 60, 60)" stroke-width="1px" opacity="0.25"></line><line x1="703.24267858201" y1="0" x2="703.24267858201" y2="378" fill="rgb(0, 0, 0)" stroke="rgb(60, 60, 60)" stroke-width="1px" opacity="0.25"></line></g><g><line x1="0" y1="375.7188761498212" x2="721.4" y2="375.7188761498212" fill="rgb(0, 0, 0)" stroke="rgb(60, 60, 60)" stroke-width="1px" opacity="0.25"></line><line x1="0" y1="342.2827828495659" x2="721.4" y2="342.2827828495659" fill="rgb(0, 0, 0)" stroke="rgb(60, 60, 60)" stroke-width="1px" opacity="0.25"></line><line x1="0" y1="308.8466895493105" x2="721.4" y2="308.8466895493105" fill="rgb(0, 0, 0)" stroke="rgb(60, 60, 60)" stroke-width="1px" opacity="0.25"></line><line x1="0" y1="275.41059624905506" x2="721.4" y2="275.41059624905506" fill="rgb(0, 0, 0)" stroke="rgb(60, 60, 60)" stroke-width="1px" opacity="0.25"></line><line x1="0" y1="241.97450294879968" x2="721.4" y2="241.97450294879968" fill="rgb(0, 0, 0)" stroke="rgb(60, 60, 60)" stroke-width="1px" opacity="0.25"></line><line x1="0" y1="208.5384096485443" x2="721.4" y2="208.5384096485443" fill="rgb(0, 0, 0)" stroke="rgb(60, 60, 60)" stroke-width="1px" opacity="0.25"></line><line x1="0" y1="175.10231634828892" x2="721.4" y2="175.10231634828892" fill="rgb(0, 0, 0)" stroke="rgb(60, 60, 60)" stroke-width="1px" opacity="0.25"></line><line x1="0" y1="141.6662230480336" x2="721.4" y2="141.6662230480336" fill="rgb(0, 0, 0)" stroke="rgb(60, 60, 60)" stroke-width="1px" opacity="0.25"></line><line x1="0" y1="108.23012974777816" x2="721.4" y2="108.23012974777816" fill="rgb(0, 0, 0)" stroke="rgb(60, 60, 60)" stroke-width="1px" opacity="0.25"></line><line x1="0" y1="74.79403644752281" x2="721.4" y2="74.79403644752281" fill="rgb(0, 0, 0)" stroke="rgb(60, 60, 60)" stroke-width="1px" opacity="0.25"></line><line x1="0" y1="41.35794314726742" x2="721.4" y2="41.35794314726742" fill="rgb(0, 0, 0)" stroke="rgb(60, 60, 60)" stroke-width="1px" opacity="0.25"></line><line x1="0" y1="7.921849847012028" x2="721.4" y2="7.921849847012028" fill="rgb(0, 0, 0)" stroke="rgb(60, 60, 60)" stroke-width="1px" opacity="0.25"></line></g></g></g><g><g><line x1="0" y1="542.8993426510981" x2="721.4" y2="542.8993426510981" fill="rgb(0, 0, 0)" stroke="rgb(153, 153, 153)" stroke-width="1.5px"></line></g></g><g><g><line x1="14.61979986362153" y1="0" x2="14.61979986362153" y2="378" fill="rgb(0, 0, 0)" stroke="rgb(153, 153, 153)" stroke-width="1.5px"></line></g></g><g><g><g><g><g><path stroke="rgb(0, 153, 136)" stroke-width="2px" d="M14.61979986362153,89.67031358077288L28.3922574379893,230.33887235664596L42.16471501235707,232.39589204929698L55.937172586724834,292.2657775453595L69.7096301610926,315.0752092597087L83.48208773546037,336.18487686451465L97.25454530982813,342.6617535773435L111.02700288419591,348.7218852551191L124.79946045856367,349.08047611235764L138.57191803293145,355.89434014275696L152.3443756072992,356.72569776014717L166.11683318166698,354.7029966056036L179.88929075603474,354.47841146859355L193.66174833040253,356.033109005034L207.4342059047703,355.5702870477368L221.20666347913806,356.52257665655276L234.97912105350582,354.53144377399633L248.75157862787356,356.04628238116L262.52403620224135,356.3949882239378L276.2964937766091,356.25189466783416L290.0689513509769,356.6131560733342L303.84140892534464,356.8525089436412L317.61386649971246,356.8619355804152L331.3863240740802,356.88009132270076L345.158781648448,356.6752363556828L358.93123922281575,356.75419689458005L372.7036967971835,356.824966423511L386.4761543715513,356.84212569256465L400.24861194591904,356.87558726369247L414.0210695202868,356.85771053391187L427.79352709465456,356.86099889557715L441.5659846690223,356.889777042515L455.3384422433901,356.9011766962882L469.11089981775785,356.92052820645205L482.8833573921257,356.9210862314619L496.65581496649344,356.91881427249314L510.4282725408612,356.91909328499804L524.2007301152289,356.91696083228175L537.9731876895967,356.915625558151L551.7456452639644,356.9150077447472L565.5181028383322,356.9168611849586L579.2905604127,356.91706047960497L593.0630179870677,356.9168811144232L606.8354755614355,356.91700069121106L620.6079331358034,356.9171202679989L634.3803907101711,356.91727970371596L648.1528482845389,356.9172398447867L661.9253058589067,356.91725977425136L675.6977634332744,356.91725977425136L689.4702210076422,356.91727970371596" style="fill: none;" fill="none"></path></g><g><path stroke="rgb(238, 51, 119)" stroke-width="2px" d="M14.61979986362153,19.105380533843984L28.3922574379893,-0.7995310041069157L42.16471501235707,210.379294297192L55.937172586724834,221.9593695137197L69.7096301610926,273.37242584405914L83.48208773546037,300.31767984856L97.25454530982813,315.20397353073736L111.02700288419591,325.3714881526256L124.79946045856367,325.34908743437205L138.57191803293145,329.4506310453457L152.3443756072992,327.55472114483143L166.11683318166698,329.1528449847189L179.88929075603474,332.423270131878L193.66174833040253,332.2442437510314L207.4342059047703,334.26979481901833L221.20666347913806,333.23168893546944L234.97912105350582,334.2853796603655L248.75157862787356,333.79477602936237L262.52403620224135,334.0750839495013L276.2964937766091,334.31011212598173L290.0689513509769,334.380363488832L303.84140892534464,334.51638208498906L317.61386649971246,334.7911695434231L331.3863240740802,334.8286967253372L345.158781648448,334.7969690176329L358.93123922281575,334.6921998220289L372.7036967971835,334.74684641406736L386.4761543715513,334.63542077727413L400.24861194591904,334.66130915183936L414.0210695202868,334.641379687201L427.79352709465456,334.6751402002984L441.5659846690223,334.6677862278469L455.3384422433901,334.68651992460696L469.11089981775785,334.70947866787037L482.8833573921257,334.7195031885834L496.65581496649344,334.7359250674455L510.4282725408612,334.739093852323L524.2007301152289,334.74202348362485L537.9731876895967,334.74656740156234L551.7456452639644,334.7455111399365L565.5181028383322,334.74666704888557L579.2905604127,334.7473845096126L593.0630179870677,334.7473845096126L606.8354755614355,334.7475638747943L620.6079331358034,334.7476435926529L634.3803907101711,334.7477631694407L648.1528482845389,334.7478428872992L661.9253058589067,334.74794253462244L675.6977634332744,334.7479624640871L689.4702210076422,334.7478827462285" style="fill: none;" fill="none"></path></g><g><path stroke="rgb(204, 51, 17)" stroke-width="2px" d="M14.61979986362153,106.16656920483292L28.3922574379893,215.6964754627132L42.16471501235707,261.9126448760887L55.937172586724834,304.91664296744307L69.7096301610926,339.355754335805L83.48208773546037,335.85861159891965L97.25454530982813,335.7412270521996L111.02700288419591,350.02688652910524L124.79946045856367,348.76493289873804L138.57191803293145,350.4458437347334L152.3443756072992,351.07860423700214L166.11683318166698,351.1306201397083L179.88929075603474,352.55515834259546L193.66174833040253,351.84596834343847L207.4342059047703,351.09361112387484L221.20666347913806,351.08251041207126L234.97912105350582,352.2802114484443L248.75157862787356,352.75863817655335L262.52403620224135,352.2813872868579L276.2964937766091,352.9752714571726L290.0689513509769,352.5267787849504L303.84140892534464,352.73011911265587L317.61386649971246,352.8622116042791L331.3863240740802,352.8953343745081L345.158781648448,352.84327861287255L358.93123922281575,352.8475833772345L372.7036967971835,352.74175792000466L386.4761543715513,352.654825595252L400.24861194591904,352.6681584070951L414.0210695202868,352.65588185687784L427.79352709465456,352.6440636843473L441.5659846690223,352.6706894491042L455.3384422433901,352.6721044410935L469.11089981775785,352.67260267770945L482.8833573921257,352.68715118689545L496.65581496649344,352.68184994930164L510.4282725408612,352.68645365563316L524.2007301152289,352.68282649306894L537.9731876895967,352.68444077970463L551.7456452639644,352.68450056809854L565.5181028383322,352.68533760561337L579.2905604127,352.6851781698963L593.0630179870677,352.6857561243708L606.8354755614355,352.68587570115864L620.6079331358034,352.68607499580503L634.3803907101711,352.6860351368757L648.1528482845389,352.68609492526963L661.9253058589067,352.68609492526963L675.6977634332744,352.6861148547343L689.4702210076422,352.6861148547343" style="fill: none;" fill="none"></path></g><g><path stroke="rgb(0, 119, 187)" stroke-width="2px" d="M14.61979986362153,114.6496255460202L28.3922574379893,199.79296197592802L42.16471501235707,273.73956644162746L55.937172586724834,303.5470702280286L69.7096301610926,327.91970936021886L83.48208773546037,332.0741656998074L97.25454530982813,355.4756818790984L111.02700288419591,355.21873129151567L124.79946045856367,353.9207850480115L138.57191803293145,354.09307526981036L152.3443756072992,353.96891470511326L166.11683318166698,356.66140530722373L179.88929075603474,355.92451335221944L193.66174833040253,357.106370464205L207.4342059047703,356.6824508218819L221.20666347913806,357.0929380050387L234.97912105350582,356.41264572960745L248.75157862787356,357.1328567227094L262.52403620224135,356.7035162660046L276.2964937766091,356.4753637548244L290.0689513509769,356.5025674740558L303.84140892534464,356.3006620678043L317.61386649971246,356.42368665301706L331.3863240740802,356.29217211586837L345.158781648448,356.4166116930705L358.93123922281575,356.4458681471596L372.7036967971835,356.4618914367289L386.4761543715513,356.4199000547358L400.24861194591904,356.4430580926456L414.0210695202868,356.44889742578465L427.79352709465456,356.41842527435256L441.5659846690223,356.40457429642885L455.3384422433901,356.38881008989995L469.11089981775785,356.38948769169764L482.8833573921257,356.39034465867707L496.65581496649344,356.3935931614131L510.4282725408612,356.3935732319485L524.2007301152289,356.3945697051804L537.9731876895967,356.3940515390998L551.7456452639644,356.3948287882207L565.5181028383322,356.3962238507454L579.2905604127,356.3967619462906L593.0630179870677,356.39712067665414L606.8354755614355,356.3970608882602L620.6079331358034,356.3971007471895L634.3803907101711,356.3970808177248L648.1528482845389,356.3971007471895L661.9253058589067,356.39714060611874L675.6977634332744,356.3971605355834L689.4702210076422,356.39714060611874" style="fill: none;" fill="none"></path></g><g><path stroke="rgb(255, 112, 67)" stroke-width="2px" d="M14.61979986362153,107.31602100731644L28.3922574379893,211.7661857413772L42.16471501235707,289.4566597161852L55.937172586724834,298.84072715367387L69.7096301610926,326.067484846192L83.48208773546037,353.45031017629316L97.25454530982813,355.14718451346386L111.02700288419591,366.16710226740054L124.79946045856367,364.0147599453842L138.57191803293145,360.56257808072303L152.3443756072992,361.5905996551649L166.11683318166698,363.95915673904307L179.88929075603474,362.705135035602L193.66174833040253,363.74736631833093L207.4342059047703,364.047284831674L221.20666347913806,364.82250114717795L234.97912105350582,364.99016773318067L248.75157862787356,365.69070834468454L262.52403620224135,366.12138407552004L276.2964937766091,365.9091153476566L290.0689513509769,365.78282233024316L303.84140892534464,365.7978890055098L317.61386649971246,365.68598506156525L331.3863240740802,365.4123734415449L345.158781648448,365.4735369685201L358.93123922281575,365.55333454493217L372.7036967971835,365.5740013997622L386.4761543715513,365.5871149874942L400.24861194591904,365.5854409124646L414.0210695202868,365.5519394824075L427.79352709465456,365.5420146090176L441.5659846690223,365.53350472761696L455.3384422433901,365.5389654009279L469.11089981775785,365.55482925478003L482.8833573921257,365.55150103418543L496.65581496649344,365.5472759876821L510.4282725408612,365.5431107295727L524.2007301152289,365.54711655196496L537.9731876895967,365.5474952117931L551.7456452639644,365.54663824481366L565.5181028383322,365.54629944391485L579.2905604127,365.5468176099954L593.0630179870677,365.5467578216015L606.8354755614355,365.5467578216015L620.6079331358034,365.54685746892466L634.3803907101711,365.54705676357105L648.1528482845389,365.54709662250036L661.9253058589067,365.54709662250036L675.6977634332744,365.5470766930357L689.4702210076422,365.54711655196496" style="fill: none;" fill="none"></path></g><g><path stroke="rgb(51, 187, 238)" stroke-width="2px" d="M14.61979986362153,13.47845562891298L28.3922574379893,197.1660193830132L42.16471501235707,251.47064173773592L55.937172586724834,305.62216594510653L69.7096301610926,313.39579313356126L83.48208773546037,320.80562787450685L97.25454530982813,338.72691993806995L111.02700288419591,343.10514430661834L124.79946045856367,345.07750363348543L138.57191803293145,347.19708191563626L152.3443756072992,349.22938907213563L166.11683318166698,352.193039970116L179.88929075603474,350.9718420949343L193.66174833040253,350.6423881149971L207.4342059047703,350.8405467818966L221.20666347913806,352.1488762764773L234.97912105350582,352.2351708583616L248.75157862787356,352.58266100379643L262.52403620224135,352.27132290721556L276.2964937766091,352.27154213132656L290.0689513509769,352.45198350416257L303.84140892534464,352.6034872943435L317.61386649971246,352.65516439615084L331.3863240740802,352.57714054209157L345.158781648448,352.60998429981566L358.93123922281575,352.594698400438L372.7036967971835,352.67975735551465L386.4761543715513,352.6152656079448L400.24861194591904,352.59545572009426L414.0210695202868,352.5873842869157L427.79352709465456,352.555955521181L441.5659846690223,352.56169520699683L455.3384422433901,352.5500165407188L469.11089981775785,352.54967773981986L482.8833573921257,352.55218885236434L496.65581496649344,352.5507140719811L510.4282725408612,352.5508137193043L524.2007301152289,352.5547198943734L537.9731876895967,352.5535639854244L551.7456452639644,352.5534244791719L565.5181028383322,352.55328497291947L579.2905604127,352.553862927394L593.0630179870677,352.55458038812094L606.8354755614355,352.55503876580764L620.6079331358034,352.5552181309894L634.3803907101711,352.55541742563577L648.1528482845389,352.55541742563577L661.9253058589067,352.55543735510037L675.6977634332744,352.5554772140297L689.4702210076422,352.5553974961711" style="fill: none;" fill="none"></path></g></g></g></g></g></g><g transform="translate(40, 378)" clip-path="url(#clip_1)"><clipPath id="clip_1"><rect width="721" height="22"></rect></clipPath><g><g><line x1="14.61979986362153" y1="0" x2="14.61979986362153" y2="5" style="visibility: inherit;" fill="rgb(0, 0, 0)" stroke="rgb(204, 204, 204)" stroke-width="1px"></line><line x1="83.48208773546037" y1="0" x2="83.48208773546037" y2="5" style="visibility: inherit;" fill="rgb(0, 0, 0)" stroke="rgb(204, 204, 204)" stroke-width="1px"></line><line x1="152.3443756072992" y1="0" x2="152.3443756072992" y2="5" style="visibility: inherit;" fill="rgb(0, 0, 0)" stroke="rgb(204, 204, 204)" stroke-width="1px"></line><line x1="221.20666347913806" y1="0" x2="221.20666347913806" y2="5" style="visibility: inherit;" fill="rgb(0, 0, 0)" stroke="rgb(204, 204, 204)" stroke-width="1px"></line><line x1="290.0689513509769" y1="0" x2="290.0689513509769" y2="5" style="visibility: inherit;" fill="rgb(0, 0, 0)" stroke="rgb(204, 204, 204)" stroke-width="1px"></line><line x1="358.93123922281575" y1="0" x2="358.93123922281575" y2="5" style="visibility: inherit;" fill="rgb(0, 0, 0)" stroke="rgb(204, 204, 204)" stroke-width="1px"></line><line x1="427.79352709465456" y1="0" x2="427.79352709465456" y2="5" style="visibility: inherit;" fill="rgb(0, 0, 0)" stroke="rgb(204, 204, 204)" stroke-width="1px"></line><line x1="496.65581496649344" y1="0" x2="496.65581496649344" y2="5" style="visibility: inherit;" fill="rgb(0, 0, 0)" stroke="rgb(204, 204, 204)" stroke-width="1px"></line><line x1="565.5181028383322" y1="0" x2="565.5181028383322" y2="5" style="visibility: inherit;" fill="rgb(0, 0, 0)" stroke="rgb(204, 204, 204)" stroke-width="1px"></line><line x1="634.3803907101711" y1="0" x2="634.3803907101711" y2="5" style="visibility: inherit;" fill="rgb(0, 0, 0)" stroke="rgb(204, 204, 204)" stroke-width="1px"></line><line x1="703.24267858201" y1="0" x2="703.24267858201" y2="5" style="visibility: inherit;" fill="rgb(0, 0, 0)" stroke="rgb(204, 204, 204)" stroke-width="1px"></line></g><g transform="translate(0, 8)"><text x="14.61979986362153" y="0" dx="0em" dy="0.95em" style="text-anchor: middle; visibility: inherit; font-family: Roboto, sans-serif; font-size: 12px; font-weight: 200;" fill="rgb(50, 49, 63)" stroke="none" stroke-width="1px">0</text><text x="83.48208773546037" y="0" dx="0em" dy="0.95em" style="text-anchor: middle; visibility: inherit; font-family: Roboto, sans-serif; font-size: 12px; font-weight: 200;" fill="rgb(50, 49, 63)" stroke="none" stroke-width="1px">5</text><text x="152.3443756072992" y="0" dx="0em" dy="0.95em" style="text-anchor: middle; visibility: inherit; font-family: Roboto, sans-serif; font-size: 12px; font-weight: 200;" fill="rgb(50, 49, 63)" stroke="none" stroke-width="1px">10</text><text x="221.20666347913806" y="0" dx="0em" dy="0.95em" style="text-anchor: middle; visibility: inherit; font-family: Roboto, sans-serif; font-size: 12px; font-weight: 200;" fill="rgb(50, 49, 63)" stroke="none" stroke-width="1px">15</text><text x="290.0689513509769" y="0" dx="0em" dy="0.95em" style="text-anchor: middle; visibility: inherit; font-family: Roboto, sans-serif; font-size: 12px; font-weight: 200;" fill="rgb(50, 49, 63)" stroke="none" stroke-width="1px">20</text><text x="358.93123922281575" y="0" dx="0em" dy="0.95em" style="text-anchor: middle; visibility: inherit; font-family: Roboto, sans-serif; font-size: 12px; font-weight: 200;" fill="rgb(50, 49, 63)" stroke="none" stroke-width="1px">25</text><text x="427.79352709465456" y="0" dx="0em" dy="0.95em" style="text-anchor: middle; visibility: inherit; font-family: Roboto, sans-serif; font-size: 12px; font-weight: 200;" fill="rgb(50, 49, 63)" stroke="none" stroke-width="1px">30</text><text x="496.65581496649344" y="0" dx="0em" dy="0.95em" style="text-anchor: middle; visibility: inherit; font-family: Roboto, sans-serif; font-size: 12px; font-weight: 200;" fill="rgb(50, 49, 63)" stroke="none" stroke-width="1px">35</text><text x="565.5181028383322" y="0" dx="0em" dy="0.95em" style="text-anchor: middle; visibility: inherit; font-family: Roboto, sans-serif; font-size: 12px; font-weight: 200;" fill="rgb(50, 49, 63)" stroke="none" stroke-width="1px">40</text><text x="634.3803907101711" y="0" dx="0em" dy="0.95em" style="text-anchor: middle; visibility: inherit; font-family: Roboto, sans-serif; font-size: 12px; font-weight: 200;" fill="rgb(50, 49, 63)" stroke="none" stroke-width="1px">45</text><text x="703.24267858201" y="0" dx="0em" dy="0.95em" style="text-anchor: middle; visibility: inherit; font-family: Roboto, sans-serif; font-size: 12px; font-weight: 200;" fill="rgb(50, 49, 63)" stroke="none" stroke-width="1px">50</text></g><line x1="0" y1="0" x2="721.4" y2="0" fill="rgb(0, 0, 0)" stroke="rgb(204, 204, 204)" stroke-width="1px"></line></g></g></g></g></svg>