<svg viewBox="0 0 761.4000244140625 400" xmlns="http://www.w3.org/2000/svg"><g><g><g><g><g><line x1="50" y1="374.74419957532075" x2="45" y2="374.74419957532075" style="visibility: inherit;" fill="rgb(0, 0, 0)" stroke="rgb(204, 204, 204)" stroke-width="1px"></line><line x1="50" y1="345.72469912171886" x2="45" y2="345.72469912171886" style="visibility: inherit;" fill="rgb(0, 0, 0)" stroke="rgb(204, 204, 204)" stroke-width="1px"></line><line x1="50" y1="316.70519866811696" x2="45" y2="316.70519866811696" style="visibility: inherit;" fill="rgb(0, 0, 0)" stroke="rgb(204, 204, 204)" stroke-width="1px"></line><line x1="50" y1="287.68569821451507" x2="45" y2="287.68569821451507" style="visibility: inherit;" fill="rgb(0, 0, 0)" stroke="rgb(204, 204, 204)" stroke-width="1px"></line><line x1="50" y1="258.66619776091324" x2="45" y2="258.66619776091324" style="visibility: inherit;" fill="rgb(0, 0, 0)" stroke="rgb(204, 204, 204)" stroke-width="1px"></line><line x1="50" y1="229.64669730731165" x2="45" y2="229.64669730731165" style="visibility: inherit;" fill="rgb(0, 0, 0)" stroke="rgb(204, 204, 204)" stroke-width="1px"></line><line x1="50" y1="200.62719685370982" x2="45" y2="200.62719685370982" style="visibility: inherit;" fill="rgb(0, 0, 0)" stroke="rgb(204, 204, 204)" stroke-width="1px"></line><line x1="50" y1="171.6076964001079" x2="45" y2="171.6076964001079" style="visibility: inherit;" fill="rgb(0, 0, 0)" stroke="rgb(204, 204, 204)" stroke-width="1px"></line><line x1="50" y1="142.58819594650603" x2="45" y2="142.58819594650603" style="visibility: inherit;" fill="rgb(0, 0, 0)" stroke="rgb(204, 204, 204)" stroke-width="1px"></line><line x1="50" y1="113.56869549290415" x2="45" y2="113.56869549290415" style="visibility: inherit;" fill="rgb(0, 0, 0)" stroke="rgb(204, 204, 204)" stroke-width="1px"></line><line x1="50" y1="84.54919503930228" x2="45" y2="84.54919503930228" style="visibility: inherit;" fill="rgb(0, 0, 0)" stroke="rgb(204, 204, 204)" stroke-width="1px"></line><line x1="50" y1="55.5296945857004" x2="45" y2="55.5296945857004" style="visibility: inherit;" fill="rgb(0, 0, 0)" stroke="rgb(204, 204, 204)" stroke-width="1px"></line><line x1="50" y1="26.510194132098512" x2="45" y2="26.510194132098512" style="visibility: inherit;" fill="rgb(0, 0, 0)" stroke="rgb(204, 204, 204)" stroke-width="1px"></line></g><g transform="translate(40, 0)"><text x="0" y="374.74419957532075" dx="0em" dy="0.3em" style="text-anchor: end; visibility: hidden; font-family: Roboto, sans-serif; font-size: 12px; font-weight: 200;" fill="rgb(50, 49, 63)" stroke="none" stroke-width="1px">0.77</text><text x="0" y="345.72469912171886" dx="0em" dy="0.3em" style="text-anchor: end; visibility: inherit; font-family: Roboto, sans-serif; font-size: 12px; font-weight: 200;" fill="rgb(50, 49, 63)" stroke="none" stroke-width="1px">0.78</text><text x="0" y="316.70519866811696" dx="0em" dy="0.3em" style="text-anchor: end; visibility: inherit; font-family: Roboto, sans-serif; font-size: 12px; font-weight: 200;" fill="rgb(50, 49, 63)" stroke="none" stroke-width="1px">0.79</text><text x="0" y="287.68569821451507" dx="0em" dy="0.3em" style="text-anchor: end; visibility: inherit; font-family: Roboto, sans-serif; font-size: 12px; font-weight: 200;" fill="rgb(50, 49, 63)" stroke="none" stroke-width="1px">0.8</text><text x="0" y="258.66619776091324" dx="0em" dy="0.3em" style="text-anchor: end; visibility: inherit; font-family: Roboto, sans-serif; font-size: 12px; font-weight: 200;" fill="rgb(50, 49, 63)" stroke="none" stroke-width="1px">0.81</text><text x="0" y="229.64669730731165" dx="0em" dy="0.3em" style="text-anchor: end; visibility: inherit; font-family: Roboto, sans-serif; font-size: 12px; font-weight: 200;" fill="rgb(50, 49, 63)" stroke="none" stroke-width="1px">0.82</text><text x="0" y="200.62719685370982" dx="0em" dy="0.3em" style="text-anchor: end; visibility: inherit; font-family: Roboto, sans-serif; font-size: 12px; font-weight: 200;" fill="rgb(50, 49, 63)" stroke="none" stroke-width="1px">0.83</text><text x="0" y="171.6076964001079" dx="0em" dy="0.3em" style="text-anchor: end; visibility: inherit; font-family: Roboto, sans-serif; font-size: 12px; font-weight: 200;" fill="rgb(50, 49, 63)" stroke="none" stroke-width="1px">0.84</text><text x="0" y="142.58819594650603" dx="0em" dy="0.3em" style="text-anchor: end; visibility: inherit; font-family: Roboto, sans-serif; font-size: 12px; font-weight: 200;" fill="rgb(50, 49, 63)" stroke="none" stroke-width="1px">0.85</text><text x="0" y="113.56869549290415" dx="0em" dy="0.3em" style="text-anchor: end; visibility: inherit; font-family: Roboto, sans-serif; font-size: 12px; font-weight: 200;" fill="rgb(50, 49, 63)" stroke="none" stroke-width="1px">0.86</text><text x="0" y="84.54919503930228" dx="0em" dy="0.3em" style="text-anchor: end; visibility: inherit; font-family: Roboto, sans-serif; font-size: 12px; font-weight: 200;" fill="rgb(50, 49, 63)" stroke="none" stroke-width="1px">0.87</text><text x="0" y="55.5296945857004" dx="0em" dy="0.3em" style="text-anchor: end; visibility: inherit; font-family: Roboto, sans-serif; font-size: 12px; font-weight: 200;" fill="rgb(50, 49, 63)" stroke="none" stroke-width="1px">0.88</text><text x="0" y="26.510194132098512" dx="0em" dy="0.3em" style="text-anchor: end; visibility: inherit; font-family: Roboto, sans-serif; font-size: 12px; font-weight: 200;" fill="rgb(50, 49, 63)" stroke="none" stroke-width="1px">0.89</text></g><line x1="50" y1="0" x2="50" y2="378" fill="rgb(0, 0, 0)" stroke="rgb(204, 204, 204)" stroke-width="1px"></line></g></g><g transform="translate(50, 0)" clip-path="url(#clip_0)"><clipPath id="clip_0"><rect width="711" height="378"></rect></clipPath><g><g><g><line x1="15.066176045890023" y1="0" x2="15.066176045890023" y2="378" fill="rgb(0, 0, 0)" stroke="rgb(60, 60, 60)" stroke-width="1px" opacity="0.25"></line><line x1="82.05685948214385" y1="0" x2="82.05685948214385" y2="378" fill="rgb(0, 0, 0)" stroke="rgb(60, 60, 60)" stroke-width="1px" opacity="0.25"></line><line x1="149.04754291839765" y1="0" x2="149.04754291839765" y2="378" fill="rgb(0, 0, 0)" stroke="rgb(60, 60, 60)" stroke-width="1px" opacity="0.25"></line><line x1="216.03822635465147" y1="0" x2="216.03822635465147" y2="378" fill="rgb(0, 0, 0)" stroke="rgb(60, 60, 60)" stroke-width="1px" opacity="0.25"></line><line x1="283.0289097909053" y1="0" x2="283.0289097909053" y2="378" fill="rgb(0, 0, 0)" stroke="rgb(60, 60, 60)" stroke-width="1px" opacity="0.25"></line><line x1="350.01959322715913" y1="0" x2="350.01959322715913" y2="378" fill="rgb(0, 0, 0)" stroke="rgb(60, 60, 60)" stroke-width="1px" opacity="0.25"></line><line x1="417.010276663413" y1="0" x2="417.010276663413" y2="378" fill="rgb(0, 0, 0)" stroke="rgb(60, 60, 60)" stroke-width="1px" opacity="0.25"></line><line x1="484.00096009966677" y1="0" x2="484.00096009966677" y2="378" fill="rgb(0, 0, 0)" stroke="rgb(60, 60, 60)" stroke-width="1px" opacity="0.25"></line><line x1="550.9916435359205" y1="0" x2="550.9916435359205" y2="378" fill="rgb(0, 0, 0)" stroke="rgb(60, 60, 60)" stroke-width="1px" opacity="0.25"></line><line x1="617.9823269721744" y1="0" x2="617.9823269721744" y2="378" fill="rgb(0, 0, 0)" stroke="rgb(60, 60, 60)" stroke-width="1px" opacity="0.25"></line><line x1="684.9730104084282" y1="0" x2="684.9730104084282" y2="378" fill="rgb(0, 0, 0)" stroke="rgb(60, 60, 60)" stroke-width="1px" opacity="0.25"></line></g><g><line x1="0" y1="374.74419957532075" x2="711.4" y2="374.74419957532075" fill="rgb(0, 0, 0)" stroke="rgb(60, 60, 60)" stroke-width="1px" opacity="0.25"></line><line x1="0" y1="345.72469912171886" x2="711.4" y2="345.72469912171886" fill="rgb(0, 0, 0)" stroke="rgb(60, 60, 60)" stroke-width="1px" opacity="0.25"></line><line x1="0" y1="316.70519866811696" x2="711.4" y2="316.70519866811696" fill="rgb(0, 0, 0)" stroke="rgb(60, 60, 60)" stroke-width="1px" opacity="0.25"></line><line x1="0" y1="287.68569821451507" x2="711.4" y2="287.68569821451507" fill="rgb(0, 0, 0)" stroke="rgb(60, 60, 60)" stroke-width="1px" opacity="0.25"></line><line x1="0" y1="258.66619776091324" x2="711.4" y2="258.66619776091324" fill="rgb(0, 0, 0)" stroke="rgb(60, 60, 60)" stroke-width="1px" opacity="0.25"></line><line x1="0" y1="229.64669730731165" x2="711.4" y2="229.64669730731165" fill="rgb(0, 0, 0)" stroke="rgb(60, 60, 60)" stroke-width="1px" opacity="0.25"></line><line x1="0" y1="200.62719685370982" x2="711.4" y2="200.62719685370982" fill="rgb(0, 0, 0)" stroke="rgb(60, 60, 60)" stroke-width="1px" opacity="0.25"></line><line x1="0" y1="171.6076964001079" x2="711.4" y2="171.6076964001079" fill="rgb(0, 0, 0)" stroke="rgb(60, 60, 60)" stroke-width="1px" opacity="0.25"></line><line x1="0" y1="142.58819594650603" x2="711.4" y2="142.58819594650603" fill="rgb(0, 0, 0)" stroke="rgb(60, 60, 60)" stroke-width="1px" opacity="0.25"></line><line x1="0" y1="113.56869549290415" x2="711.4" y2="113.56869549290415" fill="rgb(0, 0, 0)" stroke="rgb(60, 60, 60)" stroke-width="1px" opacity="0.25"></line><line x1="0" y1="84.54919503930228" x2="711.4" y2="84.54919503930228" fill="rgb(0, 0, 0)" stroke="rgb(60, 60, 60)" stroke-width="1px" opacity="0.25"></line><line x1="0" y1="55.5296945857004" x2="711.4" y2="55.5296945857004" fill="rgb(0, 0, 0)" stroke="rgb(60, 60, 60)" stroke-width="1px" opacity="0.25"></line><line x1="0" y1="26.510194132098512" x2="711.4" y2="26.510194132098512" fill="rgb(0, 0, 0)" stroke="rgb(60, 60, 60)" stroke-width="1px" opacity="0.25"></line></g></g></g><g><g><line x1="0" y1="2609.2457345026633" x2="711.4" y2="2609.2457345026633" fill="rgb(0, 0, 0)" stroke="rgb(153, 153, 153)" stroke-width="1.5px"></line></g></g><g><g><line x1="15.066176045890023" y1="0" x2="15.066176045890023" y2="378" fill="rgb(0, 0, 0)" stroke="rgb(153, 153, 153)" stroke-width="1.5px"></line></g></g><g><g><g><g><g><path stroke="rgb(204, 51, 17)" stroke-width="2px" d="M15.066176045890023,375.99275023184356L28.464312733140783,283.47350544697736L41.86244942039155,181.1755915513128L55.26058610764231,184.9364717734108L68.65872279489308,148.07922290592438L82.05685948214385,101.44330492763957L95.4549961693946,124.7613504016328L108.85313285664536,112.72629153333686L122.25126954389613,90.16049129164391L135.64940623114688,90.91273652394413L149.04754291839765,86.39961106954587L162.44567960564842,104.45211288713898L175.8438162928992,92.41705401884305L189.24195298014993,81.88648561514759L202.6400896674007,96.93017947324131L216.03822635465147,74.36455220124994L229.4363630419022,81.88648561514759L242.83449972915298,83.39080311004646L256.23263641640375,87.90392856444477L269.6307731036545,75.86886969614883L283.0289097909053,78.12543242334797L296.42704647815606,90.16049129164391L309.8251831654068,81.13424038284734L323.2233198526576,75.86886969614883L336.62145653990837,95.4258619783424L350.01959322715913,69.0991815145514L363.4177299144099,86.39961106954587L376.8158666016606,69.0991815145514L390.21400328891144,84.14304834234673L403.61213997616215,79.62992288794847L417.010276663413,78.8776776556482L430.4084133506637,87.15185630184612L443.8065500379144,85.6473658372456L457.20468672516523,82.63855787774624L470.60282341241594,67.59486401965253L484.00096009966677,84.89512060494538L497.3990967869175,87.15185630184612L510.7972334741683,76.62111492844906L524.195370161419,66.84261878735227L537.5935068486698,93.16929925114326L550.9916435359205,84.14304834234673L564.3897802231713,89.40841902904526L577.787916910422,95.4258619783424L591.1860535976729,69.85142674685166L604.5841902849236,94.67361674604217L617.9823269721744,69.85142674685166L631.3804636594251,88.656173796745L644.778600346676,80.38199515054711L658.1767370339267,95.4258619783424L671.5748737211775,91.6649817562444" style="fill: none;" fill="none"></path></g><g><path stroke="rgb(255, 112, 67)" stroke-width="2px" d="M15.066176045890023,216.52852292390034L28.464312733140783,189.4495972278091L41.86244942039155,149.58354040082327L55.26058610764231,137.54848153252738L68.65872279489308,78.12543242334797L82.05685948214385,60.82517583805513L95.4549961693946,65.3383012924534L108.85313285664536,47.28562650515871L122.25126954389613,54.05548765645773L135.64940623114688,48.037871737458936L149.04754291839765,36.002812869163L162.44567960564842,26.976561960366464L175.8438162928992,33.74625014196386L189.24195298014993,39.0116208286624L202.6400896674007,32.241932647065L216.03822635465147,26.224316728066242L229.4363630419022,35.250567636862776L242.83449972915298,39.76386606096266L256.23263641640375,29.2331246875656L269.6307731036545,25.472244465467597L283.0289097909053,25.472244465467597L296.42704647815606,23.215681738268465L309.8251831654068,32.994004909663644L323.2233198526576,35.250567636862776L336.62145653990837,33.74625014196386L350.01959322715913,31.48968741476473L363.4177299144099,25.472244465467597L376.8158666016606,24.719999233167332L390.21400328891144,27.728807192666732L403.61213997616215,29.985369919865864L417.010276663413,27.728807192666732L430.4084133506637,32.994004909663644L443.8065500379144,32.241932647065L457.20468672516523,23.215681738268465L470.60282341241594,36.75505810146326L484.00096009966677,31.48968741476473L497.3990967869175,31.48968741476473L510.7972334741683,29.985369919865864L524.195370161419,25.472244465467597L537.5935068486698,32.241932647065L550.9916435359205,16.445820586969443L564.3897802231713,29.985369919865864L577.787916910422,34.49849537426413L591.1860535976729,23.96775400086711L604.5841902849236,19.4546285464688L617.9823269721744,41.26818355586153L631.3804636594251,26.976561960366464L644.778600346676,27.728807192666732L658.1767370339267,23.215681738268465L671.5748737211775,31.48968741476473" style="fill: none;" fill="none"></path></g><g><path stroke="rgb(0, 119, 187)" stroke-width="2px" d="M15.066176045890023,248.12057407438982L28.464312733140783,184.1843995108122L41.86244942039155,143.56609745152613L55.26058610764231,104.45211288713898L68.65872279489308,73.61230696894971L82.05685948214385,72.86023470635106L95.4549961693946,48.7901169697592L108.85313285664536,42.77250105076044L122.25126954389613,42.020428788161794L135.64940623114688,39.76386606096266L149.04754291839765,23.96775400086711L162.44567960564842,20.95894604136771L175.8438162928992,25.472244465467597L189.24195298014993,32.241932647065L202.6400896674007,32.241932647065L216.03822635465147,20.95894604136771L229.4363630419022,25.472244465467597L242.83449972915298,28.480879455265377L256.23263641640375,38.259375596362176L269.6307731036545,27.728807192666732L283.0289097909053,35.250567636862776L296.42704647815606,19.4546285464688L309.8251831654068,34.49849537426413L323.2233198526576,36.75505810146326L336.62145653990837,38.259375596362176L350.01959322715913,32.994004909663644L363.4177299144099,24.719999233167332L376.8158666016606,27.728807192666732L390.21400328891144,26.224316728066242L403.61213997616215,27.728807192666732L417.010276663413,26.224316728066242L430.4084133506637,24.719999233167332L443.8065500379144,22.463436505968197L457.20468672516523,18.70238331416858L470.60282341241594,23.215681738268465L484.00096009966677,26.224316728066242L497.3990967869175,23.96775400086711L510.7972334741683,25.472244465467597L524.195370161419,29.2331246875656L537.5935068486698,30.73744218246451L550.9916435359205,32.994004909663644L564.3897802231713,27.728807192666732L577.787916910422,23.96775400086711L591.1860535976729,26.224316728066242L604.5841902849236,28.480879455265377L617.9823269721744,20.206873778769065L631.3804636594251,26.976561960366464L644.778600346676,36.002812869163L658.1767370339267,22.463436505968197L671.5748737211775,32.241932647065" style="fill: none;" fill="none"></path></g><g><path stroke="rgb(51, 187, 238)" stroke-width="2px" d="M15.066176045890023,211.26315223720184L28.464312733140783,142.81385221922585L41.86244942039155,107.46092084663833L55.26058610764231,108.96523834153724L68.65872279489308,66.09037355505204L82.05685948214385,71.35574424175057L95.4549961693946,51.798751959556974L108.85313285664536,15.693748324370798L122.25126954389613,29.985369919865864L135.64940623114688,24.719999233167332L149.04754291839765,23.96775400086711L162.44567960564842,29.2331246875656L175.8438162928992,31.48968741476473L189.24195298014993,30.73744218246451L202.6400896674007,23.96775400086711L216.03822635465147,26.224316728066242L229.4363630419022,23.96775400086711L242.83449972915298,27.728807192666732L256.23263641640375,23.96775400086711L269.6307731036545,27.728807192666732L283.0289097909053,19.4546285464688L296.42704647815606,22.463436505968197L309.8251831654068,19.4546285464688L323.2233198526576,23.215681738268465L336.62145653990837,21.711191273667975L350.01959322715913,23.96775400086711L363.4177299144099,30.73744218246451L376.8158666016606,27.728807192666732L390.21400328891144,29.985369919865864L403.61213997616215,21.711191273667975L417.010276663413,24.719999233167332L430.4084133506637,26.224316728066242L443.8065500379144,22.463436505968197L457.20468672516523,25.472244465467597L470.60282341241594,21.711191273667975L484.00096009966677,24.719999233167332L497.3990967869175,17.95031105156993L510.7972334741683,20.95894604136771L524.195370161419,28.480879455265377L537.5935068486698,23.215681738268465L550.9916435359205,23.96775400086711L564.3897802231713,20.95894604136771L577.787916910422,25.472244465467597L591.1860535976729,29.985369919865864L604.5841902849236,20.206873778769065L617.9823269721744,24.719999233167332L631.3804636594251,27.728807192666732L644.778600346676,22.463436505968197L658.1767370339267,17.198065819269665L671.5748737211775,19.4546285464688" style="fill: none;" fill="none"></path></g></g></g></g></g><g><g opacity="0.969173"><span fill="rgb(0, 0, 0)" stroke="none" stroke-width="1px">Alt + Scroll to Zoom</span></g></g></g><g transform="translate(50, 378)" clip-path="url(#clip_1)"><clipPath id="clip_1"><rect width="711" height="22"></rect></clipPath><g><g><line x1="15.066176045890023" y1="0" x2="15.066176045890023" y2="5" style="visibility: inherit;" fill="rgb(0, 0, 0)" stroke="rgb(204, 204, 204)" stroke-width="1px"></line><line x1="82.05685948214385" y1="0" x2="82.05685948214385" y2="5" style="visibility: inherit;" fill="rgb(0, 0, 0)" stroke="rgb(204, 204, 204)" stroke-width="1px"></line><line x1="149.04754291839765" y1="0" x2="149.04754291839765" y2="5" style="visibility: inherit;" fill="rgb(0, 0, 0)" stroke="rgb(204, 204, 204)" stroke-width="1px"></line><line x1="216.03822635465147" y1="0" x2="216.03822635465147" y2="5" style="visibility: inherit;" fill="rgb(0, 0, 0)" stroke="rgb(204, 204, 204)" stroke-width="1px"></line><line x1="283.0289097909053" y1="0" x2="283.0289097909053" y2="5" style="visibility: inherit;" fill="rgb(0, 0, 0)" stroke="rgb(204, 204, 204)" stroke-width="1px"></line><line x1="350.01959322715913" y1="0" x2="350.01959322715913" y2="5" style="visibility: inherit;" fill="rgb(0, 0, 0)" stroke="rgb(204, 204, 204)" stroke-width="1px"></line><line x1="417.010276663413" y1="0" x2="417.010276663413" y2="5" style="visibility: inherit;" fill="rgb(0, 0, 0)" stroke="rgb(204, 204, 204)" stroke-width="1px"></line><line x1="484.00096009966677" y1="0" x2="484.00096009966677" y2="5" style="visibility: inherit;" fill="rgb(0, 0, 0)" stroke="rgb(204, 204, 204)" stroke-width="1px"></line><line x1="550.9916435359205" y1="0" x2="550.9916435359205" y2="5" style="visibility: inherit;" fill="rgb(0, 0, 0)" stroke="rgb(204, 204, 204)" stroke-width="1px"></line><line x1="617.9823269721744" y1="0" x2="617.9823269721744" y2="5" style="visibility: inherit;" fill="rgb(0, 0, 0)" stroke="rgb(204, 204, 204)" stroke-width="1px"></line><line x1="684.9730104084282" y1="0" x2="684.9730104084282" y2="5" style="visibility: inherit;" fill="rgb(0, 0, 0)" stroke="rgb(204, 204, 204)" stroke-width="1px"></line></g><g transform="translate(0, 8)"><text x="15.066176045890023" y="0" dx="0em" dy="0.95em" style="text-anchor: middle; visibility: inherit; font-family: Roboto, sans-serif; font-size: 12px; font-weight: 200;" fill="rgb(50, 49, 63)" stroke="none" stroke-width="1px">0</text><text x="82.05685948214385" y="0" dx="0em" dy="0.95em" style="text-anchor: middle; visibility: inherit; font-family: Roboto, sans-serif; font-size: 12px; font-weight: 200;" fill="rgb(50, 49, 63)" stroke="none" stroke-width="1px">5</text><text x="149.04754291839765" y="0" dx="0em" dy="0.95em" style="text-anchor: middle; visibility: inherit; font-family: Roboto, sans-serif; font-size: 12px; font-weight: 200;" fill="rgb(50, 49, 63)" stroke="none" stroke-width="1px">10</text><text x="216.03822635465147" y="0" dx="0em" dy="0.95em" style="text-anchor: middle; visibility: inherit; font-family: Roboto, sans-serif; font-size: 12px; font-weight: 200;" fill="rgb(50, 49, 63)" stroke="none" stroke-width="1px">15</text><text x="283.0289097909053" y="0" dx="0em" dy="0.95em" style="text-anchor: middle; visibility: inherit; font-family: Roboto, sans-serif; font-size: 12px; font-weight: 200;" fill="rgb(50, 49, 63)" stroke="none" stroke-width="1px">20</text><text x="350.01959322715913" y="0" dx="0em" dy="0.95em" style="text-anchor: middle; visibility: inherit; font-family: Roboto, sans-serif; font-size: 12px; font-weight: 200;" fill="rgb(50, 49, 63)" stroke="none" stroke-width="1px">25</text><text x="417.010276663413" y="0" dx="0em" dy="0.95em" style="text-anchor: middle; visibility: inherit; font-family: Roboto, sans-serif; font-size: 12px; font-weight: 200;" fill="rgb(50, 49, 63)" stroke="none" stroke-width="1px">30</text><text x="484.00096009966677" y="0" dx="0em" dy="0.95em" style="text-anchor: middle; visibility: inherit; font-family: Roboto, sans-serif; font-size: 12px; font-weight: 200;" fill="rgb(50, 49, 63)" stroke="none" stroke-width="1px">35</text><text x="550.9916435359205" y="0" dx="0em" dy="0.95em" style="text-anchor: middle; visibility: inherit; font-family: Roboto, sans-serif; font-size: 12px; font-weight: 200;" fill="rgb(50, 49, 63)" stroke="none" stroke-width="1px">40</text><text x="617.9823269721744" y="0" dx="0em" dy="0.95em" style="text-anchor: middle; visibility: inherit; font-family: Roboto, sans-serif; font-size: 12px; font-weight: 200;" fill="rgb(50, 49, 63)" stroke="none" stroke-width="1px">45</text><text x="684.9730104084282" y="0" dx="0em" dy="0.95em" style="text-anchor: middle; visibility: inherit; font-family: Roboto, sans-serif; font-size: 12px; font-weight: 200;" fill="rgb(50, 49, 63)" stroke="none" stroke-width="1px">50</text></g><line x1="0" y1="0" x2="711.4" y2="0" fill="rgb(0, 0, 0)" stroke="rgb(204, 204, 204)" stroke-width="1px"></line></g></g></g></g></svg>