<svg viewBox="0 0 761.4000244140625 400" xmlns="http://www.w3.org/2000/svg"><g><g><g><g><g><line x1="40" y1="344.6443878576727" x2="35" y2="344.6443878576727" style="visibility: inherit;" fill="rgb(0, 0, 0)" stroke="rgb(204, 204, 204)" stroke-width="1px"></line><line x1="40" y1="299.2796746854984" x2="35" y2="299.2796746854984" style="visibility: inherit;" fill="rgb(0, 0, 0)" stroke="rgb(204, 204, 204)" stroke-width="1px"></line><line x1="40" y1="253.91496151332393" x2="35" y2="253.91496151332393" style="visibility: inherit;" fill="rgb(0, 0, 0)" stroke="rgb(204, 204, 204)" stroke-width="1px"></line><line x1="40" y1="208.55024834114954" x2="35" y2="208.55024834114954" style="visibility: inherit;" fill="rgb(0, 0, 0)" stroke="rgb(204, 204, 204)" stroke-width="1px"></line><line x1="40" y1="163.18553516897512" x2="35" y2="163.18553516897512" style="visibility: inherit;" fill="rgb(0, 0, 0)" stroke="rgb(204, 204, 204)" stroke-width="1px"></line><line x1="40" y1="117.8208219968007" x2="35" y2="117.8208219968007" style="visibility: inherit;" fill="rgb(0, 0, 0)" stroke="rgb(204, 204, 204)" stroke-width="1px"></line><line x1="40" y1="72.45610882462633" x2="35" y2="72.45610882462633" style="visibility: inherit;" fill="rgb(0, 0, 0)" stroke="rgb(204, 204, 204)" stroke-width="1px"></line><line x1="40" y1="27.0913956524519" x2="35" y2="27.0913956524519" style="visibility: inherit;" fill="rgb(0, 0, 0)" stroke="rgb(204, 204, 204)" stroke-width="1px"></line></g><g transform="translate(30, 0)"><text x="0" y="344.6443878576727" dx="0em" dy="0.3em" style="text-anchor: end; visibility: inherit; font-family: Roboto, sans-serif; font-size: 12px; font-weight: 200;" fill="rgb(50, 49, 63)" stroke="none" stroke-width="1px">0</text><text x="0" y="299.2796746854984" dx="0em" dy="0.3em" style="text-anchor: end; visibility: inherit; font-family: Roboto, sans-serif; font-size: 12px; font-weight: 200;" fill="rgb(50, 49, 63)" stroke="none" stroke-width="1px">0.5</text><text x="0" y="253.91496151332393" dx="0em" dy="0.3em" style="text-anchor: end; visibility: inherit; font-family: Roboto, sans-serif; font-size: 12px; font-weight: 200;" fill="rgb(50, 49, 63)" stroke="none" stroke-width="1px">1</text><text x="0" y="208.55024834114954" dx="0em" dy="0.3em" style="text-anchor: end; visibility: inherit; font-family: Roboto, sans-serif; font-size: 12px; font-weight: 200;" fill="rgb(50, 49, 63)" stroke="none" stroke-width="1px">1.5</text><text x="0" y="163.18553516897512" dx="0em" dy="0.3em" style="text-anchor: end; visibility: inherit; font-family: Roboto, sans-serif; font-size: 12px; font-weight: 200;" fill="rgb(50, 49, 63)" stroke="none" stroke-width="1px">2</text><text x="0" y="117.8208219968007" dx="0em" dy="0.3em" style="text-anchor: end; visibility: inherit; font-family: Roboto, sans-serif; font-size: 12px; font-weight: 200;" fill="rgb(50, 49, 63)" stroke="none" stroke-width="1px">2.5</text><text x="0" y="72.45610882462633" dx="0em" dy="0.3em" style="text-anchor: end; visibility: inherit; font-family: Roboto, sans-serif; font-size: 12px; font-weight: 200;" fill="rgb(50, 49, 63)" stroke="none" stroke-width="1px">3</text><text x="0" y="27.0913956524519" dx="0em" dy="0.3em" style="text-anchor: end; visibility: inherit; font-family: Roboto, sans-serif; font-size: 12px; font-weight: 200;" fill="rgb(50, 49, 63)" stroke="none" stroke-width="1px">3.5</text></g><line x1="40" y1="0" x2="40" y2="378" fill="rgb(0, 0, 0)" stroke="rgb(204, 204, 204)" stroke-width="1px"></line></g></g><g transform="translate(40, 0)" clip-path="url(#clip_0)"><clipPath id="clip_0"><rect width="721" height="378"></rect></clipPath><g><g><g><line x1="54.94341274213024" y1="0" x2="54.94341274213024" y2="378" fill="rgb(0, 0, 0)" stroke="rgb(60, 60, 60)" stroke-width="1px" opacity="0.25"></line><line x1="130.6982833032564" y1="0" x2="130.6982833032564" y2="378" fill="rgb(0, 0, 0)" stroke="rgb(60, 60, 60)" stroke-width="1px" opacity="0.25"></line><line x1="206.45315386438253" y1="0" x2="206.45315386438253" y2="378" fill="rgb(0, 0, 0)" stroke="rgb(60, 60, 60)" stroke-width="1px" opacity="0.25"></line><line x1="282.20802442550865" y1="0" x2="282.20802442550865" y2="378" fill="rgb(0, 0, 0)" stroke="rgb(60, 60, 60)" stroke-width="1px" opacity="0.25"></line><line x1="357.9628949866348" y1="0" x2="357.9628949866348" y2="378" fill="rgb(0, 0, 0)" stroke="rgb(60, 60, 60)" stroke-width="1px" opacity="0.25"></line><line x1="433.71776554776096" y1="0" x2="433.71776554776096" y2="378" fill="rgb(0, 0, 0)" stroke="rgb(60, 60, 60)" stroke-width="1px" opacity="0.25"></line><line x1="509.4726361088872" y1="0" x2="509.4726361088872" y2="378" fill="rgb(0, 0, 0)" stroke="rgb(60, 60, 60)" stroke-width="1px" opacity="0.25"></line><line x1="585.2275066700133" y1="0" x2="585.2275066700133" y2="378" fill="rgb(0, 0, 0)" stroke="rgb(60, 60, 60)" stroke-width="1px" opacity="0.25"></line><line x1="660.9823772311395" y1="0" x2="660.9823772311395" y2="378" fill="rgb(0, 0, 0)" stroke="rgb(60, 60, 60)" stroke-width="1px" opacity="0.25"></line></g><g><line x1="0" y1="344.6443878576727" x2="721.4" y2="344.6443878576727" fill="rgb(0, 0, 0)" stroke="rgb(60, 60, 60)" stroke-width="1px" opacity="0.25"></line><line x1="0" y1="299.2796746854984" x2="721.4" y2="299.2796746854984" fill="rgb(0, 0, 0)" stroke="rgb(60, 60, 60)" stroke-width="1px" opacity="0.25"></line><line x1="0" y1="253.91496151332393" x2="721.4" y2="253.91496151332393" fill="rgb(0, 0, 0)" stroke="rgb(60, 60, 60)" stroke-width="1px" opacity="0.25"></line><line x1="0" y1="208.55024834114954" x2="721.4" y2="208.55024834114954" fill="rgb(0, 0, 0)" stroke="rgb(60, 60, 60)" stroke-width="1px" opacity="0.25"></line><line x1="0" y1="163.18553516897512" x2="721.4" y2="163.18553516897512" fill="rgb(0, 0, 0)" stroke="rgb(60, 60, 60)" stroke-width="1px" opacity="0.25"></line><line x1="0" y1="117.8208219968007" x2="721.4" y2="117.8208219968007" fill="rgb(0, 0, 0)" stroke="rgb(60, 60, 60)" stroke-width="1px" opacity="0.25"></line><line x1="0" y1="72.45610882462633" x2="721.4" y2="72.45610882462633" fill="rgb(0, 0, 0)" stroke="rgb(60, 60, 60)" stroke-width="1px" opacity="0.25"></line><line x1="0" y1="27.0913956524519" x2="721.4" y2="27.0913956524519" fill="rgb(0, 0, 0)" stroke="rgb(60, 60, 60)" stroke-width="1px" opacity="0.25"></line></g></g></g><g><g><line x1="0" y1="344.6443878576727" x2="721.4" y2="344.6443878576727" fill="rgb(0, 0, 0)" stroke="rgb(153, 153, 153)" stroke-width="1.5px"></line></g></g><g><g><line x1="54.94341274213024" y1="0" x2="54.94341274213024" y2="378" fill="rgb(0, 0, 0)" stroke="rgb(153, 153, 153)" stroke-width="1.5px"></line></g></g><g><g><g><g><g><path stroke="rgb(0, 119, 187)" stroke-width="2px" d="M54.94341274213024,82.0245790619545L70.09438685435546,125.9287495225505L85.2453609665807,144.12982128064226L100.39633507880592,163.8289665431942L115.54730919103118,173.101419411536L130.6982833032564,182.44456428629724L145.84925741548165,181.59929944638137L161.00023152770686,179.7665637536359L176.1512056399321,178.9274314669085L191.30217975215731,182.3847421492859L206.45315386438253,173.85354947983646L221.60412797660777,164.6950625955281L236.75510208883298,197.05793019227573L251.9060762010582,203.57135062586087L267.05705031328347,200.50332187357077L282.20802442550865,193.85051834838097L297.3589985377339,192.06597781790686L312.50997264995914,194.17644137797788L327.6609467621844,202.90394064420113L342.8119208744096,204.45099886363593L357.9628949866348,178.86879906684726L373.11386909886005,208.32177558355994L388.26484321108535,199.97239635167355L403.41581732331053,202.55930629711565L418.5667914355358,195.714230464992L433.71776554776096,199.04820868880122L448.86873965998626,208.08362269351235L464.01971377221145,189.23306271854628L479.1706878844367,170.35731276760842L494.3216619966619,197.62629998073118L509.4726361088872,201.79434870133448L524.6236102211124,197.78300996864616L539.7745843333375,174.30230744164052L554.9255584455628,194.3491046568152L570.0765325577881,206.70377659452515" style="fill: none;" fill="none"></path></g><g><path stroke="rgb(255, 112, 67)" stroke-width="2px" d="M54.94341274213024,68.31238481675824L70.09438685435546,104.1519341765897L85.2453609665807,132.86816067903015L100.39633507880592,166.06265440392883L115.54730919103118,198.31091788500618L130.6982833032564,221.1763533561397L145.84925741548165,216.77365606159654L161.00023152770686,211.11385025815923L176.1512056399321,212.3000288132438L191.30217975215731,220.02863575191617L206.45315386438253,208.00649529177164L221.60412797660777,215.15280170388144L236.75510208883298,228.33435163773228L251.9060762010582,234.52987435823874L267.05705031328347,239.8487556307169L282.20802442550865,216.13526484572986L297.3589985377339,225.23596296163262L312.50997264995914,217.49117560043828L327.6609467621844,228.65970143043498L342.8119208744096,234.6219059192277L357.9628949866348,230.2992130266865L373.11386909886005,227.36075744405758L388.26484321108535,242.6489962271104L403.41581732331053,230.80042757220153L418.5667914355358,220.44907797430682L433.71776554776096,230.15067977635616L448.86873965998626,230.93059561033775L464.01971377221145,249.95883739091278L479.1706878844367,221.05041429207174L494.3216619966619,214.00621975765574L509.4726361088872,220.2280248489699L524.6236102211124,201.08349168941356L539.7745843333375,215.47931960195334L554.9255584455628,206.04620898218027L570.0765325577881,215.1245724907916" style="fill: none;" fill="none"></path></g></g></g></g></g></g><g transform="translate(40, 378)" clip-path="url(#clip_1)"><clipPath id="clip_1"><rect width="721" height="22"></rect></clipPath><g><g><line x1="54.94341274213024" y1="0" x2="54.94341274213024" y2="5" style="visibility: inherit;" fill="rgb(0, 0, 0)" stroke="rgb(204, 204, 204)" stroke-width="1px"></line><line x1="130.6982833032564" y1="0" x2="130.6982833032564" y2="5" style="visibility: inherit;" fill="rgb(0, 0, 0)" stroke="rgb(204, 204, 204)" stroke-width="1px"></line><line x1="206.45315386438253" y1="0" x2="206.45315386438253" y2="5" style="visibility: inherit;" fill="rgb(0, 0, 0)" stroke="rgb(204, 204, 204)" stroke-width="1px"></line><line x1="282.20802442550865" y1="0" x2="282.20802442550865" y2="5" style="visibility: inherit;" fill="rgb(0, 0, 0)" stroke="rgb(204, 204, 204)" stroke-width="1px"></line><line x1="357.9628949866348" y1="0" x2="357.9628949866348" y2="5" style="visibility: inherit;" fill="rgb(0, 0, 0)" stroke="rgb(204, 204, 204)" stroke-width="1px"></line><line x1="433.71776554776096" y1="0" x2="433.71776554776096" y2="5" style="visibility: inherit;" fill="rgb(0, 0, 0)" stroke="rgb(204, 204, 204)" stroke-width="1px"></line><line x1="509.4726361088872" y1="0" x2="509.4726361088872" y2="5" style="visibility: inherit;" fill="rgb(0, 0, 0)" stroke="rgb(204, 204, 204)" stroke-width="1px"></line><line x1="585.2275066700133" y1="0" x2="585.2275066700133" y2="5" style="visibility: inherit;" fill="rgb(0, 0, 0)" stroke="rgb(204, 204, 204)" stroke-width="1px"></line><line x1="660.9823772311395" y1="0" x2="660.9823772311395" y2="5" style="visibility: inherit;" fill="rgb(0, 0, 0)" stroke="rgb(204, 204, 204)" stroke-width="1px"></line></g><g transform="translate(0, 8)"><text x="54.94341274213024" y="0" dx="0em" dy="0.95em" style="text-anchor: middle; visibility: inherit; font-family: Roboto, sans-serif; font-size: 12px; font-weight: 200;" fill="rgb(50, 49, 63)" stroke="none" stroke-width="1px">0</text><text x="130.6982833032564" y="0" dx="0em" dy="0.95em" style="text-anchor: middle; visibility: inherit; font-family: Roboto, sans-serif; font-size: 12px; font-weight: 200;" fill="rgb(50, 49, 63)" stroke="none" stroke-width="1px">5</text><text x="206.45315386438253" y="0" dx="0em" dy="0.95em" style="text-anchor: middle; visibility: inherit; font-family: Roboto, sans-serif; font-size: 12px; font-weight: 200;" fill="rgb(50, 49, 63)" stroke="none" stroke-width="1px">10</text><text x="282.20802442550865" y="0" dx="0em" dy="0.95em" style="text-anchor: middle; visibility: inherit; font-family: Roboto, sans-serif; font-size: 12px; font-weight: 200;" fill="rgb(50, 49, 63)" stroke="none" stroke-width="1px">15</text><text x="357.9628949866348" y="0" dx="0em" dy="0.95em" style="text-anchor: middle; visibility: inherit; font-family: Roboto, sans-serif; font-size: 12px; font-weight: 200;" fill="rgb(50, 49, 63)" stroke="none" stroke-width="1px">20</text><text x="433.71776554776096" y="0" dx="0em" dy="0.95em" style="text-anchor: middle; visibility: inherit; font-family: Roboto, sans-serif; font-size: 12px; font-weight: 200;" fill="rgb(50, 49, 63)" stroke="none" stroke-width="1px">25</text><text x="509.4726361088872" y="0" dx="0em" dy="0.95em" style="text-anchor: middle; visibility: inherit; font-family: Roboto, sans-serif; font-size: 12px; font-weight: 200;" fill="rgb(50, 49, 63)" stroke="none" stroke-width="1px">30</text><text x="585.2275066700133" y="0" dx="0em" dy="0.95em" style="text-anchor: middle; visibility: inherit; font-family: Roboto, sans-serif; font-size: 12px; font-weight: 200;" fill="rgb(50, 49, 63)" stroke="none" stroke-width="1px">35</text><text x="660.9823772311395" y="0" dx="0em" dy="0.95em" style="text-anchor: middle; visibility: inherit; font-family: Roboto, sans-serif; font-size: 12px; font-weight: 200;" fill="rgb(50, 49, 63)" stroke="none" stroke-width="1px">40</text></g><line x1="0" y1="0" x2="721.4" y2="0" fill="rgb(0, 0, 0)" stroke="rgb(204, 204, 204)" stroke-width="1px"></line></g></g></g></g></svg>