<svg viewBox="0 0 761.4000244140625 400" xmlns="http://www.w3.org/2000/svg"><g><g><g><g><g><line x1="50" y1="364.2515707339118" x2="45" y2="364.2515707339118" style="visibility: inherit;" fill="rgb(0, 0, 0)" stroke="rgb(204, 204, 204)" stroke-width="1px"></line><line x1="50" y1="319.703843519159" x2="45" y2="319.703843519159" style="visibility: inherit;" fill="rgb(0, 0, 0)" stroke="rgb(204, 204, 204)" stroke-width="1px"></line><line x1="50" y1="275.1561163044063" x2="45" y2="275.1561163044063" style="visibility: inherit;" fill="rgb(0, 0, 0)" stroke="rgb(204, 204, 204)" stroke-width="1px"></line><line x1="50" y1="230.60838908965354" x2="45" y2="230.60838908965354" style="visibility: inherit;" fill="rgb(0, 0, 0)" stroke="rgb(204, 204, 204)" stroke-width="1px"></line><line x1="50" y1="186.06066187490077" x2="45" y2="186.06066187490077" style="visibility: inherit;" fill="rgb(0, 0, 0)" stroke="rgb(204, 204, 204)" stroke-width="1px"></line><line x1="50" y1="141.51293466014803" x2="45" y2="141.51293466014803" style="visibility: inherit;" fill="rgb(0, 0, 0)" stroke="rgb(204, 204, 204)" stroke-width="1px"></line><line x1="50" y1="96.96520744539531" x2="45" y2="96.96520744539531" style="visibility: inherit;" fill="rgb(0, 0, 0)" stroke="rgb(204, 204, 204)" stroke-width="1px"></line><line x1="50" y1="52.41748023064251" x2="45" y2="52.41748023064251" style="visibility: inherit;" fill="rgb(0, 0, 0)" stroke="rgb(204, 204, 204)" stroke-width="1px"></line><line x1="50" y1="7.869753015889797" x2="45" y2="7.869753015889797" style="visibility: inherit;" fill="rgb(0, 0, 0)" stroke="rgb(204, 204, 204)" stroke-width="1px"></line></g><g transform="translate(40, 0)"><text x="0" y="364.2515707339118" dx="0em" dy="0.3em" style="text-anchor: end; visibility: inherit; font-family: Roboto, sans-serif; font-size: 12px; font-weight: 200;" fill="rgb(50, 49, 63)" stroke="none" stroke-width="1px">0</text><text x="0" y="319.703843519159" dx="0em" dy="0.3em" style="text-anchor: end; visibility: inherit; font-family: Roboto, sans-serif; font-size: 12px; font-weight: 200;" fill="rgb(50, 49, 63)" stroke="none" stroke-width="1px">0.02</text><text x="0" y="275.1561163044063" dx="0em" dy="0.3em" style="text-anchor: end; visibility: inherit; font-family: Roboto, sans-serif; font-size: 12px; font-weight: 200;" fill="rgb(50, 49, 63)" stroke="none" stroke-width="1px">0.04</text><text x="0" y="230.60838908965354" dx="0em" dy="0.3em" style="text-anchor: end; visibility: inherit; font-family: Roboto, sans-serif; font-size: 12px; font-weight: 200;" fill="rgb(50, 49, 63)" stroke="none" stroke-width="1px">0.06</text><text x="0" y="186.06066187490077" dx="0em" dy="0.3em" style="text-anchor: end; visibility: inherit; font-family: Roboto, sans-serif; font-size: 12px; font-weight: 200;" fill="rgb(50, 49, 63)" stroke="none" stroke-width="1px">0.08</text><text x="0" y="141.51293466014803" dx="0em" dy="0.3em" style="text-anchor: end; visibility: inherit; font-family: Roboto, sans-serif; font-size: 12px; font-weight: 200;" fill="rgb(50, 49, 63)" stroke="none" stroke-width="1px">0.1</text><text x="0" y="96.96520744539531" dx="0em" dy="0.3em" style="text-anchor: end; visibility: inherit; font-family: Roboto, sans-serif; font-size: 12px; font-weight: 200;" fill="rgb(50, 49, 63)" stroke="none" stroke-width="1px">0.12</text><text x="0" y="52.41748023064251" dx="0em" dy="0.3em" style="text-anchor: end; visibility: inherit; font-family: Roboto, sans-serif; font-size: 12px; font-weight: 200;" fill="rgb(50, 49, 63)" stroke="none" stroke-width="1px">0.14</text><text x="0" y="7.869753015889797" dx="0em" dy="0.3em" style="text-anchor: end; visibility: inherit; font-family: Roboto, sans-serif; font-size: 12px; font-weight: 200;" fill="rgb(50, 49, 63)" stroke="none" stroke-width="1px">0.16</text></g><line x1="50" y1="0" x2="50" y2="378" fill="rgb(0, 0, 0)" stroke="rgb(204, 204, 204)" stroke-width="1px"></line></g></g><g transform="translate(50, 0)" clip-path="url(#clip_0)"><clipPath id="clip_0"><rect width="711" height="378"></rect></clipPath><g><g><g><line x1="22.56170358646933" y1="0" x2="22.56170358646933" y2="378" fill="rgb(0, 0, 0)" stroke="rgb(60, 60, 60)" stroke-width="1px" opacity="0.25"></line><line x1="106.40099760915363" y1="0" x2="106.40099760915363" y2="378" fill="rgb(0, 0, 0)" stroke="rgb(60, 60, 60)" stroke-width="1px" opacity="0.25"></line><line x1="190.24029163183795" y1="0" x2="190.24029163183795" y2="378" fill="rgb(0, 0, 0)" stroke="rgb(60, 60, 60)" stroke-width="1px" opacity="0.25"></line><line x1="274.0795856545223" y1="0" x2="274.0795856545223" y2="378" fill="rgb(0, 0, 0)" stroke="rgb(60, 60, 60)" stroke-width="1px" opacity="0.25"></line><line x1="357.91887967720663" y1="0" x2="357.91887967720663" y2="378" fill="rgb(0, 0, 0)" stroke="rgb(60, 60, 60)" stroke-width="1px" opacity="0.25"></line><line x1="441.75817369989096" y1="0" x2="441.75817369989096" y2="378" fill="rgb(0, 0, 0)" stroke="rgb(60, 60, 60)" stroke-width="1px" opacity="0.25"></line><line x1="525.5974677225752" y1="0" x2="525.5974677225752" y2="378" fill="rgb(0, 0, 0)" stroke="rgb(60, 60, 60)" stroke-width="1px" opacity="0.25"></line><line x1="609.4367617452596" y1="0" x2="609.4367617452596" y2="378" fill="rgb(0, 0, 0)" stroke="rgb(60, 60, 60)" stroke-width="1px" opacity="0.25"></line><line x1="693.276055767944" y1="0" x2="693.276055767944" y2="378" fill="rgb(0, 0, 0)" stroke="rgb(60, 60, 60)" stroke-width="1px" opacity="0.25"></line></g><g><line x1="0" y1="364.2515707339118" x2="711.4" y2="364.2515707339118" fill="rgb(0, 0, 0)" stroke="rgb(60, 60, 60)" stroke-width="1px" opacity="0.25"></line><line x1="0" y1="319.703843519159" x2="711.4" y2="319.703843519159" fill="rgb(0, 0, 0)" stroke="rgb(60, 60, 60)" stroke-width="1px" opacity="0.25"></line><line x1="0" y1="275.1561163044063" x2="711.4" y2="275.1561163044063" fill="rgb(0, 0, 0)" stroke="rgb(60, 60, 60)" stroke-width="1px" opacity="0.25"></line><line x1="0" y1="230.60838908965354" x2="711.4" y2="230.60838908965354" fill="rgb(0, 0, 0)" stroke="rgb(60, 60, 60)" stroke-width="1px" opacity="0.25"></line><line x1="0" y1="186.06066187490077" x2="711.4" y2="186.06066187490077" fill="rgb(0, 0, 0)" stroke="rgb(60, 60, 60)" stroke-width="1px" opacity="0.25"></line><line x1="0" y1="141.51293466014803" x2="711.4" y2="141.51293466014803" fill="rgb(0, 0, 0)" stroke="rgb(60, 60, 60)" stroke-width="1px" opacity="0.25"></line><line x1="0" y1="96.96520744539531" x2="711.4" y2="96.96520744539531" fill="rgb(0, 0, 0)" stroke="rgb(60, 60, 60)" stroke-width="1px" opacity="0.25"></line><line x1="0" y1="52.41748023064251" x2="711.4" y2="52.41748023064251" fill="rgb(0, 0, 0)" stroke="rgb(60, 60, 60)" stroke-width="1px" opacity="0.25"></line><line x1="0" y1="7.869753015889797" x2="711.4" y2="7.869753015889797" fill="rgb(0, 0, 0)" stroke="rgb(60, 60, 60)" stroke-width="1px" opacity="0.25"></line></g></g></g><g><g><line x1="0" y1="364.2515707339118" x2="711.4" y2="364.2515707339118" fill="rgb(0, 0, 0)" stroke="rgb(153, 153, 153)" stroke-width="1.5px"></line></g></g><g><g><line x1="22.56170358646933" y1="0" x2="22.56170358646933" y2="378" fill="rgb(0, 0, 0)" stroke="rgb(153, 153, 153)" stroke-width="1.5px"></line></g></g><g><g><g><g><g><path stroke="rgb(0, 119, 187)" stroke-width="2px" d="M22.56170358646933,230.3301134265423L30.94563298873776,173.51495122905115L39.32956239100619,211.77822000392197L47.71349179327463,179.8921516279819L56.097421195543056,114.38079198165644L64.48135059781148,169.45671468938073L72.86528000007992,201.92252403013592L81.24920940234834,201.92252403013592L89.63313880461678,176.41367264844817L98.01706820688521,185.10987009728245L106.40099760915363,226.85163444700856L114.78492701142207,163.6592552552651L123.1688564136905,186.26936862223423L131.55278581595894,202.5022815902726L139.93671521822736,237.86681235042482L148.3206446204958,260.4769340150547L156.70457402276423,247.14275906173498L165.08850342503266,233.808592406076L173.4724328273011,250.0414970764536L181.85636222956953,223.37315546747487L190.24029163183795,250.0414970764536L198.62422103410637,244.24402934467716L207.00815043637482,232.06935291630919L215.39207983864324,208.87948198920336L223.77600924091172,216.41619750840744L232.15993864318014,245.98326883444398L240.54386804544856,248.88199855150182L248.92779744771698,261.0566832775306L257.3117268499854,274.97059919566544L265.69565625225385,243.66428008220126L274.0795856545223,232.64909388112423L282.46351505679075,259.8971847525788L290.8474444590592,218.1554369981743L299.2313738613276,266.85414271164626L307.61530326359605,240.7655503651434L315.99923266586444,255.2592155457542L324.3831620681329,241.34529962761934L332.76709147040134,259.8971847525788L341.15102087266973,261.0566832775306L349.5349502749382,248.30225758668672L357.91887967720663,245.40351957196813L366.3028090794751,245.40351957196813L374.68673848174353,230.3301134265423L383.0706678840119,259.8971847525788L391.4545972862804,243.0845391173862L399.83852668854877,244.82377860715303L408.2224560908172,265.1149032218794L416.60638549308567,244.82377860715303L424.99031489535406,255.83895651056923L433.3742442976225,261.0566832775306" style="fill: none;" fill="none"></path></g><g><path stroke="rgb(255, 112, 67)" stroke-width="2px" d="M22.56170358646933,107.24545091069811L30.94563298873776,41.499715537399446L39.32956239100619,156.55476488716332L47.71349179327463,156.30573549121624L56.097421195543056,152.81920778070597L64.48135059781148,152.81920778070597L72.86528000007992,141.8615824526026L81.24920940234834,173.48927826653414L89.63313880461678,185.44305436906905L98.01706820688521,214.82940264286887L106.40099760915363,202.37756774843984L114.78492701142207,196.1516337059037L123.1688564136905,202.37756774843984L131.55278581595894,215.07844863413754L139.93671521822736,232.76006679667123L148.3206446204958,229.7716227710375L156.70457402276423,244.46480520559825L165.08850342503266,238.73695484793865L173.4724328273011,243.46865443116675L181.85636222956953,239.2350302351544L190.24029163183795,235.74851082230492L198.62422103410637,245.21191828642185L207.00815043637482,232.51102910306335L215.39207983864324,233.50717987749485L223.77600924091172,235.99754851591285L232.15993864318014,249.1965047888263L240.54386804544856,240.48021040553303L248.92779744771698,244.71384289920613L257.3117268499854,251.93591112085213L265.69565625225385,251.43783573363638L274.0795856545223,251.93591112085213L282.46351505679075,238.98599254154655L290.8474444590592,247.45324923123195L299.2313738613276,248.94746709521843L307.61530326359605,244.21576751199032L315.99923266586444,246.45709845680045L324.3831620681329,252.18494881446L332.76709147040134,249.1965047888263L341.15102087266973,252.93206189528362L349.5349502749382,246.70613615040833L357.91887967720663,243.9667298183825L366.3028090794751,247.45324923123195L374.68673848174353,249.44554248243418L383.0706678840119,251.43783573363638L391.4545972862804,243.46865443116675L399.83852668854877,259.407017036106L408.2224560908172,242.47251195439603L416.60638549308567,255.92050592091735L424.99031489535406,251.68687342724425L433.3742442976225,244.21576751199032" style="fill: none;" fill="none"></path></g></g></g></g></g></g><g transform="translate(50, 378)" clip-path="url(#clip_1)"><clipPath id="clip_1"><rect width="711" height="22"></rect></clipPath><g><g><line x1="22.56170358646933" y1="0" x2="22.56170358646933" y2="5" style="visibility: inherit;" fill="rgb(0, 0, 0)" stroke="rgb(204, 204, 204)" stroke-width="1px"></line><line x1="106.40099760915363" y1="0" x2="106.40099760915363" y2="5" style="visibility: inherit;" fill="rgb(0, 0, 0)" stroke="rgb(204, 204, 204)" stroke-width="1px"></line><line x1="190.24029163183795" y1="0" x2="190.24029163183795" y2="5" style="visibility: inherit;" fill="rgb(0, 0, 0)" stroke="rgb(204, 204, 204)" stroke-width="1px"></line><line x1="274.0795856545223" y1="0" x2="274.0795856545223" y2="5" style="visibility: inherit;" fill="rgb(0, 0, 0)" stroke="rgb(204, 204, 204)" stroke-width="1px"></line><line x1="357.91887967720663" y1="0" x2="357.91887967720663" y2="5" style="visibility: inherit;" fill="rgb(0, 0, 0)" stroke="rgb(204, 204, 204)" stroke-width="1px"></line><line x1="441.75817369989096" y1="0" x2="441.75817369989096" y2="5" style="visibility: inherit;" fill="rgb(0, 0, 0)" stroke="rgb(204, 204, 204)" stroke-width="1px"></line><line x1="525.5974677225752" y1="0" x2="525.5974677225752" y2="5" style="visibility: inherit;" fill="rgb(0, 0, 0)" stroke="rgb(204, 204, 204)" stroke-width="1px"></line><line x1="609.4367617452596" y1="0" x2="609.4367617452596" y2="5" style="visibility: inherit;" fill="rgb(0, 0, 0)" stroke="rgb(204, 204, 204)" stroke-width="1px"></line><line x1="693.276055767944" y1="0" x2="693.276055767944" y2="5" style="visibility: inherit;" fill="rgb(0, 0, 0)" stroke="rgb(204, 204, 204)" stroke-width="1px"></line></g><g transform="translate(0, 8)"><text x="22.56170358646933" y="0" dx="0em" dy="0.95em" style="text-anchor: middle; visibility: inherit; font-family: Roboto, sans-serif; font-size: 12px; font-weight: 200;" fill="rgb(50, 49, 63)" stroke="none" stroke-width="1px">0</text><text x="106.40099760915363" y="0" dx="0em" dy="0.95em" style="text-anchor: middle; visibility: inherit; font-family: Roboto, sans-serif; font-size: 12px; font-weight: 200;" fill="rgb(50, 49, 63)" stroke="none" stroke-width="1px">10</text><text x="190.24029163183795" y="0" dx="0em" dy="0.95em" style="text-anchor: middle; visibility: inherit; font-family: Roboto, sans-serif; font-size: 12px; font-weight: 200;" fill="rgb(50, 49, 63)" stroke="none" stroke-width="1px">20</text><text x="274.0795856545223" y="0" dx="0em" dy="0.95em" style="text-anchor: middle; visibility: inherit; font-family: Roboto, sans-serif; font-size: 12px; font-weight: 200;" fill="rgb(50, 49, 63)" stroke="none" stroke-width="1px">30</text><text x="357.91887967720663" y="0" dx="0em" dy="0.95em" style="text-anchor: middle; visibility: inherit; font-family: Roboto, sans-serif; font-size: 12px; font-weight: 200;" fill="rgb(50, 49, 63)" stroke="none" stroke-width="1px">40</text><text x="441.75817369989096" y="0" dx="0em" dy="0.95em" style="text-anchor: middle; visibility: inherit; font-family: Roboto, sans-serif; font-size: 12px; font-weight: 200;" fill="rgb(50, 49, 63)" stroke="none" stroke-width="1px">50</text><text x="525.5974677225752" y="0" dx="0em" dy="0.95em" style="text-anchor: middle; visibility: inherit; font-family: Roboto, sans-serif; font-size: 12px; font-weight: 200;" fill="rgb(50, 49, 63)" stroke="none" stroke-width="1px">60</text><text x="609.4367617452596" y="0" dx="0em" dy="0.95em" style="text-anchor: middle; visibility: inherit; font-family: Roboto, sans-serif; font-size: 12px; font-weight: 200;" fill="rgb(50, 49, 63)" stroke="none" stroke-width="1px">70</text><text x="693.276055767944" y="0" dx="0em" dy="0.95em" style="text-anchor: middle; visibility: inherit; font-family: Roboto, sans-serif; font-size: 12px; font-weight: 200;" fill="rgb(50, 49, 63)" stroke="none" stroke-width="1px">80</text></g><line x1="0" y1="0" x2="711.4" y2="0" fill="rgb(0, 0, 0)" stroke="rgb(204, 204, 204)" stroke-width="1px"></line></g></g></g></g></svg>