<svg viewBox="0 0 761.4000244140625 400" xmlns="http://www.w3.org/2000/svg"><g><g><g><g><g><line x1="40" y1="376.93851987688464" x2="35" y2="376.93851987688464" style="visibility: inherit;" fill="rgb(0, 0, 0)" stroke="rgb(204, 204, 204)" stroke-width="1px"></line><line x1="40" y1="351.2761612335092" x2="35" y2="351.2761612335092" style="visibility: inherit;" fill="rgb(0, 0, 0)" stroke="rgb(204, 204, 204)" stroke-width="1px"></line><line x1="40" y1="325.6138025901336" x2="35" y2="325.6138025901336" style="visibility: inherit;" fill="rgb(0, 0, 0)" stroke="rgb(204, 204, 204)" stroke-width="1px"></line><line x1="40" y1="299.9514439467582" x2="35" y2="299.9514439467582" style="visibility: inherit;" fill="rgb(0, 0, 0)" stroke="rgb(204, 204, 204)" stroke-width="1px"></line><line x1="40" y1="274.28908530338265" x2="35" y2="274.28908530338265" style="visibility: inherit;" fill="rgb(0, 0, 0)" stroke="rgb(204, 204, 204)" stroke-width="1px"></line><line x1="40" y1="248.6267266600072" x2="35" y2="248.6267266600072" style="visibility: inherit;" fill="rgb(0, 0, 0)" stroke="rgb(204, 204, 204)" stroke-width="1px"></line><line x1="40" y1="222.9643680166317" x2="35" y2="222.9643680166317" style="visibility: inherit;" fill="rgb(0, 0, 0)" stroke="rgb(204, 204, 204)" stroke-width="1px"></line><line x1="40" y1="197.30200937325623" x2="35" y2="197.30200937325623" style="visibility: inherit;" fill="rgb(0, 0, 0)" stroke="rgb(204, 204, 204)" stroke-width="1px"></line><line x1="40" y1="171.6396507298807" x2="35" y2="171.6396507298807" style="visibility: inherit;" fill="rgb(0, 0, 0)" stroke="rgb(204, 204, 204)" stroke-width="1px"></line><line x1="40" y1="145.97729208650526" x2="35" y2="145.97729208650526" style="visibility: inherit;" fill="rgb(0, 0, 0)" stroke="rgb(204, 204, 204)" stroke-width="1px"></line><line x1="40" y1="120.31493344312973" x2="35" y2="120.31493344312973" style="visibility: inherit;" fill="rgb(0, 0, 0)" stroke="rgb(204, 204, 204)" stroke-width="1px"></line><line x1="40" y1="94.65257479975425" x2="35" y2="94.65257479975425" style="visibility: inherit;" fill="rgb(0, 0, 0)" stroke="rgb(204, 204, 204)" stroke-width="1px"></line><line x1="40" y1="68.99021615637876" x2="35" y2="68.99021615637876" style="visibility: inherit;" fill="rgb(0, 0, 0)" stroke="rgb(204, 204, 204)" stroke-width="1px"></line><line x1="40" y1="43.32785751300328" x2="35" y2="43.32785751300328" style="visibility: inherit;" fill="rgb(0, 0, 0)" stroke="rgb(204, 204, 204)" stroke-width="1px"></line><line x1="40" y1="17.6654988696278" x2="35" y2="17.6654988696278" style="visibility: inherit;" fill="rgb(0, 0, 0)" stroke="rgb(204, 204, 204)" stroke-width="1px"></line></g><g transform="translate(30, 0)"><text x="0" y="376.93851987688464" dx="0em" dy="0.3em" style="text-anchor: end; visibility: hidden; font-family: Roboto, sans-serif; font-size: 12px; font-weight: 200;" fill="rgb(50, 49, 63)" stroke="none" stroke-width="1px">0</text><text x="0" y="351.2761612335092" dx="0em" dy="0.3em" style="text-anchor: end; visibility: inherit; font-family: Roboto, sans-serif; font-size: 12px; font-weight: 200;" fill="rgb(50, 49, 63)" stroke="none" stroke-width="1px">0.2</text><text x="0" y="325.6138025901336" dx="0em" dy="0.3em" style="text-anchor: end; visibility: inherit; font-family: Roboto, sans-serif; font-size: 12px; font-weight: 200;" fill="rgb(50, 49, 63)" stroke="none" stroke-width="1px">0.4</text><text x="0" y="299.9514439467582" dx="0em" dy="0.3em" style="text-anchor: end; visibility: inherit; font-family: Roboto, sans-serif; font-size: 12px; font-weight: 200;" fill="rgb(50, 49, 63)" stroke="none" stroke-width="1px">0.6</text><text x="0" y="274.28908530338265" dx="0em" dy="0.3em" style="text-anchor: end; visibility: inherit; font-family: Roboto, sans-serif; font-size: 12px; font-weight: 200;" fill="rgb(50, 49, 63)" stroke="none" stroke-width="1px">0.8</text><text x="0" y="248.6267266600072" dx="0em" dy="0.3em" style="text-anchor: end; visibility: inherit; font-family: Roboto, sans-serif; font-size: 12px; font-weight: 200;" fill="rgb(50, 49, 63)" stroke="none" stroke-width="1px">1</text><text x="0" y="222.9643680166317" dx="0em" dy="0.3em" style="text-anchor: end; visibility: inherit; font-family: Roboto, sans-serif; font-size: 12px; font-weight: 200;" fill="rgb(50, 49, 63)" stroke="none" stroke-width="1px">1.2</text><text x="0" y="197.30200937325623" dx="0em" dy="0.3em" style="text-anchor: end; visibility: inherit; font-family: Roboto, sans-serif; font-size: 12px; font-weight: 200;" fill="rgb(50, 49, 63)" stroke="none" stroke-width="1px">1.4</text><text x="0" y="171.6396507298807" dx="0em" dy="0.3em" style="text-anchor: end; visibility: inherit; font-family: Roboto, sans-serif; font-size: 12px; font-weight: 200;" fill="rgb(50, 49, 63)" stroke="none" stroke-width="1px">1.6</text><text x="0" y="145.97729208650526" dx="0em" dy="0.3em" style="text-anchor: end; visibility: inherit; font-family: Roboto, sans-serif; font-size: 12px; font-weight: 200;" fill="rgb(50, 49, 63)" stroke="none" stroke-width="1px">1.8</text><text x="0" y="120.31493344312973" dx="0em" dy="0.3em" style="text-anchor: end; visibility: inherit; font-family: Roboto, sans-serif; font-size: 12px; font-weight: 200;" fill="rgb(50, 49, 63)" stroke="none" stroke-width="1px">2</text><text x="0" y="94.65257479975425" dx="0em" dy="0.3em" style="text-anchor: end; visibility: inherit; font-family: Roboto, sans-serif; font-size: 12px; font-weight: 200;" fill="rgb(50, 49, 63)" stroke="none" stroke-width="1px">2.2</text><text x="0" y="68.99021615637876" dx="0em" dy="0.3em" style="text-anchor: end; visibility: inherit; font-family: Roboto, sans-serif; font-size: 12px; font-weight: 200;" fill="rgb(50, 49, 63)" stroke="none" stroke-width="1px">2.4</text><text x="0" y="43.32785751300328" dx="0em" dy="0.3em" style="text-anchor: end; visibility: inherit; font-family: Roboto, sans-serif; font-size: 12px; font-weight: 200;" fill="rgb(50, 49, 63)" stroke="none" stroke-width="1px">2.6</text><text x="0" y="17.6654988696278" dx="0em" dy="0.3em" style="text-anchor: end; visibility: inherit; font-family: Roboto, sans-serif; font-size: 12px; font-weight: 200;" fill="rgb(50, 49, 63)" stroke="none" stroke-width="1px">2.8</text></g><line x1="40" y1="0" x2="40" y2="378" fill="rgb(0, 0, 0)" stroke="rgb(204, 204, 204)" stroke-width="1px"></line></g></g><g transform="translate(40, 0)" clip-path="url(#clip_0)"><clipPath id="clip_0"><rect width="721" height="378"></rect></clipPath><g><g><g><line x1="8.365233850486293" y1="0" x2="8.365233850486293" y2="378" fill="rgb(0, 0, 0)" stroke="rgb(60, 60, 60)" stroke-width="1px" opacity="0.25"></line><line x1="79.92628173655423" y1="0" x2="79.92628173655423" y2="378" fill="rgb(0, 0, 0)" stroke="rgb(60, 60, 60)" stroke-width="1px" opacity="0.25"></line><line x1="151.48732962262218" y1="0" x2="151.48732962262218" y2="378" fill="rgb(0, 0, 0)" stroke="rgb(60, 60, 60)" stroke-width="1px" opacity="0.25"></line><line x1="223.04837750869012" y1="0" x2="223.04837750869012" y2="378" fill="rgb(0, 0, 0)" stroke="rgb(60, 60, 60)" stroke-width="1px" opacity="0.25"></line><line x1="294.6094253947581" y1="0" x2="294.6094253947581" y2="378" fill="rgb(0, 0, 0)" stroke="rgb(60, 60, 60)" stroke-width="1px" opacity="0.25"></line><line x1="366.170473280826" y1="0" x2="366.170473280826" y2="378" fill="rgb(0, 0, 0)" stroke="rgb(60, 60, 60)" stroke-width="1px" opacity="0.25"></line><line x1="437.7315211668939" y1="0" x2="437.7315211668939" y2="378" fill="rgb(0, 0, 0)" stroke="rgb(60, 60, 60)" stroke-width="1px" opacity="0.25"></line><line x1="509.2925690529619" y1="0" x2="509.2925690529619" y2="378" fill="rgb(0, 0, 0)" stroke="rgb(60, 60, 60)" stroke-width="1px" opacity="0.25"></line><line x1="580.8536169390298" y1="0" x2="580.8536169390298" y2="378" fill="rgb(0, 0, 0)" stroke="rgb(60, 60, 60)" stroke-width="1px" opacity="0.25"></line><line x1="652.4146648250978" y1="0" x2="652.4146648250978" y2="378" fill="rgb(0, 0, 0)" stroke="rgb(60, 60, 60)" stroke-width="1px" opacity="0.25"></line></g><g><line x1="0" y1="376.93851987688464" x2="721.4" y2="376.93851987688464" fill="rgb(0, 0, 0)" stroke="rgb(60, 60, 60)" stroke-width="1px" opacity="0.25"></line><line x1="0" y1="351.2761612335092" x2="721.4" y2="351.2761612335092" fill="rgb(0, 0, 0)" stroke="rgb(60, 60, 60)" stroke-width="1px" opacity="0.25"></line><line x1="0" y1="325.6138025901336" x2="721.4" y2="325.6138025901336" fill="rgb(0, 0, 0)" stroke="rgb(60, 60, 60)" stroke-width="1px" opacity="0.25"></line><line x1="0" y1="299.9514439467582" x2="721.4" y2="299.9514439467582" fill="rgb(0, 0, 0)" stroke="rgb(60, 60, 60)" stroke-width="1px" opacity="0.25"></line><line x1="0" y1="274.28908530338265" x2="721.4" y2="274.28908530338265" fill="rgb(0, 0, 0)" stroke="rgb(60, 60, 60)" stroke-width="1px" opacity="0.25"></line><line x1="0" y1="248.6267266600072" x2="721.4" y2="248.6267266600072" fill="rgb(0, 0, 0)" stroke="rgb(60, 60, 60)" stroke-width="1px" opacity="0.25"></line><line x1="0" y1="222.9643680166317" x2="721.4" y2="222.9643680166317" fill="rgb(0, 0, 0)" stroke="rgb(60, 60, 60)" stroke-width="1px" opacity="0.25"></line><line x1="0" y1="197.30200937325623" x2="721.4" y2="197.30200937325623" fill="rgb(0, 0, 0)" stroke="rgb(60, 60, 60)" stroke-width="1px" opacity="0.25"></line><line x1="0" y1="171.6396507298807" x2="721.4" y2="171.6396507298807" fill="rgb(0, 0, 0)" stroke="rgb(60, 60, 60)" stroke-width="1px" opacity="0.25"></line><line x1="0" y1="145.97729208650526" x2="721.4" y2="145.97729208650526" fill="rgb(0, 0, 0)" stroke="rgb(60, 60, 60)" stroke-width="1px" opacity="0.25"></line><line x1="0" y1="120.31493344312973" x2="721.4" y2="120.31493344312973" fill="rgb(0, 0, 0)" stroke="rgb(60, 60, 60)" stroke-width="1px" opacity="0.25"></line><line x1="0" y1="94.65257479975425" x2="721.4" y2="94.65257479975425" fill="rgb(0, 0, 0)" stroke="rgb(60, 60, 60)" stroke-width="1px" opacity="0.25"></line><line x1="0" y1="68.99021615637876" x2="721.4" y2="68.99021615637876" fill="rgb(0, 0, 0)" stroke="rgb(60, 60, 60)" stroke-width="1px" opacity="0.25"></line><line x1="0" y1="43.32785751300328" x2="721.4" y2="43.32785751300328" fill="rgb(0, 0, 0)" stroke="rgb(60, 60, 60)" stroke-width="1px" opacity="0.25"></line><line x1="0" y1="17.6654988696278" x2="721.4" y2="17.6654988696278" fill="rgb(0, 0, 0)" stroke="rgb(60, 60, 60)" stroke-width="1px" opacity="0.25"></line></g></g></g><g><g><line x1="0" y1="376.93851987688464" x2="721.4" y2="376.93851987688464" fill="rgb(0, 0, 0)" stroke="rgb(153, 153, 153)" stroke-width="1.5px"></line></g></g><g><g><line x1="8.365233850486293" y1="0" x2="8.365233850486293" y2="378" fill="rgb(0, 0, 0)" stroke="rgb(153, 153, 153)" stroke-width="1.5px"></line></g></g><g><g><g><g><g><path stroke="rgb(255, 112, 67)" stroke-width="2px" d="M8.365233850486293,18.592470617174754L22.677443427699885,155.78226712851702L36.98965300491347,196.04879932127935L51.30186258212706,229.20962495160444L65.61407215934065,243.69700774548954L79.92628173655423,246.8079608084556L94.23849131376782,251.65297835715208L108.55070089098142,251.4449456843122L122.862910468195,252.2942231442651L137.1751200454086,253.23561286154984L151.48732962262218,254.33432150388577L165.79953919983578,254.58324027168547L180.11174877704937,254.6985870887794L194.42395835426294,254.70680866604872L208.73616793147653,254.69672098193874L223.04837750869012,254.73977145491457L237.36058708590372,254.69704984502948L251.6727966631173,254.71636099163885L265.9850062403309,254.7033441316273L280.2972158175445,254.6768285889364L294.6094253947581,254.68151679997464L308.9216349719716,254.68046902687146L323.2338445491852,254.6820980463676L337.5460541263988,254.68253398116238L351.8582637036124,254.68279401244345L366.170473280826,254.68275577254914L380.48268285803954,254.6828551962743L394.7948924352532,254.68296226797827L409.1071020124667,254.68308463563994L423.4193115896804,254.68309993159764L437.7315211668939,254.68309993159764L452.04373074410756,254.68307698766108L466.3559403213211,254.68306933968222L480.66814989853475,254.68306933968222L494.9803594757483,254.68306933968222L509.2925690529619,254.68306933968222L523.6047786301755,254.68306933968222L537.9169882073891,254.68306933968222L552.2291977846027,254.68306933968222L566.5414073618163,254.68306933968222L580.8536169390298,254.68306933968222L595.1658265162434,254.68306933968222L609.478036093457,254.68306933968222L623.7902456706706,254.68306933968222L638.1024552478842,254.68306933968222L652.4146648250978,254.68306933968222L666.7268744023113,254.68306933968222L681.039083979525,254.68306933968222L695.3512935567385,254.68306933968222L709.6635031339522,254.68306933968222" style="fill: none;" fill="none"></path></g><g><path stroke="rgb(204, 51, 17)" stroke-width="2px" d="M8.365233850486293,3.920679757133435L22.677443427699885,91.786565085179L36.98965300491347,132.7534685895838L51.30186258212706,183.14321740209684L65.61407215934065,206.65622477830956L79.92628173655423,210.9719486543752L94.23849131376782,224.45596251033317L108.55070089098142,226.7273051586192L122.862910468195,229.5035520749669L137.1751200454086,233.46596991983844L151.48732962262218,230.2827740486063L165.79953919983578,231.03030279786984L180.11174877704937,228.72249458640223L194.42395835426294,231.40409011643817L208.73616793147653,232.6596129172208L223.04837750869012,231.87361483431573L237.36058708590372,231.79448884507997L251.6727966631173,231.63694048066316L265.9850062403309,232.45646730286938L280.2972158175445,232.3793603800514L294.6094253947581,232.562376514056L308.9216349719716,232.41951226904118L323.2338445491852,232.41252201636752L337.5460541263988,232.40343621748752L351.8582637036124,232.36284074572418L366.170473280826,232.44542362140248L380.48268285803954,232.445714244599L394.7948924352532,232.39886272613214L409.1071020124667,232.4405748028083L423.4193115896804,232.46019951655072L437.7315211668939,232.46067369123975L452.04373074410756,232.46596609260754L466.3559403213211,232.46830637413723L480.66814989853475,232.46619553197317L494.9803594757483,232.4740423582786L509.2925690529619,232.47197740398772L523.6047786301755,232.4746236046716L537.9169882073891,232.47398117444777L552.2291977846027,232.475923761077L566.5414073618163,232.4759849449078L580.8536169390298,232.47584728128842L595.1658265162434,232.47629086406204L609.478036093457,232.47636734385057L623.7902456706706,232.47652030342772L638.1024552478842,232.47659678321625L652.4146648250978,232.47658148725853L666.7268744023113,232.4766579670471L681.039083979525,232.47668855896254L695.3512935567385,232.47671915087793L709.6635031339522,232.47671915087793" style="fill: none;" fill="none"></path></g><g><path stroke="rgb(0, 119, 187)" stroke-width="2px" d="M8.365233850486293,52.78594164848464L22.677443427699885,107.2056858470336L36.98965300491347,122.49011040529074L51.30186258212706,193.4399972539871L65.61407215934065,208.11916076564484L79.92628173655423,214.417638455875L94.23849131376782,219.22168578184426L108.55070089098142,213.46933496570517L122.862910468195,215.86304527567418L137.1751200454086,222.53866009921128L151.48732962262218,223.19857360270979L165.79953919983578,223.7675832295356L180.11174877704937,222.8525331514281L194.42395835426294,222.73122091082712L208.73616793147653,222.80950562238883L223.04837750869012,222.67054184659014L237.36058708590372,222.28661330805977L251.6727966631173,222.81857612531107L265.9850062403309,224.11700408747132L280.2972158175445,222.7783630524905L294.6094253947581,223.1340705490452L308.9216349719716,222.79058452270107L323.2338445491852,222.8295586229471L337.5460541263988,223.1143540595565L351.8582637036124,222.96716105850962L366.170473280826,223.10722614326346L380.48268285803954,222.9093576343221L394.7948924352532,223.3618273593526L409.1071020124667,223.5255399947267L423.4193115896804,223.4650903698553L437.7315211668939,223.53968875560878L452.04373074410756,223.59891470386336L466.3559403213211,223.58358815423756L480.66814989853475,223.53347859677837L494.9803594757483,223.5246528291795L509.2925690529619,223.50744487675533L523.6047786301755,223.52017111357037L537.9169882073891,223.52662600772413L552.2291977846027,223.5150775596528L566.5414073618163,223.51926865206545L580.8536169390298,223.51464927283692L595.1658265162434,223.51038170063572L609.478036093457,223.52087472762506L623.7902456706706,223.52197603658018L638.1024552478842,223.52449986960235L652.4146648250978,223.52329148894327L666.7268744023113,223.5245304615178L681.039083979525,223.52397980704023L695.3512935567385,223.52352092830893L709.6635031339522,223.52365859192835" style="fill: none;" fill="none"></path></g><g><path stroke="rgb(238, 51, 119)" stroke-width="2px" d="M8.365233850486293,333.69731013238743L22.677443427699885,340.93323883079194L36.98965300491347,345.17279839743355L51.30186258212706,347.7262864576557L65.61407215934065,348.18973676832746L79.92628173655423,348.796005436141L94.23849131376782,348.8435586566679L108.55070089098142,348.7572665112448L122.862910468195,348.8516980181645L137.1751200454086,348.86062320948844L151.48732962262218,348.9195967744408L165.79953919983578,348.8990390072781L180.11174877704937,348.9438313074382L194.42395835426294,348.9568290475026L208.73616793147653,348.9579246204736L223.04837750869012,348.95792270847886L237.36058708590372,348.9607352527029L251.6727966631173,348.96408697943616L265.9850062403309,348.96501620886704L280.2972158175445,348.96532404001596L294.6094253947581,348.9660467740178L308.9216349719716,348.9660142701077L323.2338445491852,348.9660831019173L337.5460541263988,348.96623032551025L351.8582637036124,348.9663565171614L366.170473280826,348.9664253489711L380.48268285803954,348.9664635888654L394.7948924352532,348.96645976487594L409.1071020124667,348.9664635888654L423.4193115896804,348.9664635888654L437.7315211668939,348.9664655008601L452.04373074410756,348.9664655008601L466.3559403213211,348.9664655008601L480.66814989853475,348.9664655008601L494.9803594757483,348.9664655008601L509.2925690529619,348.9664655008601L523.6047786301755,348.9664655008601L537.9169882073891,348.9664655008601L552.2291977846027,348.9664655008601L566.5414073618163,348.9664655008601L580.8536169390298,348.9664655008601L595.1658265162434,348.9664655008601L609.478036093457,348.9664655008601L623.7902456706706,348.9664655008601L638.1024552478842,348.9664655008601L652.4146648250978,348.9664655008601L666.7268744023113,348.9664655008601L681.039083979525,348.9664655008601L695.3512935567385,348.9664655008601L709.6635031339522,348.9664655008601" style="fill: none;" fill="none"></path></g><g><path stroke="rgb(51, 187, 238)" stroke-width="2px" d="M8.365233850486293,331.174199844178L22.677443427699885,339.8412948257534L36.98965300491347,341.0563980582864L51.30186258212706,345.130640825989L65.61407215934065,345.6190962035279L79.92628173655423,346.2028434856076L94.23849131376782,347.21562134952137L108.55070089098142,347.42140169258846L122.862910468195,347.0388650862098L137.1751200454086,347.051750018586L151.48732962262218,347.3514819578996L165.79953919983578,347.3589272653151L180.11174877704937,347.0308557403537L194.42395835426294,347.16621349412213L208.73616793147653,347.16622879007986L223.04837750869012,347.16055972575344L237.36058708590372,347.1798861683205L251.6727966631173,347.2050843466537L265.9850062403309,347.135724826416L280.2972158175445,347.1763298581529L294.6094253947581,347.1766568092489L308.9216349719716,347.1941152329806L323.2338445491852,347.1935053066669L337.5460541263988,347.1903811073045L351.8582637036124,347.1859433675738L366.170473280826,347.1884002807811L380.48268285803954,347.18281152023263L394.7948924352532,347.18507723396846L409.1071020124667,347.1829568318309L423.4193115896804,347.18316141526526L437.7315211668939,347.1813411962977L452.04373074410756,347.1822646897445L466.3559403213211,347.1819530346061L480.66814989853475,347.1810888129955L494.9803594757483,347.1809779173021L509.2925690529619,347.1805916943699L523.6047786301755,347.1805266865496L537.9169882073891,347.1804100548721L552.2291977846027,347.18032019112053L566.5414073618163,347.1803412230624L580.8536169390298,347.1802819512263L595.1658265162434,347.180270479258L609.478036093457,347.1802762152421L623.7902456706706,347.1802685672633L638.1024552478842,347.1802762152421L652.4146648250978,347.1802723912527L666.7268744023113,347.1802723912527L681.039083979525,347.1802743032474L695.3512935567385,347.1802781272368L709.6635031339522,347.1802762152421" style="fill: none;" fill="none"></path></g></g></g></g></g></g><g transform="translate(40, 378)" clip-path="url(#clip_1)"><clipPath id="clip_1"><rect width="721" height="22"></rect></clipPath><g><g><line x1="8.365233850486293" y1="0" x2="8.365233850486293" y2="5" style="visibility: inherit;" fill="rgb(0, 0, 0)" stroke="rgb(204, 204, 204)" stroke-width="1px"></line><line x1="79.92628173655423" y1="0" x2="79.92628173655423" y2="5" style="visibility: inherit;" fill="rgb(0, 0, 0)" stroke="rgb(204, 204, 204)" stroke-width="1px"></line><line x1="151.48732962262218" y1="0" x2="151.48732962262218" y2="5" style="visibility: inherit;" fill="rgb(0, 0, 0)" stroke="rgb(204, 204, 204)" stroke-width="1px"></line><line x1="223.04837750869012" y1="0" x2="223.04837750869012" y2="5" style="visibility: inherit;" fill="rgb(0, 0, 0)" stroke="rgb(204, 204, 204)" stroke-width="1px"></line><line x1="294.6094253947581" y1="0" x2="294.6094253947581" y2="5" style="visibility: inherit;" fill="rgb(0, 0, 0)" stroke="rgb(204, 204, 204)" stroke-width="1px"></line><line x1="366.170473280826" y1="0" x2="366.170473280826" y2="5" style="visibility: inherit;" fill="rgb(0, 0, 0)" stroke="rgb(204, 204, 204)" stroke-width="1px"></line><line x1="437.7315211668939" y1="0" x2="437.7315211668939" y2="5" style="visibility: inherit;" fill="rgb(0, 0, 0)" stroke="rgb(204, 204, 204)" stroke-width="1px"></line><line x1="509.2925690529619" y1="0" x2="509.2925690529619" y2="5" style="visibility: inherit;" fill="rgb(0, 0, 0)" stroke="rgb(204, 204, 204)" stroke-width="1px"></line><line x1="580.8536169390298" y1="0" x2="580.8536169390298" y2="5" style="visibility: inherit;" fill="rgb(0, 0, 0)" stroke="rgb(204, 204, 204)" stroke-width="1px"></line><line x1="652.4146648250978" y1="0" x2="652.4146648250978" y2="5" style="visibility: inherit;" fill="rgb(0, 0, 0)" stroke="rgb(204, 204, 204)" stroke-width="1px"></line></g><g transform="translate(0, 8)"><text x="8.365233850486293" y="0" dx="0em" dy="0.95em" style="text-anchor: middle; visibility: inherit; font-family: Roboto, sans-serif; font-size: 12px; font-weight: 200;" fill="rgb(50, 49, 63)" stroke="none" stroke-width="1px">0</text><text x="79.92628173655423" y="0" dx="0em" dy="0.95em" style="text-anchor: middle; visibility: inherit; font-family: Roboto, sans-serif; font-size: 12px; font-weight: 200;" fill="rgb(50, 49, 63)" stroke="none" stroke-width="1px">5</text><text x="151.48732962262218" y="0" dx="0em" dy="0.95em" style="text-anchor: middle; visibility: inherit; font-family: Roboto, sans-serif; font-size: 12px; font-weight: 200;" fill="rgb(50, 49, 63)" stroke="none" stroke-width="1px">10</text><text x="223.04837750869012" y="0" dx="0em" dy="0.95em" style="text-anchor: middle; visibility: inherit; font-family: Roboto, sans-serif; font-size: 12px; font-weight: 200;" fill="rgb(50, 49, 63)" stroke="none" stroke-width="1px">15</text><text x="294.6094253947581" y="0" dx="0em" dy="0.95em" style="text-anchor: middle; visibility: inherit; font-family: Roboto, sans-serif; font-size: 12px; font-weight: 200;" fill="rgb(50, 49, 63)" stroke="none" stroke-width="1px">20</text><text x="366.170473280826" y="0" dx="0em" dy="0.95em" style="text-anchor: middle; visibility: inherit; font-family: Roboto, sans-serif; font-size: 12px; font-weight: 200;" fill="rgb(50, 49, 63)" stroke="none" stroke-width="1px">25</text><text x="437.7315211668939" y="0" dx="0em" dy="0.95em" style="text-anchor: middle; visibility: inherit; font-family: Roboto, sans-serif; font-size: 12px; font-weight: 200;" fill="rgb(50, 49, 63)" stroke="none" stroke-width="1px">30</text><text x="509.2925690529619" y="0" dx="0em" dy="0.95em" style="text-anchor: middle; visibility: inherit; font-family: Roboto, sans-serif; font-size: 12px; font-weight: 200;" fill="rgb(50, 49, 63)" stroke="none" stroke-width="1px">35</text><text x="580.8536169390298" y="0" dx="0em" dy="0.95em" style="text-anchor: middle; visibility: inherit; font-family: Roboto, sans-serif; font-size: 12px; font-weight: 200;" fill="rgb(50, 49, 63)" stroke="none" stroke-width="1px">40</text><text x="652.4146648250978" y="0" dx="0em" dy="0.95em" style="text-anchor: middle; visibility: inherit; font-family: Roboto, sans-serif; font-size: 12px; font-weight: 200;" fill="rgb(50, 49, 63)" stroke="none" stroke-width="1px">45</text></g><line x1="0" y1="0" x2="721.4" y2="0" fill="rgb(0, 0, 0)" stroke="rgb(204, 204, 204)" stroke-width="1px"></line></g></g></g></g></svg>