<svg viewBox="0 0 738.6000366210938 400" xmlns="http://www.w3.org/2000/svg"><g><g><g><g><g><line x1="51.5625" y1="369.0974215159652" x2="46.5625" y2="369.0974215159652" style="visibility: inherit;" fill="rgb(0, 0, 0)" stroke="rgb(204, 204, 204)" stroke-width="1px"></line><line x1="51.5625" y1="340.723401212768" x2="46.5625" y2="340.723401212768" style="visibility: inherit;" fill="rgb(0, 0, 0)" stroke="rgb(204, 204, 204)" stroke-width="1px"></line><line x1="51.5625" y1="312.3493809095711" x2="46.5625" y2="312.3493809095711" style="visibility: inherit;" fill="rgb(0, 0, 0)" stroke="rgb(204, 204, 204)" stroke-width="1px"></line><line x1="51.5625" y1="283.97536060637384" x2="46.5625" y2="283.97536060637384" style="visibility: inherit;" fill="rgb(0, 0, 0)" stroke="rgb(204, 204, 204)" stroke-width="1px"></line><line x1="51.5625" y1="255.6013403031766" x2="46.5625" y2="255.6013403031766" style="visibility: inherit;" fill="rgb(0, 0, 0)" stroke="rgb(204, 204, 204)" stroke-width="1px"></line><line x1="51.5625" y1="227.22731999997941" x2="46.5625" y2="227.22731999997941" style="visibility: inherit;" fill="rgb(0, 0, 0)" stroke="rgb(204, 204, 204)" stroke-width="1px"></line><line x1="51.5625" y1="198.85329969678216" x2="46.5625" y2="198.85329969678216" style="visibility: inherit;" fill="rgb(0, 0, 0)" stroke="rgb(204, 204, 204)" stroke-width="1px"></line><line x1="51.5625" y1="170.4792793935849" x2="46.5625" y2="170.4792793935849" style="visibility: inherit;" fill="rgb(0, 0, 0)" stroke="rgb(204, 204, 204)" stroke-width="1px"></line><line x1="51.5625" y1="142.10525909038768" x2="46.5625" y2="142.10525909038768" style="visibility: inherit;" fill="rgb(0, 0, 0)" stroke="rgb(204, 204, 204)" stroke-width="1px"></line><line x1="51.5625" y1="113.73123878719048" x2="46.5625" y2="113.73123878719048" style="visibility: inherit;" fill="rgb(0, 0, 0)" stroke="rgb(204, 204, 204)" stroke-width="1px"></line><line x1="51.5625" y1="85.35721848399322" x2="46.5625" y2="85.35721848399322" style="visibility: inherit;" fill="rgb(0, 0, 0)" stroke="rgb(204, 204, 204)" stroke-width="1px"></line><line x1="51.5625" y1="56.983198180796016" x2="46.5625" y2="56.983198180796016" style="visibility: inherit;" fill="rgb(0, 0, 0)" stroke="rgb(204, 204, 204)" stroke-width="1px"></line><line x1="51.5625" y1="28.609177877598764" x2="46.5625" y2="28.609177877598764" style="visibility: inherit;" fill="rgb(0, 0, 0)" stroke="rgb(204, 204, 204)" stroke-width="1px"></line><line x1="51.5625" y1="0.2351575744015557" x2="46.5625" y2="0.2351575744015557" style="visibility: inherit;" fill="rgb(0, 0, 0)" stroke="rgb(204, 204, 204)" stroke-width="1px"></line></g><g transform="translate(41.5625, 0)"><text x="0" y="369.0974215159652" dx="0em" dy="0.3em" style="text-anchor: end; visibility: inherit; font-family: Roboto, sans-serif; font-size: 12px; font-weight: 200;" fill="rgb(50, 49, 63)" stroke="none" stroke-width="1px">0.8</text><text x="0" y="340.723401212768" dx="0em" dy="0.3em" style="text-anchor: end; visibility: inherit; font-family: Roboto, sans-serif; font-size: 12px; font-weight: 200;" fill="rgb(50, 49, 63)" stroke="none" stroke-width="1px">0.81</text><text x="0" y="312.3493809095711" dx="0em" dy="0.3em" style="text-anchor: end; visibility: inherit; font-family: Roboto, sans-serif; font-size: 12px; font-weight: 200;" fill="rgb(50, 49, 63)" stroke="none" stroke-width="1px">0.82</text><text x="0" y="283.97536060637384" dx="0em" dy="0.3em" style="text-anchor: end; visibility: inherit; font-family: Roboto, sans-serif; font-size: 12px; font-weight: 200;" fill="rgb(50, 49, 63)" stroke="none" stroke-width="1px">0.83</text><text x="0" y="255.6013403031766" dx="0em" dy="0.3em" style="text-anchor: end; visibility: inherit; font-family: Roboto, sans-serif; font-size: 12px; font-weight: 200;" fill="rgb(50, 49, 63)" stroke="none" stroke-width="1px">0.84</text><text x="0" y="227.22731999997941" dx="0em" dy="0.3em" style="text-anchor: end; visibility: inherit; font-family: Roboto, sans-serif; font-size: 12px; font-weight: 200;" fill="rgb(50, 49, 63)" stroke="none" stroke-width="1px">0.85</text><text x="0" y="198.85329969678216" dx="0em" dy="0.3em" style="text-anchor: end; visibility: inherit; font-family: Roboto, sans-serif; font-size: 12px; font-weight: 200;" fill="rgb(50, 49, 63)" stroke="none" stroke-width="1px">0.86</text><text x="0" y="170.4792793935849" dx="0em" dy="0.3em" style="text-anchor: end; visibility: inherit; font-family: Roboto, sans-serif; font-size: 12px; font-weight: 200;" fill="rgb(50, 49, 63)" stroke="none" stroke-width="1px">0.87</text><text x="0" y="142.10525909038768" dx="0em" dy="0.3em" style="text-anchor: end; visibility: inherit; font-family: Roboto, sans-serif; font-size: 12px; font-weight: 200;" fill="rgb(50, 49, 63)" stroke="none" stroke-width="1px">0.88</text><text x="0" y="113.73123878719048" dx="0em" dy="0.3em" style="text-anchor: end; visibility: inherit; font-family: Roboto, sans-serif; font-size: 12px; font-weight: 200;" fill="rgb(50, 49, 63)" stroke="none" stroke-width="1px">0.89</text><text x="0" y="85.35721848399322" dx="0em" dy="0.3em" style="text-anchor: end; visibility: inherit; font-family: Roboto, sans-serif; font-size: 12px; font-weight: 200;" fill="rgb(50, 49, 63)" stroke="none" stroke-width="1px">0.9</text><text x="0" y="56.983198180796016" dx="0em" dy="0.3em" style="text-anchor: end; visibility: inherit; font-family: Roboto, sans-serif; font-size: 12px; font-weight: 200;" fill="rgb(50, 49, 63)" stroke="none" stroke-width="1px">0.91</text><text x="0" y="28.609177877598764" dx="0em" dy="0.3em" style="text-anchor: end; visibility: inherit; font-family: Roboto, sans-serif; font-size: 12px; font-weight: 200;" fill="rgb(50, 49, 63)" stroke="none" stroke-width="1px">0.92</text><text x="0" y="0.2351575744015557" dx="0em" dy="0.3em" style="text-anchor: end; visibility: hidden; font-family: Roboto, sans-serif; font-size: 12px; font-weight: 200;" fill="rgb(50, 49, 63)" stroke="none" stroke-width="1px">0.93</text></g><line x1="51.5625" y1="0" x2="51.5625" y2="378" fill="rgb(0, 0, 0)" stroke="rgb(204, 204, 204)" stroke-width="1px"></line></g></g><g transform="translate(51, 0)" clip-path="url(#clip_0)"><clipPath id="clip_0"><rect width="687" height="378"></rect></clipPath><g><g><g><line x1="66.04276853285683" y1="0" x2="66.04276853285683" y2="378" fill="rgb(0, 0, 0)" stroke="rgb(60, 60, 60)" stroke-width="1px" opacity="0.25"></line><line x1="135.2224346538391" y1="0" x2="135.2224346538391" y2="378" fill="rgb(0, 0, 0)" stroke="rgb(60, 60, 60)" stroke-width="1px" opacity="0.25"></line><line x1="204.40210077482132" y1="0" x2="204.40210077482132" y2="378" fill="rgb(0, 0, 0)" stroke="rgb(60, 60, 60)" stroke-width="1px" opacity="0.25"></line><line x1="273.5817668958036" y1="0" x2="273.5817668958036" y2="378" fill="rgb(0, 0, 0)" stroke="rgb(60, 60, 60)" stroke-width="1px" opacity="0.25"></line><line x1="342.7614330167858" y1="0" x2="342.7614330167858" y2="378" fill="rgb(0, 0, 0)" stroke="rgb(60, 60, 60)" stroke-width="1px" opacity="0.25"></line><line x1="411.94109913776805" y1="0" x2="411.94109913776805" y2="378" fill="rgb(0, 0, 0)" stroke="rgb(60, 60, 60)" stroke-width="1px" opacity="0.25"></line><line x1="481.12076525875034" y1="0" x2="481.12076525875034" y2="378" fill="rgb(0, 0, 0)" stroke="rgb(60, 60, 60)" stroke-width="1px" opacity="0.25"></line><line x1="550.3004313797326" y1="0" x2="550.3004313797326" y2="378" fill="rgb(0, 0, 0)" stroke="rgb(60, 60, 60)" stroke-width="1px" opacity="0.25"></line><line x1="619.4800975007148" y1="0" x2="619.4800975007148" y2="378" fill="rgb(0, 0, 0)" stroke="rgb(60, 60, 60)" stroke-width="1px" opacity="0.25"></line></g><g><line x1="0" y1="369.0974215159652" x2="687.0375" y2="369.0974215159652" fill="rgb(0, 0, 0)" stroke="rgb(60, 60, 60)" stroke-width="1px" opacity="0.25"></line><line x1="0" y1="340.723401212768" x2="687.0375" y2="340.723401212768" fill="rgb(0, 0, 0)" stroke="rgb(60, 60, 60)" stroke-width="1px" opacity="0.25"></line><line x1="0" y1="312.3493809095711" x2="687.0375" y2="312.3493809095711" fill="rgb(0, 0, 0)" stroke="rgb(60, 60, 60)" stroke-width="1px" opacity="0.25"></line><line x1="0" y1="283.97536060637384" x2="687.0375" y2="283.97536060637384" fill="rgb(0, 0, 0)" stroke="rgb(60, 60, 60)" stroke-width="1px" opacity="0.25"></line><line x1="0" y1="255.6013403031766" x2="687.0375" y2="255.6013403031766" fill="rgb(0, 0, 0)" stroke="rgb(60, 60, 60)" stroke-width="1px" opacity="0.25"></line><line x1="0" y1="227.22731999997941" x2="687.0375" y2="227.22731999997941" fill="rgb(0, 0, 0)" stroke="rgb(60, 60, 60)" stroke-width="1px" opacity="0.25"></line><line x1="0" y1="198.85329969678216" x2="687.0375" y2="198.85329969678216" fill="rgb(0, 0, 0)" stroke="rgb(60, 60, 60)" stroke-width="1px" opacity="0.25"></line><line x1="0" y1="170.4792793935849" x2="687.0375" y2="170.4792793935849" fill="rgb(0, 0, 0)" stroke="rgb(60, 60, 60)" stroke-width="1px" opacity="0.25"></line><line x1="0" y1="142.10525909038768" x2="687.0375" y2="142.10525909038768" fill="rgb(0, 0, 0)" stroke="rgb(60, 60, 60)" stroke-width="1px" opacity="0.25"></line><line x1="0" y1="113.73123878719048" x2="687.0375" y2="113.73123878719048" fill="rgb(0, 0, 0)" stroke="rgb(60, 60, 60)" stroke-width="1px" opacity="0.25"></line><line x1="0" y1="85.35721848399322" x2="687.0375" y2="85.35721848399322" fill="rgb(0, 0, 0)" stroke="rgb(60, 60, 60)" stroke-width="1px" opacity="0.25"></line><line x1="0" y1="56.983198180796016" x2="687.0375" y2="56.983198180796016" fill="rgb(0, 0, 0)" stroke="rgb(60, 60, 60)" stroke-width="1px" opacity="0.25"></line><line x1="0" y1="28.609177877598764" x2="687.0375" y2="28.609177877598764" fill="rgb(0, 0, 0)" stroke="rgb(60, 60, 60)" stroke-width="1px" opacity="0.25"></line><line x1="0" y1="0.2351575744015557" x2="687.0375" y2="0.2351575744015557" fill="rgb(0, 0, 0)" stroke="rgb(60, 60, 60)" stroke-width="1px" opacity="0.25"></line></g></g></g><g><g><line x1="0" y1="2639.0190457717417" x2="687.0375" y2="2639.0190457717417" fill="rgb(0, 0, 0)" stroke="rgb(153, 153, 153)" stroke-width="1.5px"></line></g></g><g><g><line x1="-3.1368975881254015" y1="0" x2="-3.1368975881254015" y2="378" fill="rgb(0, 0, 0)" stroke="rgb(153, 153, 153)" stroke-width="1.5px"></line></g></g><g><g><g><g><g><path style="fill: none;" stroke="rgb(51, 187, 238)" stroke-width="2px" d="M-3.1368975881254015,332.6187136654979L10.699035636071047,259.0726507476034L24.534968860267497,241.42169035581918L38.37090208446394,226.71244394777221L52.20683530866039,264.95641695975814L66.04276853285683,167.87579656026475L79.87870175705328,151.6956931603492L93.71463498124974,141.39918685024833L107.55056820544617,152.43103709511345L121.38650142964262,156.10843325829526L135.2224346538391,142.13469990735268L149.05836787803554,121.54185640949106L162.894301102232,103.89072689536674L176.73023432642842,129.6318235482788L190.56616755062487,100.94901291162942L204.40210077482132,113.45172014836321L218.23803399901777,115.65809019733624L232.07396722321423,108.3034669933128L245.90990044741068,109.77449310752156L259.7458336716071,118.59997330341366L273.5817668958036,109.77449310752156L287.41770012,116.39360325444063L301.25363334419643,118.59997330341366L315.0895665683929,119.33548636051803L328.92549979258933,116.39360325444063L342.7614330167858,118.59997330341366L356.59736624098224,125.9545965074371L370.4332994651787,126.69010956454152L384.2692326893752,120.07083029528233L398.10516591357157,123.74822645846409L411.94109913776805,120.80634335238669L425.77703236196453,117.86446024630926L439.6129655861609,117.86446024630926L453.4488988103575,114.92274626257198L467.2848320345539,117.129116311545L481.12076525875034,120.07083029528233L494.9566984829468,120.07083029528233L508.79263170714324,120.07083029528233L522.6285649313396,114.92274626257198L536.4644981555361,121.54185640949106L550.3004313797326,117.129116311545L564.1363646039291,115.65809019733624L577.9722978281254,116.39360325444063L591.808231052322,114.92274626257198L605.6441642765184,114.18723320546762L619.4800975007148,115.65809019733624L633.3160307249112,119.33548636051803L647.1519639491078,117.86446024630926L660.9878971733042,116.39360325444063L674.8238303975006,115.65809019733624" fill="none"></path></g><g><path style="fill: none;" stroke="rgb(204, 51, 17)" stroke-width="2px" d="M-3.1368975881254015,357.62429726130557L10.699035636071047,246.5699435108696L24.534968860267497,223.77072996403493L38.37090208446394,259.0726507476034L52.20683530866039,316.4386102655823L66.04276853285683,248.04080050273822L79.87870175705328,221.5643599150619L93.71463498124974,195.0877502050455L107.55056820544617,212.7387105968297L121.38650142964262,203.9132304009376L135.2224346538391,149.48932311137614L149.05836787803554,143.60555689922134L162.894301102232,139.92832985837967L176.73023432642842,133.3092197114606L190.56616755062487,153.90206320932222L204.40210077482132,129.6318235482788L218.23803399901777,155.37292020119085L232.07396722321423,142.13469990735268L245.90990044741068,154.6374071440865L259.7458336716071,160.5211733562413L273.5817668958036,119.33548636051803L287.41770012,121.54185640949106L301.25363334419643,107.5681230585485L315.0895665683929,113.45172014836321L328.92549979258933,116.39360325444063L342.7614330167858,117.129116311545L356.59736624098224,114.92274626257198L370.4332994651787,133.3092197114606L384.2692326893752,112.71637621359895L398.10516591357157,121.54185640949106L411.94109913776805,114.18723320546762L425.77703236196453,123.74822645846409L439.6129655861609,126.69010956454152L453.4488988103575,121.54185640949106L467.2848320345539,117.129116311545L481.12076525875034,123.01271340135972L494.9566984829468,117.129116311545L508.79263170714324,123.01271340135972L522.6285649313396,121.54185640949106L536.4644981555361,111.24535009939018L550.3004313797326,111.24535009939018L564.1363646039291,118.59997330341366L577.9722978281254,117.86446024630926L591.808231052322,126.69010956454152L605.6441642765184,126.69010956454152L619.4800975007148,115.65809019733624L633.3160307249112,120.07083029528233L647.1519639491078,123.01271340135972L660.9878971733042,116.39360325444063L674.8238303975006,118.59997330341366" fill="none"></path></g><g><path style="fill: none;" stroke="rgb(238, 51, 119)" stroke-width="2px" d="M-3.1368975881254015,356.8887842042012L10.699035636071047,262.75004691078516L24.534968860267497,299.5229938085624L38.37090208446394,308.3484740044545L52.20683530866039,202.44237340906895L66.04276853285683,231.12518404571827L79.87870175705328,245.09891739666088L93.71463498124974,158.31480330726828L107.55056820544617,215.6805937029071L121.38650142964262,181.8495299112073L135.2224346538391,129.6318235482788L149.05836787803554,128.89647961351454L162.894301102232,118.59997330341366L176.73023432642842,111.24535009939018L190.56616755062487,106.83261000144414L204.40210077482132,105.36175300957547L218.23803399901777,100.94901291162942L232.07396722321423,111.24535009939018L245.90990044741068,111.24535009939018L259.7458336716071,109.77449310752156L273.5817668958036,109.03898005041715L287.41770012,111.24535009939018L301.25363334419643,112.71637621359895L315.0895665683929,114.18723320546762L328.92549979258933,111.98086315649459L342.7614330167858,113.45172014836321L356.59736624098224,110.51000616462593L370.4332994651787,111.98086315649459L384.2692326893752,111.24535009939018L398.10516591357157,111.98086315649459L411.94109913776805,110.51000616462593L425.77703236196453,111.24535009939018L439.6129655861609,110.51000616462593L453.4488988103575,111.98086315649459L467.2848320345539,111.98086315649459L481.12076525875034,111.98086315649459L494.9566984829468,111.98086315649459L508.79263170714324,111.98086315649459L522.6285649313396,111.98086315649459L536.4644981555361,111.98086315649459L550.3004313797326,111.98086315649459L564.1363646039291,111.98086315649459L577.9722978281254,111.98086315649459L591.808231052322,111.98086315649459L605.6441642765184,111.98086315649459L619.4800975007148,111.98086315649459L633.3160307249112,111.98086315649459L647.1519639491078,111.98086315649459L660.9878971733042,111.98086315649459L674.8238303975006,111.98086315649459" fill="none"></path></g><g><path style="fill: none;" stroke="rgb(255, 112, 67)" stroke-width="2px" d="M-3.1368975881254015,224.50607389879923L10.699035636071047,217.15145069477575L24.534968860267497,212.7387105968297L38.37090208446394,206.85511350701498L52.20683530866039,174.49490670718382L66.04276853285683,192.14586709896807L79.87870175705328,160.5211733562413L93.71463498124974,184.05589996018034L107.55056820544617,195.82326326214985L121.38650142964262,164.198400397083L135.2224346538391,124.48357039322838L149.05836787803554,114.18723320546762L162.894301102232,106.09709694433977L176.73023432642842,114.18723320546762L190.56616755062487,120.80634335238669L204.40210077482132,127.42545349930577L218.23803399901777,117.129116311545L232.07396722321423,127.42545349930577L245.90990044741068,129.6318235482788L259.7458336716071,121.54185640949106L273.5817668958036,113.45172014836321L287.41770012,118.59997330341366L301.25363334419643,112.71637621359895L315.0895665683929,115.65809019733624L328.92549979258933,114.92274626257198L342.7614330167858,108.3034669933128L356.59736624098224,106.83261000144414L370.4332994651787,111.98086315649459L384.2692326893752,115.65809019733624L398.10516591357157,114.92274626257198L411.94109913776805,113.45172014836321L425.77703236196453,109.77449310752156L439.6129655861609,103.89072689536674L453.4488988103575,118.59997330341366L467.2848320345539,115.65809019733624L481.12076525875034,112.71637621359895L494.9566984829468,109.77449310752156L508.79263170714324,114.18723320546762L522.6285649313396,114.18723320546762L536.4644981555361,116.39360325444063L550.3004313797326,119.33548636051803L564.1363646039291,114.92274626257198L577.9722978281254,117.129116311545L591.808231052322,118.59997330341366L605.6441642765184,122.27720034425535L619.4800975007148,123.01271340135972L633.3160307249112,126.69010956454152L647.1519639491078,123.74822645846409L660.9878971733042,118.59997330341366L674.8238303975006,122.27720034425535" fill="none"></path></g><g><path style="fill: none;" stroke="rgb(0, 119, 187)" stroke-width="2px" d="M-3.1368975881254015,231.12518404571827L10.699035636071047,184.05589996018034L24.534968860267497,182.58487384597157L38.37090208446394,219.3579898660889L52.20683530866039,209.06148355598802L66.04276853285683,192.14586709896807L79.87870175705328,181.11401685410294L93.71463498124974,189.93949704999505L107.55056820544617,136.98644675230227L121.38650142964262,171.55302360110642L135.2224346538391,125.21908345033275L149.05836787803554,131.10284966248756L162.894301102232,124.48357039322838L176.73023432642842,109.77449310752156L190.56616755062487,112.71637621359895L204.40210077482132,103.15538296060245L218.23803399901777,111.98086315649459L232.07396722321423,113.45172014836321L245.90990044741068,118.59997330341366L259.7458336716071,110.51000616462593L273.5817668958036,116.39360325444063L287.41770012,109.77449310752156L301.25363334419643,118.59997330341366L315.0895665683929,108.3034669933128L328.92549979258933,111.24535009939018L342.7614330167858,110.51000616462593L356.59736624098224,111.24535009939018L370.4332994651787,111.24535009939018L384.2692326893752,114.92274626257198L398.10516591357157,109.03898005041715L411.94109913776805,110.51000616462593L425.77703236196453,109.03898005041715L439.6129655861609,111.24535009939018L453.4488988103575,116.39360325444063L467.2848320345539,114.18723320546762L481.12076525875034,111.98086315649459L494.9566984829468,114.92274626257198L508.79263170714324,111.98086315649459L522.6285649313396,113.45172014836321L536.4644981555361,109.77449310752156L550.3004313797326,108.3034669933128L564.1363646039291,110.51000616462593L577.9722978281254,109.03898005041715L591.808231052322,111.98086315649459L605.6441642765184,107.5681230585485L619.4800975007148,111.98086315649459L633.3160307249112,109.77449310752156L647.1519639491078,111.24535009939018L660.9878971733042,111.98086315649459L674.8238303975006,111.24535009939018" fill="none"></path></g></g></g></g></g></g><g transform="translate(51, 378)" clip-path="url(#clip_1)"><clipPath id="clip_1"><rect width="687" height="22"></rect></clipPath><g><g><line x1="66.04276853285683" y1="0" x2="66.04276853285683" y2="5" style="visibility: inherit;" fill="rgb(0, 0, 0)" stroke="rgb(204, 204, 204)" stroke-width="1px"></line><line x1="135.2224346538391" y1="0" x2="135.2224346538391" y2="5" style="visibility: inherit;" fill="rgb(0, 0, 0)" stroke="rgb(204, 204, 204)" stroke-width="1px"></line><line x1="204.40210077482132" y1="0" x2="204.40210077482132" y2="5" style="visibility: inherit;" fill="rgb(0, 0, 0)" stroke="rgb(204, 204, 204)" stroke-width="1px"></line><line x1="273.5817668958036" y1="0" x2="273.5817668958036" y2="5" style="visibility: inherit;" fill="rgb(0, 0, 0)" stroke="rgb(204, 204, 204)" stroke-width="1px"></line><line x1="342.7614330167858" y1="0" x2="342.7614330167858" y2="5" style="visibility: inherit;" fill="rgb(0, 0, 0)" stroke="rgb(204, 204, 204)" stroke-width="1px"></line><line x1="411.94109913776805" y1="0" x2="411.94109913776805" y2="5" style="visibility: inherit;" fill="rgb(0, 0, 0)" stroke="rgb(204, 204, 204)" stroke-width="1px"></line><line x1="481.12076525875034" y1="0" x2="481.12076525875034" y2="5" style="visibility: inherit;" fill="rgb(0, 0, 0)" stroke="rgb(204, 204, 204)" stroke-width="1px"></line><line x1="550.3004313797326" y1="0" x2="550.3004313797326" y2="5" style="visibility: inherit;" fill="rgb(0, 0, 0)" stroke="rgb(204, 204, 204)" stroke-width="1px"></line><line x1="619.4800975007148" y1="0" x2="619.4800975007148" y2="5" style="visibility: inherit;" fill="rgb(0, 0, 0)" stroke="rgb(204, 204, 204)" stroke-width="1px"></line></g><g transform="translate(0, 8)"><text x="66.04276853285683" y="0" dx="0em" dy="0.95em" style="text-anchor: middle; visibility: inherit; font-family: Roboto, sans-serif; font-size: 12px; font-weight: 200;" fill="rgb(50, 49, 63)" stroke="none" stroke-width="1px">5</text><text x="135.2224346538391" y="0" dx="0em" dy="0.95em" style="text-anchor: middle; visibility: inherit; font-family: Roboto, sans-serif; font-size: 12px; font-weight: 200;" fill="rgb(50, 49, 63)" stroke="none" stroke-width="1px">10</text><text x="204.40210077482132" y="0" dx="0em" dy="0.95em" style="text-anchor: middle; visibility: inherit; font-family: Roboto, sans-serif; font-size: 12px; font-weight: 200;" fill="rgb(50, 49, 63)" stroke="none" stroke-width="1px">15</text><text x="273.5817668958036" y="0" dx="0em" dy="0.95em" style="text-anchor: middle; visibility: inherit; font-family: Roboto, sans-serif; font-size: 12px; font-weight: 200;" fill="rgb(50, 49, 63)" stroke="none" stroke-width="1px">20</text><text x="342.7614330167858" y="0" dx="0em" dy="0.95em" style="text-anchor: middle; visibility: inherit; font-family: Roboto, sans-serif; font-size: 12px; font-weight: 200;" fill="rgb(50, 49, 63)" stroke="none" stroke-width="1px">25</text><text x="411.94109913776805" y="0" dx="0em" dy="0.95em" style="text-anchor: middle; visibility: inherit; font-family: Roboto, sans-serif; font-size: 12px; font-weight: 200;" fill="rgb(50, 49, 63)" stroke="none" stroke-width="1px">30</text><text x="481.12076525875034" y="0" dx="0em" dy="0.95em" style="text-anchor: middle; visibility: inherit; font-family: Roboto, sans-serif; font-size: 12px; font-weight: 200;" fill="rgb(50, 49, 63)" stroke="none" stroke-width="1px">35</text><text x="550.3004313797326" y="0" dx="0em" dy="0.95em" style="text-anchor: middle; visibility: inherit; font-family: Roboto, sans-serif; font-size: 12px; font-weight: 200;" fill="rgb(50, 49, 63)" stroke="none" stroke-width="1px">40</text><text x="619.4800975007148" y="0" dx="0em" dy="0.95em" style="text-anchor: middle; visibility: inherit; font-family: Roboto, sans-serif; font-size: 12px; font-weight: 200;" fill="rgb(50, 49, 63)" stroke="none" stroke-width="1px">45</text></g><line x1="0" y1="0" x2="687.0375" y2="0" fill="rgb(0, 0, 0)" stroke="rgb(204, 204, 204)" stroke-width="1px"></line></g></g></g></g></svg>