<svg viewBox="0 0 761.4000244140625 400" xmlns="http://www.w3.org/2000/svg"><g><g><g><g><g><line x1="50" y1="349.4808355301541" x2="45" y2="349.4808355301541" style="visibility: inherit;" fill="rgb(0, 0, 0)" stroke="rgb(204, 204, 204)" stroke-width="1px"></line><line x1="50" y1="298.9791262190322" x2="45" y2="298.9791262190322" style="visibility: inherit;" fill="rgb(0, 0, 0)" stroke="rgb(204, 204, 204)" stroke-width="1px"></line><line x1="50" y1="248.4774169079103" x2="45" y2="248.4774169079103" style="visibility: inherit;" fill="rgb(0, 0, 0)" stroke="rgb(204, 204, 204)" stroke-width="1px"></line><line x1="50" y1="197.9757075967884" x2="45" y2="197.9757075967884" style="visibility: inherit;" fill="rgb(0, 0, 0)" stroke="rgb(204, 204, 204)" stroke-width="1px"></line><line x1="50" y1="147.47399828566654" x2="45" y2="147.47399828566654" style="visibility: inherit;" fill="rgb(0, 0, 0)" stroke="rgb(204, 204, 204)" stroke-width="1px"></line><line x1="50" y1="96.97228897454463" x2="45" y2="96.97228897454463" style="visibility: inherit;" fill="rgb(0, 0, 0)" stroke="rgb(204, 204, 204)" stroke-width="1px"></line><line x1="50" y1="46.47057966342271" x2="45" y2="46.47057966342271" style="visibility: inherit;" fill="rgb(0, 0, 0)" stroke="rgb(204, 204, 204)" stroke-width="1px"></line></g><g transform="translate(40, 0)"><text x="0" y="349.4808355301541" dx="0em" dy="0.3em" style="text-anchor: end; visibility: inherit; font-family: Roboto, sans-serif; font-size: 12px; font-weight: 200;" fill="rgb(50, 49, 63)" stroke="none" stroke-width="1px">0.83</text><text x="0" y="298.9791262190322" dx="0em" dy="0.3em" style="text-anchor: end; visibility: inherit; font-family: Roboto, sans-serif; font-size: 12px; font-weight: 200;" fill="rgb(50, 49, 63)" stroke="none" stroke-width="1px">0.84</text><text x="0" y="248.4774169079103" dx="0em" dy="0.3em" style="text-anchor: end; visibility: inherit; font-family: Roboto, sans-serif; font-size: 12px; font-weight: 200;" fill="rgb(50, 49, 63)" stroke="none" stroke-width="1px">0.85</text><text x="0" y="197.9757075967884" dx="0em" dy="0.3em" style="text-anchor: end; visibility: inherit; font-family: Roboto, sans-serif; font-size: 12px; font-weight: 200;" fill="rgb(50, 49, 63)" stroke="none" stroke-width="1px">0.86</text><text x="0" y="147.47399828566654" dx="0em" dy="0.3em" style="text-anchor: end; visibility: inherit; font-family: Roboto, sans-serif; font-size: 12px; font-weight: 200;" fill="rgb(50, 49, 63)" stroke="none" stroke-width="1px">0.87</text><text x="0" y="96.97228897454463" dx="0em" dy="0.3em" style="text-anchor: end; visibility: inherit; font-family: Roboto, sans-serif; font-size: 12px; font-weight: 200;" fill="rgb(50, 49, 63)" stroke="none" stroke-width="1px">0.88</text><text x="0" y="46.47057966342271" dx="0em" dy="0.3em" style="text-anchor: end; visibility: inherit; font-family: Roboto, sans-serif; font-size: 12px; font-weight: 200;" fill="rgb(50, 49, 63)" stroke="none" stroke-width="1px">0.89</text></g><line x1="50" y1="0" x2="50" y2="378" fill="rgb(0, 0, 0)" stroke="rgb(204, 204, 204)" stroke-width="1px"></line></g></g><g transform="translate(50, 0)" clip-path="url(#clip_0)"><clipPath id="clip_0"><rect width="711" height="378"></rect></clipPath><g><g><g><line x1="6.215680799739253" y1="0" x2="6.215680799739253" y2="378" fill="rgb(0, 0, 0)" stroke="rgb(60, 60, 60)" stroke-width="1px" opacity="0.25"></line><line x1="76.98404249353942" y1="0" x2="76.98404249353942" y2="378" fill="rgb(0, 0, 0)" stroke="rgb(60, 60, 60)" stroke-width="1px" opacity="0.25"></line><line x1="147.75240418733958" y1="0" x2="147.75240418733958" y2="378" fill="rgb(0, 0, 0)" stroke="rgb(60, 60, 60)" stroke-width="1px" opacity="0.25"></line><line x1="218.52076588113974" y1="0" x2="218.52076588113974" y2="378" fill="rgb(0, 0, 0)" stroke="rgb(60, 60, 60)" stroke-width="1px" opacity="0.25"></line><line x1="289.2891275749399" y1="0" x2="289.2891275749399" y2="378" fill="rgb(0, 0, 0)" stroke="rgb(60, 60, 60)" stroke-width="1px" opacity="0.25"></line><line x1="360.05748926874" y1="0" x2="360.05748926874" y2="378" fill="rgb(0, 0, 0)" stroke="rgb(60, 60, 60)" stroke-width="1px" opacity="0.25"></line><line x1="430.82585096254024" y1="0" x2="430.82585096254024" y2="378" fill="rgb(0, 0, 0)" stroke="rgb(60, 60, 60)" stroke-width="1px" opacity="0.25"></line><line x1="501.59421265634035" y1="0" x2="501.59421265634035" y2="378" fill="rgb(0, 0, 0)" stroke="rgb(60, 60, 60)" stroke-width="1px" opacity="0.25"></line><line x1="572.3625743501404" y1="0" x2="572.3625743501404" y2="378" fill="rgb(0, 0, 0)" stroke="rgb(60, 60, 60)" stroke-width="1px" opacity="0.25"></line><line x1="643.1309360439407" y1="0" x2="643.1309360439407" y2="378" fill="rgb(0, 0, 0)" stroke="rgb(60, 60, 60)" stroke-width="1px" opacity="0.25"></line></g><g><line x1="0" y1="349.4808355301541" x2="711.4" y2="349.4808355301541" fill="rgb(0, 0, 0)" stroke="rgb(60, 60, 60)" stroke-width="1px" opacity="0.25"></line><line x1="0" y1="298.9791262190322" x2="711.4" y2="298.9791262190322" fill="rgb(0, 0, 0)" stroke="rgb(60, 60, 60)" stroke-width="1px" opacity="0.25"></line><line x1="0" y1="248.4774169079103" x2="711.4" y2="248.4774169079103" fill="rgb(0, 0, 0)" stroke="rgb(60, 60, 60)" stroke-width="1px" opacity="0.25"></line><line x1="0" y1="197.9757075967884" x2="711.4" y2="197.9757075967884" fill="rgb(0, 0, 0)" stroke="rgb(60, 60, 60)" stroke-width="1px" opacity="0.25"></line><line x1="0" y1="147.47399828566654" x2="711.4" y2="147.47399828566654" fill="rgb(0, 0, 0)" stroke="rgb(60, 60, 60)" stroke-width="1px" opacity="0.25"></line><line x1="0" y1="96.97228897454463" x2="711.4" y2="96.97228897454463" fill="rgb(0, 0, 0)" stroke="rgb(60, 60, 60)" stroke-width="1px" opacity="0.25"></line><line x1="0" y1="46.47057966342271" x2="711.4" y2="46.47057966342271" fill="rgb(0, 0, 0)" stroke="rgb(60, 60, 60)" stroke-width="1px" opacity="0.25"></line></g></g></g><g><g><line x1="0" y1="4541.122708353267" x2="711.4" y2="4541.122708353267" fill="rgb(0, 0, 0)" stroke="rgb(153, 153, 153)" stroke-width="1.5px"></line></g></g><g><g><line x1="6.215680799739253" y1="0" x2="6.215680799739253" y2="378" fill="rgb(0, 0, 0)" stroke="rgb(153, 153, 153)" stroke-width="1.5px"></line></g></g><g><g><g><g><g><path stroke="rgb(255, 112, 67)" stroke-width="2px" d="M6.215680799739253,489.72859498737176L20.369353138499285,213.52690326435473L34.52302547725932,196.5096989052665L48.67669781601935,93.09766542486862L62.83037015477939,61.68117237207322L76.98404249353942,40.7372450217355L91.13771483229947,34.19200433781609L105.29138717105948,42.04605234760384L119.44505950981952,17.174799978727844L133.59873184857955,17.174799978727844L147.75240418733958,21.10182398362172L161.9060765260996,18.48390831824063L176.05974886485964,11.93896864796562L190.21342120361967,13.247775973833967L204.3670935423797,15.865992652859497L218.52076588113974,15.865992652859497L232.67443821989977,15.865992652859497L246.82811055865977,15.865992652859497L260.98178289741986,15.865992652859497L275.1354552361799,14.556884313346753L289.2891275749399,14.556884313346753L303.44279991369996,14.556884313346753L317.59647225246,14.556884313346753L331.75014459121996,18.48390831824063L345.90381692998,18.48390831824063L360.05748926874,18.48390831824063L374.2111616075001,18.48390831824063L388.3648339462601,18.48390831824063L402.5185062850202,18.48390831824063L416.67217862378016,18.48390831824063L430.82585096254024,18.48390831824063L444.9795233013002,18.48390831824063L459.1331956400602,18.48390831824063L473.2868679788203,18.48390831824063L487.4405403175803,18.48390831824063L501.59421265634035,18.48390831824063L515.7478849951004,18.48390831824063L529.9015573338604,18.48390831824063L544.0552296726205,18.48390831824063L558.2089020113805,18.48390831824063L572.3625743501404,18.48390831824063L586.5162466889005,18.48390831824063L600.6699190276605,18.48390831824063L614.8235913664206,18.48390831824063L628.9772637051806,18.48390831824063L643.1309360439407,18.48390831824063L657.2846083827006,18.48390831824063L671.4382807214607,18.48390831824063L685.5919530602207,18.48390831824063L699.7456253989808,18.48390831824063" style="fill: none;" fill="none"></path></g><g><path stroke="rgb(204, 51, 17)" stroke-width="2px" d="M6.215680799739253,480.56543863807127L20.369353138499285,332.64703276432806L34.52302547725932,275.0504800167883L48.67669781601935,174.2563622017716L62.83037015477939,121.89594179863846L76.98404249353942,115.35070111471909L91.13771483229947,69.53552139550537L105.29138717105948,57.75414836717935L119.44505950981952,40.7372450217355L133.59873184857955,30.264980332922214L147.75240418733958,49.900100357391594L161.9060765260996,40.7372450217355L176.05974886485964,57.75414836717935L190.21342120361967,31.574088672435L204.3670935423797,39.42813668222275L218.52076588113974,40.7372450217355L232.67443821989977,39.42813668222275L246.82811055865977,34.19200433781609L260.98178289741986,38.11902834270997L275.1354552361799,38.11902834270997L289.2891275749399,34.19200433781609L303.44279991369996,34.19200433781609L317.59647225246,30.264980332922214L331.75014459121996,30.264980332922214L345.90381692998,28.95587199340947L360.05748926874,26.33795632802838L374.2111616075001,26.33795632802838L388.3648339462601,27.647064667541123L402.5185062850202,27.647064667541123L416.67217862378016,27.647064667541123L430.82585096254024,26.33795632802838L444.9795233013002,26.33795632802838L459.1331956400602,26.33795632802838L473.2868679788203,27.647064667541123L487.4405403175803,25.028847988515594L501.59421265634035,25.028847988515594L515.7478849951004,25.028847988515594L529.9015573338604,25.028847988515594L544.0552296726205,25.028847988515594L558.2089020113805,25.028847988515594L572.3625743501404,25.028847988515594L586.5162466889005,25.028847988515594L600.6699190276605,25.028847988515594L614.8235913664206,25.028847988515594L628.9772637051806,25.028847988515594L643.1309360439407,25.028847988515594L657.2846083827006,25.028847988515594L671.4382807214607,25.028847988515594L685.5919530602207,25.028847988515594L699.7456253989808,25.028847988515594" style="fill: none;" fill="none"></path></g><g><path stroke="rgb(0, 119, 187)" stroke-width="2px" d="M6.215680799739253,370.608164473754L20.369353138499285,303.8487563905582L34.52302547725932,233.1620232888241L48.67669781601935,108.80576144444409L62.83037015477939,123.20505013815124L76.98404249353942,83.93450907556809L91.13771483229947,81.316593410187L105.29138717105948,80.0074850706742L119.44505950981952,64.29938905109876L133.59873184857955,52.51831703641712L147.75240418733958,38.11902834270997L161.9060765260996,49.900100357391594L176.05974886485964,36.80992000319722L190.21342120361967,42.04605234760384L204.3670935423797,38.11902834270997L218.52076588113974,42.04605234760384L232.67443821989977,32.88289599830335L246.82811055865977,44.66426902662937L260.98178289741986,36.80992000319722L275.1354552361799,35.50111267732888L289.2891275749399,38.11902834270997L303.44279991369996,35.50111267732888L317.59647225246,34.19200433781609L331.75014459121996,28.95587199340947L345.90381692998,26.33795632802838L360.05748926874,32.88289599830335L374.2111616075001,27.647064667541123L388.3648339462601,26.33795632802838L402.5185062850202,28.95587199340947L416.67217862378016,27.647064667541123L430.82585096254024,28.95587199340947L444.9795233013002,28.95587199340947L459.1331956400602,28.95587199340947L473.2868679788203,28.95587199340947L487.4405403175803,28.95587199340947L501.59421265634035,28.95587199340947L515.7478849951004,32.88289599830335L529.9015573338604,32.88289599830335L544.0552296726205,32.88289599830335L558.2089020113805,32.88289599830335L572.3625743501404,32.88289599830335L586.5162466889005,32.88289599830335L600.6699190276605,32.88289599830335L614.8235913664206,32.88289599830335L628.9772637051806,32.88289599830335L643.1309360439407,32.88289599830335L657.2846083827006,32.88289599830335L671.4382807214607,32.88289599830335L685.5919530602207,32.88289599830335L699.7456253989808,32.88289599830335" style="fill: none;" fill="none"></path></g><g><path stroke="rgb(238, 51, 119)" stroke-width="2px" d="M6.215680799739253,271.12345601189446L20.369353138499285,150.69421817240834L34.52302547725932,100.95171343465633L48.67669781601935,51.209208696904376L62.83037015477939,51.209208696904376L76.98404249353942,48.59129303152325L91.13771483229947,48.59129303152325L105.29138717105948,43.35516068711663L119.44505950981952,36.80992000319722L133.59873184857955,44.66426902662937L147.75240418733958,38.11902834270997L161.9060765260996,38.11902834270997L176.05974886485964,34.19200433781609L190.21342120361967,34.19200433781609L204.3670935423797,32.88289599830335L218.52076588113974,32.88289599830335L232.67443821989977,32.88289599830335L246.82811055865977,32.88289599830335L260.98178289741986,32.88289599830335L275.1354552361799,32.88289599830335L289.2891275749399,32.88289599830335L303.44279991369996,32.88289599830335L317.59647225246,32.88289599830335L331.75014459121996,32.88289599830335L345.90381692998,32.88289599830335L360.05748926874,32.88289599830335L374.2111616075001,32.88289599830335L388.3648339462601,32.88289599830335L402.5185062850202,32.88289599830335L416.67217862378016,32.88289599830335L430.82585096254024,32.88289599830335L444.9795233013002,32.88289599830335L459.1331956400602,32.88289599830335L473.2868679788203,32.88289599830335L487.4405403175803,32.88289599830335L501.59421265634035,32.88289599830335L515.7478849951004,32.88289599830335L529.9015573338604,32.88289599830335L544.0552296726205,32.88289599830335L558.2089020113805,32.88289599830335L572.3625743501404,32.88289599830335L586.5162466889005,32.88289599830335L600.6699190276605,32.88289599830335L614.8235913664206,32.88289599830335L628.9772637051806,32.88289599830335L643.1309360439407,32.88289599830335L657.2846083827006,32.88289599830335L671.4382807214607,32.88289599830335L685.5919530602207,32.88289599830335L699.7456253989808,32.88289599830335" style="fill: none;" fill="none"></path></g><g><path stroke="rgb(51, 187, 238)" stroke-width="2px" d="M6.215680799739253,310.3936960608332L20.369353138499285,170.3293381968777L34.52302547725932,131.05909814793898L48.67669781601935,72.1534370608865L62.83037015477939,49.900100357391594L76.98404249353942,57.75414836717935L91.13771483229947,35.50111267732888L105.29138717105948,25.028847988515594L119.44505950981952,31.574088672435L133.59873184857955,26.33795632802838L147.75240418733958,21.10182398362172L161.9060765260996,23.72004066264725L176.05974886485964,23.72004066264725L190.21342120361967,19.793016657753373L204.3670935423797,21.10182398362172L218.52076588113974,14.556884313346753L232.67443821989977,10.629860308452876L246.82811055865977,8.011643629427349L260.98178289741986,14.556884313346753L275.1354552361799,10.629860308452876L289.2891275749399,10.629860308452876L303.44279991369996,9.320751968940092L317.59647225246,9.320751968940092L331.75014459121996,9.320751968940092L345.90381692998,9.320751968940092L360.05748926874,9.320751968940092L374.2111616075001,9.320751968940092L388.3648339462601,9.320751968940092L402.5185062850202,9.320751968940092L416.67217862378016,9.320751968940092L430.82585096254024,9.320751968940092L444.9795233013002,9.320751968940092L459.1331956400602,9.320751968940092L473.2868679788203,9.320751968940092L487.4405403175803,9.320751968940092L501.59421265634035,9.320751968940092L515.7478849951004,9.320751968940092L529.9015573338604,9.320751968940092L544.0552296726205,9.320751968940092L558.2089020113805,9.320751968940092L572.3625743501404,9.320751968940092L586.5162466889005,9.320751968940092L600.6699190276605,9.320751968940092L614.8235913664206,9.320751968940092L628.9772637051806,9.320751968940092L643.1309360439407,9.320751968940092L657.2846083827006,9.320751968940092L671.4382807214607,9.320751968940092L685.5919530602207,9.320751968940092L699.7456253989808,9.320751968940092" style="fill: none;" fill="none"></path></g></g></g></g></g></g><g transform="translate(50, 378)" clip-path="url(#clip_1)"><clipPath id="clip_1"><rect width="711" height="22"></rect></clipPath><g><g><line x1="6.215680799739253" y1="0" x2="6.215680799739253" y2="5" style="visibility: inherit;" fill="rgb(0, 0, 0)" stroke="rgb(204, 204, 204)" stroke-width="1px"></line><line x1="76.98404249353942" y1="0" x2="76.98404249353942" y2="5" style="visibility: inherit;" fill="rgb(0, 0, 0)" stroke="rgb(204, 204, 204)" stroke-width="1px"></line><line x1="147.75240418733958" y1="0" x2="147.75240418733958" y2="5" style="visibility: inherit;" fill="rgb(0, 0, 0)" stroke="rgb(204, 204, 204)" stroke-width="1px"></line><line x1="218.52076588113974" y1="0" x2="218.52076588113974" y2="5" style="visibility: inherit;" fill="rgb(0, 0, 0)" stroke="rgb(204, 204, 204)" stroke-width="1px"></line><line x1="289.2891275749399" y1="0" x2="289.2891275749399" y2="5" style="visibility: inherit;" fill="rgb(0, 0, 0)" stroke="rgb(204, 204, 204)" stroke-width="1px"></line><line x1="360.05748926874" y1="0" x2="360.05748926874" y2="5" style="visibility: inherit;" fill="rgb(0, 0, 0)" stroke="rgb(204, 204, 204)" stroke-width="1px"></line><line x1="430.82585096254024" y1="0" x2="430.82585096254024" y2="5" style="visibility: inherit;" fill="rgb(0, 0, 0)" stroke="rgb(204, 204, 204)" stroke-width="1px"></line><line x1="501.59421265634035" y1="0" x2="501.59421265634035" y2="5" style="visibility: inherit;" fill="rgb(0, 0, 0)" stroke="rgb(204, 204, 204)" stroke-width="1px"></line><line x1="572.3625743501404" y1="0" x2="572.3625743501404" y2="5" style="visibility: inherit;" fill="rgb(0, 0, 0)" stroke="rgb(204, 204, 204)" stroke-width="1px"></line><line x1="643.1309360439407" y1="0" x2="643.1309360439407" y2="5" style="visibility: inherit;" fill="rgb(0, 0, 0)" stroke="rgb(204, 204, 204)" stroke-width="1px"></line></g><g transform="translate(0, 8)"><text x="6.215680799739253" y="0" dx="0em" dy="0.95em" style="text-anchor: middle; visibility: inherit; font-family: Roboto, sans-serif; font-size: 12px; font-weight: 200;" fill="rgb(50, 49, 63)" stroke="none" stroke-width="1px">0</text><text x="76.98404249353942" y="0" dx="0em" dy="0.95em" style="text-anchor: middle; visibility: inherit; font-family: Roboto, sans-serif; font-size: 12px; font-weight: 200;" fill="rgb(50, 49, 63)" stroke="none" stroke-width="1px">5</text><text x="147.75240418733958" y="0" dx="0em" dy="0.95em" style="text-anchor: middle; visibility: inherit; font-family: Roboto, sans-serif; font-size: 12px; font-weight: 200;" fill="rgb(50, 49, 63)" stroke="none" stroke-width="1px">10</text><text x="218.52076588113974" y="0" dx="0em" dy="0.95em" style="text-anchor: middle; visibility: inherit; font-family: Roboto, sans-serif; font-size: 12px; font-weight: 200;" fill="rgb(50, 49, 63)" stroke="none" stroke-width="1px">15</text><text x="289.2891275749399" y="0" dx="0em" dy="0.95em" style="text-anchor: middle; visibility: inherit; font-family: Roboto, sans-serif; font-size: 12px; font-weight: 200;" fill="rgb(50, 49, 63)" stroke="none" stroke-width="1px">20</text><text x="360.05748926874" y="0" dx="0em" dy="0.95em" style="text-anchor: middle; visibility: inherit; font-family: Roboto, sans-serif; font-size: 12px; font-weight: 200;" fill="rgb(50, 49, 63)" stroke="none" stroke-width="1px">25</text><text x="430.82585096254024" y="0" dx="0em" dy="0.95em" style="text-anchor: middle; visibility: inherit; font-family: Roboto, sans-serif; font-size: 12px; font-weight: 200;" fill="rgb(50, 49, 63)" stroke="none" stroke-width="1px">30</text><text x="501.59421265634035" y="0" dx="0em" dy="0.95em" style="text-anchor: middle; visibility: inherit; font-family: Roboto, sans-serif; font-size: 12px; font-weight: 200;" fill="rgb(50, 49, 63)" stroke="none" stroke-width="1px">35</text><text x="572.3625743501404" y="0" dx="0em" dy="0.95em" style="text-anchor: middle; visibility: inherit; font-family: Roboto, sans-serif; font-size: 12px; font-weight: 200;" fill="rgb(50, 49, 63)" stroke="none" stroke-width="1px">40</text><text x="643.1309360439407" y="0" dx="0em" dy="0.95em" style="text-anchor: middle; visibility: inherit; font-family: Roboto, sans-serif; font-size: 12px; font-weight: 200;" fill="rgb(50, 49, 63)" stroke="none" stroke-width="1px">45</text></g><line x1="0" y1="0" x2="711.4" y2="0" fill="rgb(0, 0, 0)" stroke="rgb(204, 204, 204)" stroke-width="1px"></line></g></g></g></g></svg>