<svg viewBox="0 0 738.6000366210938 400" xmlns="http://www.w3.org/2000/svg"><g><g><g><g><g><line x1="51.5625" y1="378" x2="46.5625" y2="378" style="visibility: inherit;" fill="rgb(0, 0, 0)" stroke="rgb(204, 204, 204)" stroke-width="1px"></line><line x1="51.5625" y1="336" x2="46.5625" y2="336" style="visibility: inherit;" fill="rgb(0, 0, 0)" stroke="rgb(204, 204, 204)" stroke-width="1px"></line><line x1="51.5625" y1="294" x2="46.5625" y2="294" style="visibility: inherit;" fill="rgb(0, 0, 0)" stroke="rgb(204, 204, 204)" stroke-width="1px"></line><line x1="51.5625" y1="252.00000000000003" x2="46.5625" y2="252.00000000000003" style="visibility: inherit;" fill="rgb(0, 0, 0)" stroke="rgb(204, 204, 204)" stroke-width="1px"></line><line x1="51.5625" y1="210" x2="46.5625" y2="210" style="visibility: inherit;" fill="rgb(0, 0, 0)" stroke="rgb(204, 204, 204)" stroke-width="1px"></line><line x1="51.5625" y1="168" x2="46.5625" y2="168" style="visibility: inherit;" fill="rgb(0, 0, 0)" stroke="rgb(204, 204, 204)" stroke-width="1px"></line><line x1="51.5625" y1="126.00000000000001" x2="46.5625" y2="126.00000000000001" style="visibility: inherit;" fill="rgb(0, 0, 0)" stroke="rgb(204, 204, 204)" stroke-width="1px"></line><line x1="51.5625" y1="84" x2="46.5625" y2="84" style="visibility: inherit;" fill="rgb(0, 0, 0)" stroke="rgb(204, 204, 204)" stroke-width="1px"></line><line x1="51.5625" y1="42.00000000000002" x2="46.5625" y2="42.00000000000002" style="visibility: inherit;" fill="rgb(0, 0, 0)" stroke="rgb(204, 204, 204)" stroke-width="1px"></line><line x1="51.5625" y1="0" x2="46.5625" y2="0" style="visibility: inherit;" fill="rgb(0, 0, 0)" stroke="rgb(204, 204, 204)" stroke-width="1px"></line></g><g transform="translate(41.5625, 0)"><text x="0" y="378" dx="0em" dy="0.3em" style="text-anchor: end; visibility: hidden; font-family: Roboto, sans-serif; font-size: 12px; font-weight: 200;" fill="rgb(50, 49, 63)" stroke="none" stroke-width="1px">-0.5</text><text x="0" y="336" dx="0em" dy="0.3em" style="text-anchor: end; visibility: inherit; font-family: Roboto, sans-serif; font-size: 12px; font-weight: 200;" fill="rgb(50, 49, 63)" stroke="none" stroke-width="1px">0</text><text x="0" y="294" dx="0em" dy="0.3em" style="text-anchor: end; visibility: inherit; font-family: Roboto, sans-serif; font-size: 12px; font-weight: 200;" fill="rgb(50, 49, 63)" stroke="none" stroke-width="1px">0.5</text><text x="0" y="252.00000000000003" dx="0em" dy="0.3em" style="text-anchor: end; visibility: inherit; font-family: Roboto, sans-serif; font-size: 12px; font-weight: 200;" fill="rgb(50, 49, 63)" stroke="none" stroke-width="1px">1</text><text x="0" y="210" dx="0em" dy="0.3em" style="text-anchor: end; visibility: inherit; font-family: Roboto, sans-serif; font-size: 12px; font-weight: 200;" fill="rgb(50, 49, 63)" stroke="none" stroke-width="1px">1.5</text><text x="0" y="168" dx="0em" dy="0.3em" style="text-anchor: end; visibility: inherit; font-family: Roboto, sans-serif; font-size: 12px; font-weight: 200;" fill="rgb(50, 49, 63)" stroke="none" stroke-width="1px">2</text><text x="0" y="126.00000000000001" dx="0em" dy="0.3em" style="text-anchor: end; visibility: inherit; font-family: Roboto, sans-serif; font-size: 12px; font-weight: 200;" fill="rgb(50, 49, 63)" stroke="none" stroke-width="1px">2.5</text><text x="0" y="84" dx="0em" dy="0.3em" style="text-anchor: end; visibility: inherit; font-family: Roboto, sans-serif; font-size: 12px; font-weight: 200;" fill="rgb(50, 49, 63)" stroke="none" stroke-width="1px">3</text><text x="0" y="42.00000000000002" dx="0em" dy="0.3em" style="text-anchor: end; visibility: inherit; font-family: Roboto, sans-serif; font-size: 12px; font-weight: 200;" fill="rgb(50, 49, 63)" stroke="none" stroke-width="1px">3.5</text><text x="0" y="0" dx="0em" dy="0.3em" style="text-anchor: end; visibility: hidden; font-family: Roboto, sans-serif; font-size: 12px; font-weight: 200;" fill="rgb(50, 49, 63)" stroke="none" stroke-width="1px">4</text></g><line x1="51.5625" y1="0" x2="51.5625" y2="378" fill="rgb(0, 0, 0)" stroke="rgb(204, 204, 204)" stroke-width="1px"></line></g></g><g transform="translate(51, 0)" clip-path="url(#clip_0)"><clipPath id="clip_0"><rect width="687" height="378"></rect></clipPath><g><g><g><line x1="0" y1="0" x2="0" y2="378" fill="rgb(0, 0, 0)" stroke="rgb(60, 60, 60)" stroke-width="1px" opacity="0.25"></line><line x1="57.253125" y1="0" x2="57.253125" y2="378" fill="rgb(0, 0, 0)" stroke="rgb(60, 60, 60)" stroke-width="1px" opacity="0.25"></line><line x1="114.50625" y1="0" x2="114.50625" y2="378" fill="rgb(0, 0, 0)" stroke="rgb(60, 60, 60)" stroke-width="1px" opacity="0.25"></line><line x1="171.759375" y1="0" x2="171.759375" y2="378" fill="rgb(0, 0, 0)" stroke="rgb(60, 60, 60)" stroke-width="1px" opacity="0.25"></line><line x1="229.0125" y1="0" x2="229.0125" y2="378" fill="rgb(0, 0, 0)" stroke="rgb(60, 60, 60)" stroke-width="1px" opacity="0.25"></line><line x1="286.265625" y1="0" x2="286.265625" y2="378" fill="rgb(0, 0, 0)" stroke="rgb(60, 60, 60)" stroke-width="1px" opacity="0.25"></line><line x1="343.51875" y1="0" x2="343.51875" y2="378" fill="rgb(0, 0, 0)" stroke="rgb(60, 60, 60)" stroke-width="1px" opacity="0.25"></line><line x1="400.771875" y1="0" x2="400.771875" y2="378" fill="rgb(0, 0, 0)" stroke="rgb(60, 60, 60)" stroke-width="1px" opacity="0.25"></line><line x1="458.025" y1="0" x2="458.025" y2="378" fill="rgb(0, 0, 0)" stroke="rgb(60, 60, 60)" stroke-width="1px" opacity="0.25"></line><line x1="515.278125" y1="0" x2="515.278125" y2="378" fill="rgb(0, 0, 0)" stroke="rgb(60, 60, 60)" stroke-width="1px" opacity="0.25"></line><line x1="572.53125" y1="0" x2="572.53125" y2="378" fill="rgb(0, 0, 0)" stroke="rgb(60, 60, 60)" stroke-width="1px" opacity="0.25"></line><line x1="629.784375" y1="0" x2="629.784375" y2="378" fill="rgb(0, 0, 0)" stroke="rgb(60, 60, 60)" stroke-width="1px" opacity="0.25"></line><line x1="687.0375" y1="0" x2="687.0375" y2="378" fill="rgb(0, 0, 0)" stroke="rgb(60, 60, 60)" stroke-width="1px" opacity="0.25"></line></g><g><line x1="0" y1="378" x2="687.0375" y2="378" fill="rgb(0, 0, 0)" stroke="rgb(60, 60, 60)" stroke-width="1px" opacity="0.25"></line><line x1="0" y1="336" x2="687.0375" y2="336" fill="rgb(0, 0, 0)" stroke="rgb(60, 60, 60)" stroke-width="1px" opacity="0.25"></line><line x1="0" y1="294" x2="687.0375" y2="294" fill="rgb(0, 0, 0)" stroke="rgb(60, 60, 60)" stroke-width="1px" opacity="0.25"></line><line x1="0" y1="252.00000000000003" x2="687.0375" y2="252.00000000000003" fill="rgb(0, 0, 0)" stroke="rgb(60, 60, 60)" stroke-width="1px" opacity="0.25"></line><line x1="0" y1="210" x2="687.0375" y2="210" fill="rgb(0, 0, 0)" stroke="rgb(60, 60, 60)" stroke-width="1px" opacity="0.25"></line><line x1="0" y1="168" x2="687.0375" y2="168" fill="rgb(0, 0, 0)" stroke="rgb(60, 60, 60)" stroke-width="1px" opacity="0.25"></line><line x1="0" y1="126.00000000000001" x2="687.0375" y2="126.00000000000001" fill="rgb(0, 0, 0)" stroke="rgb(60, 60, 60)" stroke-width="1px" opacity="0.25"></line><line x1="0" y1="84" x2="687.0375" y2="84" fill="rgb(0, 0, 0)" stroke="rgb(60, 60, 60)" stroke-width="1px" opacity="0.25"></line><line x1="0" y1="42.00000000000002" x2="687.0375" y2="42.00000000000002" fill="rgb(0, 0, 0)" stroke="rgb(60, 60, 60)" stroke-width="1px" opacity="0.25"></line><line x1="0" y1="0" x2="687.0375" y2="0" fill="rgb(0, 0, 0)" stroke="rgb(60, 60, 60)" stroke-width="1px" opacity="0.25"></line></g></g></g><g><g><line x1="0" y1="336" x2="687.0375" y2="336" fill="rgb(0, 0, 0)" stroke="rgb(153, 153, 153)" stroke-width="1.5px"></line></g></g><g><g><line x1="57.253125" y1="0" x2="57.253125" y2="378" fill="rgb(0, 0, 0)" stroke="rgb(153, 153, 153)" stroke-width="1.5px"></line></g></g><g><g><g><g><g><path stroke="rgb(51, 187, 238)" stroke-width="2px" d="M57.253125,72.55097293853758L68.70375,125.41580772399901L80.154375,137.49434852600098L91.605,96.1855058670044L103.055625,65.85146713256835L114.50625,160.9011325836182L125.956875,169.14494276046753L137.4075,177.7827773094177L148.858125,159.1844244003296L160.30875,154.61142253875732L171.759375,170.4522156715393L183.21,184.43654108047485L194.660625,185.2484221458435L206.11125,169.83736181259155L217.561875,180.5428705215454L229.0125,177.32500648498538L240.463125,173.0520215034485L251.91375,182.44032382965088L263.36437500000005,176.7982120513916L274.815,179.64875793457028L286.265625,176.66709423065186L297.71625,176.76770067214966L309.166875,179.55531120300293L320.6175,176.41048622131345L332.068125,177.29474544525146L343.51875,176.6791405677795L354.96937500000007,177.57034921646118L366.42,177.1681036949158L377.870625,177.73776626586917L389.32125,178.25397634506226L400.771875,177.7203726768494L412.2225,176.88490962982178L423.673125,176.4663119316101L435.12375,176.83921766281128L446.57437500000003,176.97723484039307L458.025,176.79158306121826L469.47562500000004,176.65769147872922L480.92625,177.45259952545166L492.37687500000004,176.77856540679932L503.8275,176.91834497451782L515.278125,177.06452322006226L526.7287500000001,177.42710494995117L538.179375,177.60879135131836L549.63,177.80709028244019L561.080625,177.82028818130493L572.53125,177.93404245376587L583.9818750000001,177.8818917274475L595.4325,178.02913141250613L606.883125,177.80284452438354L618.33375,177.8742513656616" style="fill: none;" fill="none"></path></g><g><path stroke="rgb(204, 51, 17)" stroke-width="2px" d="M57.253125,116.4609031677246L68.70375,142.6034173965454L80.154375,135.09126949310303L91.605,96.96045684814455L103.055625,14.466519355773917L114.50625,58.65422630310061L125.956875,70.99394130706789L137.4075,53.96204280853271L148.858125,46.42878627777102L160.30875,24.384970664978013L171.759375,71.65329551696777L183.21,76.80956840515135L194.660625,82.55520057678223L206.11125,98.15035057067871L217.561875,75.91135025024414L229.0125,83.46529483795166L240.463125,61.525360107421875L251.91375,39.05712890624999L263.36437500000005,53.43378639221191L274.815,38.21771049499513L286.265625,62.43903923034666L297.71625,67.29184055328368L309.166875,76.36035919189455L320.6175,72.80205345153807L332.068125,68.07376098632814L343.51875,60.886333465576186L354.96937500000007,60.701302528381326L366.42,51.268990516662605L377.870625,58.4803304672241L389.32125,56.88722991943359L400.771875,56.762600898742654L412.2225,46.62214851379396L423.673125,54.123161315917976L435.12375,58.724121093750014L446.57437500000003,60.89118003845214L458.025,53.986435890197775L469.47562500000004,57.246997833251946L480.92625,57.20191669464112L492.37687500000004,49.479984283447266L503.8275,51.987965583801255L515.278125,55.425167083740234L526.7287500000001,56.39794635772705L538.179375,51.96853923797607L549.63,51.28234863281249L561.080625,50.10687446594238L572.53125,51.86325645446778L583.9818750000001,51.16597080230715L595.4325,50.45088100433349L606.883125,52.811262130737305L618.33375,52.259373664855936" style="fill: none;" fill="none"></path></g><g><path stroke="rgb(238, 51, 119)" stroke-width="2px" d="M57.253125,122.09508419036864L68.70375,124.20336341857912L80.154375,52.08641910552978L91.605,40.60548877716062L103.055625,107.17252635955812L114.50625,68.56572818756102L125.956875,19.148148536682115L137.4075,83.76948738098146L148.858125,13.84357452392579L160.30875,37.07263755798339L171.759375,94.69880962371826L183.21,100.58270931243896L194.660625,103.53218936920166L206.11125,109.32802963256836L217.561875,103.89952754974365L229.0125,114.15719890594481L240.463125,113.4812021255493L251.91375,113.01883506774904L263.36437500000005,110.5086908340454L274.815,110.19714832305907L286.265625,111.03218078613283L297.71625,111.30731391906737L309.166875,112.3555555343628L320.6175,111.98675537109376L332.068125,111.38047313690186L343.51875,112.61394596099852L354.96937500000007,113.1342315673828L366.42,113.75060749053955L377.870625,113.76350498199461L389.32125,114.34717655181883L400.771875,114.3153133392334L412.2225,114.26708793640137L423.673125,114.25877666473387L435.12375,114.32746982574463L446.57437500000003,114.37547492980956L458.025,114.32626819610594L469.47562500000004,114.31839752197267L480.92625,114.28603363037108L492.37687500000004,114.26324272155763L503.8275,114.24720096588136L515.278125,114.26226139068605L526.7287500000001,114.25827598571776L538.179375,114.25240802764893L549.63,114.24285507202148L561.080625,114.24379634857178L572.53125,114.23586559295654L583.9818750000001,114.24051189422607L595.4325,114.23390293121336L606.883125,114.23634624481203L618.33375,114.2262125015259" style="fill: none;" fill="none"></path></g><g><path stroke="rgb(255, 112, 67)" stroke-width="2px" d="M57.253125,306.4748332500458L68.70375,306.33184683322906L80.154375,305.69267749786377L91.605,305.61980617046356L103.055625,306.31278598308563L114.50625,302.3506350517273L125.956875,302.76272892951965L137.4075,299.6763482093811L148.858125,292.55858516693115L160.30875,295.4486871957779L171.759375,300.74349796772003L183.21,301.6860662698746L194.660625,299.9393073320389L206.11125,300.03293430805206L217.561875,299.1510708332062L229.0125,297.67814326286316L240.463125,297.4876549243927L251.91375,295.13009762763977L263.36437500000005,295.59150087833405L274.815,295.55020236968994L286.265625,296.5710618495941L297.71625,296.4765236377716L309.166875,295.921395778656L320.6175,295.97960472106934L332.068125,295.1861536502838L343.51875,294.0728863477707L354.96937500000007,294.5369757413864L366.42,294.00936019420624L377.870625,294.5430189371109L389.32125,294.29676496982574L400.771875,294.25940930843353L412.2225,293.79872703552246L423.673125,293.33416199684143L435.12375,293.30999422073364L446.57437500000003,293.0770332813263L458.025,292.8823091983795L469.47562500000004,293.02806186676025L480.92625,292.7553219795227L492.37687500000004,292.1043391227722L503.8275,292.987256526947L515.278125,292.19538259506226L526.7287500000001,292.1867208480835L538.179375,292.1440529823303L549.63,291.8296866416931L561.080625,291.07109785079956L572.53125,291.24788761138916L583.9818750000001,291.06459403038025L595.4325,291.53905749320984L606.883125,291.52610993385315L618.33375,291.38203954696655" style="fill: none;" fill="none"></path></g><g><path stroke="rgb(0, 119, 187)" stroke-width="2px" d="M57.253125,306.48268139362335L68.70375,308.8072239160538L80.154375,308.43371737003326L91.605,304.05802059173584L103.055625,302.009605050087L114.50625,303.27767729759216L125.956875,301.24159348011017L137.4075,296.73748755455017L148.858125,300.14137637615204L160.30875,296.44664311408997L171.759375,301.48946464061737L183.21,301.637948513031L194.660625,301.81961739063263L206.11125,302.0543131828308L217.561875,301.71137058734894L229.0125,300.86232912540436L240.463125,300.377804517746L251.91375,300.8129471540451L263.36437500000005,299.4377896785736L274.815,299.31149339675903L286.265625,299.6360810995102L297.71625,299.6878137588501L309.166875,299.7641648054123L320.6175,299.2591999769211L332.068125,298.94217252731323L343.51875,298.9051923751831L354.96937500000007,299.12681543827057L366.42,298.60535073280334L377.870625,298.215722322464L389.32125,298.5166679620743L400.771875,298.9038155078888L412.2225,298.9791752099991L423.673125,298.85793828964233L435.12375,298.7900937795639L446.57437500000003,298.67022371292114L458.025,298.93745613098145L469.47562500000004,298.8061054944992L480.92625,298.7064303159714L492.37687500000004,298.79138803482056L503.8275,298.8127269744873L515.278125,298.8256219625473L526.7287500000001,298.672984957695L538.179375,298.7046378850937L549.63,298.665682554245L561.080625,298.6579796075821L572.53125,298.54081070423126L583.9818750000001,298.6009097099304L595.4325,298.56947457790375L606.883125,298.55587363243103L618.33375,298.53568375110626" style="fill: none;" fill="none"></path></g></g></g></g></g></g><g transform="translate(51, 378)" clip-path="url(#clip_1)"><clipPath id="clip_1"><rect width="687" height="22"></rect></clipPath><g><g><line x1="0" y1="0" x2="0" y2="5" style="visibility: inherit;" fill="rgb(0, 0, 0)" stroke="rgb(204, 204, 204)" stroke-width="1px"></line><line x1="57.253125" y1="0" x2="57.253125" y2="5" style="visibility: inherit;" fill="rgb(0, 0, 0)" stroke="rgb(204, 204, 204)" stroke-width="1px"></line><line x1="114.50625" y1="0" x2="114.50625" y2="5" style="visibility: inherit;" fill="rgb(0, 0, 0)" stroke="rgb(204, 204, 204)" stroke-width="1px"></line><line x1="171.759375" y1="0" x2="171.759375" y2="5" style="visibility: inherit;" fill="rgb(0, 0, 0)" stroke="rgb(204, 204, 204)" stroke-width="1px"></line><line x1="229.0125" y1="0" x2="229.0125" y2="5" style="visibility: inherit;" fill="rgb(0, 0, 0)" stroke="rgb(204, 204, 204)" stroke-width="1px"></line><line x1="286.265625" y1="0" x2="286.265625" y2="5" style="visibility: inherit;" fill="rgb(0, 0, 0)" stroke="rgb(204, 204, 204)" stroke-width="1px"></line><line x1="343.51875" y1="0" x2="343.51875" y2="5" style="visibility: inherit;" fill="rgb(0, 0, 0)" stroke="rgb(204, 204, 204)" stroke-width="1px"></line><line x1="400.771875" y1="0" x2="400.771875" y2="5" style="visibility: inherit;" fill="rgb(0, 0, 0)" stroke="rgb(204, 204, 204)" stroke-width="1px"></line><line x1="458.025" y1="0" x2="458.025" y2="5" style="visibility: inherit;" fill="rgb(0, 0, 0)" stroke="rgb(204, 204, 204)" stroke-width="1px"></line><line x1="515.278125" y1="0" x2="515.278125" y2="5" style="visibility: inherit;" fill="rgb(0, 0, 0)" stroke="rgb(204, 204, 204)" stroke-width="1px"></line><line x1="572.53125" y1="0" x2="572.53125" y2="5" style="visibility: inherit;" fill="rgb(0, 0, 0)" stroke="rgb(204, 204, 204)" stroke-width="1px"></line><line x1="629.784375" y1="0" x2="629.784375" y2="5" style="visibility: inherit;" fill="rgb(0, 0, 0)" stroke="rgb(204, 204, 204)" stroke-width="1px"></line><line x1="687.0375" y1="0" x2="687.0375" y2="5" style="visibility: inherit;" fill="rgb(0, 0, 0)" stroke="rgb(204, 204, 204)" stroke-width="1px"></line></g><g transform="translate(0, 8)"><text x="0" y="0" dx="0em" dy="0.95em" style="text-anchor: middle; visibility: hidden; font-family: Roboto, sans-serif; font-size: 12px; font-weight: 200;" fill="rgb(50, 49, 63)" stroke="none" stroke-width="1px">-5</text><text x="57.253125" y="0" dx="0em" dy="0.95em" style="text-anchor: middle; visibility: inherit; font-family: Roboto, sans-serif; font-size: 12px; font-weight: 200;" fill="rgb(50, 49, 63)" stroke="none" stroke-width="1px">0</text><text x="114.50625" y="0" dx="0em" dy="0.95em" style="text-anchor: middle; visibility: inherit; font-family: Roboto, sans-serif; font-size: 12px; font-weight: 200;" fill="rgb(50, 49, 63)" stroke="none" stroke-width="1px">5</text><text x="171.759375" y="0" dx="0em" dy="0.95em" style="text-anchor: middle; visibility: inherit; font-family: Roboto, sans-serif; font-size: 12px; font-weight: 200;" fill="rgb(50, 49, 63)" stroke="none" stroke-width="1px">10</text><text x="229.0125" y="0" dx="0em" dy="0.95em" style="text-anchor: middle; visibility: inherit; font-family: Roboto, sans-serif; font-size: 12px; font-weight: 200;" fill="rgb(50, 49, 63)" stroke="none" stroke-width="1px">15</text><text x="286.265625" y="0" dx="0em" dy="0.95em" style="text-anchor: middle; visibility: inherit; font-family: Roboto, sans-serif; font-size: 12px; font-weight: 200;" fill="rgb(50, 49, 63)" stroke="none" stroke-width="1px">20</text><text x="343.51875" y="0" dx="0em" dy="0.95em" style="text-anchor: middle; visibility: inherit; font-family: Roboto, sans-serif; font-size: 12px; font-weight: 200;" fill="rgb(50, 49, 63)" stroke="none" stroke-width="1px">25</text><text x="400.771875" y="0" dx="0em" dy="0.95em" style="text-anchor: middle; visibility: inherit; font-family: Roboto, sans-serif; font-size: 12px; font-weight: 200;" fill="rgb(50, 49, 63)" stroke="none" stroke-width="1px">30</text><text x="458.025" y="0" dx="0em" dy="0.95em" style="text-anchor: middle; visibility: inherit; font-family: Roboto, sans-serif; font-size: 12px; font-weight: 200;" fill="rgb(50, 49, 63)" stroke="none" stroke-width="1px">35</text><text x="515.278125" y="0" dx="0em" dy="0.95em" style="text-anchor: middle; visibility: inherit; font-family: Roboto, sans-serif; font-size: 12px; font-weight: 200;" fill="rgb(50, 49, 63)" stroke="none" stroke-width="1px">40</text><text x="572.53125" y="0" dx="0em" dy="0.95em" style="text-anchor: middle; visibility: inherit; font-family: Roboto, sans-serif; font-size: 12px; font-weight: 200;" fill="rgb(50, 49, 63)" stroke="none" stroke-width="1px">45</text><text x="629.784375" y="0" dx="0em" dy="0.95em" style="text-anchor: middle; visibility: inherit; font-family: Roboto, sans-serif; font-size: 12px; font-weight: 200;" fill="rgb(50, 49, 63)" stroke="none" stroke-width="1px">50</text><text x="687.0375" y="0" dx="0em" dy="0.95em" style="text-anchor: middle; visibility: hidden; font-family: Roboto, sans-serif; font-size: 12px; font-weight: 200;" fill="rgb(50, 49, 63)" stroke="none" stroke-width="1px">55</text></g><line x1="0" y1="0" x2="687.0375" y2="0" fill="rgb(0, 0, 0)" stroke="rgb(204, 204, 204)" stroke-width="1px"></line></g></g></g></g></svg>