<svg viewBox="0 0 761.4000244140625 400" xmlns="http://www.w3.org/2000/svg"><g><g><g><g><g><line x1="50" y1="337.08097798876906" x2="45" y2="337.08097798876906" style="visibility: inherit;" fill="rgb(0, 0, 0)" stroke="rgb(204, 204, 204)" stroke-width="1px"></line><line x1="50" y1="288.25598076455873" x2="45" y2="288.25598076455873" style="visibility: inherit;" fill="rgb(0, 0, 0)" stroke="rgb(204, 204, 204)" stroke-width="1px"></line><line x1="50" y1="239.43098354034842" x2="45" y2="239.43098354034842" style="visibility: inherit;" fill="rgb(0, 0, 0)" stroke="rgb(204, 204, 204)" stroke-width="1px"></line><line x1="50" y1="190.6059863161381" x2="45" y2="190.6059863161381" style="visibility: inherit;" fill="rgb(0, 0, 0)" stroke="rgb(204, 204, 204)" stroke-width="1px"></line><line x1="50" y1="141.78098909192778" x2="45" y2="141.78098909192778" style="visibility: inherit;" fill="rgb(0, 0, 0)" stroke="rgb(204, 204, 204)" stroke-width="1px"></line><line x1="50" y1="92.95599186771746" x2="45" y2="92.95599186771746" style="visibility: inherit;" fill="rgb(0, 0, 0)" stroke="rgb(204, 204, 204)" stroke-width="1px"></line><line x1="50" y1="44.13099464350714" x2="45" y2="44.13099464350714" style="visibility: inherit;" fill="rgb(0, 0, 0)" stroke="rgb(204, 204, 204)" stroke-width="1px"></line></g><g transform="translate(40, 0)"><text x="0" y="337.08097798876906" dx="0em" dy="0.3em" style="text-anchor: end; visibility: inherit; font-family: Roboto, sans-serif; font-size: 12px; font-weight: 200;" fill="rgb(50, 49, 63)" stroke="none" stroke-width="1px">0.83</text><text x="0" y="288.25598076455873" dx="0em" dy="0.3em" style="text-anchor: end; visibility: inherit; font-family: Roboto, sans-serif; font-size: 12px; font-weight: 200;" fill="rgb(50, 49, 63)" stroke="none" stroke-width="1px">0.84</text><text x="0" y="239.43098354034842" dx="0em" dy="0.3em" style="text-anchor: end; visibility: inherit; font-family: Roboto, sans-serif; font-size: 12px; font-weight: 200;" fill="rgb(50, 49, 63)" stroke="none" stroke-width="1px">0.85</text><text x="0" y="190.6059863161381" dx="0em" dy="0.3em" style="text-anchor: end; visibility: inherit; font-family: Roboto, sans-serif; font-size: 12px; font-weight: 200;" fill="rgb(50, 49, 63)" stroke="none" stroke-width="1px">0.86</text><text x="0" y="141.78098909192778" dx="0em" dy="0.3em" style="text-anchor: end; visibility: inherit; font-family: Roboto, sans-serif; font-size: 12px; font-weight: 200;" fill="rgb(50, 49, 63)" stroke="none" stroke-width="1px">0.87</text><text x="0" y="92.95599186771746" dx="0em" dy="0.3em" style="text-anchor: end; visibility: inherit; font-family: Roboto, sans-serif; font-size: 12px; font-weight: 200;" fill="rgb(50, 49, 63)" stroke="none" stroke-width="1px">0.88</text><text x="0" y="44.13099464350714" dx="0em" dy="0.3em" style="text-anchor: end; visibility: inherit; font-family: Roboto, sans-serif; font-size: 12px; font-weight: 200;" fill="rgb(50, 49, 63)" stroke="none" stroke-width="1px">0.89</text></g><line x1="50" y1="0" x2="50" y2="378" fill="rgb(0, 0, 0)" stroke="rgb(204, 204, 204)" stroke-width="1px"></line></g></g><g transform="translate(50, 0)" clip-path="url(#clip_0)"><clipPath id="clip_0"><rect width="711" height="378"></rect></clipPath><g><g><g><line x1="23.89904118127412" y1="0" x2="23.89904118127412" y2="378" fill="rgb(0, 0, 0)" stroke="rgb(60, 60, 60)" stroke-width="1px" opacity="0.25"></line><line x1="92.73226907289748" y1="0" x2="92.73226907289748" y2="378" fill="rgb(0, 0, 0)" stroke="rgb(60, 60, 60)" stroke-width="1px" opacity="0.25"></line><line x1="161.56549696452083" y1="0" x2="161.56549696452083" y2="378" fill="rgb(0, 0, 0)" stroke="rgb(60, 60, 60)" stroke-width="1px" opacity="0.25"></line><line x1="230.39872485614418" y1="0" x2="230.39872485614418" y2="378" fill="rgb(0, 0, 0)" stroke="rgb(60, 60, 60)" stroke-width="1px" opacity="0.25"></line><line x1="299.23195274776754" y1="0" x2="299.23195274776754" y2="378" fill="rgb(0, 0, 0)" stroke="rgb(60, 60, 60)" stroke-width="1px" opacity="0.25"></line><line x1="368.0651806393909" y1="0" x2="368.0651806393909" y2="378" fill="rgb(0, 0, 0)" stroke="rgb(60, 60, 60)" stroke-width="1px" opacity="0.25"></line><line x1="436.89840853101424" y1="0" x2="436.89840853101424" y2="378" fill="rgb(0, 0, 0)" stroke="rgb(60, 60, 60)" stroke-width="1px" opacity="0.25"></line><line x1="505.7316364226376" y1="0" x2="505.7316364226376" y2="378" fill="rgb(0, 0, 0)" stroke="rgb(60, 60, 60)" stroke-width="1px" opacity="0.25"></line><line x1="574.564864314261" y1="0" x2="574.564864314261" y2="378" fill="rgb(0, 0, 0)" stroke="rgb(60, 60, 60)" stroke-width="1px" opacity="0.25"></line><line x1="643.3980922058843" y1="0" x2="643.3980922058843" y2="378" fill="rgb(0, 0, 0)" stroke="rgb(60, 60, 60)" stroke-width="1px" opacity="0.25"></line></g><g><line x1="0" y1="337.08097798876906" x2="711.4" y2="337.08097798876906" fill="rgb(0, 0, 0)" stroke="rgb(60, 60, 60)" stroke-width="1px" opacity="0.25"></line><line x1="0" y1="288.25598076455873" x2="711.4" y2="288.25598076455873" fill="rgb(0, 0, 0)" stroke="rgb(60, 60, 60)" stroke-width="1px" opacity="0.25"></line><line x1="0" y1="239.43098354034842" x2="711.4" y2="239.43098354034842" fill="rgb(0, 0, 0)" stroke="rgb(60, 60, 60)" stroke-width="1px" opacity="0.25"></line><line x1="0" y1="190.6059863161381" x2="711.4" y2="190.6059863161381" fill="rgb(0, 0, 0)" stroke="rgb(60, 60, 60)" stroke-width="1px" opacity="0.25"></line><line x1="0" y1="141.78098909192778" x2="711.4" y2="141.78098909192778" fill="rgb(0, 0, 0)" stroke="rgb(60, 60, 60)" stroke-width="1px" opacity="0.25"></line><line x1="0" y1="92.95599186771746" x2="711.4" y2="92.95599186771746" fill="rgb(0, 0, 0)" stroke="rgb(60, 60, 60)" stroke-width="1px" opacity="0.25"></line><line x1="0" y1="44.13099464350714" x2="711.4" y2="44.13099464350714" fill="rgb(0, 0, 0)" stroke="rgb(60, 60, 60)" stroke-width="1px" opacity="0.25"></line></g></g></g><g><g><line x1="0" y1="4389.555747598221" x2="711.4" y2="4389.555747598221" fill="rgb(0, 0, 0)" stroke="rgb(153, 153, 153)" stroke-width="1.5px"></line></g></g><g><g><line x1="23.89904118127412" y1="0" x2="23.89904118127412" y2="378" fill="rgb(0, 0, 0)" stroke="rgb(153, 153, 153)" stroke-width="1.5px"></line></g></g><g><g><g><g><g><path stroke="rgb(0, 119, 187)" stroke-width="2px" d="M23.89904118127412,246.1382882923686L37.66568675959879,165.14315118227788L51.43233233792346,162.6118621659346L65.19897791624814,225.8897222795921L78.9656234945728,208.17186324383567L92.73226907289748,179.0640766935194L106.49891465122215,160.08086416925298L120.26556022954682,175.26743418866613L134.0322058078715,84.14772305252554L147.79885138619616,143.62864964166815L161.56549696452083,63.898866020087475L175.3321425428455,74.0234400461373L189.09878812117017,62.63322151191583L202.86543369949482,37.32236848611442L216.6320792778195,42.38465549913933L230.39872485614418,25.932440971554527L244.16537043446885,41.11901099096772L257.9320160127935,43.65000898764937L271.6986615911182,52.50893850552758L285.46530716944284,38.58801299428603L299.23195274776754,48.71229600067428L312.99859832609224,37.32236848611442L326.7652439044169,52.50893850552758L340.5318894827416,34.79107946977116L354.2985350610662,39.85336648279607L368.0651806393909,38.58801299428603L381.83182621771556,39.85336648279607L395.5984717960402,39.85336648279607L409.36511737436484,46.18129800399263L423.1317629526896,36.056723977942816L436.89840853101424,38.58801299428603L450.6650541093389,36.056723977942816L464.4316996876636,39.85336648279607L478.1983452659882,48.71229600067428L491.9649908443129,44.915653495820976L505.7316364226376,41.11901099096772L519.4982820009623,46.18129800399263L533.2649275792869,41.11901099096772L547.0315731576117,43.65000898764937L560.7982187359363,37.32236848611442L574.564864314261,34.79107946977116L588.3315098925856,38.58801299428603L602.0981554709102,36.056723977942816L615.864801049235,41.11901099096772L629.6314466275596,33.525725981261125L643.3980922058843,41.11901099096772L657.1647377842089,37.32236848611442L670.9313833625336,39.85336648279607L684.6980289408583,41.11901099096772L698.464674519183,39.85336648279607" style="fill: none;" fill="none"></path></g><g><path stroke="rgb(255, 112, 67)" stroke-width="2px" d="M23.89904118127412,361.30349896580054L37.66568675959879,268.9184343411499L51.43233233792346,230.95171827295545L65.19897791624814,179.0640766935194L78.9656234945728,139.83200713681487L92.73226907289748,124.6454371174017L106.49891465122215,113.25550960284181L120.26556022954682,93.00665257040374L134.0322058078715,82.88207854435393L147.79885138619616,77.82008255099059L161.56549696452083,72.75779553796568L175.3321425428455,55.03993650220927L189.09878812117017,56.30558101038088L202.86543369949482,52.50893850552758L216.6320792778195,44.915653495820976L230.39872485614418,43.65000898764937L244.16537043446885,29.729083476407826L257.9320160127935,28.46343896823622L271.6986615911182,30.994436964917867L285.46530716944284,27.197794460064607L299.23195274776754,20.870153958529617L312.99859832609224,18.33915596184797L326.7652439044169,28.46343896823622L340.5318894827416,39.85336648279607L354.2985350610662,17.073511453676318L368.0651806393909,29.729083476407826L381.83182621771556,10.74587095214137L395.5984717960402,17.073511453676318L409.36511737436484,22.135798466701267L423.1317629526896,17.073511453676318L436.89840853101424,22.135798466701267L450.6650541093389,23.401151955211308L464.4316996876636,17.073511453676318L478.1983452659882,23.401151955211308L491.9649908443129,25.932440971554527L505.7316364226376,18.33915596184797L519.4982820009623,28.46343896823622L533.2649275792869,27.197794460064607L547.0315731576117,20.870153958529617L560.7982187359363,28.46343896823622L574.564864314261,30.994436964917867L588.3315098925856,27.197794460064607L602.0981554709102,32.260081473089514L615.864801049235,30.994436964917867L629.6314466275596,19.60450945035801L643.3980922058843,32.260081473089514L657.1647377842089,30.994436964917867L670.9313833625336,32.260081473089514L684.6980289408583,32.260081473089514L698.464674519183,18.33915596184797" style="fill: none;" fill="none"></path></g><g><path stroke="rgb(204, 51, 17)" stroke-width="2px" d="M23.89904118127412,299.2915743799763L37.66568675959879,163.87750667410623L51.43233233792346,125.91108162557332L65.19897791624814,68.96115303311238L78.9656234945728,47.44665149250267L92.73226907289748,55.03993650220927L106.49891465122215,33.525725981261125L120.26556022954682,23.401151955211308L134.0322058078715,29.729083476407826L147.79885138619616,24.666796463382916L161.56549696452083,19.60450945035801L175.3321425428455,22.135798466701267L189.09878812117017,22.135798466701267L202.86543369949482,18.33915596184797L216.6320792778195,19.60450945035801L230.39872485614418,13.276868948823061L244.16537043446885,9.480226443969762L257.9320160127935,6.948937427626504L271.6986615911182,13.276868948823061L285.46530716944284,9.480226443969762L299.23195274776754,9.480226443969762L312.99859832609224,8.214581935798112L326.7652439044169,8.214581935798112L340.5318894827416,8.214581935798112L354.2985350610662,8.214581935798112L368.0651806393909,8.214581935798112L381.83182621771556,8.214581935798112L395.5984717960402,8.214581935798112L409.36511737436484,8.214581935798112L423.1317629526896,8.214581935798112L436.89840853101424,8.214581935798112L450.6650541093389,8.214581935798112L464.4316996876636,8.214581935798112L478.1983452659882,8.214581935798112L491.9649908443129,8.214581935798112L505.7316364226376,8.214581935798112L519.4982820009623,8.214581935798112L533.2649275792869,8.214581935798112L547.0315731576117,8.214581935798112L560.7982187359363,8.214581935798112L574.564864314261,8.214581935798112L588.3315098925856,8.214581935798112L602.0981554709102,8.214581935798112L615.864801049235,8.214581935798112L629.6314466275596,8.214581935798112L643.3980922058843,8.214581935798112L657.1647377842089,8.214581935798112L670.9313833625336,8.214581935798112L684.6980289408583,8.214581935798112L698.464674519183,8.214581935798112" style="fill: none;" fill="none"></path></g></g></g></g></g></g><g transform="translate(50, 378)" clip-path="url(#clip_1)"><clipPath id="clip_1"><rect width="711" height="22"></rect></clipPath><g><g><line x1="23.89904118127412" y1="0" x2="23.89904118127412" y2="5" style="visibility: inherit;" fill="rgb(0, 0, 0)" stroke="rgb(204, 204, 204)" stroke-width="1px"></line><line x1="92.73226907289748" y1="0" x2="92.73226907289748" y2="5" style="visibility: inherit;" fill="rgb(0, 0, 0)" stroke="rgb(204, 204, 204)" stroke-width="1px"></line><line x1="161.56549696452083" y1="0" x2="161.56549696452083" y2="5" style="visibility: inherit;" fill="rgb(0, 0, 0)" stroke="rgb(204, 204, 204)" stroke-width="1px"></line><line x1="230.39872485614418" y1="0" x2="230.39872485614418" y2="5" style="visibility: inherit;" fill="rgb(0, 0, 0)" stroke="rgb(204, 204, 204)" stroke-width="1px"></line><line x1="299.23195274776754" y1="0" x2="299.23195274776754" y2="5" style="visibility: inherit;" fill="rgb(0, 0, 0)" stroke="rgb(204, 204, 204)" stroke-width="1px"></line><line x1="368.0651806393909" y1="0" x2="368.0651806393909" y2="5" style="visibility: inherit;" fill="rgb(0, 0, 0)" stroke="rgb(204, 204, 204)" stroke-width="1px"></line><line x1="436.89840853101424" y1="0" x2="436.89840853101424" y2="5" style="visibility: inherit;" fill="rgb(0, 0, 0)" stroke="rgb(204, 204, 204)" stroke-width="1px"></line><line x1="505.7316364226376" y1="0" x2="505.7316364226376" y2="5" style="visibility: inherit;" fill="rgb(0, 0, 0)" stroke="rgb(204, 204, 204)" stroke-width="1px"></line><line x1="574.564864314261" y1="0" x2="574.564864314261" y2="5" style="visibility: inherit;" fill="rgb(0, 0, 0)" stroke="rgb(204, 204, 204)" stroke-width="1px"></line><line x1="643.3980922058843" y1="0" x2="643.3980922058843" y2="5" style="visibility: inherit;" fill="rgb(0, 0, 0)" stroke="rgb(204, 204, 204)" stroke-width="1px"></line></g><g transform="translate(0, 8)"><text x="23.89904118127412" y="0" dx="0em" dy="0.95em" style="text-anchor: middle; visibility: inherit; font-family: Roboto, sans-serif; font-size: 12px; font-weight: 200;" fill="rgb(50, 49, 63)" stroke="none" stroke-width="1px">0</text><text x="92.73226907289748" y="0" dx="0em" dy="0.95em" style="text-anchor: middle; visibility: inherit; font-family: Roboto, sans-serif; font-size: 12px; font-weight: 200;" fill="rgb(50, 49, 63)" stroke="none" stroke-width="1px">5</text><text x="161.56549696452083" y="0" dx="0em" dy="0.95em" style="text-anchor: middle; visibility: inherit; font-family: Roboto, sans-serif; font-size: 12px; font-weight: 200;" fill="rgb(50, 49, 63)" stroke="none" stroke-width="1px">10</text><text x="230.39872485614418" y="0" dx="0em" dy="0.95em" style="text-anchor: middle; visibility: inherit; font-family: Roboto, sans-serif; font-size: 12px; font-weight: 200;" fill="rgb(50, 49, 63)" stroke="none" stroke-width="1px">15</text><text x="299.23195274776754" y="0" dx="0em" dy="0.95em" style="text-anchor: middle; visibility: inherit; font-family: Roboto, sans-serif; font-size: 12px; font-weight: 200;" fill="rgb(50, 49, 63)" stroke="none" stroke-width="1px">20</text><text x="368.0651806393909" y="0" dx="0em" dy="0.95em" style="text-anchor: middle; visibility: inherit; font-family: Roboto, sans-serif; font-size: 12px; font-weight: 200;" fill="rgb(50, 49, 63)" stroke="none" stroke-width="1px">25</text><text x="436.89840853101424" y="0" dx="0em" dy="0.95em" style="text-anchor: middle; visibility: inherit; font-family: Roboto, sans-serif; font-size: 12px; font-weight: 200;" fill="rgb(50, 49, 63)" stroke="none" stroke-width="1px">30</text><text x="505.7316364226376" y="0" dx="0em" dy="0.95em" style="text-anchor: middle; visibility: inherit; font-family: Roboto, sans-serif; font-size: 12px; font-weight: 200;" fill="rgb(50, 49, 63)" stroke="none" stroke-width="1px">35</text><text x="574.564864314261" y="0" dx="0em" dy="0.95em" style="text-anchor: middle; visibility: inherit; font-family: Roboto, sans-serif; font-size: 12px; font-weight: 200;" fill="rgb(50, 49, 63)" stroke="none" stroke-width="1px">40</text><text x="643.3980922058843" y="0" dx="0em" dy="0.95em" style="text-anchor: middle; visibility: inherit; font-family: Roboto, sans-serif; font-size: 12px; font-weight: 200;" fill="rgb(50, 49, 63)" stroke="none" stroke-width="1px">45</text></g><line x1="0" y1="0" x2="711.4" y2="0" fill="rgb(0, 0, 0)" stroke="rgb(204, 204, 204)" stroke-width="1px"></line></g></g></g></g></svg>