<svg viewBox="0 0 887 400" xmlns="http://www.w3.org/2000/svg"><g><g><g><g><g><line x1="20" y1="377.82139856944053" x2="15" y2="377.82139856944053" style="visibility: inherit;" fill="rgb(0, 0, 0)" stroke="rgb(204, 204, 204)" stroke-width="1px"></line><line x1="20" y1="330.29768176889166" x2="15" y2="330.29768176889166" style="visibility: inherit;" fill="rgb(0, 0, 0)" stroke="rgb(204, 204, 204)" stroke-width="1px"></line><line x1="20" y1="282.77396496834285" x2="15" y2="282.77396496834285" style="visibility: inherit;" fill="rgb(0, 0, 0)" stroke="rgb(204, 204, 204)" stroke-width="1px"></line><line x1="20" y1="235.250248167794" x2="15" y2="235.250248167794" style="visibility: inherit;" fill="rgb(0, 0, 0)" stroke="rgb(204, 204, 204)" stroke-width="1px"></line><line x1="20" y1="187.72653136724514" x2="15" y2="187.72653136724514" style="visibility: inherit;" fill="rgb(0, 0, 0)" stroke="rgb(204, 204, 204)" stroke-width="1px"></line><line x1="20" y1="140.2028145666963" x2="15" y2="140.2028145666963" style="visibility: inherit;" fill="rgb(0, 0, 0)" stroke="rgb(204, 204, 204)" stroke-width="1px"></line><line x1="20" y1="92.67909776614748" x2="15" y2="92.67909776614748" style="visibility: inherit;" fill="rgb(0, 0, 0)" stroke="rgb(204, 204, 204)" stroke-width="1px"></line><line x1="20" y1="45.15538096559865" x2="15" y2="45.15538096559865" style="visibility: inherit;" fill="rgb(0, 0, 0)" stroke="rgb(204, 204, 204)" stroke-width="1px"></line></g><g transform="translate(10, 0)"><text x="0" y="377.82139856944053" dx="0em" dy="0.3em" style="text-anchor: end; visibility: hidden; font-family: Roboto, sans-serif; font-size: 12px; font-weight: 200;" fill="rgb(50, 49, 63)" stroke="none" stroke-width="1px">0</text><text x="0" y="330.29768176889166" dx="0em" dy="0.3em" style="text-anchor: end; visibility: inherit; font-family: Roboto, sans-serif; font-size: 12px; font-weight: 200;" fill="rgb(50, 49, 63)" stroke="none" stroke-width="1px">1</text><text x="0" y="282.77396496834285" dx="0em" dy="0.3em" style="text-anchor: end; visibility: inherit; font-family: Roboto, sans-serif; font-size: 12px; font-weight: 200;" fill="rgb(50, 49, 63)" stroke="none" stroke-width="1px">2</text><text x="0" y="235.250248167794" dx="0em" dy="0.3em" style="text-anchor: end; visibility: inherit; font-family: Roboto, sans-serif; font-size: 12px; font-weight: 200;" fill="rgb(50, 49, 63)" stroke="none" stroke-width="1px">3</text><text x="0" y="187.72653136724514" dx="0em" dy="0.3em" style="text-anchor: end; visibility: inherit; font-family: Roboto, sans-serif; font-size: 12px; font-weight: 200;" fill="rgb(50, 49, 63)" stroke="none" stroke-width="1px">4</text><text x="0" y="140.2028145666963" dx="0em" dy="0.3em" style="text-anchor: end; visibility: inherit; font-family: Roboto, sans-serif; font-size: 12px; font-weight: 200;" fill="rgb(50, 49, 63)" stroke="none" stroke-width="1px">5</text><text x="0" y="92.67909776614748" dx="0em" dy="0.3em" style="text-anchor: end; visibility: inherit; font-family: Roboto, sans-serif; font-size: 12px; font-weight: 200;" fill="rgb(50, 49, 63)" stroke="none" stroke-width="1px">6</text><text x="0" y="45.15538096559865" dx="0em" dy="0.3em" style="text-anchor: end; visibility: inherit; font-family: Roboto, sans-serif; font-size: 12px; font-weight: 200;" fill="rgb(50, 49, 63)" stroke="none" stroke-width="1px">7</text></g><line x1="20" y1="0" x2="20" y2="378" fill="rgb(0, 0, 0)" stroke="rgb(204, 204, 204)" stroke-width="1px"></line></g></g><g transform="translate(20, 0)" clip-path="url(#clip_0)"><clipPath id="clip_0"><rect width="867" height="378"></rect></clipPath><g><g><g><line x1="17.97432524922222" y1="0" x2="17.97432524922222" y2="378" fill="rgb(0, 0, 0)" stroke="rgb(60, 60, 60)" stroke-width="1px" opacity="0.25"></line><line x1="90.64286575376485" y1="0" x2="90.64286575376485" y2="378" fill="rgb(0, 0, 0)" stroke="rgb(60, 60, 60)" stroke-width="1px" opacity="0.25"></line><line x1="163.31140625830747" y1="0" x2="163.31140625830747" y2="378" fill="rgb(0, 0, 0)" stroke="rgb(60, 60, 60)" stroke-width="1px" opacity="0.25"></line><line x1="235.97994676285015" y1="0" x2="235.97994676285015" y2="378" fill="rgb(0, 0, 0)" stroke="rgb(60, 60, 60)" stroke-width="1px" opacity="0.25"></line><line x1="308.64848726739274" y1="0" x2="308.64848726739274" y2="378" fill="rgb(0, 0, 0)" stroke="rgb(60, 60, 60)" stroke-width="1px" opacity="0.25"></line><line x1="381.31702777193544" y1="0" x2="381.31702777193544" y2="378" fill="rgb(0, 0, 0)" stroke="rgb(60, 60, 60)" stroke-width="1px" opacity="0.25"></line><line x1="453.98556827647803" y1="0" x2="453.98556827647803" y2="378" fill="rgb(0, 0, 0)" stroke="rgb(60, 60, 60)" stroke-width="1px" opacity="0.25"></line><line x1="526.6541087810207" y1="0" x2="526.6541087810207" y2="378" fill="rgb(0, 0, 0)" stroke="rgb(60, 60, 60)" stroke-width="1px" opacity="0.25"></line><line x1="599.3226492855633" y1="0" x2="599.3226492855633" y2="378" fill="rgb(0, 0, 0)" stroke="rgb(60, 60, 60)" stroke-width="1px" opacity="0.25"></line><line x1="671.991189790106" y1="0" x2="671.991189790106" y2="378" fill="rgb(0, 0, 0)" stroke="rgb(60, 60, 60)" stroke-width="1px" opacity="0.25"></line><line x1="744.6597302946486" y1="0" x2="744.6597302946486" y2="378" fill="rgb(0, 0, 0)" stroke="rgb(60, 60, 60)" stroke-width="1px" opacity="0.25"></line><line x1="817.3282707991913" y1="0" x2="817.3282707991913" y2="378" fill="rgb(0, 0, 0)" stroke="rgb(60, 60, 60)" stroke-width="1px" opacity="0.25"></line></g><g><line x1="0" y1="377.82139856944053" x2="867" y2="377.82139856944053" fill="rgb(0, 0, 0)" stroke="rgb(60, 60, 60)" stroke-width="1px" opacity="0.25"></line><line x1="0" y1="330.29768176889166" x2="867" y2="330.29768176889166" fill="rgb(0, 0, 0)" stroke="rgb(60, 60, 60)" stroke-width="1px" opacity="0.25"></line><line x1="0" y1="282.77396496834285" x2="867" y2="282.77396496834285" fill="rgb(0, 0, 0)" stroke="rgb(60, 60, 60)" stroke-width="1px" opacity="0.25"></line><line x1="0" y1="235.250248167794" x2="867" y2="235.250248167794" fill="rgb(0, 0, 0)" stroke="rgb(60, 60, 60)" stroke-width="1px" opacity="0.25"></line><line x1="0" y1="187.72653136724514" x2="867" y2="187.72653136724514" fill="rgb(0, 0, 0)" stroke="rgb(60, 60, 60)" stroke-width="1px" opacity="0.25"></line><line x1="0" y1="140.2028145666963" x2="867" y2="140.2028145666963" fill="rgb(0, 0, 0)" stroke="rgb(60, 60, 60)" stroke-width="1px" opacity="0.25"></line><line x1="0" y1="92.67909776614748" x2="867" y2="92.67909776614748" fill="rgb(0, 0, 0)" stroke="rgb(60, 60, 60)" stroke-width="1px" opacity="0.25"></line><line x1="0" y1="45.15538096559865" x2="867" y2="45.15538096559865" fill="rgb(0, 0, 0)" stroke="rgb(60, 60, 60)" stroke-width="1px" opacity="0.25"></line></g></g></g><g><g><line x1="0" y1="377.82139856944053" x2="867" y2="377.82139856944053" fill="rgb(0, 0, 0)" stroke="rgb(153, 153, 153)" stroke-width="1.5px"></line></g></g><g><g><line x1="90.64286575376485" y1="0" x2="90.64286575376485" y2="378" fill="rgb(0, 0, 0)" stroke="rgb(153, 153, 153)" stroke-width="1.5px"></line></g></g><g><g><g><g><g><path stroke="rgb(187, 187, 187)" stroke-width="2px" d="M90.64286575376485,253.9120505608272L105.17657385467339,262.963608697327L119.7102819555819,248.80536618942156L134.24399005649045,225.8560205997988L148.77769815739896,227.06545345326083L163.31140625830747,208.55115199132598L177.84511435921604,204.41382905472278L192.37882246012455,197.54495158068983L206.91253056103307,223.3543286671619L221.44623866194163,194.1045699769994L235.97994676285015,212.69702948338934L250.51365486375866,186.86661158964657L265.0473629646672,206.9618968754366L279.5810710655757,181.84040802278784L294.11477916648425,192.01198974502063L308.64848726739274,168.52632451546776L323.1821953683013,184.01711749223819L337.7159034692098,145.72515968916534L352.2496115701183,153.4594295901839L366.78331967102685,155.77031527918155L381.31702777193544,134.12187396848995L395.8507358728439,142.16487834258947L410.38444397375247,142.26352199800064L424.918152074661,115.0978796286531L439.4518601755695,115.22090659975969L453.98556827647803,131.41364900681162L468.51927637738663,124.89600685027122L483.0529844782951,106.83322728910987L497.58669257920366,103.83539380086265L512.1204006801121,92.92168456402855L526.6541087810207,104.72561143448803L541.1878168819292,95.42625445307189L555.7215249828378,81.72917613295525L570.2552330837462,60.139064426910586L584.7889411846548,54.70156236574629L599.3226492855633,42.17993661852908L613.8563573864718,62.18624319699726L628.3900654873803,48.098057399568184L642.9237735882889,29.097630576760416L657.4574816891975,33.30239286978533L671.991189790106,-21.92112633812705L686.5248978910145,27.493589110042656L701.058605991923,19.54927371350239L715.5923140928315,-7.535921842909306L730.12602219374,-7.069194361437308L744.6597302946486,2.0150863660144354L759.1934383955571,-5.53318143906692L773.7271464964656,-31.74361421436658L788.2608545973741,1.2802103951143609L802.7945626982827,-36.89855534299668" style="fill: none;" fill="none"></path></g><g><path stroke="rgb(0, 153, 136)" stroke-width="2px" d="M90.64286575376485,206.21558839267004L105.17657385467339,279.9812255309338L119.7102819555819,302.82012104555685L134.24399005649045,315.8316282266735L148.77769815739896,309.57551752593366L163.31140625830747,319.84143163423647L177.84511435921604,321.45195983340574L192.37882246012455,323.03337421766815L206.91253056103307,327.848104641339L221.44623866194163,333.0474614751393L235.97994676285015,331.9754510400845L250.51365486375866,328.1754098646174L265.0473629646672,328.8653885825234L279.5810710655757,326.8493291323984L294.11477916648425,320.42074499693905L308.64848726739274,332.46029888290695L323.1821953683013,332.29639416681874L337.7159034692098,334.47071289295513L352.2496115701183,319.4209044175173L366.78331967102685,325.9856872733844L381.31702777193544,334.75071312411984L395.8507358728439,329.07468059733236L410.38444397375247,333.88007465848784L424.918152074661,332.31368456633146L439.4518601755695,332.31935550011656L453.98556827647803,333.24217675405504L468.51927637738663,330.0926896928868L483.0529844782951,328.13762252361164L497.58669257920366,334.41273170232193L512.1204006801121,324.08491603757244L526.6541087810207,326.7204839305253L541.1878168819292,327.0919555871591L555.7215249828378,329.36521822793793L570.2552330837462,329.43370565903524L584.7889411846548,331.5184423267527L599.3226492855633,328.8215337389363L613.8563573864718,331.55163230235723L628.3900654873803,340.04292370890727L642.9237735882889,323.4032369380433L657.4574816891975,327.8164074639886L671.991189790106,329.9990994569925L686.5248978910145,329.33390628884666L701.058605991923,330.5642411505008L715.5923140928315,331.50733273519165L730.12602219374,328.53912576865207L744.6597302946486,327.73116783388775L759.1934383955571,319.7199002940182L773.7271464964656,324.9196650271517L788.2608545973741,330.13520186783546L802.7945626982827,318.10561602182247" style="fill: none;" fill="none"></path></g><g><path stroke="rgb(238, 51, 119)" stroke-width="2px" d="M90.64286575376485,359.9848954981009L105.17657385467339,361.6596267690517L119.7102819555819,363.05412694914577L134.24399005649045,361.1656068565009L148.77769815739896,359.7363077645436L163.31140625830747,359.86875041192485L177.84511435921604,357.32819190462976L192.37882246012455,356.827549293183L206.91253056103307,355.51092672675253L221.44623866194163,355.78116853289737L235.97994676285015,354.97383377766994L250.51365486375866,352.6003624510522L265.0473629646672,352.75318590192194L279.5810710655757,352.06294374902996L294.11477916648425,353.35900988864796L308.64848726739274,348.3902153203023L323.1821953683013,351.2187082673196L337.7159034692098,349.94936803192866L352.2496115701183,349.7491546099175L366.78331967102685,349.33975114793077L381.31702777193544,348.71771882797873L395.8507358728439,347.21605159599034L410.38444397375247,347.4782628840129L424.918152074661,346.49154306647563L439.4518601755695,344.9925243475187L453.98556827647803,344.28830314456206L468.51927637738663,343.64869999430573L483.0529844782951,343.35698398784865L497.58669257920366,343.7197707878466L512.1204006801121,340.2800265268643L526.6541087810207,340.78629474994796L541.1878168819292,338.2967406551079L555.7215249828378,337.5887095590738L570.2552330837462,336.7373754959121L584.7889411846548,338.4727378868448L599.3226492855633,336.1625688543145L613.8563573864718,336.0648458050373L628.3900654873803,332.87245000012433L642.9237735882889,334.4239772603273L657.4574816891975,334.34348229260917L671.991189790106,330.9387153994484L686.5248978910145,330.18249552941205L701.058605991923,330.08795352840696L715.5923140928315,330.9396331729481L730.12602219374,330.210799210921L744.6597302946486,328.94499693571873L759.1934383955571,327.26191930792584L773.7271464964656,325.8395856636097L788.2608545973741,328.16931403569356L802.7945626982827,327.0860976995129" style="fill: none;" fill="none"></path></g><g><path stroke="rgb(51, 187, 238)" stroke-width="2px" d="M90.64286575376485,352.6053903768607L105.17657385467339,366.2392315534779L119.7102819555819,369.4966830530842L134.24399005649045,370.6876959941231L148.77769815739896,371.26540891846975L163.31140625830747,371.468190123436L177.84511435921604,371.81251310517973L192.37882246012455,372.2363460060783L206.91253056103307,372.32277852928115L221.44623866194163,372.52010868369666L235.97994676285015,372.7882380528434L250.51365486375866,372.37495494416055L265.0473629646672,372.1152200866383L279.5810710655757,372.7326968225444L294.11477916648425,372.8635999332063L308.64848726739274,372.6626525048429L323.1821953683013,372.9834897618718L337.7159034692098,372.55430884749353L352.2496115701183,372.1745701477768L366.78331967102685,372.74927658493755L381.31702777193544,373.25171260794906L395.8507358728439,372.695327649171L410.38444397375247,372.52299513800585L424.918152074661,372.5676356835203L439.4518601755695,372.736267358027L453.98556827647803,372.3286920073747L468.51927637738663,372.8178465165076L483.0529844782951,372.8666811311207L497.58669257920366,373.2223098643479L512.1204006801121,372.670175981433L526.6541087810207,372.45053883223346L541.1878168819292,372.14786619646526L555.7215249828378,372.448941580591L570.2552330837462,373.1178373557917L584.7889411846548,372.54675208745095L599.3226492855633,373.27999008759116L613.8563573864718,372.09895510072715L628.3900654873803,373.81371043150995L642.9237735882889,372.5510385712423L657.4574816891975,373.1497214870032L671.991189790106,372.3821066375042L686.5248978910145,372.1429583035334L701.058605991923,371.8010211079938L715.5923140928315,372.8304304942001L730.12602219374,372.658719038096L744.6597302946486,372.71101159098L759.1934383955571,372.95868650814754L773.7271464964656,372.3011205618215L788.2608545973741,371.45460551769173L802.7945626982827,371.14548014108317" style="fill: none;" fill="none"></path></g><g><path stroke="rgb(204, 51, 17)" stroke-width="2px" d="M90.64286575376485,357.8904528090973L105.17657385467339,361.5323905034373L119.7102819555819,363.38345608960174L134.24399005649045,364.56445496037895L148.77769815739896,365.4162889834872L163.31140625830747,365.97575336978326L177.84511435921604,366.4809345694704L192.37882246012455,366.8701165636457L206.91253056103307,367.12128907596366L221.44623866194163,367.3454354248232L235.97994676285015,367.4779701328178L250.51365486375866,367.58315717336563L265.0473629646672,367.64414662158117L279.5810710655757,367.6728150047509L294.11477916648425,367.7133896578668L308.64848726739274,367.80432783993683L323.1821953683013,367.89510668632977L337.7159034692098,367.81980535352415L352.2496115701183,367.9059273491965L366.78331967102685,367.8365511791007L381.31702777193544,367.7432987348417L395.8507358728439,367.6769903076476L410.38444397375247,367.499428045483L424.918152074661,367.394381220331L439.4518601755695,367.4498215380345L453.98556827647803,367.4056607699476L468.51927637738663,367.32717838886987L483.0529844782951,367.1643564472269L497.58669257920366,367.1665050003118L512.1204006801121,367.09247552028825L526.6541087810207,366.82380086904675L541.1878168819292,366.87948691777217L555.7215249828378,366.6146660654391L570.2552330837462,366.44092785952324L584.7889411846548,366.2163644052692L599.3226492855633,366.2053907801525L613.8563573864718,366.1506869473562L628.3900654873803,366.2189775103725L642.9237735882889,366.0598556972294L657.4574816891975,365.91789469058176L671.991189790106,365.7290627930205L686.5248978910145,365.6986969537715L701.058605991923,365.6230231295609L715.5923140928315,365.23054182463324L730.12602219374,365.48496903371404L744.6597302946486,365.26550644560064L759.1934383955571,365.22694862807657L773.7271464964656,365.0742653926027L788.2608545973741,364.89352208216604L802.7945626982827,364.6740056740017" style="fill: none;" fill="none"></path></g><g><path stroke="rgb(255, 112, 67)" stroke-width="2px" d="M90.64286575376485,340.2270647641368L105.17657385467339,359.93685827003145L119.7102819555819,363.7361176384433L134.24399005649045,366.1088234456527L148.77769815739896,367.5640206044751L163.31140625830747,368.7242598069318L177.84511435921604,369.61790351169265L192.37882246012455,370.48210906492403L206.91253056103307,371.0482343906785L221.44623866194163,371.46577530273083L235.97994676285015,372.00081707053107L250.51365486375866,372.4705570585368L265.0473629646672,372.65063222136786L279.5810710655757,372.9374838866448L294.11477916648425,373.119830822151L308.64848726739274,373.27315741968084L323.1821953683013,373.4689965462386L337.7159034692098,373.70859031194647L352.2496115701183,373.83341883844133L366.78331967102685,374.0205136230437L381.31702777193544,374.11623081318675L395.8507358728439,374.1059026746017L410.38444397375247,374.24755988122513L424.918152074661,374.56656477796815L439.4518601755695,374.4952610002596L453.98556827647803,374.57230794392683L468.51927637738663,374.63803391070155L483.0529844782951,374.7012724705182L497.58669257920366,374.77512420274206L512.1204006801121,374.7931910981208L526.6541087810207,374.877723100776L541.1878168819292,375.00559582390036L555.7215249828378,375.05745126591034L570.2552330837462,375.0712506207393L584.7889411846548,375.07563801712615L599.3226492855633,375.0824345689497L613.8563573864718,375.1921731216317L628.3900654873803,375.16598063784335L642.9237735882889,375.1652908914014L657.4574816891975,375.26201614526116L671.991189790106,375.14675820472684L686.5248978910145,375.27003798844106L701.058605991923,375.20473426121043L715.5923140928315,375.34254050155977L730.12602219374,375.29190698715297L744.6597302946486,375.4265093411165L759.1934383955571,375.2943035727751L773.7271464964656,375.5016578887118L788.2608545973741,375.3763113442269L802.7945626982827,375.453682978596" style="fill: none;" fill="none"></path></g><g><path stroke="rgb(0, 119, 187)" stroke-width="2px" d="M90.64286575376485,357.8904528090973L105.17657385467339,361.5323905034373L119.7102819555819,363.38345608960174L134.24399005649045,364.56445496037895L148.77769815739896,365.4162889834872L163.31140625830747,365.97575336978326L177.84511435921604,366.4809345694704L192.37882246012455,366.8701165636457L206.91253056103307,367.12128907596366L221.44623866194163,367.3454354248232L235.97994676285015,367.4779701328178L250.51365486375866,367.58315717336563L265.0473629646672,367.64414662158117L279.5810710655757,367.6728150047509L294.11477916648425,367.7133896578668L308.64848726739274,367.80432783993683L323.1821953683013,367.89510668632977L337.7159034692098,367.81980535352415L352.2496115701183,367.9059273491965L366.78331967102685,367.8365511791007L381.31702777193544,367.7432987348417L395.8507358728439,367.6769903076476L410.38444397375247,367.499428045483L424.918152074661,367.394381220331L439.4518601755695,367.4498215380345L453.98556827647803,367.4056607699476L468.51927637738663,367.32717838886987L483.0529844782951,367.1643564472269L497.58669257920366,367.1665050003118L512.1204006801121,367.09247552028825L526.6541087810207,366.82380086904675L541.1878168819292,366.87948691777217L555.7215249828378,366.6146660654391L570.2552330837462,366.44092785952324L584.7889411846548,366.2163644052692L599.3226492855633,366.2053907801525L613.8563573864718,366.1506869473562L628.3900654873803,366.2189775103725L642.9237735882889,366.0598556972294L657.4574816891975,365.91789469058176L671.991189790106,365.7290627930205L686.5248978910145,365.6986969537715L701.058605991923,365.6230231295609L715.5923140928315,365.23054182463324L730.12602219374,365.48496903371404L744.6597302946486,365.26550644560064L759.1934383955571,365.22694862807657L773.7271464964656,365.0742653926027L788.2608545973741,364.89352208216604L802.7945626982827,364.6740056740017L90.64286575376485,308.15441324488563L105.17657385467339,333.319861748589L119.7102819555819,343.37696538990673L134.24399005649045,348.52750460489943L148.77769815739896,351.623282087896L163.31140625830747,353.7075428730581L177.84511435921604,355.22560680845066L192.37882246012455,356.4086168495513L206.91253056103307,357.3511631521474L221.44623866194163,358.11335138256607L235.97994676285015,358.7662834933248L250.51365486375866,359.34616055024475L265.0473629646672,359.8488865641885L279.5810710655757,360.28557820830264L294.11477916648425,360.67012247203854L308.64848726739274,361.02789126044786L323.1821953683013,361.37062725884834L337.7159034692098,361.660232952783L352.2496115701183,361.94847331700515L366.78331967102685,362.20197991995195L381.31702777193544,362.45411836055206L395.8507358728439,362.67791912803204L410.38444397375247,362.8972570802381L424.918152074661,363.09029968862427L439.4518601755695,363.2653012494194L453.98556827647803,363.4433691367991L468.51927637738663,363.60288185346974L483.0529844782951,363.7710794267764L497.58669257920366,363.92989814805384L512.1204006801121,364.07998244159575L526.6541087810207,364.2296602521216L541.1878168819292,364.36663794695033L555.7215249828378,364.4870787229791L570.2552330837462,364.61384477130673L584.7889411846548,364.71412144036776L599.3226492855633,364.82937991202095L613.8563573864718,364.9569334326724L628.3900654873803,365.08386802273833L642.9237735882889,365.1627852131747L657.4574816891975,365.2755268892893L671.991189790106,365.3676016658555L686.5248978910145,365.4403408809745L701.058605991923,365.53000225315253L715.5923140928315,365.62157706977206L730.12602219374,365.7000297081901L744.6597302946486,365.7633320022774L759.1934383955571,365.85060404745866L773.7271464964656,365.93933065033144L788.2608545973741,365.9963862777208L802.7945626982827,366.05963687623296" style="fill: none;" fill="none"></path></g><g><path stroke="rgb(255, 112, 67)" stroke-width="2px" d="M90.64286575376485,277.6710649963063L105.17657385467339,321.40558961059736L119.7102819555819,337.7663865429259L134.24399005649045,345.22830999054565L148.77769815739896,349.54139788287654L163.31140625830747,352.14122359675815L177.84511435921604,354.26215991397964L192.37882246012455,355.8135866156665L206.91253056103307,357.1518660873189L221.44623866194163,358.11140253019636L235.97994676285015,359.04978769306706L250.51365486375866,359.86194784075354L265.0473629646672,360.39775619019997L279.5810710655757,361.12658590327567L294.11477916648425,361.7097247385441L308.64848726739274,362.2530353198236L323.1821953683013,362.6755467968407L337.7159034692098,363.0269449908031L352.2496115701183,363.4748581155315L366.78331967102685,363.8727865761379L381.31702777193544,364.2179572236834L395.8507358728439,364.60981676539143L410.38444397375247,364.8943435461009L424.918152074661,365.31661991447453L439.4518601755695,365.55893619578393L453.98556827647803,365.7645670308141L468.51927637738663,366.13897046390525L483.0529844782951,366.27842246475865L497.58669257920366,366.67475544411906L512.1204006801121,366.85095520920544L526.6541087810207,367.0980303160688L541.1878168819292,367.16981918239406L555.7215249828378,367.4912452732693L570.2552330837462,367.6062488078393L584.7889411846548,367.7597726275294L599.3226492855633,367.9261042030184L613.8563573864718,368.10682556053956L628.3900654873803,368.43421080573574L642.9237735882889,368.3986513315741L657.4574816891975,368.7497074849498L671.991189790106,368.6579662510676L686.5248978910145,368.8730410887149L701.058605991923,368.9796918930157L715.5923140928315,369.32422873864596L730.12602219374,369.28782230684106L744.6597302946486,369.37687820344644L759.1934383955571,369.5180057074636L773.7271464964656,369.66543015743696L788.2608545973741,369.7999944478777L802.7945626982827,369.876631367736" style="fill: none;" fill="none"></path></g></g></g></g></g></g><g transform="translate(20, 378)" clip-path="url(#clip_1)"><clipPath id="clip_1"><rect width="867" height="22"></rect></clipPath><g><g><line x1="17.97432524922222" y1="0" x2="17.97432524922222" y2="5" style="visibility: inherit;" fill="rgb(0, 0, 0)" stroke="rgb(204, 204, 204)" stroke-width="1px"></line><line x1="90.64286575376485" y1="0" x2="90.64286575376485" y2="5" style="visibility: inherit;" fill="rgb(0, 0, 0)" stroke="rgb(204, 204, 204)" stroke-width="1px"></line><line x1="163.31140625830747" y1="0" x2="163.31140625830747" y2="5" style="visibility: inherit;" fill="rgb(0, 0, 0)" stroke="rgb(204, 204, 204)" stroke-width="1px"></line><line x1="235.97994676285015" y1="0" x2="235.97994676285015" y2="5" style="visibility: inherit;" fill="rgb(0, 0, 0)" stroke="rgb(204, 204, 204)" stroke-width="1px"></line><line x1="308.64848726739274" y1="0" x2="308.64848726739274" y2="5" style="visibility: inherit;" fill="rgb(0, 0, 0)" stroke="rgb(204, 204, 204)" stroke-width="1px"></line><line x1="381.31702777193544" y1="0" x2="381.31702777193544" y2="5" style="visibility: inherit;" fill="rgb(0, 0, 0)" stroke="rgb(204, 204, 204)" stroke-width="1px"></line><line x1="453.98556827647803" y1="0" x2="453.98556827647803" y2="5" style="visibility: inherit;" fill="rgb(0, 0, 0)" stroke="rgb(204, 204, 204)" stroke-width="1px"></line><line x1="526.6541087810207" y1="0" x2="526.6541087810207" y2="5" style="visibility: inherit;" fill="rgb(0, 0, 0)" stroke="rgb(204, 204, 204)" stroke-width="1px"></line><line x1="599.3226492855633" y1="0" x2="599.3226492855633" y2="5" style="visibility: inherit;" fill="rgb(0, 0, 0)" stroke="rgb(204, 204, 204)" stroke-width="1px"></line><line x1="671.991189790106" y1="0" x2="671.991189790106" y2="5" style="visibility: inherit;" fill="rgb(0, 0, 0)" stroke="rgb(204, 204, 204)" stroke-width="1px"></line><line x1="744.6597302946486" y1="0" x2="744.6597302946486" y2="5" style="visibility: inherit;" fill="rgb(0, 0, 0)" stroke="rgb(204, 204, 204)" stroke-width="1px"></line><line x1="817.3282707991913" y1="0" x2="817.3282707991913" y2="5" style="visibility: inherit;" fill="rgb(0, 0, 0)" stroke="rgb(204, 204, 204)" stroke-width="1px"></line></g><g transform="translate(0, 8)"><text x="17.97432524922222" y="0" dx="0em" dy="0.95em" style="text-anchor: middle; visibility: inherit; font-family: Roboto, sans-serif; font-size: 12px; font-weight: 200;" fill="rgb(50, 49, 63)" stroke="none" stroke-width="1px">-5</text><text x="90.64286575376485" y="0" dx="0em" dy="0.95em" style="text-anchor: middle; visibility: inherit; font-family: Roboto, sans-serif; font-size: 12px; font-weight: 200;" fill="rgb(50, 49, 63)" stroke="none" stroke-width="1px">0</text><text x="163.31140625830747" y="0" dx="0em" dy="0.95em" style="text-anchor: middle; visibility: inherit; font-family: Roboto, sans-serif; font-size: 12px; font-weight: 200;" fill="rgb(50, 49, 63)" stroke="none" stroke-width="1px">5</text><text x="235.97994676285015" y="0" dx="0em" dy="0.95em" style="text-anchor: middle; visibility: inherit; font-family: Roboto, sans-serif; font-size: 12px; font-weight: 200;" fill="rgb(50, 49, 63)" stroke="none" stroke-width="1px">10</text><text x="308.64848726739274" y="0" dx="0em" dy="0.95em" style="text-anchor: middle; visibility: inherit; font-family: Roboto, sans-serif; font-size: 12px; font-weight: 200;" fill="rgb(50, 49, 63)" stroke="none" stroke-width="1px">15</text><text x="381.31702777193544" y="0" dx="0em" dy="0.95em" style="text-anchor: middle; visibility: inherit; font-family: Roboto, sans-serif; font-size: 12px; font-weight: 200;" fill="rgb(50, 49, 63)" stroke="none" stroke-width="1px">20</text><text x="453.98556827647803" y="0" dx="0em" dy="0.95em" style="text-anchor: middle; visibility: inherit; font-family: Roboto, sans-serif; font-size: 12px; font-weight: 200;" fill="rgb(50, 49, 63)" stroke="none" stroke-width="1px">25</text><text x="526.6541087810207" y="0" dx="0em" dy="0.95em" style="text-anchor: middle; visibility: inherit; font-family: Roboto, sans-serif; font-size: 12px; font-weight: 200;" fill="rgb(50, 49, 63)" stroke="none" stroke-width="1px">30</text><text x="599.3226492855633" y="0" dx="0em" dy="0.95em" style="text-anchor: middle; visibility: inherit; font-family: Roboto, sans-serif; font-size: 12px; font-weight: 200;" fill="rgb(50, 49, 63)" stroke="none" stroke-width="1px">35</text><text x="671.991189790106" y="0" dx="0em" dy="0.95em" style="text-anchor: middle; visibility: inherit; font-family: Roboto, sans-serif; font-size: 12px; font-weight: 200;" fill="rgb(50, 49, 63)" stroke="none" stroke-width="1px">40</text><text x="744.6597302946486" y="0" dx="0em" dy="0.95em" style="text-anchor: middle; visibility: inherit; font-family: Roboto, sans-serif; font-size: 12px; font-weight: 200;" fill="rgb(50, 49, 63)" stroke="none" stroke-width="1px">45</text><text x="817.3282707991913" y="0" dx="0em" dy="0.95em" style="text-anchor: middle; visibility: inherit; font-family: Roboto, sans-serif; font-size: 12px; font-weight: 200;" fill="rgb(50, 49, 63)" stroke="none" stroke-width="1px">50</text></g><line x1="0" y1="0" x2="867" y2="0" fill="rgb(0, 0, 0)" stroke="rgb(204, 204, 204)" stroke-width="1px"></line></g></g></g></g></svg>