<svg viewBox="0 0 761.4000244140625 400" xmlns="http://www.w3.org/2000/svg"><g><g><g><g><g><line x1="30" y1="378" x2="25" y2="378" style="visibility: inherit;" fill="rgb(0, 0, 0)" stroke="rgb(204, 204, 204)" stroke-width="1px"></line><line x1="30" y1="340.2" x2="25" y2="340.2" style="visibility: inherit;" fill="rgb(0, 0, 0)" stroke="rgb(204, 204, 204)" stroke-width="1px"></line><line x1="30" y1="302.40000000000003" x2="25" y2="302.40000000000003" style="visibility: inherit;" fill="rgb(0, 0, 0)" stroke="rgb(204, 204, 204)" stroke-width="1px"></line><line x1="30" y1="264.59999999999997" x2="25" y2="264.59999999999997" style="visibility: inherit;" fill="rgb(0, 0, 0)" stroke="rgb(204, 204, 204)" stroke-width="1px"></line><line x1="30" y1="226.79999999999998" x2="25" y2="226.79999999999998" style="visibility: inherit;" fill="rgb(0, 0, 0)" stroke="rgb(204, 204, 204)" stroke-width="1px"></line><line x1="30" y1="189" x2="25" y2="189" style="visibility: inherit;" fill="rgb(0, 0, 0)" stroke="rgb(204, 204, 204)" stroke-width="1px"></line><line x1="30" y1="151.20000000000002" x2="25" y2="151.20000000000002" style="visibility: inherit;" fill="rgb(0, 0, 0)" stroke="rgb(204, 204, 204)" stroke-width="1px"></line><line x1="30" y1="113.40000000000002" x2="25" y2="113.40000000000002" style="visibility: inherit;" fill="rgb(0, 0, 0)" stroke="rgb(204, 204, 204)" stroke-width="1px"></line><line x1="30" y1="75.59999999999998" x2="25" y2="75.59999999999998" style="visibility: inherit;" fill="rgb(0, 0, 0)" stroke="rgb(204, 204, 204)" stroke-width="1px"></line><line x1="30" y1="37.79999999999999" x2="25" y2="37.79999999999999" style="visibility: inherit;" fill="rgb(0, 0, 0)" stroke="rgb(204, 204, 204)" stroke-width="1px"></line><line x1="30" y1="0" x2="25" y2="0" style="visibility: inherit;" fill="rgb(0, 0, 0)" stroke="rgb(204, 204, 204)" stroke-width="1px"></line></g><g transform="translate(20, 0)"><text x="0" y="378" dx="0em" dy="0.3em" style="text-anchor: end; visibility: hidden; font-family: Roboto, sans-serif; font-size: 12px; font-weight: 200;" fill="rgb(50, 49, 63)" stroke="none" stroke-width="1px">-1</text><text x="0" y="340.2" dx="0em" dy="0.3em" style="text-anchor: end; visibility: inherit; font-family: Roboto, sans-serif; font-size: 12px; font-weight: 200;" fill="rgb(50, 49, 63)" stroke="none" stroke-width="1px">0</text><text x="0" y="302.40000000000003" dx="0em" dy="0.3em" style="text-anchor: end; visibility: inherit; font-family: Roboto, sans-serif; font-size: 12px; font-weight: 200;" fill="rgb(50, 49, 63)" stroke="none" stroke-width="1px">1</text><text x="0" y="264.59999999999997" dx="0em" dy="0.3em" style="text-anchor: end; visibility: inherit; font-family: Roboto, sans-serif; font-size: 12px; font-weight: 200;" fill="rgb(50, 49, 63)" stroke="none" stroke-width="1px">2</text><text x="0" y="226.79999999999998" dx="0em" dy="0.3em" style="text-anchor: end; visibility: inherit; font-family: Roboto, sans-serif; font-size: 12px; font-weight: 200;" fill="rgb(50, 49, 63)" stroke="none" stroke-width="1px">3</text><text x="0" y="189" dx="0em" dy="0.3em" style="text-anchor: end; visibility: inherit; font-family: Roboto, sans-serif; font-size: 12px; font-weight: 200;" fill="rgb(50, 49, 63)" stroke="none" stroke-width="1px">4</text><text x="0" y="151.20000000000002" dx="0em" dy="0.3em" style="text-anchor: end; visibility: inherit; font-family: Roboto, sans-serif; font-size: 12px; font-weight: 200;" fill="rgb(50, 49, 63)" stroke="none" stroke-width="1px">5</text><text x="0" y="113.40000000000002" dx="0em" dy="0.3em" style="text-anchor: end; visibility: inherit; font-family: Roboto, sans-serif; font-size: 12px; font-weight: 200;" fill="rgb(50, 49, 63)" stroke="none" stroke-width="1px">6</text><text x="0" y="75.59999999999998" dx="0em" dy="0.3em" style="text-anchor: end; visibility: inherit; font-family: Roboto, sans-serif; font-size: 12px; font-weight: 200;" fill="rgb(50, 49, 63)" stroke="none" stroke-width="1px">7</text><text x="0" y="37.79999999999999" dx="0em" dy="0.3em" style="text-anchor: end; visibility: inherit; font-family: Roboto, sans-serif; font-size: 12px; font-weight: 200;" fill="rgb(50, 49, 63)" stroke="none" stroke-width="1px">8</text><text x="0" y="0" dx="0em" dy="0.3em" style="text-anchor: end; visibility: hidden; font-family: Roboto, sans-serif; font-size: 12px; font-weight: 200;" fill="rgb(50, 49, 63)" stroke="none" stroke-width="1px">9</text></g><line x1="30" y1="0" x2="30" y2="378" fill="rgb(0, 0, 0)" stroke="rgb(204, 204, 204)" stroke-width="1px"></line></g></g><g transform="translate(30, 0)" clip-path="url(#clip_0)"><clipPath id="clip_0"><rect width="731" height="378"></rect></clipPath><g><g><g><line x1="0" y1="0" x2="0" y2="378" fill="rgb(0, 0, 0)" stroke="rgb(60, 60, 60)" stroke-width="1px" opacity="0.25"></line><line x1="60.949999999999996" y1="0" x2="60.949999999999996" y2="378" fill="rgb(0, 0, 0)" stroke="rgb(60, 60, 60)" stroke-width="1px" opacity="0.25"></line><line x1="121.89999999999999" y1="0" x2="121.89999999999999" y2="378" fill="rgb(0, 0, 0)" stroke="rgb(60, 60, 60)" stroke-width="1px" opacity="0.25"></line><line x1="182.85" y1="0" x2="182.85" y2="378" fill="rgb(0, 0, 0)" stroke="rgb(60, 60, 60)" stroke-width="1px" opacity="0.25"></line><line x1="243.79999999999998" y1="0" x2="243.79999999999998" y2="378" fill="rgb(0, 0, 0)" stroke="rgb(60, 60, 60)" stroke-width="1px" opacity="0.25"></line><line x1="304.75" y1="0" x2="304.75" y2="378" fill="rgb(0, 0, 0)" stroke="rgb(60, 60, 60)" stroke-width="1px" opacity="0.25"></line><line x1="365.7" y1="0" x2="365.7" y2="378" fill="rgb(0, 0, 0)" stroke="rgb(60, 60, 60)" stroke-width="1px" opacity="0.25"></line><line x1="426.65000000000003" y1="0" x2="426.65000000000003" y2="378" fill="rgb(0, 0, 0)" stroke="rgb(60, 60, 60)" stroke-width="1px" opacity="0.25"></line><line x1="487.59999999999997" y1="0" x2="487.59999999999997" y2="378" fill="rgb(0, 0, 0)" stroke="rgb(60, 60, 60)" stroke-width="1px" opacity="0.25"></line><line x1="548.55" y1="0" x2="548.55" y2="378" fill="rgb(0, 0, 0)" stroke="rgb(60, 60, 60)" stroke-width="1px" opacity="0.25"></line><line x1="609.5" y1="0" x2="609.5" y2="378" fill="rgb(0, 0, 0)" stroke="rgb(60, 60, 60)" stroke-width="1px" opacity="0.25"></line><line x1="670.4499999999999" y1="0" x2="670.4499999999999" y2="378" fill="rgb(0, 0, 0)" stroke="rgb(60, 60, 60)" stroke-width="1px" opacity="0.25"></line><line x1="731.4" y1="0" x2="731.4" y2="378" fill="rgb(0, 0, 0)" stroke="rgb(60, 60, 60)" stroke-width="1px" opacity="0.25"></line></g><g><line x1="0" y1="378" x2="731.4" y2="378" fill="rgb(0, 0, 0)" stroke="rgb(60, 60, 60)" stroke-width="1px" opacity="0.25"></line><line x1="0" y1="340.2" x2="731.4" y2="340.2" fill="rgb(0, 0, 0)" stroke="rgb(60, 60, 60)" stroke-width="1px" opacity="0.25"></line><line x1="0" y1="302.40000000000003" x2="731.4" y2="302.40000000000003" fill="rgb(0, 0, 0)" stroke="rgb(60, 60, 60)" stroke-width="1px" opacity="0.25"></line><line x1="0" y1="264.59999999999997" x2="731.4" y2="264.59999999999997" fill="rgb(0, 0, 0)" stroke="rgb(60, 60, 60)" stroke-width="1px" opacity="0.25"></line><line x1="0" y1="226.79999999999998" x2="731.4" y2="226.79999999999998" fill="rgb(0, 0, 0)" stroke="rgb(60, 60, 60)" stroke-width="1px" opacity="0.25"></line><line x1="0" y1="189" x2="731.4" y2="189" fill="rgb(0, 0, 0)" stroke="rgb(60, 60, 60)" stroke-width="1px" opacity="0.25"></line><line x1="0" y1="151.20000000000002" x2="731.4" y2="151.20000000000002" fill="rgb(0, 0, 0)" stroke="rgb(60, 60, 60)" stroke-width="1px" opacity="0.25"></line><line x1="0" y1="113.40000000000002" x2="731.4" y2="113.40000000000002" fill="rgb(0, 0, 0)" stroke="rgb(60, 60, 60)" stroke-width="1px" opacity="0.25"></line><line x1="0" y1="75.59999999999998" x2="731.4" y2="75.59999999999998" fill="rgb(0, 0, 0)" stroke="rgb(60, 60, 60)" stroke-width="1px" opacity="0.25"></line><line x1="0" y1="37.79999999999999" x2="731.4" y2="37.79999999999999" fill="rgb(0, 0, 0)" stroke="rgb(60, 60, 60)" stroke-width="1px" opacity="0.25"></line><line x1="0" y1="0" x2="731.4" y2="0" fill="rgb(0, 0, 0)" stroke="rgb(60, 60, 60)" stroke-width="1px" opacity="0.25"></line></g></g></g><g><g><line x1="0" y1="340.2" x2="731.4" y2="340.2" fill="rgb(0, 0, 0)" stroke="rgb(153, 153, 153)" stroke-width="1.5px"></line></g></g><g><g><line x1="60.949999999999996" y1="0" x2="60.949999999999996" y2="378" fill="rgb(0, 0, 0)" stroke="rgb(153, 153, 153)" stroke-width="1.5px"></line></g></g><g><g><g><g><g><path stroke="rgb(204, 51, 17)" stroke-width="2px" d="M60.949999999999996,241.64345455169678L73.14,248.84299449920653L85.33,237.58163695335386L97.52,219.3279034137726L109.71,220.28987703323364L121.89999999999999,205.5637435913086L134.08999999999997,202.27294864654542L146.28,196.8094961643219L158.47,217.33807682991028L170.66,194.07304301261902L182.85,208.86134276390075L195.04,188.3160264015198L207.23,204.29966225624085L219.42,184.31822261810302L231.60999999999999,192.40862073898316L243.79999999999998,173.72830266952516L255.98999999999998,186.04956064224243L268.17999999999995,155.59243097305298L280.37,161.74420995712282L292.56,163.58227071762084L304.75,146.3632664680481L316.94,152.7606104850769L329.13,152.83907089233398L341.32,131.23172721862792L353.51,131.3295819282532L365.7,144.20916509628296L377.89000000000004,139.02508249282837L390.08,124.65808610916137L402.27000000000004,122.27363233566284L414.46,113.59295167922976L426.65000000000003,122.98170461654665L438.84,115.58506736755369L451.03000000000003,104.69051628112793L463.21999999999997,87.5179069519043L475.41,83.19295949935913L487.59999999999997,73.23335437774658L499.79,89.146217250824L511.97999999999996,77.94058227539062L524.17,62.82778844833372L536.3599999999999,66.17222414016722L548.55,22.247860336303727L560.74,61.55194616317749L572.93,55.2330986022949L585.12,33.689741706848125L597.31,34.060973167419434L609.5,41.28654041290285L621.6899999999999,35.28270606994628L633.88,14.435128784179671L646.0699999999999,40.70202569961547L658.26,10.3349281311035" style="fill: none;" fill="none"></path></g><g><path stroke="rgb(0, 119, 187)" stroke-width="2px" d="M60.949999999999996,326.0129822015762L73.14,327.34505061507224L85.33,328.45422536730763L97.52,326.95211096405984L109.71,325.81525742411617L121.89999999999999,325.9206012904644L134.08999999999997,323.8998605310917L146.28,323.50165323615073L158.47,322.45442174077033L170.66,322.66937000155446L182.85,322.02722212672234L195.04,320.1393812298775L207.23,320.26093583106996L219.42,319.71192251443864L231.60999999999999,320.7428035855293L243.79999999999998,316.7906624794006L255.98999999999998,319.04042408466336L268.17999999999995,318.0308005928993L280.37,317.8715523719788L292.56,317.5459159970283L304.75,317.05115625858303L316.94,315.8567416548729L329.13,316.06530250310897L341.32,315.2804731249809L353.51,314.0881651282311L365.7,313.52803298234943L377.89000000000004,313.01929754018784L390.08,312.7872688651085L402.27000000000004,313.0758267045021L414.46,310.3398804903031L426.65000000000003,310.742562353611L438.84,308.76239011287686L451.03000000000003,308.1992276072502L463.21999999999997,307.52208302021023L475.41,308.90237696170806L487.59999999999997,307.06488622426986L499.79,306.98715806007385L511.97999999999996,304.4479509115219L524.17,305.68202379941937L536.3599999999999,305.6179987192154L548.55,302.9098732352257L560.74,302.30838174819945L572.93,302.2331837654114L585.12,302.91060322523117L597.31,302.33089427948L609.5,301.32408485412594L621.6899999999999,299.9853778123856L633.88,298.85406453609465L646.0699999999999,300.70711262226104L658.26,299.8455306529999" style="fill: none;" fill="none"></path></g><g><path stroke="rgb(255, 112, 67)" stroke-width="2px" d="M60.949999999999996,324.34707854390143L73.14,327.24384786486627L85.33,328.71617124080655L97.52,329.6555286884308L109.71,330.33307093977925L121.89999999999999,330.7780646234751L134.08999999999997,331.17988187670704L146.28,331.48943425118927L158.47,331.68921494185923L170.66,331.86749922931193L182.85,331.9729163199663L195.04,332.0565812855959L207.23,332.1050918251276L219.42,332.12789443731305L231.60999999999999,332.1601672053337L243.79999999999998,332.2324987381697L255.98999999999998,332.3047035366297L268.17999999999995,332.24480943381786L280.37,332.3133102089167L292.56,332.2581289350987L304.75,332.18395665585996L316.94,332.13121544122697L329.13,331.98998377919196L341.32,331.9064303398132L353.51,331.9505271434784L365.7,331.91540200710295L377.89000000000004,331.8529777228832L390.08,331.7234703987837L402.27000000000004,331.7251793414354L414.46,331.66629686057564L426.65000000000003,331.45259510278703L438.84,331.4968873590231L451.03000000000003,331.28625088334087L463.21999999999997,331.14806084632875L475.41,330.969444796443L487.59999999999997,330.9607164591551L499.79,330.91720544993876L511.97999999999996,330.9715232402086L524.17,330.8449589699507L536.3599999999999,330.7320442736149L548.55,330.58184882998466L560.74,330.55769607424736L572.93,330.49750569462776L585.12,330.18532907366756L597.31,330.3876985251904L609.5,330.2131396651268L621.6899999999999,330.18247107267376L633.88,330.0610279977322L646.0699999999999,329.9172661542893L658.26,329.7426644861698" style="fill: none;" fill="none"></path></g><g><path stroke="rgb(51, 187, 238)" stroke-width="2px" d="M60.949999999999996,284.7874139785767L73.14,304.8038187861443L85.33,312.803161919117L97.52,316.8998613238335L109.71,319.3622189998627L121.89999999999999,321.0200240492821L134.08999999999997,322.22748046517376L146.28,323.1684375822544L158.47,323.9181316852569L170.66,324.52437036037446L182.85,325.0437075555324L195.04,325.50493732094765L207.23,325.90480173826217L219.42,326.25214292407037L231.60999999999999,326.55800648331643L243.79999999999998,326.84257303476335L255.98999999999998,327.11518262028693L268.17999999999995,327.3455327689648L280.37,327.57479694485664L292.56,327.7764341533184L304.75,327.9769831359386L316.94,328.1549925506115L329.13,328.32945227622986L341.32,328.4829968869686L353.51,328.62219178676605L365.7,328.76382561922077L377.89000000000004,328.8907008111477L390.08,329.02448387145995L402.27000000000004,329.15080706477164L414.46,329.27018296122554L426.65000000000003,329.3892355442047L438.84,329.4981865525246L451.03000000000003,329.5939842224121L463.21999999999997,329.69481296539306L475.41,329.77457225918766L487.59999999999997,329.8662479639053L499.79,329.96770305633544L511.97999999999996,330.068665856123L524.17,330.1314359843731L536.3599999999999,330.22110984921454L548.55,330.294345420599L560.74,330.3522016346455L572.93,330.4235176026821L585.12,330.49635550975796L597.31,330.55875613689426L609.5,330.6091062963009L621.6899999999999,330.6785218119621L633.88,330.7490942716599L646.0699999999999,330.7944758802652L658.26,330.84478492140767" style="fill: none;" fill="none"></path></g></g></g></g></g></g><g transform="translate(30, 378)" clip-path="url(#clip_1)"><clipPath id="clip_1"><rect width="731" height="22"></rect></clipPath><g><g><line x1="0" y1="0" x2="0" y2="5" style="visibility: inherit;" fill="rgb(0, 0, 0)" stroke="rgb(204, 204, 204)" stroke-width="1px"></line><line x1="60.949999999999996" y1="0" x2="60.949999999999996" y2="5" style="visibility: inherit;" fill="rgb(0, 0, 0)" stroke="rgb(204, 204, 204)" stroke-width="1px"></line><line x1="121.89999999999999" y1="0" x2="121.89999999999999" y2="5" style="visibility: inherit;" fill="rgb(0, 0, 0)" stroke="rgb(204, 204, 204)" stroke-width="1px"></line><line x1="182.85" y1="0" x2="182.85" y2="5" style="visibility: inherit;" fill="rgb(0, 0, 0)" stroke="rgb(204, 204, 204)" stroke-width="1px"></line><line x1="243.79999999999998" y1="0" x2="243.79999999999998" y2="5" style="visibility: inherit;" fill="rgb(0, 0, 0)" stroke="rgb(204, 204, 204)" stroke-width="1px"></line><line x1="304.75" y1="0" x2="304.75" y2="5" style="visibility: inherit;" fill="rgb(0, 0, 0)" stroke="rgb(204, 204, 204)" stroke-width="1px"></line><line x1="365.7" y1="0" x2="365.7" y2="5" style="visibility: inherit;" fill="rgb(0, 0, 0)" stroke="rgb(204, 204, 204)" stroke-width="1px"></line><line x1="426.65000000000003" y1="0" x2="426.65000000000003" y2="5" style="visibility: inherit;" fill="rgb(0, 0, 0)" stroke="rgb(204, 204, 204)" stroke-width="1px"></line><line x1="487.59999999999997" y1="0" x2="487.59999999999997" y2="5" style="visibility: inherit;" fill="rgb(0, 0, 0)" stroke="rgb(204, 204, 204)" stroke-width="1px"></line><line x1="548.55" y1="0" x2="548.55" y2="5" style="visibility: inherit;" fill="rgb(0, 0, 0)" stroke="rgb(204, 204, 204)" stroke-width="1px"></line><line x1="609.5" y1="0" x2="609.5" y2="5" style="visibility: inherit;" fill="rgb(0, 0, 0)" stroke="rgb(204, 204, 204)" stroke-width="1px"></line><line x1="670.4499999999999" y1="0" x2="670.4499999999999" y2="5" style="visibility: inherit;" fill="rgb(0, 0, 0)" stroke="rgb(204, 204, 204)" stroke-width="1px"></line><line x1="731.4" y1="0" x2="731.4" y2="5" style="visibility: inherit;" fill="rgb(0, 0, 0)" stroke="rgb(204, 204, 204)" stroke-width="1px"></line></g><g transform="translate(0, 8)"><text x="0" y="0" dx="0em" dy="0.95em" style="text-anchor: middle; visibility: hidden; font-family: Roboto, sans-serif; font-size: 12px; font-weight: 200;" fill="rgb(50, 49, 63)" stroke="none" stroke-width="1px">-5</text><text x="60.949999999999996" y="0" dx="0em" dy="0.95em" style="text-anchor: middle; visibility: inherit; font-family: Roboto, sans-serif; font-size: 12px; font-weight: 200;" fill="rgb(50, 49, 63)" stroke="none" stroke-width="1px">0</text><text x="121.89999999999999" y="0" dx="0em" dy="0.95em" style="text-anchor: middle; visibility: inherit; font-family: Roboto, sans-serif; font-size: 12px; font-weight: 200;" fill="rgb(50, 49, 63)" stroke="none" stroke-width="1px">5</text><text x="182.85" y="0" dx="0em" dy="0.95em" style="text-anchor: middle; visibility: inherit; font-family: Roboto, sans-serif; font-size: 12px; font-weight: 200;" fill="rgb(50, 49, 63)" stroke="none" stroke-width="1px">10</text><text x="243.79999999999998" y="0" dx="0em" dy="0.95em" style="text-anchor: middle; visibility: inherit; font-family: Roboto, sans-serif; font-size: 12px; font-weight: 200;" fill="rgb(50, 49, 63)" stroke="none" stroke-width="1px">15</text><text x="304.75" y="0" dx="0em" dy="0.95em" style="text-anchor: middle; visibility: inherit; font-family: Roboto, sans-serif; font-size: 12px; font-weight: 200;" fill="rgb(50, 49, 63)" stroke="none" stroke-width="1px">20</text><text x="365.7" y="0" dx="0em" dy="0.95em" style="text-anchor: middle; visibility: inherit; font-family: Roboto, sans-serif; font-size: 12px; font-weight: 200;" fill="rgb(50, 49, 63)" stroke="none" stroke-width="1px">25</text><text x="426.65000000000003" y="0" dx="0em" dy="0.95em" style="text-anchor: middle; visibility: inherit; font-family: Roboto, sans-serif; font-size: 12px; font-weight: 200;" fill="rgb(50, 49, 63)" stroke="none" stroke-width="1px">30</text><text x="487.59999999999997" y="0" dx="0em" dy="0.95em" style="text-anchor: middle; visibility: inherit; font-family: Roboto, sans-serif; font-size: 12px; font-weight: 200;" fill="rgb(50, 49, 63)" stroke="none" stroke-width="1px">35</text><text x="548.55" y="0" dx="0em" dy="0.95em" style="text-anchor: middle; visibility: inherit; font-family: Roboto, sans-serif; font-size: 12px; font-weight: 200;" fill="rgb(50, 49, 63)" stroke="none" stroke-width="1px">40</text><text x="609.5" y="0" dx="0em" dy="0.95em" style="text-anchor: middle; visibility: inherit; font-family: Roboto, sans-serif; font-size: 12px; font-weight: 200;" fill="rgb(50, 49, 63)" stroke="none" stroke-width="1px">45</text><text x="670.4499999999999" y="0" dx="0em" dy="0.95em" style="text-anchor: middle; visibility: inherit; font-family: Roboto, sans-serif; font-size: 12px; font-weight: 200;" fill="rgb(50, 49, 63)" stroke="none" stroke-width="1px">50</text><text x="731.4" y="0" dx="0em" dy="0.95em" style="text-anchor: middle; visibility: hidden; font-family: Roboto, sans-serif; font-size: 12px; font-weight: 200;" fill="rgb(50, 49, 63)" stroke="none" stroke-width="1px">55</text></g><line x1="0" y1="0" x2="731.4" y2="0" fill="rgb(0, 0, 0)" stroke="rgb(204, 204, 204)" stroke-width="1px"></line></g></g></g></g></svg>