<svg viewBox="0 0 887 400" xmlns="http://www.w3.org/2000/svg"><g><g><g><g><g><line x1="50" y1="368.4632831405761" x2="45" y2="368.4632831405761" style="visibility: inherit;" fill="rgb(0, 0, 0)" stroke="rgb(204, 204, 204)" stroke-width="1px"></line><line x1="50" y1="337.3901631580554" x2="45" y2="337.3901631580554" style="visibility: inherit;" fill="rgb(0, 0, 0)" stroke="rgb(204, 204, 204)" stroke-width="1px"></line><line x1="50" y1="306.3170431755347" x2="45" y2="306.3170431755347" style="visibility: inherit;" fill="rgb(0, 0, 0)" stroke="rgb(204, 204, 204)" stroke-width="1px"></line><line x1="50" y1="275.243923193014" x2="45" y2="275.243923193014" style="visibility: inherit;" fill="rgb(0, 0, 0)" stroke="rgb(204, 204, 204)" stroke-width="1px"></line><line x1="50" y1="244.17080321049326" x2="45" y2="244.17080321049326" style="visibility: inherit;" fill="rgb(0, 0, 0)" stroke="rgb(204, 204, 204)" stroke-width="1px"></line><line x1="50" y1="213.09768322797268" x2="45" y2="213.09768322797268" style="visibility: inherit;" fill="rgb(0, 0, 0)" stroke="rgb(204, 204, 204)" stroke-width="1px"></line><line x1="50" y1="182.02456324545201" x2="45" y2="182.02456324545201" style="visibility: inherit;" fill="rgb(0, 0, 0)" stroke="rgb(204, 204, 204)" stroke-width="1px"></line><line x1="50" y1="150.9514432629313" x2="45" y2="150.9514432629313" style="visibility: inherit;" fill="rgb(0, 0, 0)" stroke="rgb(204, 204, 204)" stroke-width="1px"></line><line x1="50" y1="119.87832328041057" x2="45" y2="119.87832328041057" style="visibility: inherit;" fill="rgb(0, 0, 0)" stroke="rgb(204, 204, 204)" stroke-width="1px"></line><line x1="50" y1="88.80520329788985" x2="45" y2="88.80520329788985" style="visibility: inherit;" fill="rgb(0, 0, 0)" stroke="rgb(204, 204, 204)" stroke-width="1px"></line><line x1="50" y1="57.73208331536916" x2="45" y2="57.73208331536916" style="visibility: inherit;" fill="rgb(0, 0, 0)" stroke="rgb(204, 204, 204)" stroke-width="1px"></line><line x1="50" y1="26.658963332848604" x2="45" y2="26.658963332848604" style="visibility: inherit;" fill="rgb(0, 0, 0)" stroke="rgb(204, 204, 204)" stroke-width="1px"></line></g><g transform="translate(40, 0)"><text x="0" y="368.4632831405761" dx="0em" dy="0.3em" style="text-anchor: end; visibility: inherit; font-family: Roboto, sans-serif; font-size: 12px; font-weight: 200;" fill="rgb(50, 49, 63)" stroke="none" stroke-width="1px">0.72</text><text x="0" y="337.3901631580554" dx="0em" dy="0.3em" style="text-anchor: end; visibility: inherit; font-family: Roboto, sans-serif; font-size: 12px; font-weight: 200;" fill="rgb(50, 49, 63)" stroke="none" stroke-width="1px">0.74</text><text x="0" y="306.3170431755347" dx="0em" dy="0.3em" style="text-anchor: end; visibility: inherit; font-family: Roboto, sans-serif; font-size: 12px; font-weight: 200;" fill="rgb(50, 49, 63)" stroke="none" stroke-width="1px">0.76</text><text x="0" y="275.243923193014" dx="0em" dy="0.3em" style="text-anchor: end; visibility: inherit; font-family: Roboto, sans-serif; font-size: 12px; font-weight: 200;" fill="rgb(50, 49, 63)" stroke="none" stroke-width="1px">0.78</text><text x="0" y="244.17080321049326" dx="0em" dy="0.3em" style="text-anchor: end; visibility: inherit; font-family: Roboto, sans-serif; font-size: 12px; font-weight: 200;" fill="rgb(50, 49, 63)" stroke="none" stroke-width="1px">0.8</text><text x="0" y="213.09768322797268" dx="0em" dy="0.3em" style="text-anchor: end; visibility: inherit; font-family: Roboto, sans-serif; font-size: 12px; font-weight: 200;" fill="rgb(50, 49, 63)" stroke="none" stroke-width="1px">0.82</text><text x="0" y="182.02456324545201" dx="0em" dy="0.3em" style="text-anchor: end; visibility: inherit; font-family: Roboto, sans-serif; font-size: 12px; font-weight: 200;" fill="rgb(50, 49, 63)" stroke="none" stroke-width="1px">0.84</text><text x="0" y="150.9514432629313" dx="0em" dy="0.3em" style="text-anchor: end; visibility: inherit; font-family: Roboto, sans-serif; font-size: 12px; font-weight: 200;" fill="rgb(50, 49, 63)" stroke="none" stroke-width="1px">0.86</text><text x="0" y="119.87832328041057" dx="0em" dy="0.3em" style="text-anchor: end; visibility: inherit; font-family: Roboto, sans-serif; font-size: 12px; font-weight: 200;" fill="rgb(50, 49, 63)" stroke="none" stroke-width="1px">0.88</text><text x="0" y="88.80520329788985" dx="0em" dy="0.3em" style="text-anchor: end; visibility: inherit; font-family: Roboto, sans-serif; font-size: 12px; font-weight: 200;" fill="rgb(50, 49, 63)" stroke="none" stroke-width="1px">0.9</text><text x="0" y="57.73208331536916" dx="0em" dy="0.3em" style="text-anchor: end; visibility: inherit; font-family: Roboto, sans-serif; font-size: 12px; font-weight: 200;" fill="rgb(50, 49, 63)" stroke="none" stroke-width="1px">0.92</text><text x="0" y="26.658963332848604" dx="0em" dy="0.3em" style="text-anchor: end; visibility: inherit; font-family: Roboto, sans-serif; font-size: 12px; font-weight: 200;" fill="rgb(50, 49, 63)" stroke="none" stroke-width="1px">0.94</text></g><line x1="50" y1="0" x2="50" y2="378" fill="rgb(0, 0, 0)" stroke="rgb(204, 204, 204)" stroke-width="1px"></line></g></g><g transform="translate(50, 0)" clip-path="url(#clip_0)"><clipPath id="clip_0"><rect width="837" height="378"></rect></clipPath><g><g><g><line x1="20.75351550512944" y1="0" x2="20.75351550512944" y2="378" fill="rgb(0, 0, 0)" stroke="rgb(60, 60, 60)" stroke-width="1px" opacity="0.25"></line><line x1="123.96066401849966" y1="0" x2="123.96066401849966" y2="378" fill="rgb(0, 0, 0)" stroke="rgb(60, 60, 60)" stroke-width="1px" opacity="0.25"></line><line x1="227.1678125318699" y1="0" x2="227.1678125318699" y2="378" fill="rgb(0, 0, 0)" stroke="rgb(60, 60, 60)" stroke-width="1px" opacity="0.25"></line><line x1="330.37496104524007" y1="0" x2="330.37496104524007" y2="378" fill="rgb(0, 0, 0)" stroke="rgb(60, 60, 60)" stroke-width="1px" opacity="0.25"></line><line x1="433.5821095586103" y1="0" x2="433.5821095586103" y2="378" fill="rgb(0, 0, 0)" stroke="rgb(60, 60, 60)" stroke-width="1px" opacity="0.25"></line><line x1="536.7892580719806" y1="0" x2="536.7892580719806" y2="378" fill="rgb(0, 0, 0)" stroke="rgb(60, 60, 60)" stroke-width="1px" opacity="0.25"></line><line x1="639.9964065853508" y1="0" x2="639.9964065853508" y2="378" fill="rgb(0, 0, 0)" stroke="rgb(60, 60, 60)" stroke-width="1px" opacity="0.25"></line><line x1="743.203555098721" y1="0" x2="743.203555098721" y2="378" fill="rgb(0, 0, 0)" stroke="rgb(60, 60, 60)" stroke-width="1px" opacity="0.25"></line></g><g><line x1="0" y1="368.4632831405761" x2="837" y2="368.4632831405761" fill="rgb(0, 0, 0)" stroke="rgb(60, 60, 60)" stroke-width="1px" opacity="0.25"></line><line x1="0" y1="337.3901631580554" x2="837" y2="337.3901631580554" fill="rgb(0, 0, 0)" stroke="rgb(60, 60, 60)" stroke-width="1px" opacity="0.25"></line><line x1="0" y1="306.3170431755347" x2="837" y2="306.3170431755347" fill="rgb(0, 0, 0)" stroke="rgb(60, 60, 60)" stroke-width="1px" opacity="0.25"></line><line x1="0" y1="275.243923193014" x2="837" y2="275.243923193014" fill="rgb(0, 0, 0)" stroke="rgb(60, 60, 60)" stroke-width="1px" opacity="0.25"></line><line x1="0" y1="244.17080321049326" x2="837" y2="244.17080321049326" fill="rgb(0, 0, 0)" stroke="rgb(60, 60, 60)" stroke-width="1px" opacity="0.25"></line><line x1="0" y1="213.09768322797268" x2="837" y2="213.09768322797268" fill="rgb(0, 0, 0)" stroke="rgb(60, 60, 60)" stroke-width="1px" opacity="0.25"></line><line x1="0" y1="182.02456324545201" x2="837" y2="182.02456324545201" fill="rgb(0, 0, 0)" stroke="rgb(60, 60, 60)" stroke-width="1px" opacity="0.25"></line><line x1="0" y1="150.9514432629313" x2="837" y2="150.9514432629313" fill="rgb(0, 0, 0)" stroke="rgb(60, 60, 60)" stroke-width="1px" opacity="0.25"></line><line x1="0" y1="119.87832328041057" x2="837" y2="119.87832328041057" fill="rgb(0, 0, 0)" stroke="rgb(60, 60, 60)" stroke-width="1px" opacity="0.25"></line><line x1="0" y1="88.80520329788985" x2="837" y2="88.80520329788985" fill="rgb(0, 0, 0)" stroke="rgb(60, 60, 60)" stroke-width="1px" opacity="0.25"></line><line x1="0" y1="57.73208331536916" x2="837" y2="57.73208331536916" fill="rgb(0, 0, 0)" stroke="rgb(60, 60, 60)" stroke-width="1px" opacity="0.25"></line><line x1="0" y1="26.658963332848604" x2="837" y2="26.658963332848604" fill="rgb(0, 0, 0)" stroke="rgb(60, 60, 60)" stroke-width="1px" opacity="0.25"></line></g></g></g><g><g><line x1="0" y1="1487.0956025113207" x2="837" y2="1487.0956025113207" fill="rgb(0, 0, 0)" stroke="rgb(153, 153, 153)" stroke-width="1.5px"></line></g></g><g><g><line x1="20.75351550512944" y1="0" x2="20.75351550512944" y2="378" fill="rgb(0, 0, 0)" stroke="rgb(153, 153, 153)" stroke-width="1.5px"></line></g></g><g><g><g><g><g><path style="fill: none;" stroke="rgb(187, 187, 187)" stroke-width="2px" d="M20.75351550512944,222.58555128839328L31.07423035646646,190.77143481783264L41.39494520780349,186.74431622831256L51.71566005914051,200.8391849890759L62.03637491047753,174.66305306486623L72.35708976181455,173.85757378389388L82.6778046131516,172.246800432177L92.9985194644886,172.6494474675492L103.31923431582563,134.79469941526548L113.63994916716265,151.30582080871807L123.96066401849966,130.36493379037316L134.2813788698367,143.25158362967792L144.6020937211737,133.58657309892084L154.92280857251075,136.00282573161013L165.24352342384776,119.49170433815749L175.5642382751848,135.60008609112396L185.8849531265218,135.19743905575166L196.2056679778588,133.989312739407L206.52638282919585,129.1568074740285L216.84709768053287,126.7404622362253L227.1678125318699,131.17032046623157L237.48852738320693,133.18383345843463L247.80924223454392,121.10257029498833L258.12995708588096,133.989312739407L268.450671937218,130.7675808257454L278.771386788555,125.5323359198807L289.092101639892,117.07545170546824L299.4128164912291,123.92156256816378L309.73353134256604,119.08905730278526L320.0542461939031,126.7404622362253L330.37496104524007,116.27006502960978L340.6956758965771,118.28357802181289L351.01639074791416,115.4645857486374L361.3371055992511,121.50530993547451L371.6578204505882,128.75406783354234L381.9785353019252,134.79469941526548L392.2992501532622,121.9079569708468L402.61996500459924,119.89444397864368L412.94067985593625,144.0570629106503L423.2613947072733,124.32420960353605L433.5821095586103,136.8083050125825L443.9028244099473,121.10257029498833L454.2235392612844,121.50530993547451L464.54425411262133,126.33781520085307L474.86496896395835,115.4645857486374L485.1856838152954,125.5323359198807L495.50639866663244,118.28357802181289L505.8271135179695,128.75406783354234L516.1478283693065,132.78118642306242L526.4685432206435,130.7675808257454" fill="none"></path></g><g><path style="fill: none;" stroke="rgb(0, 153, 136)" stroke-width="2px" d="M20.75351550512944,333.33895242209496L31.07423035646646,207.522033035911L41.39494520780349,164.0168913520096L51.71566005914051,127.2985932578878L62.03637491047753,130.77897125475894L72.35708976181455,116.16125402074081L82.6778046131516,111.28865074103011L92.9985194644886,106.24204245224298L103.31923431582563,101.71754179579915L113.63994916716265,90.05818753142275L123.96066401849966,85.88169689313183L134.2813788698367,87.6218395890104L144.6020937211737,83.96745658306287L154.92280857251075,82.05321627299386L165.24352342384776,85.18558425171203L175.5642382751848,77.52862301143612L185.8849531265218,72.48210732776292L196.2056679778588,72.3080097135725L206.52638282919585,83.619353959796L216.84709768053287,76.1364903337105L227.1678125318699,67.60950404805226L237.48852738320693,73.52622998733563L247.80924223454392,68.30561668947205L258.12995708588096,66.39137637940304L268.450671937218,63.43301340976134L278.771386788555,62.21488574111217L289.092101639892,66.73938639755596L299.4128164912291,62.73690076834154L309.73353134256604,60.82266045827259L320.0542461939031,64.65114107841055L330.37496104524007,64.99915109656347L340.6956758965771,66.56538138847951L351.01639074791416,60.82266045827259L361.3371055992511,60.12664042196671L371.6578204505882,58.038395102821255L381.9785353019252,59.256522771470465L392.2992501532622,60.99666546734905L402.61996500459924,50.90354149488868L412.94067985593625,64.47713606933405L423.2613947072733,55.9501497836758L433.5821095586103,55.776052169485425L443.9028244099473,56.64616981998167L454.2235392612844,55.25403714225601L464.54425411262133,52.29567417261434L474.86496896395835,55.602047160408965L485.1856838152954,51.25155151304159L495.50639866663244,55.9501497836758L505.8271135179695,54.73192950991272L516.1478283693065,51.773659145384926L526.4685432206435,58.73441513912713" fill="none"></path></g><g><path style="fill: none;" stroke="rgb(238, 51, 119)" stroke-width="2px" d="M20.75351550512944,184.32806359562332L31.07423035646646,144.86244958650875L41.39494520780349,139.22455764527177L51.71566005914051,143.25158362967792L62.03637491047753,147.6814418596842L72.35708976181455,130.7675808257454L82.6778046131516,141.640810277961L92.9985194644886,142.44619695381948L103.31923431582563,145.26518922699492L113.63994916716265,131.97570714209004L123.96066401849966,128.75406783354234L134.2813788698367,149.292307816515L144.6020937211737,141.23807063747483L154.92280857251075,142.44619695381948L165.24352342384776,118.28357802181289L175.5642382751848,129.1568074740285L185.8849531265218,112.24294644008974L196.2056679778588,123.51882292767759L206.52638282919585,120.29718361912987L216.84709768053287,127.14320187671149L227.1678125318699,116.67271206498205L237.48852738320693,119.08905730278526L247.80924223454392,115.8673253891236L258.12995708588096,115.8673253891236L268.450671937218,117.47819134595443L278.771386788555,119.08905730278526L289.092101639892,119.89444397864368L299.4128164912291,114.65919907277899L309.73353134256604,118.28357802181289L320.0542461939031,116.27006502960978L330.37496104524007,111.03482012374508L340.6956758965771,126.33781520085307L351.01639074791416,124.32420960353605L361.3371055992511,130.36493379037316L371.6578204505882,108.21582785056964L381.9785353019252,117.07545170546824L392.2992501532622,120.29718361912987L402.61996500459924,121.9079569708468L412.94067985593625,115.8673253891236L423.2613947072733,121.10257029498833L433.5821095586103,129.1568074740285L443.9028244099473,125.5323359198807L454.2235392612844,121.10257029498833L464.54425411262133,112.64568608057591L474.86496896395835,114.65919907277899L485.1856838152954,120.29718361912987L495.50639866663244,128.75406783354234L505.8271135179695,128.75406783354234L516.1478283693065,115.4645857486374L526.4685432206435,115.8673253891236" fill="none"></path></g><g><path style="fill: none;" stroke="rgb(51, 187, 238)" stroke-width="2px" d="M20.75351550512944,269.12536255581557L31.07423035646646,145.04867847062408L41.39494520780349,105.5460224159371L51.71566005914051,93.19055551014091L62.03637491047753,87.27382957085749L72.35708976181455,84.31546660121579L82.6778046131516,76.31049534278695L92.9985194644886,68.65362670762497L103.31923431582563,67.08739641570892L113.63994916716265,68.4796216985485L123.96066401849966,65.8692687470597L134.2813788698367,67.43549903897575L144.6020937211737,63.25900840068488L154.92280857251075,58.73441513912713L165.24352342384776,62.56289575926509L175.5642382751848,55.9501497836758L185.8849531265218,54.03590947360684L196.2056679778588,60.648655449196085L206.52638282919585,60.82266045827259L216.84709768053287,56.64616981998167L227.1678125318699,53.33979683218705L237.48852738320693,53.86190446453038L247.80924223454392,54.90602712410309L258.12995708588096,54.03590947360684L268.450671937218,53.16579182311059L278.771386788555,56.99427244324855L289.092101639892,53.86190446453038L299.4128164912291,50.20742885346888L309.73353134256604,48.293188543399886L320.0542461939031,48.81529617574322L330.37496104524007,52.29567417261434L340.6956758965771,52.991786814034135L351.01639074791416,55.9501497836758L361.3371055992511,46.55295324240738L371.6578204505882,48.98930118481967L381.9785353019252,46.72705085659776L392.2992501532622,54.209914482683295L402.61996500459924,43.246580254612766L412.94067985593625,47.945178525246966L423.2613947072733,45.68292819702505L433.5821095586103,51.947664154461386L443.9028244099473,50.38143386254534L454.2235392612844,51.773659145384926L464.54425411262133,47.771173516170506L474.86496896395835,46.37894823333093L485.1856838152954,42.37646260411647L495.50639866663244,45.508830582834676L505.8271135179695,45.33482557375818L516.1478283693065,48.293188543399886L526.4685432206435,50.38143386254534" fill="none"></path></g><g><path style="fill: none;" stroke="rgb(204, 51, 17)" stroke-width="2px" d="M20.75351550512944,205.26895061396826L31.07423035646646,175.87117938121088L41.39494520780349,163.78982361265062L51.71566005914051,147.27870221919804L62.03637491047753,134.79469941526548L72.35708976181455,129.96219414988698L82.6778046131516,126.33781520085307L92.9985194644886,119.89444397864368L103.31923431582563,116.67271206498205L113.63994916716265,115.06193871326518L123.96066401849966,113.45107275643434L134.2813788698367,107.81308821008345L144.6020937211737,108.21582785056964L154.92280857251075,107.00770153422499L165.24352342384776,104.59144890153574L175.5642382751848,104.18870926104955L185.8849531265218,99.75894363615718L196.2056679778588,99.356203995671L206.52638282919585,100.16159067152947L216.84709768053287,98.9534643551848L227.1678125318699,96.93995136298174L237.48852738320693,96.13456468712329L247.80924223454392,99.356203995671L258.12995708588096,102.9805829447049L268.450671937218,95.7318250466371L278.771386788555,99.75894363615718L289.092101639892,93.71831205443402L299.4128164912291,95.7318250466371L309.73353134256604,97.34269100346793L320.0542461939031,95.7318250466371L330.37496104524007,97.34269100346793L340.6956758965771,97.74533803884016L351.01639074791416,95.7318250466371L361.3371055992511,97.74533803884016L371.6578204505882,98.55081731981254L381.9785353019252,96.13456468712329L392.2992501532622,99.356203995671L402.61996500459924,98.9534643551848L412.94067985593625,96.93995136298174L423.2613947072733,99.356203995671L433.5821095586103,100.16159067152947L443.9028244099473,98.9534643551848L454.2235392612844,100.56433031201564L464.54425411262133,100.16159067152947L474.86496896395835,96.53721172249556L485.1856838152954,100.56433031201564L495.50639866663244,100.16159067152947L505.8271135179695,100.56433031201564L516.1478283693065,100.56433031201564L526.4685432206435,96.13456468712329" fill="none"></path></g><g><path style="fill: none;" stroke="rgb(255, 112, 67)" stroke-width="2px" d="M20.75351550512944,335.42719774124043L31.07423035646646,186.81358485353303L41.39494520780349,150.79130679571713L51.71566005914051,123.2961076286734L62.03637491047753,104.5018997563644L72.35708976181455,89.18806988092649L82.6778046131516,84.48947161029224L92.9985194644886,75.2663726832142L103.31923431582563,69.34973934904475L113.63994916716265,62.56289575926509L123.96066401849966,58.386405120974175L134.2813788698367,55.428042151332505L144.6020937211737,49.16330619389613L154.92280857251075,49.337311202972636L165.24352342384776,46.55295324240738L175.5642382751848,46.55295324240738L185.8849531265218,44.116697905109014L196.2056679778588,42.898570236459804L206.52638282919585,41.33233994454376L216.84709768053287,38.54807458909247L227.1678125318699,39.244094625398304L237.48852738320693,38.54807458909247L247.80924223454392,38.37406958001601L258.12995708588096,33.50146630030531L268.450671937218,35.06760398710743L278.771386788555,34.89359897803097L289.092101639892,35.93772163760368L299.4128164912291,36.11172664668014L309.73353134256604,34.37158395080156L320.0542461939031,35.58971161945077L330.37496104524007,33.67547130938176L340.6956758965771,32.10933362257964L351.01639074791416,31.239215972083393L361.3371055992511,30.02099569832027L371.6578204505882,31.761230999312808L381.9785353019252,33.50146630030531L392.2992501532622,31.41322098115985L402.61996500459924,32.28333863165614L412.94067985593625,32.805353658885515L423.2613947072733,30.5431033306636L433.5821095586103,33.67547130938176L443.9028244099473,31.239215972083393L454.2235392612844,33.50146630030531L464.54425411262133,30.5431033306636L474.86496896395835,31.239215972083393L485.1856838152954,29.84699068924381L495.50639866663244,32.4573436407326L505.8271135179695,30.717108339740058L516.1478283693065,29.324975662014435L526.4685432206435,30.02099569832027" fill="none"></path></g><g><path stroke="rgb(0, 119, 187)" stroke-width="2px" d="M20.75351550512944,205.26895061396826L31.07423035646646,175.87117938121088L41.39494520780349,163.78982361265062L51.71566005914051,147.27870221919804L62.03637491047753,134.79469941526548L72.35708976181455,129.96219414988698L82.6778046131516,126.33781520085307L92.9985194644886,119.89444397864368L103.31923431582563,116.67271206498205L113.63994916716265,115.06193871326518L123.96066401849966,113.45107275643434L134.2813788698367,107.81308821008345L144.6020937211737,108.21582785056964L154.92280857251075,107.00770153422499L165.24352342384776,104.59144890153574L175.5642382751848,104.18870926104955L185.8849531265218,99.75894363615718L196.2056679778588,99.356203995671L206.52638282919585,100.16159067152947L216.84709768053287,98.9534643551848L227.1678125318699,96.93995136298174L237.48852738320693,96.13456468712329L247.80924223454392,99.356203995671L258.12995708588096,102.9805829447049L268.450671937218,95.7318250466371L278.771386788555,99.75894363615718L289.092101639892,93.71831205443402L299.4128164912291,95.7318250466371L309.73353134256604,97.34269100346793L320.0542461939031,95.7318250466371L330.37496104524007,97.34269100346793L340.6956758965771,97.74533803884016L351.01639074791416,95.7318250466371L361.3371055992511,97.74533803884016L371.6578204505882,98.55081731981254L381.9785353019252,96.13456468712329L392.2992501532622,99.356203995671L402.61996500459924,98.9534643551848L412.94067985593625,96.93995136298174L423.2613947072733,99.356203995671L433.5821095586103,100.16159067152947L443.9028244099473,98.9534643551848L454.2235392612844,100.56433031201564L464.54425411262133,100.16159067152947L474.86496896395835,96.53721172249556L485.1856838152954,100.56433031201564L495.50639866663244,100.16159067152947L505.8271135179695,100.56433031201564L516.1478283693065,100.56433031201564L526.4685432206435,96.13456468712329L20.75351550512944,466.62790063603455L31.07423035646646,336.55253508573065L41.39494520780349,281.38118635902197L51.71566005914051,254.8023147943261L62.03637491047753,234.26416741646733L72.35708976181455,227.41805655377178L82.6778046131516,223.3909379642517L92.9985194644886,218.15569305838696L103.31923431582563,212.11506147666378L113.63994916716265,204.46356393810984L123.96066401849966,198.02019271590046L134.2813788698367,191.5768214936911L144.6020937211737,188.75792182562958L154.92280857251075,187.14705586879876L165.24352342384776,180.3009450061032L175.5642382751848,175.87117938121088L185.8849531265218,175.87117938121088L196.2056679778588,171.03867411583235L206.52638282919585,166.60881588582606L216.84709768053287,164.595302893623L227.1678125318699,162.17905026093374L237.48852738320693,163.38717657727835L247.80924223454392,160.5681843041029L258.12995708588096,158.15193167141365L268.450671937218,156.943805355069L278.771386788555,152.5139471250627L289.092101639892,150.09769449237348L299.4128164912291,146.47331554333957L309.73353134256604,146.87605518382574L320.0542461939031,143.25158362967792L330.37496104524007,143.25158362967792L340.6956758965771,140.02994432113022L351.01639074791416,138.4190783642994L361.3371055992511,135.60008609112396L371.6578204505882,137.21095204795475L381.9785353019252,134.79469941526548L392.2992501532622,132.78118642306242L402.61996500459924,131.57306010671778L412.94067985593625,133.18383345843463L423.2613947072733,131.57306010671778L433.5821095586103,130.7675808257454L443.9028244099473,129.96219414988698L454.2235392612844,127.94868115768386L464.54425411262133,128.35132819305613L474.86496896395835,128.75406783354234L485.1856838152954,127.14320187671149L495.50639866663244,126.33781520085307L505.8271135179695,126.7404622362253L516.1478283693065,125.93507556036688L526.4685432206435,125.93507556036688" style="fill: none;" fill="none"></path></g><g><path stroke="rgb(255, 112, 67)" stroke-width="2px" d="M31.07423035646646,387.9814333431434L41.39494520780349,299.7530223066914L51.71566005914051,264.4267642851814L62.03637491047753,238.67170781401623L72.35708976181455,226.49033852241038L82.6778046131516,217.2672395953324L92.9985194644886,204.0416550390399L103.31923431582563,193.07832081096936L113.63994916716265,188.90183017267844L123.96066401849966,180.89695151936354L134.2813788698367,176.02434823965288L144.6020937211737,170.80373494178926L154.92280857251075,168.19338199030045L165.24352342384776,160.88452337329142L175.5642382751848,152.87955211486255L185.8849531265218,149.57317912706793L196.2056679778588,145.39668848877704L206.52638282919585,140.69818282325676L216.84709768053287,133.73733422440063L227.1678125318699,135.9995845526225L237.48852738320693,135.6515745344696L247.80924223454392,125.5583579568953L258.12995708588096,125.90636797504823L268.450671937218,124.16622527916964L278.771386788555,119.98973464087877L289.092101639892,118.24949933988623L299.4128164912291,119.98973464087877L309.73353134256604,112.50677840967931L320.0542461939031,108.85239540373173L330.37496104524007,108.67839039465528L340.6956758965771,102.93566946444832L351.01639074791416,104.5018997563644L361.3371055992511,104.32780214217398L371.6578204505882,98.58517381708099L381.9785353019252,93.53856552829382L392.2992501532622,94.06058055552325L402.61996500459924,88.83996725765962L412.94067985593625,91.79833022730132L423.2613947072733,87.96994221227729L433.5821095586103,91.79833022730132L443.9028244099473,86.22970691128478L454.2235392612844,85.35958926078854L464.54425411262133,83.79345157398642L474.86496896395835,82.74932891441367L485.1856838152954,80.66108359526825L495.50639866663244,82.05321627299386L505.8271135179695,77.1806129932832L516.1478283693065,76.48450035186342L526.4685432206435,75.2663726832142" style="fill: none;" fill="none"></path></g></g></g></g></g></g><g transform="translate(50, 378)" clip-path="url(#clip_1)"><clipPath id="clip_1"><rect width="837" height="22"></rect></clipPath><g><g><line x1="20.75351550512944" y1="0" x2="20.75351550512944" y2="5" style="visibility: inherit;" fill="rgb(0, 0, 0)" stroke="rgb(204, 204, 204)" stroke-width="1px"></line><line x1="123.96066401849966" y1="0" x2="123.96066401849966" y2="5" style="visibility: inherit;" fill="rgb(0, 0, 0)" stroke="rgb(204, 204, 204)" stroke-width="1px"></line><line x1="227.1678125318699" y1="0" x2="227.1678125318699" y2="5" style="visibility: inherit;" fill="rgb(0, 0, 0)" stroke="rgb(204, 204, 204)" stroke-width="1px"></line><line x1="330.37496104524007" y1="0" x2="330.37496104524007" y2="5" style="visibility: inherit;" fill="rgb(0, 0, 0)" stroke="rgb(204, 204, 204)" stroke-width="1px"></line><line x1="433.5821095586103" y1="0" x2="433.5821095586103" y2="5" style="visibility: inherit;" fill="rgb(0, 0, 0)" stroke="rgb(204, 204, 204)" stroke-width="1px"></line><line x1="536.7892580719806" y1="0" x2="536.7892580719806" y2="5" style="visibility: inherit;" fill="rgb(0, 0, 0)" stroke="rgb(204, 204, 204)" stroke-width="1px"></line><line x1="639.9964065853508" y1="0" x2="639.9964065853508" y2="5" style="visibility: inherit;" fill="rgb(0, 0, 0)" stroke="rgb(204, 204, 204)" stroke-width="1px"></line><line x1="743.203555098721" y1="0" x2="743.203555098721" y2="5" style="visibility: inherit;" fill="rgb(0, 0, 0)" stroke="rgb(204, 204, 204)" stroke-width="1px"></line></g><g transform="translate(0, 8)"><text x="20.75351550512944" y="0" dx="0em" dy="0.95em" style="text-anchor: middle; visibility: inherit; font-family: Roboto, sans-serif; font-size: 12px; font-weight: 200;" fill="rgb(50, 49, 63)" stroke="none" stroke-width="1px">0</text><text x="123.96066401849966" y="0" dx="0em" dy="0.95em" style="text-anchor: middle; visibility: inherit; font-family: Roboto, sans-serif; font-size: 12px; font-weight: 200;" fill="rgb(50, 49, 63)" stroke="none" stroke-width="1px">10</text><text x="227.1678125318699" y="0" dx="0em" dy="0.95em" style="text-anchor: middle; visibility: inherit; font-family: Roboto, sans-serif; font-size: 12px; font-weight: 200;" fill="rgb(50, 49, 63)" stroke="none" stroke-width="1px">20</text><text x="330.37496104524007" y="0" dx="0em" dy="0.95em" style="text-anchor: middle; visibility: inherit; font-family: Roboto, sans-serif; font-size: 12px; font-weight: 200;" fill="rgb(50, 49, 63)" stroke="none" stroke-width="1px">30</text><text x="433.5821095586103" y="0" dx="0em" dy="0.95em" style="text-anchor: middle; visibility: inherit; font-family: Roboto, sans-serif; font-size: 12px; font-weight: 200;" fill="rgb(50, 49, 63)" stroke="none" stroke-width="1px">40</text><text x="536.7892580719806" y="0" dx="0em" dy="0.95em" style="text-anchor: middle; visibility: inherit; font-family: Roboto, sans-serif; font-size: 12px; font-weight: 200;" fill="rgb(50, 49, 63)" stroke="none" stroke-width="1px">50</text><text x="639.9964065853508" y="0" dx="0em" dy="0.95em" style="text-anchor: middle; visibility: inherit; font-family: Roboto, sans-serif; font-size: 12px; font-weight: 200;" fill="rgb(50, 49, 63)" stroke="none" stroke-width="1px">60</text><text x="743.203555098721" y="0" dx="0em" dy="0.95em" style="text-anchor: middle; visibility: inherit; font-family: Roboto, sans-serif; font-size: 12px; font-weight: 200;" fill="rgb(50, 49, 63)" stroke="none" stroke-width="1px">70</text></g><line x1="0" y1="0" x2="837" y2="0" fill="rgb(0, 0, 0)" stroke="rgb(204, 204, 204)" stroke-width="1px"></line></g></g></g></g></svg>