<svg viewBox="0 0 761.4000244140625 400" xmlns="http://www.w3.org/2000/svg"><g><g><g><g><g><line x1="50" y1="372.9909791765686" x2="45" y2="372.9909791765686" style="visibility: inherit;" fill="rgb(0, 0, 0)" stroke="rgb(204, 204, 204)" stroke-width="1px"></line><line x1="50" y1="344.9695654890472" x2="45" y2="344.9695654890472" style="visibility: inherit;" fill="rgb(0, 0, 0)" stroke="rgb(204, 204, 204)" stroke-width="1px"></line><line x1="50" y1="316.9481518015259" x2="45" y2="316.9481518015259" style="visibility: inherit;" fill="rgb(0, 0, 0)" stroke="rgb(204, 204, 204)" stroke-width="1px"></line><line x1="50" y1="288.9267381140047" x2="45" y2="288.9267381140047" style="visibility: inherit;" fill="rgb(0, 0, 0)" stroke="rgb(204, 204, 204)" stroke-width="1px"></line><line x1="50" y1="260.90532442648333" x2="45" y2="260.90532442648333" style="visibility: inherit;" fill="rgb(0, 0, 0)" stroke="rgb(204, 204, 204)" stroke-width="1px"></line><line x1="50" y1="232.88391073896196" x2="45" y2="232.88391073896196" style="visibility: inherit;" fill="rgb(0, 0, 0)" stroke="rgb(204, 204, 204)" stroke-width="1px"></line><line x1="50" y1="204.8624970514406" x2="45" y2="204.8624970514406" style="visibility: inherit;" fill="rgb(0, 0, 0)" stroke="rgb(204, 204, 204)" stroke-width="1px"></line><line x1="50" y1="176.8410833639193" x2="45" y2="176.8410833639193" style="visibility: inherit;" fill="rgb(0, 0, 0)" stroke="rgb(204, 204, 204)" stroke-width="1px"></line><line x1="50" y1="148.81966967639792" x2="45" y2="148.81966967639792" style="visibility: inherit;" fill="rgb(0, 0, 0)" stroke="rgb(204, 204, 204)" stroke-width="1px"></line><line x1="50" y1="120.79825598887673" x2="45" y2="120.79825598887673" style="visibility: inherit;" fill="rgb(0, 0, 0)" stroke="rgb(204, 204, 204)" stroke-width="1px"></line><line x1="50" y1="92.77684230135537" x2="45" y2="92.77684230135537" style="visibility: inherit;" fill="rgb(0, 0, 0)" stroke="rgb(204, 204, 204)" stroke-width="1px"></line><line x1="50" y1="64.75542861383401" x2="45" y2="64.75542861383401" style="visibility: inherit;" fill="rgb(0, 0, 0)" stroke="rgb(204, 204, 204)" stroke-width="1px"></line><line x1="50" y1="36.734014926312646" x2="45" y2="36.734014926312646" style="visibility: inherit;" fill="rgb(0, 0, 0)" stroke="rgb(204, 204, 204)" stroke-width="1px"></line><line x1="50" y1="8.712601238791287" x2="45" y2="8.712601238791287" style="visibility: inherit;" fill="rgb(0, 0, 0)" stroke="rgb(204, 204, 204)" stroke-width="1px"></line></g><g transform="translate(40, 0)"><text x="0" y="372.9909791765686" dx="0em" dy="0.3em" style="text-anchor: end; visibility: hidden; font-family: Roboto, sans-serif; font-size: 12px; font-weight: 200;" fill="rgb(50, 49, 63)" stroke="none" stroke-width="1px">0.64</text><text x="0" y="344.9695654890472" dx="0em" dy="0.3em" style="text-anchor: end; visibility: inherit; font-family: Roboto, sans-serif; font-size: 12px; font-weight: 200;" fill="rgb(50, 49, 63)" stroke="none" stroke-width="1px">0.66</text><text x="0" y="316.9481518015259" dx="0em" dy="0.3em" style="text-anchor: end; visibility: inherit; font-family: Roboto, sans-serif; font-size: 12px; font-weight: 200;" fill="rgb(50, 49, 63)" stroke="none" stroke-width="1px">0.68</text><text x="0" y="288.9267381140047" dx="0em" dy="0.3em" style="text-anchor: end; visibility: inherit; font-family: Roboto, sans-serif; font-size: 12px; font-weight: 200;" fill="rgb(50, 49, 63)" stroke="none" stroke-width="1px">0.7</text><text x="0" y="260.90532442648333" dx="0em" dy="0.3em" style="text-anchor: end; visibility: inherit; font-family: Roboto, sans-serif; font-size: 12px; font-weight: 200;" fill="rgb(50, 49, 63)" stroke="none" stroke-width="1px">0.72</text><text x="0" y="232.88391073896196" dx="0em" dy="0.3em" style="text-anchor: end; visibility: inherit; font-family: Roboto, sans-serif; font-size: 12px; font-weight: 200;" fill="rgb(50, 49, 63)" stroke="none" stroke-width="1px">0.74</text><text x="0" y="204.8624970514406" dx="0em" dy="0.3em" style="text-anchor: end; visibility: inherit; font-family: Roboto, sans-serif; font-size: 12px; font-weight: 200;" fill="rgb(50, 49, 63)" stroke="none" stroke-width="1px">0.76</text><text x="0" y="176.8410833639193" dx="0em" dy="0.3em" style="text-anchor: end; visibility: inherit; font-family: Roboto, sans-serif; font-size: 12px; font-weight: 200;" fill="rgb(50, 49, 63)" stroke="none" stroke-width="1px">0.78</text><text x="0" y="148.81966967639792" dx="0em" dy="0.3em" style="text-anchor: end; visibility: inherit; font-family: Roboto, sans-serif; font-size: 12px; font-weight: 200;" fill="rgb(50, 49, 63)" stroke="none" stroke-width="1px">0.8</text><text x="0" y="120.79825598887673" dx="0em" dy="0.3em" style="text-anchor: end; visibility: inherit; font-family: Roboto, sans-serif; font-size: 12px; font-weight: 200;" fill="rgb(50, 49, 63)" stroke="none" stroke-width="1px">0.82</text><text x="0" y="92.77684230135537" dx="0em" dy="0.3em" style="text-anchor: end; visibility: inherit; font-family: Roboto, sans-serif; font-size: 12px; font-weight: 200;" fill="rgb(50, 49, 63)" stroke="none" stroke-width="1px">0.84</text><text x="0" y="64.75542861383401" dx="0em" dy="0.3em" style="text-anchor: end; visibility: inherit; font-family: Roboto, sans-serif; font-size: 12px; font-weight: 200;" fill="rgb(50, 49, 63)" stroke="none" stroke-width="1px">0.86</text><text x="0" y="36.734014926312646" dx="0em" dy="0.3em" style="text-anchor: end; visibility: inherit; font-family: Roboto, sans-serif; font-size: 12px; font-weight: 200;" fill="rgb(50, 49, 63)" stroke="none" stroke-width="1px">0.88</text><text x="0" y="8.712601238791287" dx="0em" dy="0.3em" style="text-anchor: end; visibility: inherit; font-family: Roboto, sans-serif; font-size: 12px; font-weight: 200;" fill="rgb(50, 49, 63)" stroke="none" stroke-width="1px">0.9</text></g><line x1="50" y1="0" x2="50" y2="378" fill="rgb(0, 0, 0)" stroke="rgb(204, 204, 204)" stroke-width="1px"></line></g></g><g transform="translate(50, 0)" clip-path="url(#clip_0)"><clipPath id="clip_0"><rect width="711" height="378"></rect></clipPath><g><g><g><line x1="44.883324528249695" y1="0" x2="44.883324528249695" y2="378" fill="rgb(0, 0, 0)" stroke="rgb(60, 60, 60)" stroke-width="1px" opacity="0.25"></line><line x1="106.07053161417535" y1="0" x2="106.07053161417535" y2="378" fill="rgb(0, 0, 0)" stroke="rgb(60, 60, 60)" stroke-width="1px" opacity="0.25"></line><line x1="167.257738700101" y1="0" x2="167.257738700101" y2="378" fill="rgb(0, 0, 0)" stroke="rgb(60, 60, 60)" stroke-width="1px" opacity="0.25"></line><line x1="228.44494578602666" y1="0" x2="228.44494578602666" y2="378" fill="rgb(0, 0, 0)" stroke="rgb(60, 60, 60)" stroke-width="1px" opacity="0.25"></line><line x1="289.6321528719523" y1="0" x2="289.6321528719523" y2="378" fill="rgb(0, 0, 0)" stroke="rgb(60, 60, 60)" stroke-width="1px" opacity="0.25"></line><line x1="350.819359957878" y1="0" x2="350.819359957878" y2="378" fill="rgb(0, 0, 0)" stroke="rgb(60, 60, 60)" stroke-width="1px" opacity="0.25"></line><line x1="412.00656704380367" y1="0" x2="412.00656704380367" y2="378" fill="rgb(0, 0, 0)" stroke="rgb(60, 60, 60)" stroke-width="1px" opacity="0.25"></line><line x1="473.19377412972926" y1="0" x2="473.19377412972926" y2="378" fill="rgb(0, 0, 0)" stroke="rgb(60, 60, 60)" stroke-width="1px" opacity="0.25"></line><line x1="534.380981215655" y1="0" x2="534.380981215655" y2="378" fill="rgb(0, 0, 0)" stroke="rgb(60, 60, 60)" stroke-width="1px" opacity="0.25"></line><line x1="595.5681883015806" y1="0" x2="595.5681883015806" y2="378" fill="rgb(0, 0, 0)" stroke="rgb(60, 60, 60)" stroke-width="1px" opacity="0.25"></line><line x1="656.7553953875063" y1="0" x2="656.7553953875063" y2="378" fill="rgb(0, 0, 0)" stroke="rgb(60, 60, 60)" stroke-width="1px" opacity="0.25"></line></g><g><line x1="0" y1="372.9909791765686" x2="711.4" y2="372.9909791765686" fill="rgb(0, 0, 0)" stroke="rgb(60, 60, 60)" stroke-width="1px" opacity="0.25"></line><line x1="0" y1="344.9695654890472" x2="711.4" y2="344.9695654890472" fill="rgb(0, 0, 0)" stroke="rgb(60, 60, 60)" stroke-width="1px" opacity="0.25"></line><line x1="0" y1="316.9481518015259" x2="711.4" y2="316.9481518015259" fill="rgb(0, 0, 0)" stroke="rgb(60, 60, 60)" stroke-width="1px" opacity="0.25"></line><line x1="0" y1="288.9267381140047" x2="711.4" y2="288.9267381140047" fill="rgb(0, 0, 0)" stroke="rgb(60, 60, 60)" stroke-width="1px" opacity="0.25"></line><line x1="0" y1="260.90532442648333" x2="711.4" y2="260.90532442648333" fill="rgb(0, 0, 0)" stroke="rgb(60, 60, 60)" stroke-width="1px" opacity="0.25"></line><line x1="0" y1="232.88391073896196" x2="711.4" y2="232.88391073896196" fill="rgb(0, 0, 0)" stroke="rgb(60, 60, 60)" stroke-width="1px" opacity="0.25"></line><line x1="0" y1="204.8624970514406" x2="711.4" y2="204.8624970514406" fill="rgb(0, 0, 0)" stroke="rgb(60, 60, 60)" stroke-width="1px" opacity="0.25"></line><line x1="0" y1="176.8410833639193" x2="711.4" y2="176.8410833639193" fill="rgb(0, 0, 0)" stroke="rgb(60, 60, 60)" stroke-width="1px" opacity="0.25"></line><line x1="0" y1="148.81966967639792" x2="711.4" y2="148.81966967639792" fill="rgb(0, 0, 0)" stroke="rgb(60, 60, 60)" stroke-width="1px" opacity="0.25"></line><line x1="0" y1="120.79825598887673" x2="711.4" y2="120.79825598887673" fill="rgb(0, 0, 0)" stroke="rgb(60, 60, 60)" stroke-width="1px" opacity="0.25"></line><line x1="0" y1="92.77684230135537" x2="711.4" y2="92.77684230135537" fill="rgb(0, 0, 0)" stroke="rgb(60, 60, 60)" stroke-width="1px" opacity="0.25"></line><line x1="0" y1="64.75542861383401" x2="711.4" y2="64.75542861383401" fill="rgb(0, 0, 0)" stroke="rgb(60, 60, 60)" stroke-width="1px" opacity="0.25"></line><line x1="0" y1="36.734014926312646" x2="711.4" y2="36.734014926312646" fill="rgb(0, 0, 0)" stroke="rgb(60, 60, 60)" stroke-width="1px" opacity="0.25"></line><line x1="0" y1="8.712601238791287" x2="711.4" y2="8.712601238791287" fill="rgb(0, 0, 0)" stroke="rgb(60, 60, 60)" stroke-width="1px" opacity="0.25"></line></g></g></g><g><g><line x1="0" y1="1269.6762171772511" x2="711.4" y2="1269.6762171772511" fill="rgb(0, 0, 0)" stroke="rgb(153, 153, 153)" stroke-width="1.5px"></line></g></g><g><g><line x1="44.883324528249695" y1="0" x2="44.883324528249695" y2="378" fill="rgb(0, 0, 0)" stroke="rgb(153, 153, 153)" stroke-width="1.5px"></line></g></g><g><g><g><g><g><path stroke="rgb(204, 51, 17)" stroke-width="2px" d="M44.883324528249695,129.35431589155846L57.120765945434826,100.66467934311923L69.35820736261996,97.033066037821L81.59564877980509,109.74367085120451L93.83309019699023,86.1383096322468L106.07053161417535,85.41193686499489L118.30797303136049,83.95935835113198L130.5454144485456,84.3224612244375L142.78285586573074,50.18544647321112L155.02029728291586,65.07500256770946L167.257738700101,46.19073029460742L179.49518011728614,57.81177595711305L191.7326215344713,49.09597083265373L203.97006295165642,51.274922113768554L216.20750436884157,36.38536601927018L228.44494578602666,50.911735730142595L240.68238720321182,50.54863285683708L252.91982862039694,49.45915721627964L265.15727003758207,45.10125465404998L277.3947114547672,42.92221986261471L289.6321528719523,46.91701955153886L301.86959428913747,48.73278444902777L314.10703570632256,37.838028043453576L326.3444771235077,49.45915721627964L338.58191854069287,46.553833167912934L350.819359957878,41.83274422205728L363.0568013750631,34.206414738155345L375.2942427922482,40.38016570819436L387.53168420943337,36.0222631459647L399.7691256266185,42.92221986261471L412.00656704380367,33.480125481223915L424.24400846098877,35.295890378712784L436.48144987817386,32.753752713972L448.7188912953591,38.201214427079535L460.95633271254417,44.73806827042402L473.19377412972926,50.18544647321112L485.4312155469145,38.56431730038505L497.66865696409957,36.74855240289614L509.90609838128466,58.538148724364966L522.1435397984699,40.74326858149988L534.380981215655,52.00129488102048L546.6184226328401,37.838028043453576L558.8558640500252,38.201214427079535L571.0933054672104,42.559116989309196L583.3307468843955,32.753752713972L595.5681883015806,41.83274422205728L607.8056297187657,35.295890378712784L620.0430711359509,44.73806827042402L632.280512553136,48.36968157572225L644.5179539703211,46.553833167912934" style="fill: none;" fill="none"></path></g><g><path stroke="rgb(0, 119, 187)" stroke-width="2px" d="M44.883324528249695,94.85411475670617L57.120765945434826,59.264437981296446L69.35820736261996,54.180246162135305L81.59564877980509,57.81177595711305L93.83309019699023,61.80657564603723L106.07053161417535,46.553833167912934L118.30797303136049,56.35919744325014L130.5454144485456,57.08548670018157L142.78285586573074,59.627624364922404L155.02029728291586,47.64330880847033L167.257738700101,44.73806827042402L179.49518011728614,63.259237670220585L191.7326215344713,55.99601105962418L203.97006295165642,57.08548670018157L216.20750436884157,35.295890378712784L228.44494578602666,45.10125465404998L240.68238720321182,29.848512175925688L252.91982862039694,40.0169793245684L265.15727003758207,37.111738786522096L277.3947114547672,43.28540624624067L289.6321528719523,33.84322835452939L301.86959428913747,36.0222631459647L314.10703570632256,33.11693909759796L326.3444771235077,33.11693909759796L338.58191854069287,34.56960112178131L350.819359957878,36.0222631459647L363.0568013750631,36.74855240289614L375.2942427922482,32.02746345704052L387.53168420943337,35.295890378712784L399.7691256266185,33.480125481223915L412.00656704380367,28.759036535368253L424.24400846098877,42.559116989309196L436.48144987817386,40.74326858149988L448.7188912953591,46.19073029460742L460.95633271254417,26.21689887062746L473.19377412972926,34.206414738155345L485.4312155469145,37.111738786522096L497.66865696409957,38.56431730038505L509.90609838128466,33.11693909759796L522.1435397984699,37.838028043453576L534.380981215655,45.10125465404998L546.6184226328401,41.83274422205728L558.8558640500252,37.838028043453576L571.0933054672104,30.211698559551646L583.3307468843955,32.02746345704052L595.5681883015806,37.111738786522096L607.8056297187657,44.73806827042402L620.0430711359509,44.73806827042402L632.280512553136,32.753752713972L644.5179539703211,33.11693909759796" style="fill: none;" fill="none"></path></g><g><path stroke="rgb(255, 112, 67)" stroke-width="2px" d="M44.883324528249695,113.73838702980821L57.120765945434826,87.22778527280424L69.35820736261996,76.3329453569096L81.59564877980509,61.44338926241127L93.83309019699023,50.18544647321112L106.07053161417535,45.82754391098146L118.30797303136049,42.559116989309196L130.5454144485456,36.74855240289614L142.78285586573074,33.84322835452939L155.02029728291586,32.39064984066648L167.257738700101,30.937987816483123L179.49518011728614,25.853712487001545L191.7326215344713,26.21689887062746L203.97006295165642,25.127423230070068L216.20750436884157,22.948471948955238L228.44494578602666,22.58528556532928L240.68238720321182,18.590569386725534L252.91982862039694,18.227383003099618L265.15727003758207,18.953672260031052L277.3947114547672,17.86419661947366L289.6321528719523,16.048431721984745L301.86959428913747,15.322142465053311L314.10703570632256,18.227383003099618L326.3444771235077,21.49580992477184L338.58191854069287,14.95895608142735L350.819359957878,18.590569386725534L363.0568013750631,13.14319118393848L375.2942427922482,14.95895608142735L387.53168420943337,16.411618105610703L399.7691256266185,14.95895608142735L412.00656704380367,16.411618105610703L424.24400846098877,16.77472097891622L436.48144987817386,14.95895608142735L448.7188912953591,16.77472097891622L460.95633271254417,17.50109374616814L473.19377412972926,15.322142465053311L485.4312155469145,18.227383003099618L497.66865696409957,17.86419661947366L509.90609838128466,16.048431721984745L522.1435397984699,18.227383003099618L534.380981215655,18.953672260031052L546.6184226328401,17.86419661947366L558.8558640500252,19.316858643657014L571.0933054672104,18.953672260031052L583.3307468843955,15.685245338358786L595.5681883015806,19.316858643657014L607.8056297187657,18.953672260031052L620.0430711359509,19.316858643657014L632.280512553136,19.316858643657014L644.5179539703211,15.322142465053311" style="fill: none;" fill="none"></path></g><g><path stroke="rgb(51, 187, 238)" stroke-width="2px" d="M44.883324528249695,349.429146877041L57.120765945434826,232.12854652886355L69.35820736261996,182.37560291588693L81.59564877980509,158.40705531330326L93.83309019699023,139.88596942382713L106.07053161417535,133.71221845378818L118.30797303136049,130.08060514848995L130.5454144485456,125.35951620263432L142.78285586573074,119.91213799984723L155.02029728291586,113.01209777287677L167.257738700101,107.20153318646372L179.49518011728614,101.39096860005067L191.7326215344713,98.84891444563031L203.97006295165642,97.39625242144696L216.20750436884157,91.22250145140795L228.44494578602666,87.22778527280424L240.68238720321182,87.22778527280424L252.91982862039694,82.86988271057459L265.15727003758207,78.8750830216504L277.3947114547672,77.05931812416154L289.6321528719523,74.8803668430467L301.86959428913747,75.9698424836041L314.10703570632256,73.4277048188633L326.3444771235077,71.24875353774847L338.58191854069287,70.15927789719103L350.819359957878,66.1644782082669L363.0568013750631,63.985526927152065L375.2942427922482,60.7171000054798L387.53168420943337,61.08028638910576L399.7691256266185,57.81177595711305L412.00656704380367,57.81177595711305L424.24400846098877,54.90653541906674L436.48144987817386,53.45387339488339L448.7188912953591,50.911735730142595L460.95633271254417,52.36439775432595L473.19377412972926,50.18544647321112L485.4312155469145,48.36968157572225L497.66865696409957,47.280205935164815L509.90609838128466,48.73278444902777L522.1435397984699,47.280205935164815L534.380981215655,46.553833167912934L546.6184226328401,45.82754391098146L558.8558640500252,44.011779013492585L571.0933054672104,44.374881886798065L583.3307468843955,44.73806827042402L595.5681883015806,43.28540624624067L607.8056297187657,42.559116989309196L620.0430711359509,42.92221986261471L632.280512553136,42.19593060568324L644.5179539703211,42.19593060568324" style="fill: none;" fill="none"></path></g></g></g></g></g></g><g transform="translate(50, 378)" clip-path="url(#clip_1)"><clipPath id="clip_1"><rect width="711" height="22"></rect></clipPath><g><g><line x1="44.883324528249695" y1="0" x2="44.883324528249695" y2="5" style="visibility: inherit;" fill="rgb(0, 0, 0)" stroke="rgb(204, 204, 204)" stroke-width="1px"></line><line x1="106.07053161417535" y1="0" x2="106.07053161417535" y2="5" style="visibility: inherit;" fill="rgb(0, 0, 0)" stroke="rgb(204, 204, 204)" stroke-width="1px"></line><line x1="167.257738700101" y1="0" x2="167.257738700101" y2="5" style="visibility: inherit;" fill="rgb(0, 0, 0)" stroke="rgb(204, 204, 204)" stroke-width="1px"></line><line x1="228.44494578602666" y1="0" x2="228.44494578602666" y2="5" style="visibility: inherit;" fill="rgb(0, 0, 0)" stroke="rgb(204, 204, 204)" stroke-width="1px"></line><line x1="289.6321528719523" y1="0" x2="289.6321528719523" y2="5" style="visibility: inherit;" fill="rgb(0, 0, 0)" stroke="rgb(204, 204, 204)" stroke-width="1px"></line><line x1="350.819359957878" y1="0" x2="350.819359957878" y2="5" style="visibility: inherit;" fill="rgb(0, 0, 0)" stroke="rgb(204, 204, 204)" stroke-width="1px"></line><line x1="412.00656704380367" y1="0" x2="412.00656704380367" y2="5" style="visibility: inherit;" fill="rgb(0, 0, 0)" stroke="rgb(204, 204, 204)" stroke-width="1px"></line><line x1="473.19377412972926" y1="0" x2="473.19377412972926" y2="5" style="visibility: inherit;" fill="rgb(0, 0, 0)" stroke="rgb(204, 204, 204)" stroke-width="1px"></line><line x1="534.380981215655" y1="0" x2="534.380981215655" y2="5" style="visibility: inherit;" fill="rgb(0, 0, 0)" stroke="rgb(204, 204, 204)" stroke-width="1px"></line><line x1="595.5681883015806" y1="0" x2="595.5681883015806" y2="5" style="visibility: inherit;" fill="rgb(0, 0, 0)" stroke="rgb(204, 204, 204)" stroke-width="1px"></line><line x1="656.7553953875063" y1="0" x2="656.7553953875063" y2="5" style="visibility: inherit;" fill="rgb(0, 0, 0)" stroke="rgb(204, 204, 204)" stroke-width="1px"></line></g><g transform="translate(0, 8)"><text x="44.883324528249695" y="0" dx="0em" dy="0.95em" style="text-anchor: middle; visibility: inherit; font-family: Roboto, sans-serif; font-size: 12px; font-weight: 200;" fill="rgb(50, 49, 63)" stroke="none" stroke-width="1px">0</text><text x="106.07053161417535" y="0" dx="0em" dy="0.95em" style="text-anchor: middle; visibility: inherit; font-family: Roboto, sans-serif; font-size: 12px; font-weight: 200;" fill="rgb(50, 49, 63)" stroke="none" stroke-width="1px">5</text><text x="167.257738700101" y="0" dx="0em" dy="0.95em" style="text-anchor: middle; visibility: inherit; font-family: Roboto, sans-serif; font-size: 12px; font-weight: 200;" fill="rgb(50, 49, 63)" stroke="none" stroke-width="1px">10</text><text x="228.44494578602666" y="0" dx="0em" dy="0.95em" style="text-anchor: middle; visibility: inherit; font-family: Roboto, sans-serif; font-size: 12px; font-weight: 200;" fill="rgb(50, 49, 63)" stroke="none" stroke-width="1px">15</text><text x="289.6321528719523" y="0" dx="0em" dy="0.95em" style="text-anchor: middle; visibility: inherit; font-family: Roboto, sans-serif; font-size: 12px; font-weight: 200;" fill="rgb(50, 49, 63)" stroke="none" stroke-width="1px">20</text><text x="350.819359957878" y="0" dx="0em" dy="0.95em" style="text-anchor: middle; visibility: inherit; font-family: Roboto, sans-serif; font-size: 12px; font-weight: 200;" fill="rgb(50, 49, 63)" stroke="none" stroke-width="1px">25</text><text x="412.00656704380367" y="0" dx="0em" dy="0.95em" style="text-anchor: middle; visibility: inherit; font-family: Roboto, sans-serif; font-size: 12px; font-weight: 200;" fill="rgb(50, 49, 63)" stroke="none" stroke-width="1px">30</text><text x="473.19377412972926" y="0" dx="0em" dy="0.95em" style="text-anchor: middle; visibility: inherit; font-family: Roboto, sans-serif; font-size: 12px; font-weight: 200;" fill="rgb(50, 49, 63)" stroke="none" stroke-width="1px">35</text><text x="534.380981215655" y="0" dx="0em" dy="0.95em" style="text-anchor: middle; visibility: inherit; font-family: Roboto, sans-serif; font-size: 12px; font-weight: 200;" fill="rgb(50, 49, 63)" stroke="none" stroke-width="1px">40</text><text x="595.5681883015806" y="0" dx="0em" dy="0.95em" style="text-anchor: middle; visibility: inherit; font-family: Roboto, sans-serif; font-size: 12px; font-weight: 200;" fill="rgb(50, 49, 63)" stroke="none" stroke-width="1px">45</text><text x="656.7553953875063" y="0" dx="0em" dy="0.95em" style="text-anchor: middle; visibility: inherit; font-family: Roboto, sans-serif; font-size: 12px; font-weight: 200;" fill="rgb(50, 49, 63)" stroke="none" stroke-width="1px">50</text></g><line x1="0" y1="0" x2="711.4" y2="0" fill="rgb(0, 0, 0)" stroke="rgb(204, 204, 204)" stroke-width="1px"></line></g></g></g></g></svg>