<svg viewBox="0 0 761.4000244140625 400" xmlns="http://www.w3.org/2000/svg"><g><g><g><g><g><line x1="50" y1="359.3116994158625" x2="45" y2="359.3116994158625" style="visibility: inherit;" fill="rgb(0, 0, 0)" stroke="rgb(204, 204, 204)" stroke-width="1px"></line><line x1="50" y1="326.3892737306866" x2="45" y2="326.3892737306866" style="visibility: inherit;" fill="rgb(0, 0, 0)" stroke="rgb(204, 204, 204)" stroke-width="1px"></line><line x1="50" y1="293.46684804551074" x2="45" y2="293.46684804551074" style="visibility: inherit;" fill="rgb(0, 0, 0)" stroke="rgb(204, 204, 204)" stroke-width="1px"></line><line x1="50" y1="260.5444223603352" x2="45" y2="260.5444223603352" style="visibility: inherit;" fill="rgb(0, 0, 0)" stroke="rgb(204, 204, 204)" stroke-width="1px"></line><line x1="50" y1="227.62199667515927" x2="45" y2="227.62199667515927" style="visibility: inherit;" fill="rgb(0, 0, 0)" stroke="rgb(204, 204, 204)" stroke-width="1px"></line><line x1="50" y1="194.69957098998339" x2="45" y2="194.69957098998339" style="visibility: inherit;" fill="rgb(0, 0, 0)" stroke="rgb(204, 204, 204)" stroke-width="1px"></line><line x1="50" y1="161.77714530480748" x2="45" y2="161.77714530480748" style="visibility: inherit;" fill="rgb(0, 0, 0)" stroke="rgb(204, 204, 204)" stroke-width="1px"></line><line x1="50" y1="128.8547196196316" x2="45" y2="128.8547196196316" style="visibility: inherit;" fill="rgb(0, 0, 0)" stroke="rgb(204, 204, 204)" stroke-width="1px"></line><line x1="50" y1="95.93229393445569" x2="45" y2="95.93229393445569" style="visibility: inherit;" fill="rgb(0, 0, 0)" stroke="rgb(204, 204, 204)" stroke-width="1px"></line><line x1="50" y1="63.00986824927976" x2="45" y2="63.00986824927976" style="visibility: inherit;" fill="rgb(0, 0, 0)" stroke="rgb(204, 204, 204)" stroke-width="1px"></line><line x1="50" y1="30.087442564103885" x2="45" y2="30.087442564103885" style="visibility: inherit;" fill="rgb(0, 0, 0)" stroke="rgb(204, 204, 204)" stroke-width="1px"></line></g><g transform="translate(40, 0)"><text x="0" y="359.3116994158625" dx="0em" dy="0.3em" style="text-anchor: end; visibility: inherit; font-family: Roboto, sans-serif; font-size: 12px; font-weight: 200;" fill="rgb(50, 49, 63)" stroke="none" stroke-width="1px">0.79</text><text x="0" y="326.3892737306866" dx="0em" dy="0.3em" style="text-anchor: end; visibility: inherit; font-family: Roboto, sans-serif; font-size: 12px; font-weight: 200;" fill="rgb(50, 49, 63)" stroke="none" stroke-width="1px">0.8</text><text x="0" y="293.46684804551074" dx="0em" dy="0.3em" style="text-anchor: end; visibility: inherit; font-family: Roboto, sans-serif; font-size: 12px; font-weight: 200;" fill="rgb(50, 49, 63)" stroke="none" stroke-width="1px">0.81</text><text x="0" y="260.5444223603352" dx="0em" dy="0.3em" style="text-anchor: end; visibility: inherit; font-family: Roboto, sans-serif; font-size: 12px; font-weight: 200;" fill="rgb(50, 49, 63)" stroke="none" stroke-width="1px">0.82</text><text x="0" y="227.62199667515927" dx="0em" dy="0.3em" style="text-anchor: end; visibility: inherit; font-family: Roboto, sans-serif; font-size: 12px; font-weight: 200;" fill="rgb(50, 49, 63)" stroke="none" stroke-width="1px">0.83</text><text x="0" y="194.69957098998339" dx="0em" dy="0.3em" style="text-anchor: end; visibility: inherit; font-family: Roboto, sans-serif; font-size: 12px; font-weight: 200;" fill="rgb(50, 49, 63)" stroke="none" stroke-width="1px">0.84</text><text x="0" y="161.77714530480748" dx="0em" dy="0.3em" style="text-anchor: end; visibility: inherit; font-family: Roboto, sans-serif; font-size: 12px; font-weight: 200;" fill="rgb(50, 49, 63)" stroke="none" stroke-width="1px">0.85</text><text x="0" y="128.8547196196316" dx="0em" dy="0.3em" style="text-anchor: end; visibility: inherit; font-family: Roboto, sans-serif; font-size: 12px; font-weight: 200;" fill="rgb(50, 49, 63)" stroke="none" stroke-width="1px">0.86</text><text x="0" y="95.93229393445569" dx="0em" dy="0.3em" style="text-anchor: end; visibility: inherit; font-family: Roboto, sans-serif; font-size: 12px; font-weight: 200;" fill="rgb(50, 49, 63)" stroke="none" stroke-width="1px">0.87</text><text x="0" y="63.00986824927976" dx="0em" dy="0.3em" style="text-anchor: end; visibility: inherit; font-family: Roboto, sans-serif; font-size: 12px; font-weight: 200;" fill="rgb(50, 49, 63)" stroke="none" stroke-width="1px">0.88</text><text x="0" y="30.087442564103885" dx="0em" dy="0.3em" style="text-anchor: end; visibility: inherit; font-family: Roboto, sans-serif; font-size: 12px; font-weight: 200;" fill="rgb(50, 49, 63)" stroke="none" stroke-width="1px">0.89</text></g><line x1="50" y1="0" x2="50" y2="378" fill="rgb(0, 0, 0)" stroke="rgb(204, 204, 204)" stroke-width="1px"></line></g></g><g transform="translate(50, 0)" clip-path="url(#clip_0)"><clipPath id="clip_0"><rect width="711" height="378"></rect></clipPath><g><g><g><line x1="9.834231853861699" y1="0" x2="9.834231853861699" y2="378" fill="rgb(0, 0, 0)" stroke="rgb(60, 60, 60)" stroke-width="1px" opacity="0.25"></line><line x1="79.7255064270327" y1="0" x2="79.7255064270327" y2="378" fill="rgb(0, 0, 0)" stroke="rgb(60, 60, 60)" stroke-width="1px" opacity="0.25"></line><line x1="149.6167810002037" y1="0" x2="149.6167810002037" y2="378" fill="rgb(0, 0, 0)" stroke="rgb(60, 60, 60)" stroke-width="1px" opacity="0.25"></line><line x1="219.5080555733747" y1="0" x2="219.5080555733747" y2="378" fill="rgb(0, 0, 0)" stroke="rgb(60, 60, 60)" stroke-width="1px" opacity="0.25"></line><line x1="289.3993301465457" y1="0" x2="289.3993301465457" y2="378" fill="rgb(0, 0, 0)" stroke="rgb(60, 60, 60)" stroke-width="1px" opacity="0.25"></line><line x1="359.2906047197167" y1="0" x2="359.2906047197167" y2="378" fill="rgb(0, 0, 0)" stroke="rgb(60, 60, 60)" stroke-width="1px" opacity="0.25"></line><line x1="429.1818792928877" y1="0" x2="429.1818792928877" y2="378" fill="rgb(0, 0, 0)" stroke="rgb(60, 60, 60)" stroke-width="1px" opacity="0.25"></line><line x1="499.0731538660587" y1="0" x2="499.0731538660587" y2="378" fill="rgb(0, 0, 0)" stroke="rgb(60, 60, 60)" stroke-width="1px" opacity="0.25"></line><line x1="568.9644284392298" y1="0" x2="568.9644284392298" y2="378" fill="rgb(0, 0, 0)" stroke="rgb(60, 60, 60)" stroke-width="1px" opacity="0.25"></line><line x1="638.8557030124007" y1="0" x2="638.8557030124007" y2="378" fill="rgb(0, 0, 0)" stroke="rgb(60, 60, 60)" stroke-width="1px" opacity="0.25"></line><line x1="708.7469775855717" y1="0" x2="708.7469775855717" y2="378" fill="rgb(0, 0, 0)" stroke="rgb(60, 60, 60)" stroke-width="1px" opacity="0.25"></line></g><g><line x1="0" y1="359.3116994158625" x2="711.4" y2="359.3116994158625" fill="rgb(0, 0, 0)" stroke="rgb(60, 60, 60)" stroke-width="1px" opacity="0.25"></line><line x1="0" y1="326.3892737306866" x2="711.4" y2="326.3892737306866" fill="rgb(0, 0, 0)" stroke="rgb(60, 60, 60)" stroke-width="1px" opacity="0.25"></line><line x1="0" y1="293.46684804551074" x2="711.4" y2="293.46684804551074" fill="rgb(0, 0, 0)" stroke="rgb(60, 60, 60)" stroke-width="1px" opacity="0.25"></line><line x1="0" y1="260.5444223603352" x2="711.4" y2="260.5444223603352" fill="rgb(0, 0, 0)" stroke="rgb(60, 60, 60)" stroke-width="1px" opacity="0.25"></line><line x1="0" y1="227.62199667515927" x2="711.4" y2="227.62199667515927" fill="rgb(0, 0, 0)" stroke="rgb(60, 60, 60)" stroke-width="1px" opacity="0.25"></line><line x1="0" y1="194.69957098998339" x2="711.4" y2="194.69957098998339" fill="rgb(0, 0, 0)" stroke="rgb(60, 60, 60)" stroke-width="1px" opacity="0.25"></line><line x1="0" y1="161.77714530480748" x2="711.4" y2="161.77714530480748" fill="rgb(0, 0, 0)" stroke="rgb(60, 60, 60)" stroke-width="1px" opacity="0.25"></line><line x1="0" y1="128.8547196196316" x2="711.4" y2="128.8547196196316" fill="rgb(0, 0, 0)" stroke="rgb(60, 60, 60)" stroke-width="1px" opacity="0.25"></line><line x1="0" y1="95.93229393445569" x2="711.4" y2="95.93229393445569" fill="rgb(0, 0, 0)" stroke="rgb(60, 60, 60)" stroke-width="1px" opacity="0.25"></line><line x1="0" y1="63.00986824927976" x2="711.4" y2="63.00986824927976" fill="rgb(0, 0, 0)" stroke="rgb(60, 60, 60)" stroke-width="1px" opacity="0.25"></line><line x1="0" y1="30.087442564103885" x2="711.4" y2="30.087442564103885" fill="rgb(0, 0, 0)" stroke="rgb(60, 60, 60)" stroke-width="1px" opacity="0.25"></line></g></g></g><g><g><line x1="0" y1="2960.1833285447565" x2="711.4" y2="2960.1833285447565" fill="rgb(0, 0, 0)" stroke="rgb(153, 153, 153)" stroke-width="1.5px"></line></g></g><g><g><line x1="9.834231853861699" y1="0" x2="9.834231853861699" y2="378" fill="rgb(0, 0, 0)" stroke="rgb(153, 153, 153)" stroke-width="1.5px"></line></g></g><g><g><g><g><g><path stroke="rgb(51, 187, 238)" stroke-width="2px" d="M9.834231853861699,345.85495430729287L23.8124867684959,193.51460655461167L37.7907416831301,178.28065027252308L51.7689965977643,119.88349080293541L65.74725151239849,108.03494535373267L79.7255064270327,64.87174216623362L93.70376134166689,58.947469441632244L107.6820162563011,52.176844008809404L121.6602711709353,45.40602234303773L135.6385260855695,50.48413859236648L149.6167810002037,46.2523750512592L163.5950359148379,52.176844008809404L177.5732908294721,39.48174961843636L191.55154574410628,40.32810232665783L205.5298006587405,35.25018231027787L219.5080555733747,34.40382960205641L233.4863104880089,42.02080774310071L247.4645654026431,41.174455034879244L261.4428203172773,36.94269149377197L275.4210752319115,39.48174961843636L289.3993301465457,43.71351315954364L303.3775850611799,38.635396910214894L317.3558399758141,42.86716045132218L331.3340948904483,40.32810232665783L345.31234980508253,40.32810232665783L359.2906047197167,40.32810232665783L373.26885963435086,40.32810232665783L387.2471145489851,41.174455034879244L401.2253694636193,41.174455034879244L415.20362437825355,41.174455034879244L429.1818792928877,41.174455034879244L443.16013420752193,41.174455034879244L457.1383891221561,41.174455034879244L471.11664403679026,41.174455034879244L485.0948989514245,41.174455034879244L499.0731538660587,41.174455034879244L513.0514087806929,41.174455034879244L527.0296636953271,41.174455034879244L541.0079186099613,41.174455034879244L554.9861735245955,41.174455034879244L568.9644284392298,41.174455034879244L582.9426833538639,41.174455034879244L596.920938268498,41.174455034879244L610.8991931831323,41.174455034879244L624.8774480977664,41.174455034879244L638.8557030124007,41.174455034879244L652.8339579270349,41.174455034879244L666.8122128416692,41.174455034879244L680.7904677563033,41.174455034879244L694.7687226709376,41.174455034879244" style="fill: none;" fill="none"></path></g><g><path stroke="rgb(204, 51, 17)" stroke-width="2px" d="M9.834231853861699,317.92590363483123L23.8124867684959,239.2168678667751L37.7907416831301,130.0395270686441L51.7689965977643,112.26651266189111L65.74725151239849,103.80318181262538L79.7255064270327,91.10808742225234L93.70376134166689,65.71809487445509L107.6820162563011,55.56205860874639L121.6602711709353,32.71112418561352L135.6385260855695,48.79143317592355L149.6167810002037,31.018418769170594L163.5950359148379,36.94269149377197L177.5732908294721,30.17206606094913L191.55154574410628,29.325713352727664L205.5298006587405,26.786655228063317L219.5080555733747,25.940498752790685L233.4863104880089,29.325713352727664L247.4645654026431,30.17206606094913L261.4428203172773,32.71112418561352L275.4210752319115,30.17206606094913L289.3993301465457,27.63300793628478L303.3775850611799,28.479360644506244L317.3558399758141,31.864771477392058L331.3340948904483,26.786655228063317L345.31234980508253,28.479360644506244L359.2906047197167,29.325713352727664L373.26885963435086,29.325713352727664L387.2471145489851,29.325713352727664L401.2253694636193,29.325713352727664L415.20362437825355,29.325713352727664L429.1818792928877,29.325713352727664L443.16013420752193,29.325713352727664L457.1383891221561,29.325713352727664L471.11664403679026,25.940498752790685L485.0948989514245,25.940498752790685L499.0731538660587,25.940498752790685L513.0514087806929,25.940498752790685L527.0296636953271,25.940498752790685L541.0079186099613,25.940498752790685L554.9861735245955,25.940498752790685L568.9644284392298,25.940498752790685L582.9426833538639,25.940498752790685L596.920938268498,25.940498752790685L610.8991931831323,25.940498752790685L624.8774480977664,25.940498752790685L638.8557030124007,25.940498752790685L652.8339579270349,25.940498752790685L666.8122128416692,25.940498752790685L680.7904677563033,25.940498752790685L694.7687226709376,25.940498752790685" style="fill: none;" fill="none"></path></g><g><path stroke="rgb(0, 119, 187)" stroke-width="2px" d="M9.834231853861699,361.93526329760294L23.8124867684959,229.90718430928786L37.7907416831301,181.6660611054089L51.7689965977643,93.64714554691669L65.74725151239849,85.18381469765097L79.7255064270327,73.33507301549939L93.70376134166689,74.1814257237208L107.6820162563011,36.09633878555051L121.6602711709353,41.174455034879244L135.6385260855695,37.789044201993434L149.6167810002037,34.40382960205641L163.5950359148379,34.40382960205641L177.5732908294721,30.17206606094913L191.55154574410628,27.63300793628478L205.5298006587405,35.25018231027787L219.5080555733747,26.786655228063317L233.4863104880089,26.786655228063317L247.4645654026431,24.247793336347755L261.4428203172773,23.40144062812629L275.4210752319115,23.40144062812629L289.3993301465457,27.63300793628478L303.3775850611799,24.247793336347755L317.3558399758141,23.40144062812629L331.3340948904483,25.094146044569218L345.31234980508253,25.940498752790685L359.2906047197167,24.247793336347755L373.26885963435086,24.247793336347755L387.2471145489851,24.247793336347755L401.2253694636193,24.247793336347755L415.20362437825355,24.247793336347755L429.1818792928877,24.247793336347755L443.16013420752193,24.247793336347755L457.1383891221561,24.247793336347755L471.11664403679026,24.247793336347755L485.0948989514245,23.40144062812629L499.0731538660587,23.40144062812629L513.0514087806929,23.40144062812629L527.0296636953271,23.40144062812629L541.0079186099613,23.40144062812629L554.9861735245955,23.40144062812629L568.9644284392298,23.40144062812629L582.9426833538639,23.40144062812629L596.920938268498,23.40144062812629L610.8991931831323,23.40144062812629L624.8774480977664,23.40144062812629L638.8557030124007,23.40144062812629L652.8339579270349,23.40144062812629L666.8122128416692,23.40144062812629L680.7904677563033,23.40144062812629L694.7687226709376,23.40144062812629" style="fill: none;" fill="none"></path></g><g><path stroke="rgb(255, 112, 67)" stroke-width="2px" d="M9.834231853861699,355.1646378647801L23.8124867684959,190.97574466289612L37.7907416831301,139.3492106261313L51.7689965977643,134.2712906097514L65.74725151239849,95.33985096335962L79.7255064270327,74.1814257237208L93.70376134166689,64.87174216623362L107.6820162563011,59.79382214985367L121.6602711709353,41.174455034879244L135.6385260855695,40.32810232665783L149.6167810002037,47.945080467702084L163.5950359148379,28.479360644506244L177.5732908294721,47.945080467702084L191.55154574410628,28.479360644506244L205.5298006587405,30.17206606094913L219.5080555733747,32.71112418561352L233.4863104880089,33.557476893834945L247.4645654026431,27.63300793628478L261.4428203172773,28.479360644506244L275.4210752319115,27.63300793628478L289.3993301465457,27.63300793628478L303.3775850611799,26.786655228063317L317.3558399758141,23.40144062812629L331.3340948904483,25.094146044569218L345.31234980508253,24.247793336347755L359.2906047197167,28.479360644506244L373.26885963435086,27.63300793628478L387.2471145489851,27.63300793628478L401.2253694636193,26.786655228063317L415.20362437825355,26.786655228063317L429.1818792928877,26.786655228063317L443.16013420752193,26.786655228063317L457.1383891221561,26.786655228063317L471.11664403679026,26.786655228063317L485.0948989514245,26.786655228063317L499.0731538660587,26.786655228063317L513.0514087806929,26.786655228063317L527.0296636953271,26.786655228063317L541.0079186099613,26.786655228063317L554.9861735245955,26.786655228063317L568.9644284392298,26.786655228063317L582.9426833538639,26.786655228063317L596.920938268498,26.786655228063317L610.8991931831323,26.786655228063317L624.8774480977664,26.786655228063317L638.8557030124007,26.786655228063317L652.8339579270349,26.786655228063317L666.8122128416692,26.786655228063317L680.7904677563033,26.786655228063317L694.7687226709376,26.786655228063317" style="fill: none;" fill="none"></path></g></g></g></g></g></g><g transform="translate(50, 378)" clip-path="url(#clip_1)"><clipPath id="clip_1"><rect width="711" height="22"></rect></clipPath><g><g><line x1="9.834231853861699" y1="0" x2="9.834231853861699" y2="5" style="visibility: inherit;" fill="rgb(0, 0, 0)" stroke="rgb(204, 204, 204)" stroke-width="1px"></line><line x1="79.7255064270327" y1="0" x2="79.7255064270327" y2="5" style="visibility: inherit;" fill="rgb(0, 0, 0)" stroke="rgb(204, 204, 204)" stroke-width="1px"></line><line x1="149.6167810002037" y1="0" x2="149.6167810002037" y2="5" style="visibility: inherit;" fill="rgb(0, 0, 0)" stroke="rgb(204, 204, 204)" stroke-width="1px"></line><line x1="219.5080555733747" y1="0" x2="219.5080555733747" y2="5" style="visibility: inherit;" fill="rgb(0, 0, 0)" stroke="rgb(204, 204, 204)" stroke-width="1px"></line><line x1="289.3993301465457" y1="0" x2="289.3993301465457" y2="5" style="visibility: inherit;" fill="rgb(0, 0, 0)" stroke="rgb(204, 204, 204)" stroke-width="1px"></line><line x1="359.2906047197167" y1="0" x2="359.2906047197167" y2="5" style="visibility: inherit;" fill="rgb(0, 0, 0)" stroke="rgb(204, 204, 204)" stroke-width="1px"></line><line x1="429.1818792928877" y1="0" x2="429.1818792928877" y2="5" style="visibility: inherit;" fill="rgb(0, 0, 0)" stroke="rgb(204, 204, 204)" stroke-width="1px"></line><line x1="499.0731538660587" y1="0" x2="499.0731538660587" y2="5" style="visibility: inherit;" fill="rgb(0, 0, 0)" stroke="rgb(204, 204, 204)" stroke-width="1px"></line><line x1="568.9644284392298" y1="0" x2="568.9644284392298" y2="5" style="visibility: inherit;" fill="rgb(0, 0, 0)" stroke="rgb(204, 204, 204)" stroke-width="1px"></line><line x1="638.8557030124007" y1="0" x2="638.8557030124007" y2="5" style="visibility: inherit;" fill="rgb(0, 0, 0)" stroke="rgb(204, 204, 204)" stroke-width="1px"></line><line x1="708.7469775855717" y1="0" x2="708.7469775855717" y2="5" style="visibility: inherit;" fill="rgb(0, 0, 0)" stroke="rgb(204, 204, 204)" stroke-width="1px"></line></g><g transform="translate(0, 8)"><text x="9.834231853861699" y="0" dx="0em" dy="0.95em" style="text-anchor: middle; visibility: inherit; font-family: Roboto, sans-serif; font-size: 12px; font-weight: 200;" fill="rgb(50, 49, 63)" stroke="none" stroke-width="1px">0</text><text x="79.7255064270327" y="0" dx="0em" dy="0.95em" style="text-anchor: middle; visibility: inherit; font-family: Roboto, sans-serif; font-size: 12px; font-weight: 200;" fill="rgb(50, 49, 63)" stroke="none" stroke-width="1px">5</text><text x="149.6167810002037" y="0" dx="0em" dy="0.95em" style="text-anchor: middle; visibility: inherit; font-family: Roboto, sans-serif; font-size: 12px; font-weight: 200;" fill="rgb(50, 49, 63)" stroke="none" stroke-width="1px">10</text><text x="219.5080555733747" y="0" dx="0em" dy="0.95em" style="text-anchor: middle; visibility: inherit; font-family: Roboto, sans-serif; font-size: 12px; font-weight: 200;" fill="rgb(50, 49, 63)" stroke="none" stroke-width="1px">15</text><text x="289.3993301465457" y="0" dx="0em" dy="0.95em" style="text-anchor: middle; visibility: inherit; font-family: Roboto, sans-serif; font-size: 12px; font-weight: 200;" fill="rgb(50, 49, 63)" stroke="none" stroke-width="1px">20</text><text x="359.2906047197167" y="0" dx="0em" dy="0.95em" style="text-anchor: middle; visibility: inherit; font-family: Roboto, sans-serif; font-size: 12px; font-weight: 200;" fill="rgb(50, 49, 63)" stroke="none" stroke-width="1px">25</text><text x="429.1818792928877" y="0" dx="0em" dy="0.95em" style="text-anchor: middle; visibility: inherit; font-family: Roboto, sans-serif; font-size: 12px; font-weight: 200;" fill="rgb(50, 49, 63)" stroke="none" stroke-width="1px">30</text><text x="499.0731538660587" y="0" dx="0em" dy="0.95em" style="text-anchor: middle; visibility: inherit; font-family: Roboto, sans-serif; font-size: 12px; font-weight: 200;" fill="rgb(50, 49, 63)" stroke="none" stroke-width="1px">35</text><text x="568.9644284392298" y="0" dx="0em" dy="0.95em" style="text-anchor: middle; visibility: inherit; font-family: Roboto, sans-serif; font-size: 12px; font-weight: 200;" fill="rgb(50, 49, 63)" stroke="none" stroke-width="1px">40</text><text x="638.8557030124007" y="0" dx="0em" dy="0.95em" style="text-anchor: middle; visibility: inherit; font-family: Roboto, sans-serif; font-size: 12px; font-weight: 200;" fill="rgb(50, 49, 63)" stroke="none" stroke-width="1px">45</text><text x="708.7469775855717" y="0" dx="0em" dy="0.95em" style="text-anchor: middle; visibility: hidden; font-family: Roboto, sans-serif; font-size: 12px; font-weight: 200;" fill="rgb(50, 49, 63)" stroke="none" stroke-width="1px">50</text></g><line x1="0" y1="0" x2="711.4" y2="0" fill="rgb(0, 0, 0)" stroke="rgb(204, 204, 204)" stroke-width="1px"></line></g></g></g></g></svg>