<svg viewBox="0 0 761.4000244140625 400" xmlns="http://www.w3.org/2000/svg"><g><g><g><g><g><line x1="40" y1="376.38549456875813" x2="35" y2="376.38549456875813" style="visibility: inherit;" fill="rgb(0, 0, 0)" stroke="rgb(204, 204, 204)" stroke-width="1px"></line><line x1="40" y1="326.7972009197178" x2="35" y2="326.7972009197178" style="visibility: inherit;" fill="rgb(0, 0, 0)" stroke="rgb(204, 204, 204)" stroke-width="1px"></line><line x1="40" y1="277.2089072706774" x2="35" y2="277.2089072706774" style="visibility: inherit;" fill="rgb(0, 0, 0)" stroke="rgb(204, 204, 204)" stroke-width="1px"></line><line x1="40" y1="227.62061362163703" x2="35" y2="227.62061362163703" style="visibility: inherit;" fill="rgb(0, 0, 0)" stroke="rgb(204, 204, 204)" stroke-width="1px"></line><line x1="40" y1="178.03231997259667" x2="35" y2="178.03231997259667" style="visibility: inherit;" fill="rgb(0, 0, 0)" stroke="rgb(204, 204, 204)" stroke-width="1px"></line><line x1="40" y1="128.44402632355627" x2="35" y2="128.44402632355627" style="visibility: inherit;" fill="rgb(0, 0, 0)" stroke="rgb(204, 204, 204)" stroke-width="1px"></line><line x1="40" y1="78.85573267451595" x2="35" y2="78.85573267451595" style="visibility: inherit;" fill="rgb(0, 0, 0)" stroke="rgb(204, 204, 204)" stroke-width="1px"></line><line x1="40" y1="29.267439025475518" x2="35" y2="29.267439025475518" style="visibility: inherit;" fill="rgb(0, 0, 0)" stroke="rgb(204, 204, 204)" stroke-width="1px"></line></g><g transform="translate(30, 0)"><text x="0" y="376.38549456875813" dx="0em" dy="0.3em" style="text-anchor: end; visibility: hidden; font-family: Roboto, sans-serif; font-size: 12px; font-weight: 200;" fill="rgb(50, 49, 63)" stroke="none" stroke-width="1px">0.8</text><text x="0" y="326.7972009197178" dx="0em" dy="0.3em" style="text-anchor: end; visibility: inherit; font-family: Roboto, sans-serif; font-size: 12px; font-weight: 200;" fill="rgb(50, 49, 63)" stroke="none" stroke-width="1px">1</text><text x="0" y="277.2089072706774" dx="0em" dy="0.3em" style="text-anchor: end; visibility: inherit; font-family: Roboto, sans-serif; font-size: 12px; font-weight: 200;" fill="rgb(50, 49, 63)" stroke="none" stroke-width="1px">1.2</text><text x="0" y="227.62061362163703" dx="0em" dy="0.3em" style="text-anchor: end; visibility: inherit; font-family: Roboto, sans-serif; font-size: 12px; font-weight: 200;" fill="rgb(50, 49, 63)" stroke="none" stroke-width="1px">1.4</text><text x="0" y="178.03231997259667" dx="0em" dy="0.3em" style="text-anchor: end; visibility: inherit; font-family: Roboto, sans-serif; font-size: 12px; font-weight: 200;" fill="rgb(50, 49, 63)" stroke="none" stroke-width="1px">1.6</text><text x="0" y="128.44402632355627" dx="0em" dy="0.3em" style="text-anchor: end; visibility: inherit; font-family: Roboto, sans-serif; font-size: 12px; font-weight: 200;" fill="rgb(50, 49, 63)" stroke="none" stroke-width="1px">1.8</text><text x="0" y="78.85573267451595" dx="0em" dy="0.3em" style="text-anchor: end; visibility: inherit; font-family: Roboto, sans-serif; font-size: 12px; font-weight: 200;" fill="rgb(50, 49, 63)" stroke="none" stroke-width="1px">2</text><text x="0" y="29.267439025475518" dx="0em" dy="0.3em" style="text-anchor: end; visibility: inherit; font-family: Roboto, sans-serif; font-size: 12px; font-weight: 200;" fill="rgb(50, 49, 63)" stroke="none" stroke-width="1px">2.2</text></g><line x1="40" y1="0" x2="40" y2="378" fill="rgb(0, 0, 0)" stroke="rgb(204, 204, 204)" stroke-width="1px"></line></g></g><g transform="translate(40, 0)" clip-path="url(#clip_0)"><clipPath id="clip_0"><rect width="721" height="378"></rect></clipPath><g><g><g><line x1="16.98041548799641" y1="0" x2="16.98041548799641" y2="378" fill="rgb(0, 0, 0)" stroke="rgb(60, 60, 60)" stroke-width="1px" opacity="0.25"></line><line x1="87.51482332748746" y1="0" x2="87.51482332748746" y2="378" fill="rgb(0, 0, 0)" stroke="rgb(60, 60, 60)" stroke-width="1px" opacity="0.25"></line><line x1="158.04923116697853" y1="0" x2="158.04923116697853" y2="378" fill="rgb(0, 0, 0)" stroke="rgb(60, 60, 60)" stroke-width="1px" opacity="0.25"></line><line x1="228.58363900646955" y1="0" x2="228.58363900646955" y2="378" fill="rgb(0, 0, 0)" stroke="rgb(60, 60, 60)" stroke-width="1px" opacity="0.25"></line><line x1="299.1180468459606" y1="0" x2="299.1180468459606" y2="378" fill="rgb(0, 0, 0)" stroke="rgb(60, 60, 60)" stroke-width="1px" opacity="0.25"></line><line x1="369.65245468545163" y1="0" x2="369.65245468545163" y2="378" fill="rgb(0, 0, 0)" stroke="rgb(60, 60, 60)" stroke-width="1px" opacity="0.25"></line><line x1="440.18686252494274" y1="0" x2="440.18686252494274" y2="378" fill="rgb(0, 0, 0)" stroke="rgb(60, 60, 60)" stroke-width="1px" opacity="0.25"></line><line x1="510.7212703644338" y1="0" x2="510.7212703644338" y2="378" fill="rgb(0, 0, 0)" stroke="rgb(60, 60, 60)" stroke-width="1px" opacity="0.25"></line><line x1="581.2556782039248" y1="0" x2="581.2556782039248" y2="378" fill="rgb(0, 0, 0)" stroke="rgb(60, 60, 60)" stroke-width="1px" opacity="0.25"></line><line x1="651.7900860434158" y1="0" x2="651.7900860434158" y2="378" fill="rgb(0, 0, 0)" stroke="rgb(60, 60, 60)" stroke-width="1px" opacity="0.25"></line></g><g><line x1="0" y1="376.38549456875813" x2="721.4" y2="376.38549456875813" fill="rgb(0, 0, 0)" stroke="rgb(60, 60, 60)" stroke-width="1px" opacity="0.25"></line><line x1="0" y1="326.7972009197178" x2="721.4" y2="326.7972009197178" fill="rgb(0, 0, 0)" stroke="rgb(60, 60, 60)" stroke-width="1px" opacity="0.25"></line><line x1="0" y1="277.2089072706774" x2="721.4" y2="277.2089072706774" fill="rgb(0, 0, 0)" stroke="rgb(60, 60, 60)" stroke-width="1px" opacity="0.25"></line><line x1="0" y1="227.62061362163703" x2="721.4" y2="227.62061362163703" fill="rgb(0, 0, 0)" stroke="rgb(60, 60, 60)" stroke-width="1px" opacity="0.25"></line><line x1="0" y1="178.03231997259667" x2="721.4" y2="178.03231997259667" fill="rgb(0, 0, 0)" stroke="rgb(60, 60, 60)" stroke-width="1px" opacity="0.25"></line><line x1="0" y1="128.44402632355627" x2="721.4" y2="128.44402632355627" fill="rgb(0, 0, 0)" stroke="rgb(60, 60, 60)" stroke-width="1px" opacity="0.25"></line><line x1="0" y1="78.85573267451595" x2="721.4" y2="78.85573267451595" fill="rgb(0, 0, 0)" stroke="rgb(60, 60, 60)" stroke-width="1px" opacity="0.25"></line><line x1="0" y1="29.267439025475518" x2="721.4" y2="29.267439025475518" fill="rgb(0, 0, 0)" stroke="rgb(60, 60, 60)" stroke-width="1px" opacity="0.25"></line></g></g></g><g><g><line x1="0" y1="574.7386691649197" x2="721.4" y2="574.7386691649197" fill="rgb(0, 0, 0)" stroke="rgb(153, 153, 153)" stroke-width="1.5px"></line></g></g><g><g><line x1="16.98041548799641" y1="0" x2="16.98041548799641" y2="378" fill="rgb(0, 0, 0)" stroke="rgb(153, 153, 153)" stroke-width="1.5px"></line></g></g><g><g><g><g><g><path stroke="rgb(0, 119, 187)" stroke-width="2px" d="M16.98041548799641,44.80698119425108L31.08729705589462,109.71407997522499L45.19417862379284,246.41790838218924L59.30106019169104,241.63370606685382L73.40794175958925,301.4992503753751L87.51482332748746,328.83612636526954L101.62170489538566,343.6462154162328L115.72858646328388,343.6847428696384L129.8354680311821,349.8010167385468L143.9423495990803,347.4896207680858L158.04923116697853,342.7166796416629L172.15611273487673,347.8956147074636L186.26299430277493,351.0246439295996L200.36987587067316,351.34696221067964L214.47675743857135,352.10763926541364L228.58363900646955,354.3975916858588L242.69052057436775,351.3628933939444L256.797402142266,351.8519866315575L270.9042837101642,353.0366577937737L285.0111652780624,353.44025762212283L299.1180468459606,353.5895200998353L313.22492841385883,353.7520684159104L327.33180998175703,354.1253428378966L341.43869154965523,354.3454828248277L355.54557311755343,354.5297850386447L369.65245468545163,354.60967741037865L383.75933625334983,354.72345679809234L397.86621782124814,354.74127962463905L411.97309938914634,354.7345702023735L426.07998095704454,354.67578147600324L440.18686252494274,354.6642986101436L454.29374409284094,354.6306776065004L468.40062566073914,354.60550988377327L482.50750722863734,354.60858380410633L496.6143887965356,354.6169484142435L510.7212703644338,354.61787945742134L524.8281519323319,354.61184984446027L538.9350335002302,354.6111404782296L553.0419150681284,354.60899760107424L567.1487966360266,354.60933750572644L581.2556782039248,354.608761145664L595.362559771823,354.6083030133067L609.4694413397212,354.608229120991L623.5763229076194,354.6085246902538L637.6832044755176,354.6087168102746L651.7900860434158,354.60850991179063L665.896967611314,354.6086872533483L680.0038491792122,354.608761145664L694.1107307471104,354.60870203181145L708.2176123150086,354.6087463672009" style="fill: none;" fill="none"></path></g><g><path stroke="rgb(51, 187, 238)" stroke-width="2px" d="M16.98041548799641,71.82774585758426L31.08729705589462,199.40806048823953L45.19417862379284,282.59540880696983L59.30106019169104,323.7842860824715L73.40794175958925,342.09511226046425L87.51482332748746,340.5504377361614L101.62170489538566,350.8362185245666L115.72858646328388,352.36635104113975L129.8354680311821,360.4944170972752L143.9423495990803,365.1979881177196L158.04923116697853,362.60850580635616L172.15611273487673,361.478263723884L186.26299430277493,363.3069507528083L200.36987587067316,365.09792314379973L214.47675743857135,365.39334462196524L228.58363900646955,365.5507352544046L242.69052057436775,366.05617347225035L256.797402142266,366.0136853907233L270.9042837101642,366.1697459614801L285.0111652780624,366.6224546228429L299.1180468459606,366.9128070881514L313.22492841385883,367.0961339234012L327.33180998175703,367.19730728205656L341.43869154965523,367.1720656670137L355.54557311755343,367.2317706580987L369.65245468545163,367.2859337255062L383.75933625334983,367.24329785934776L397.86621782124814,367.1900510566549L411.97309938914634,367.1441343716794L426.07998095704454,367.1518191725121L440.18686252494274,367.18829241954126L454.29374409284094,367.19115944139037L468.40062566073914,367.20506597520495L482.50750722863734,367.2186473828305L496.6143887965356,367.2256671528219L510.7212703644338,367.2165636195278L524.8281519323319,367.21382960384693L538.9350335002302,367.2089970464002L553.0419150681284,367.2108000189032L567.1487966360266,367.211509385134L581.2556782039248,367.2115684989865L595.362559771823,367.2122335298278L609.4694413397212,367.2129428960585L623.5763229076194,367.21303156683734L637.6832044755176,367.2132236868582L651.7900860434158,367.2134749207315L665.896967611314,367.21353403458414L680.0038491792122,367.21346014226845L694.1107307471104,367.213519256121L708.2176123150086,367.2135044776578" style="fill: none;" fill="none"></path></g><g><path stroke="rgb(204, 51, 17)" stroke-width="2px" d="M16.98041548799641,5.51447630885419L31.08729705589462,135.89687622160272L45.19417862379284,231.3713934779147L59.30106019169104,297.07587901606206L73.40794175958925,335.4426905273054L87.51482332748746,347.10969603768666L101.62170489538566,348.567029844833L115.72858646328388,354.9154142558158L129.8354680311821,355.39377832918944L143.9423495990803,355.12649504484216L158.04923116697853,360.3270657806796L172.15611273487673,356.3877629815122L186.26299430277493,360.6979017562477L200.36987587067316,362.0485350595243L214.47675743857135,361.8466169176446L228.58363900646955,363.1173578491873L242.69052057436775,362.2129897973445L256.797402142266,361.5731266787787L270.9042837101642,362.30995129400503L285.0111652780624,362.69865443150917L299.1180468459606,362.0381310214739L313.22492841385883,362.50204175789673L327.33180998175703,362.6265207529236L341.43869154965523,362.7828325575538L355.54557311755343,363.04658378921056L369.65245468545163,362.9446862858613L383.75933625334983,362.98516449640135L397.86621782124814,363.0046868462091L411.97309938914634,363.0192140754756L426.07998095704454,362.98649455808396L440.18686252494274,362.97523336917135L454.29374409284094,362.9744353321618L468.40062566073914,362.98460291480205L482.50750722863734,362.98204624067887L496.6143887965356,362.9808048497751L510.7212703644338,362.98142554522695L524.8281519323319,362.9793270034611L538.9350335002302,362.9778491571471L553.0419150681284,362.97697722782186L567.1487966360266,362.9777604863683L581.2556782039248,362.97725801862157L595.362559771823,362.9770806770639L609.4694413397212,362.9767703293379L623.5763229076194,362.9773762463267L637.6832044755176,362.9777604863683L651.7900860434158,362.97792304946285L665.896967611314,362.9779821633154L680.0038491792122,362.97792304946285L694.1107307471104,362.9778787140734L708.2176123150086,362.97792304946285" style="fill: none;" fill="none"></path></g><g><path stroke="rgb(255, 112, 67)" stroke-width="2px" d="M16.98041548799641,59.739790603127666L31.08729705589462,201.7450970922482L45.19417862379284,263.843578510421L59.30106019169104,292.79240058883084L73.40794175958925,314.88948380171473L87.51482332748746,339.63698092948766L101.62170489538566,339.3901362596628L115.72858646328388,354.4251535196146L129.8354680311821,343.95251384326923L143.9423495990803,347.2747862494219L158.04923116697853,353.34879371375035L172.15611273487673,356.0605973645223L186.26299430277493,356.2795255174759L200.36987587067316,358.42083615566054L214.47675743857135,358.13651330331305L228.58363900646955,358.1178924397569L242.69052057436775,359.1444192679136L256.797402142266,358.4616394923896L270.9042837101642,360.3487310076426L285.0111652780624,360.5928416617865L299.1180468459606,360.52162424791567L313.22492841385883,360.2741293257127L327.33180998175703,360.00619578898727L341.43869154965523,360.22524216964604L355.54557311755343,360.3000655285231L369.65245468545163,360.36822380052405L383.75933625334983,360.42581547138L397.86621782124814,360.4379781465441L411.97309938914634,360.4534955328409L426.07998095704454,360.4204065538708L440.18686252494274,360.3995836993068L454.29374409284094,360.43577615553625L468.40062566073914,360.44099295302465L482.50750722863734,360.43156429354144L496.6143887965356,360.4351702385475L510.7212703644338,360.4335889429916L524.8281519323319,360.43181552741476L538.9350335002302,360.438495392754L553.0419150681284,360.4406678268356L567.1487966360266,360.44411120874713L581.2556782039248,360.44511614424067L595.362559771823,360.44507180885125L609.4694413397212,360.44597329510276L623.5763229076194,360.4453821565772L637.6832044755176,360.4455447196717L651.7900860434158,360.4457220612294L665.896967611314,360.4458846243239L680.0038491792122,360.4459141812502L694.1107307471104,360.4459585166396L708.2176123150086,360.4460176304922" style="fill: none;" fill="none"></path></g></g></g></g></g></g><g transform="translate(40, 378)" clip-path="url(#clip_1)"><clipPath id="clip_1"><rect width="721" height="22"></rect></clipPath><g><g><line x1="16.98041548799641" y1="0" x2="16.98041548799641" y2="5" style="visibility: inherit;" fill="rgb(0, 0, 0)" stroke="rgb(204, 204, 204)" stroke-width="1px"></line><line x1="87.51482332748746" y1="0" x2="87.51482332748746" y2="5" style="visibility: inherit;" fill="rgb(0, 0, 0)" stroke="rgb(204, 204, 204)" stroke-width="1px"></line><line x1="158.04923116697853" y1="0" x2="158.04923116697853" y2="5" style="visibility: inherit;" fill="rgb(0, 0, 0)" stroke="rgb(204, 204, 204)" stroke-width="1px"></line><line x1="228.58363900646955" y1="0" x2="228.58363900646955" y2="5" style="visibility: inherit;" fill="rgb(0, 0, 0)" stroke="rgb(204, 204, 204)" stroke-width="1px"></line><line x1="299.1180468459606" y1="0" x2="299.1180468459606" y2="5" style="visibility: inherit;" fill="rgb(0, 0, 0)" stroke="rgb(204, 204, 204)" stroke-width="1px"></line><line x1="369.65245468545163" y1="0" x2="369.65245468545163" y2="5" style="visibility: inherit;" fill="rgb(0, 0, 0)" stroke="rgb(204, 204, 204)" stroke-width="1px"></line><line x1="440.18686252494274" y1="0" x2="440.18686252494274" y2="5" style="visibility: inherit;" fill="rgb(0, 0, 0)" stroke="rgb(204, 204, 204)" stroke-width="1px"></line><line x1="510.7212703644338" y1="0" x2="510.7212703644338" y2="5" style="visibility: inherit;" fill="rgb(0, 0, 0)" stroke="rgb(204, 204, 204)" stroke-width="1px"></line><line x1="581.2556782039248" y1="0" x2="581.2556782039248" y2="5" style="visibility: inherit;" fill="rgb(0, 0, 0)" stroke="rgb(204, 204, 204)" stroke-width="1px"></line><line x1="651.7900860434158" y1="0" x2="651.7900860434158" y2="5" style="visibility: inherit;" fill="rgb(0, 0, 0)" stroke="rgb(204, 204, 204)" stroke-width="1px"></line></g><g transform="translate(0, 8)"><text x="16.98041548799641" y="0" dx="0em" dy="0.95em" style="text-anchor: middle; visibility: inherit; font-family: Roboto, sans-serif; font-size: 12px; font-weight: 200;" fill="rgb(50, 49, 63)" stroke="none" stroke-width="1px">0</text><text x="87.51482332748746" y="0" dx="0em" dy="0.95em" style="text-anchor: middle; visibility: inherit; font-family: Roboto, sans-serif; font-size: 12px; font-weight: 200;" fill="rgb(50, 49, 63)" stroke="none" stroke-width="1px">5</text><text x="158.04923116697853" y="0" dx="0em" dy="0.95em" style="text-anchor: middle; visibility: inherit; font-family: Roboto, sans-serif; font-size: 12px; font-weight: 200;" fill="rgb(50, 49, 63)" stroke="none" stroke-width="1px">10</text><text x="228.58363900646955" y="0" dx="0em" dy="0.95em" style="text-anchor: middle; visibility: inherit; font-family: Roboto, sans-serif; font-size: 12px; font-weight: 200;" fill="rgb(50, 49, 63)" stroke="none" stroke-width="1px">15</text><text x="299.1180468459606" y="0" dx="0em" dy="0.95em" style="text-anchor: middle; visibility: inherit; font-family: Roboto, sans-serif; font-size: 12px; font-weight: 200;" fill="rgb(50, 49, 63)" stroke="none" stroke-width="1px">20</text><text x="369.65245468545163" y="0" dx="0em" dy="0.95em" style="text-anchor: middle; visibility: inherit; font-family: Roboto, sans-serif; font-size: 12px; font-weight: 200;" fill="rgb(50, 49, 63)" stroke="none" stroke-width="1px">25</text><text x="440.18686252494274" y="0" dx="0em" dy="0.95em" style="text-anchor: middle; visibility: inherit; font-family: Roboto, sans-serif; font-size: 12px; font-weight: 200;" fill="rgb(50, 49, 63)" stroke="none" stroke-width="1px">30</text><text x="510.7212703644338" y="0" dx="0em" dy="0.95em" style="text-anchor: middle; visibility: inherit; font-family: Roboto, sans-serif; font-size: 12px; font-weight: 200;" fill="rgb(50, 49, 63)" stroke="none" stroke-width="1px">35</text><text x="581.2556782039248" y="0" dx="0em" dy="0.95em" style="text-anchor: middle; visibility: inherit; font-family: Roboto, sans-serif; font-size: 12px; font-weight: 200;" fill="rgb(50, 49, 63)" stroke="none" stroke-width="1px">40</text><text x="651.7900860434158" y="0" dx="0em" dy="0.95em" style="text-anchor: middle; visibility: inherit; font-family: Roboto, sans-serif; font-size: 12px; font-weight: 200;" fill="rgb(50, 49, 63)" stroke="none" stroke-width="1px">45</text></g><line x1="0" y1="0" x2="721.4" y2="0" fill="rgb(0, 0, 0)" stroke="rgb(204, 204, 204)" stroke-width="1px"></line></g></g></g></g></svg>