<svg viewBox="0 0 761.4000244140625 400" xmlns="http://www.w3.org/2000/svg"><g><g><g><g><g><line x1="50" y1="367.6607614183914" x2="45" y2="367.6607614183914" style="visibility: inherit;" fill="rgb(0, 0, 0)" stroke="rgb(204, 204, 204)" stroke-width="1px"></line><line x1="50" y1="334.02202601789486" x2="45" y2="334.02202601789486" style="visibility: inherit;" fill="rgb(0, 0, 0)" stroke="rgb(204, 204, 204)" stroke-width="1px"></line><line x1="50" y1="300.3832906173983" x2="45" y2="300.3832906173983" style="visibility: inherit;" fill="rgb(0, 0, 0)" stroke="rgb(204, 204, 204)" stroke-width="1px"></line><line x1="50" y1="266.74455521690214" x2="45" y2="266.74455521690214" style="visibility: inherit;" fill="rgb(0, 0, 0)" stroke="rgb(204, 204, 204)" stroke-width="1px"></line><line x1="50" y1="233.10581981640553" x2="45" y2="233.10581981640553" style="visibility: inherit;" fill="rgb(0, 0, 0)" stroke="rgb(204, 204, 204)" stroke-width="1px"></line><line x1="50" y1="199.467084415909" x2="45" y2="199.467084415909" style="visibility: inherit;" fill="rgb(0, 0, 0)" stroke="rgb(204, 204, 204)" stroke-width="1px"></line><line x1="50" y1="165.8283490154124" x2="45" y2="165.8283490154124" style="visibility: inherit;" fill="rgb(0, 0, 0)" stroke="rgb(204, 204, 204)" stroke-width="1px"></line><line x1="50" y1="132.18961361491586" x2="45" y2="132.18961361491586" style="visibility: inherit;" fill="rgb(0, 0, 0)" stroke="rgb(204, 204, 204)" stroke-width="1px"></line><line x1="50" y1="98.55087821441931" x2="45" y2="98.55087821441931" style="visibility: inherit;" fill="rgb(0, 0, 0)" stroke="rgb(204, 204, 204)" stroke-width="1px"></line><line x1="50" y1="64.91214281392273" x2="45" y2="64.91214281392273" style="visibility: inherit;" fill="rgb(0, 0, 0)" stroke="rgb(204, 204, 204)" stroke-width="1px"></line><line x1="50" y1="31.273407413426174" x2="45" y2="31.273407413426174" style="visibility: inherit;" fill="rgb(0, 0, 0)" stroke="rgb(204, 204, 204)" stroke-width="1px"></line></g><g transform="translate(40, 0)"><text x="0" y="367.6607614183914" dx="0em" dy="0.3em" style="text-anchor: end; visibility: inherit; font-family: Roboto, sans-serif; font-size: 12px; font-weight: 200;" fill="rgb(50, 49, 63)" stroke="none" stroke-width="1px">0.79</text><text x="0" y="334.02202601789486" dx="0em" dy="0.3em" style="text-anchor: end; visibility: inherit; font-family: Roboto, sans-serif; font-size: 12px; font-weight: 200;" fill="rgb(50, 49, 63)" stroke="none" stroke-width="1px">0.8</text><text x="0" y="300.3832906173983" dx="0em" dy="0.3em" style="text-anchor: end; visibility: inherit; font-family: Roboto, sans-serif; font-size: 12px; font-weight: 200;" fill="rgb(50, 49, 63)" stroke="none" stroke-width="1px">0.81</text><text x="0" y="266.74455521690214" dx="0em" dy="0.3em" style="text-anchor: end; visibility: inherit; font-family: Roboto, sans-serif; font-size: 12px; font-weight: 200;" fill="rgb(50, 49, 63)" stroke="none" stroke-width="1px">0.82</text><text x="0" y="233.10581981640553" dx="0em" dy="0.3em" style="text-anchor: end; visibility: inherit; font-family: Roboto, sans-serif; font-size: 12px; font-weight: 200;" fill="rgb(50, 49, 63)" stroke="none" stroke-width="1px">0.83</text><text x="0" y="199.467084415909" dx="0em" dy="0.3em" style="text-anchor: end; visibility: inherit; font-family: Roboto, sans-serif; font-size: 12px; font-weight: 200;" fill="rgb(50, 49, 63)" stroke="none" stroke-width="1px">0.84</text><text x="0" y="165.8283490154124" dx="0em" dy="0.3em" style="text-anchor: end; visibility: inherit; font-family: Roboto, sans-serif; font-size: 12px; font-weight: 200;" fill="rgb(50, 49, 63)" stroke="none" stroke-width="1px">0.85</text><text x="0" y="132.18961361491586" dx="0em" dy="0.3em" style="text-anchor: end; visibility: inherit; font-family: Roboto, sans-serif; font-size: 12px; font-weight: 200;" fill="rgb(50, 49, 63)" stroke="none" stroke-width="1px">0.86</text><text x="0" y="98.55087821441931" dx="0em" dy="0.3em" style="text-anchor: end; visibility: inherit; font-family: Roboto, sans-serif; font-size: 12px; font-weight: 200;" fill="rgb(50, 49, 63)" stroke="none" stroke-width="1px">0.87</text><text x="0" y="64.91214281392273" dx="0em" dy="0.3em" style="text-anchor: end; visibility: inherit; font-family: Roboto, sans-serif; font-size: 12px; font-weight: 200;" fill="rgb(50, 49, 63)" stroke="none" stroke-width="1px">0.88</text><text x="0" y="31.273407413426174" dx="0em" dy="0.3em" style="text-anchor: end; visibility: inherit; font-family: Roboto, sans-serif; font-size: 12px; font-weight: 200;" fill="rgb(50, 49, 63)" stroke="none" stroke-width="1px">0.89</text></g><line x1="50" y1="0" x2="50" y2="378" fill="rgb(0, 0, 0)" stroke="rgb(204, 204, 204)" stroke-width="1px"></line></g></g><g transform="translate(50, 0)" clip-path="url(#clip_0)"><clipPath id="clip_0"><rect width="711" height="378"></rect></clipPath><g><g><g><line x1="18.766135805392896" y1="0" x2="18.766135805392896" y2="378" fill="rgb(0, 0, 0)" stroke="rgb(60, 60, 60)" stroke-width="1px" opacity="0.25"></line><line x1="88.4799137376503" y1="0" x2="88.4799137376503" y2="378" fill="rgb(0, 0, 0)" stroke="rgb(60, 60, 60)" stroke-width="1px" opacity="0.25"></line><line x1="158.19369166990774" y1="0" x2="158.19369166990774" y2="378" fill="rgb(0, 0, 0)" stroke="rgb(60, 60, 60)" stroke-width="1px" opacity="0.25"></line><line x1="227.90746960216512" y1="0" x2="227.90746960216512" y2="378" fill="rgb(0, 0, 0)" stroke="rgb(60, 60, 60)" stroke-width="1px" opacity="0.25"></line><line x1="297.62124753442254" y1="0" x2="297.62124753442254" y2="378" fill="rgb(0, 0, 0)" stroke="rgb(60, 60, 60)" stroke-width="1px" opacity="0.25"></line><line x1="367.33502546667995" y1="0" x2="367.33502546667995" y2="378" fill="rgb(0, 0, 0)" stroke="rgb(60, 60, 60)" stroke-width="1px" opacity="0.25"></line><line x1="437.04880339893737" y1="0" x2="437.04880339893737" y2="378" fill="rgb(0, 0, 0)" stroke="rgb(60, 60, 60)" stroke-width="1px" opacity="0.25"></line><line x1="506.7625813311947" y1="0" x2="506.7625813311947" y2="378" fill="rgb(0, 0, 0)" stroke="rgb(60, 60, 60)" stroke-width="1px" opacity="0.25"></line><line x1="576.4763592634522" y1="0" x2="576.4763592634522" y2="378" fill="rgb(0, 0, 0)" stroke="rgb(60, 60, 60)" stroke-width="1px" opacity="0.25"></line><line x1="646.1901371957096" y1="0" x2="646.1901371957096" y2="378" fill="rgb(0, 0, 0)" stroke="rgb(60, 60, 60)" stroke-width="1px" opacity="0.25"></line></g><g><line x1="0" y1="367.6607614183914" x2="711.4" y2="367.6607614183914" fill="rgb(0, 0, 0)" stroke="rgb(60, 60, 60)" stroke-width="1px" opacity="0.25"></line><line x1="0" y1="334.02202601789486" x2="711.4" y2="334.02202601789486" fill="rgb(0, 0, 0)" stroke="rgb(60, 60, 60)" stroke-width="1px" opacity="0.25"></line><line x1="0" y1="300.3832906173983" x2="711.4" y2="300.3832906173983" fill="rgb(0, 0, 0)" stroke="rgb(60, 60, 60)" stroke-width="1px" opacity="0.25"></line><line x1="0" y1="266.74455521690214" x2="711.4" y2="266.74455521690214" fill="rgb(0, 0, 0)" stroke="rgb(60, 60, 60)" stroke-width="1px" opacity="0.25"></line><line x1="0" y1="233.10581981640553" x2="711.4" y2="233.10581981640553" fill="rgb(0, 0, 0)" stroke="rgb(60, 60, 60)" stroke-width="1px" opacity="0.25"></line><line x1="0" y1="199.467084415909" x2="711.4" y2="199.467084415909" fill="rgb(0, 0, 0)" stroke="rgb(60, 60, 60)" stroke-width="1px" opacity="0.25"></line><line x1="0" y1="165.8283490154124" x2="711.4" y2="165.8283490154124" fill="rgb(0, 0, 0)" stroke="rgb(60, 60, 60)" stroke-width="1px" opacity="0.25"></line><line x1="0" y1="132.18961361491586" x2="711.4" y2="132.18961361491586" fill="rgb(0, 0, 0)" stroke="rgb(60, 60, 60)" stroke-width="1px" opacity="0.25"></line><line x1="0" y1="98.55087821441931" x2="711.4" y2="98.55087821441931" fill="rgb(0, 0, 0)" stroke="rgb(60, 60, 60)" stroke-width="1px" opacity="0.25"></line><line x1="0" y1="64.91214281392273" x2="711.4" y2="64.91214281392273" fill="rgb(0, 0, 0)" stroke="rgb(60, 60, 60)" stroke-width="1px" opacity="0.25"></line><line x1="0" y1="31.273407413426174" x2="711.4" y2="31.273407413426174" fill="rgb(0, 0, 0)" stroke="rgb(60, 60, 60)" stroke-width="1px" opacity="0.25"></line></g></g></g><g><g><line x1="0" y1="3025.120858057618" x2="711.4" y2="3025.120858057618" fill="rgb(0, 0, 0)" stroke="rgb(153, 153, 153)" stroke-width="1.5px"></line></g></g><g><g><line x1="18.766135805392896" y1="0" x2="18.766135805392896" y2="378" fill="rgb(0, 0, 0)" stroke="rgb(153, 153, 153)" stroke-width="1.5px"></line></g></g><g><g><g><g><g><path stroke="rgb(0, 119, 187)" stroke-width="2px" d="M18.766135805392896,371.2061747226146L32.70889139184438,265.7067784022938L46.651646978295865,206.03924316978706L60.59440256474735,211.22764603685778L74.53715815119882,142.91243852175413L88.4799137376503,142.04767129349443L102.42266932410178,106.59301694479674L116.36542491055327,126.48226218979482L130.30818049700477,97.94554516468725L144.25093608345622,116.10525595316594L158.19369166990774,130.80609833109327L172.1364472563592,103.13394803175798L186.07920284281067,106.59301694479674L200.02195842926218,108.32255140131613L213.96471401571364,105.72824971653705L227.90746960216512,102.26938130598572L241.85022518861663,103.99871526001768L255.79298077506812,100.53984684946633L269.73573636151957,105.72824971653705L283.67849194797105,102.26938130598572L297.62124753442254,102.26938130598572L311.564003120874,102.26938130598572L325.5067587073255,101.40461407772602L339.449514293777,100.53984684946633L353.39226988022847,100.53984684946633L367.33502546667995,98.81031239294694L381.2777810531315,97.08077793642755L395.2205366395829,97.94554516468725L409.1632922260344,97.94554516468725L423.10604781248594,97.94554516468725L437.04880339893737,96.21601070816787L450.9915589853888,96.21601070816787L464.9343145718403,97.08077793642755L478.8770701582918,97.08077793642755L492.81982574474324,97.08077793642755L506.7625813311947,97.08077793642755L520.7053369176462,97.08077793642755L534.6480925040977,97.08077793642755L548.5908480905492,97.08077793642755L562.5336036770007,97.08077793642755L576.4763592634522,97.08077793642755L590.4191148499036,97.08077793642755L604.361870436355,97.08077793642755L618.3046260228066,97.08077793642755L632.2473816092581,97.08077793642755L646.1901371957096,97.08077793642755L660.1328927821611,97.08077793642755L674.0756483686125,97.08077793642755L688.018403955064,97.08077793642755L701.9611595415155,97.08077793642755" style="fill: none;" fill="none"></path></g><g><path stroke="rgb(51, 187, 238)" stroke-width="2px" d="M18.766135805392896,324.50974690902837L32.70889139184438,239.76436306196535L46.651646978295865,155.88374644316207L60.59440256474735,91.02760784109714L74.53715815119882,74.59743150913783L88.4799137376503,73.73266428087814L102.42266932410178,53.843419035880075L116.36542491055327,65.94975922654092L130.30818049700477,64.22042527250896L144.25093608345622,38.277809429693036L158.19369166990774,41.736878342731806L172.1364472563592,60.761356359470184L186.07920284281067,40.87211111447212L200.02195842926218,41.736878342731806L213.96471401571364,41.736878342731806L227.90746960216512,23.577167554253123L241.85022518861663,25.306702010772508L255.79298077506812,27.900803193064156L269.73573636151957,28.76557042132385L283.67849194797105,28.76557042132385L297.62124753442254,24.441934782512817L311.564003120874,25.306702010772508L325.5067587073255,24.441934782512817L339.449514293777,25.306702010772508L353.39226988022847,27.900803193064156L367.33502546667995,27.900803193064156L381.2777810531315,27.900803193064156L395.2205366395829,27.900803193064156L409.1632922260344,26.171469239032202L423.10604781248594,26.171469239032202L437.04880339893737,25.306702010772508L450.9915589853888,25.306702010772508L464.9343145718403,25.306702010772508L478.8770701582918,25.306702010772508L492.81982574474324,25.306702010772508L506.7625813311947,25.306702010772508L520.7053369176462,25.306702010772508L534.6480925040977,25.306702010772508L548.5908480905492,25.306702010772508L562.5336036770007,25.306702010772508L576.4763592634522,25.306702010772508L590.4191148499036,25.306702010772508L604.361870436355,25.306702010772508L618.3046260228066,25.306702010772508L632.2473816092581,25.306702010772508L646.1901371957096,25.306702010772508L660.1328927821611,25.306702010772508L674.0756483686125,25.306702010772508L688.018403955064,25.306702010772508L701.9611595415155,25.306702010772508" style="fill: none;" fill="none"></path></g><g><path stroke="rgb(204, 51, 17)" stroke-width="2px" d="M18.766135805392896,356.5055328471747L32.70889139184438,251.00613652685394L46.651646978295865,187.01476515304867L60.59440256474735,107.45778417305644L74.53715815119882,91.89237506935683L88.4799137376503,64.22042527250896L102.42266932410178,39.14257665795273L116.36542491055327,35.68370824740139L130.30818049700477,42.6016455709915L144.25093608345622,50.384350122841305L158.19369166990774,40.87211111447212L172.1364472563592,42.6016455709915L186.07920284281067,47.79004843806223L200.02195842926218,46.06071448403027L213.96471401571364,33.089406562622315L227.90746960216512,44.33118002751089L241.85022518861663,39.14257665795273L255.79298077506812,38.277809429693036L269.73573636151957,40.87211111447212L283.67849194797105,37.41304220143335L297.62124753442254,33.089406562622315L311.564003120874,33.089406562622315L325.5067587073255,33.089406562622315L339.449514293777,33.089406562622315L353.39226988022847,34.8189410191417L367.33502546667995,33.954173790882L381.2777810531315,33.089406562622315L395.2205366395829,33.954173790882L409.1632922260344,33.089406562622315L423.10604781248594,33.089406562622315L437.04880339893737,33.089406562622315L450.9915589853888,33.089406562622315L464.9343145718403,33.089406562622315L478.8770701582918,33.089406562622315L492.81982574474324,33.089406562622315L506.7625813311947,33.089406562622315L520.7053369176462,33.089406562622315L534.6480925040977,33.089406562622315L548.5908480905492,33.089406562622315L562.5336036770007,33.089406562622315L576.4763592634522,33.089406562622315L590.4191148499036,33.089406562622315L604.361870436355,33.089406562622315L618.3046260228066,33.089406562622315L632.2473816092581,33.089406562622315L646.1901371957096,33.089406562622315L660.1328927821611,33.089406562622315L674.0756483686125,33.089406562622315L688.018403955064,33.089406562622315L701.9611595415155,33.089406562622315" style="fill: none;" fill="none"></path></g><g><path stroke="rgb(255, 112, 67)" stroke-width="2px" d="M18.766135805392896,328.8335830503268L32.70889139184438,184.4204634682696L46.651646978295865,141.18290406523474L60.59440256474735,128.2117966463142L74.53715815119882,111.7816203143549L88.4799137376503,65.08519250076866L102.42266932410178,53.843419035880075L116.36542491055327,46.06071448403027L130.30818049700477,66.8145264548006L144.25093608345622,52.11388457936069L158.19369166990774,42.6016455709915L172.1364472563592,28.76557042132385L186.07920284281067,36.548475475661085L200.02195842926218,46.925281209802534L213.96471401571364,28.76557042132385L227.90746960216512,33.089406562622315L241.85022518861663,27.900803193064156L255.79298077506812,29.63033764958354L269.73573636151957,26.171469239032202L283.67849194797105,27.900803193064156L297.62124753442254,29.63033764958354L311.564003120874,29.63033764958354L325.5067587073255,31.359872106102927L339.449514293777,30.495104877843236L353.39226988022847,31.359872106102927L367.33502546667995,28.76557042132385L381.2777810531315,27.900803193064156L395.2205366395829,28.76557042132385L409.1632922260344,28.76557042132385L423.10604781248594,27.900803193064156L437.04880339893737,27.900803193064156L450.9915589853888,27.900803193064156L464.9343145718403,27.036236467291893L478.8770701582918,27.036236467291893L492.81982574474324,27.900803193064156L506.7625813311947,27.900803193064156L520.7053369176462,27.900803193064156L534.6480925040977,27.900803193064156L548.5908480905492,27.900803193064156L562.5336036770007,27.900803193064156L576.4763592634522,27.900803193064156L590.4191148499036,27.900803193064156L604.361870436355,27.900803193064156L618.3046260228066,27.900803193064156L632.2473816092581,27.900803193064156L646.1901371957096,27.900803193064156L660.1328927821611,27.900803193064156L674.0756483686125,27.900803193064156L688.018403955064,27.900803193064156L701.9611595415155,27.900803193064156" style="fill: none;" fill="none"></path></g></g></g></g></g></g><g transform="translate(50, 378)" clip-path="url(#clip_1)"><clipPath id="clip_1"><rect width="711" height="22"></rect></clipPath><g><g><line x1="18.766135805392896" y1="0" x2="18.766135805392896" y2="5" style="visibility: inherit;" fill="rgb(0, 0, 0)" stroke="rgb(204, 204, 204)" stroke-width="1px"></line><line x1="88.4799137376503" y1="0" x2="88.4799137376503" y2="5" style="visibility: inherit;" fill="rgb(0, 0, 0)" stroke="rgb(204, 204, 204)" stroke-width="1px"></line><line x1="158.19369166990774" y1="0" x2="158.19369166990774" y2="5" style="visibility: inherit;" fill="rgb(0, 0, 0)" stroke="rgb(204, 204, 204)" stroke-width="1px"></line><line x1="227.90746960216512" y1="0" x2="227.90746960216512" y2="5" style="visibility: inherit;" fill="rgb(0, 0, 0)" stroke="rgb(204, 204, 204)" stroke-width="1px"></line><line x1="297.62124753442254" y1="0" x2="297.62124753442254" y2="5" style="visibility: inherit;" fill="rgb(0, 0, 0)" stroke="rgb(204, 204, 204)" stroke-width="1px"></line><line x1="367.33502546667995" y1="0" x2="367.33502546667995" y2="5" style="visibility: inherit;" fill="rgb(0, 0, 0)" stroke="rgb(204, 204, 204)" stroke-width="1px"></line><line x1="437.04880339893737" y1="0" x2="437.04880339893737" y2="5" style="visibility: inherit;" fill="rgb(0, 0, 0)" stroke="rgb(204, 204, 204)" stroke-width="1px"></line><line x1="506.7625813311947" y1="0" x2="506.7625813311947" y2="5" style="visibility: inherit;" fill="rgb(0, 0, 0)" stroke="rgb(204, 204, 204)" stroke-width="1px"></line><line x1="576.4763592634522" y1="0" x2="576.4763592634522" y2="5" style="visibility: inherit;" fill="rgb(0, 0, 0)" stroke="rgb(204, 204, 204)" stroke-width="1px"></line><line x1="646.1901371957096" y1="0" x2="646.1901371957096" y2="5" style="visibility: inherit;" fill="rgb(0, 0, 0)" stroke="rgb(204, 204, 204)" stroke-width="1px"></line></g><g transform="translate(0, 8)"><text x="18.766135805392896" y="0" dx="0em" dy="0.95em" style="text-anchor: middle; visibility: inherit; font-family: Roboto, sans-serif; font-size: 12px; font-weight: 200;" fill="rgb(50, 49, 63)" stroke="none" stroke-width="1px">0</text><text x="88.4799137376503" y="0" dx="0em" dy="0.95em" style="text-anchor: middle; visibility: inherit; font-family: Roboto, sans-serif; font-size: 12px; font-weight: 200;" fill="rgb(50, 49, 63)" stroke="none" stroke-width="1px">5</text><text x="158.19369166990774" y="0" dx="0em" dy="0.95em" style="text-anchor: middle; visibility: inherit; font-family: Roboto, sans-serif; font-size: 12px; font-weight: 200;" fill="rgb(50, 49, 63)" stroke="none" stroke-width="1px">10</text><text x="227.90746960216512" y="0" dx="0em" dy="0.95em" style="text-anchor: middle; visibility: inherit; font-family: Roboto, sans-serif; font-size: 12px; font-weight: 200;" fill="rgb(50, 49, 63)" stroke="none" stroke-width="1px">15</text><text x="297.62124753442254" y="0" dx="0em" dy="0.95em" style="text-anchor: middle; visibility: inherit; font-family: Roboto, sans-serif; font-size: 12px; font-weight: 200;" fill="rgb(50, 49, 63)" stroke="none" stroke-width="1px">20</text><text x="367.33502546667995" y="0" dx="0em" dy="0.95em" style="text-anchor: middle; visibility: inherit; font-family: Roboto, sans-serif; font-size: 12px; font-weight: 200;" fill="rgb(50, 49, 63)" stroke="none" stroke-width="1px">25</text><text x="437.04880339893737" y="0" dx="0em" dy="0.95em" style="text-anchor: middle; visibility: inherit; font-family: Roboto, sans-serif; font-size: 12px; font-weight: 200;" fill="rgb(50, 49, 63)" stroke="none" stroke-width="1px">30</text><text x="506.7625813311947" y="0" dx="0em" dy="0.95em" style="text-anchor: middle; visibility: inherit; font-family: Roboto, sans-serif; font-size: 12px; font-weight: 200;" fill="rgb(50, 49, 63)" stroke="none" stroke-width="1px">35</text><text x="576.4763592634522" y="0" dx="0em" dy="0.95em" style="text-anchor: middle; visibility: inherit; font-family: Roboto, sans-serif; font-size: 12px; font-weight: 200;" fill="rgb(50, 49, 63)" stroke="none" stroke-width="1px">40</text><text x="646.1901371957096" y="0" dx="0em" dy="0.95em" style="text-anchor: middle; visibility: inherit; font-family: Roboto, sans-serif; font-size: 12px; font-weight: 200;" fill="rgb(50, 49, 63)" stroke="none" stroke-width="1px">45</text></g><line x1="0" y1="0" x2="711.4" y2="0" fill="rgb(0, 0, 0)" stroke="rgb(204, 204, 204)" stroke-width="1px"></line></g></g></g></g></svg>