<svg viewBox="0 0 761.4000244140625 400" xmlns="http://www.w3.org/2000/svg"><g><g><g><g><g><line x1="40" y1="361.99356143971306" x2="35" y2="361.99356143971306" style="visibility: inherit;" fill="rgb(0, 0, 0)" stroke="rgb(204, 204, 204)" stroke-width="1px"></line><line x1="40" y1="320.6574139432643" x2="35" y2="320.6574139432643" style="visibility: inherit;" fill="rgb(0, 0, 0)" stroke="rgb(204, 204, 204)" stroke-width="1px"></line><line x1="40" y1="279.32126644681557" x2="35" y2="279.32126644681557" style="visibility: inherit;" fill="rgb(0, 0, 0)" stroke="rgb(204, 204, 204)" stroke-width="1px"></line><line x1="40" y1="237.9851189503669" x2="35" y2="237.9851189503669" style="visibility: inherit;" fill="rgb(0, 0, 0)" stroke="rgb(204, 204, 204)" stroke-width="1px"></line><line x1="40" y1="196.64897145391814" x2="35" y2="196.64897145391814" style="visibility: inherit;" fill="rgb(0, 0, 0)" stroke="rgb(204, 204, 204)" stroke-width="1px"></line><line x1="40" y1="155.3128239574694" x2="35" y2="155.3128239574694" style="visibility: inherit;" fill="rgb(0, 0, 0)" stroke="rgb(204, 204, 204)" stroke-width="1px"></line><line x1="40" y1="113.97667646102067" x2="35" y2="113.97667646102067" style="visibility: inherit;" fill="rgb(0, 0, 0)" stroke="rgb(204, 204, 204)" stroke-width="1px"></line><line x1="40" y1="72.64052896457193" x2="35" y2="72.64052896457193" style="visibility: inherit;" fill="rgb(0, 0, 0)" stroke="rgb(204, 204, 204)" stroke-width="1px"></line><line x1="40" y1="31.30438146812326" x2="35" y2="31.30438146812326" style="visibility: inherit;" fill="rgb(0, 0, 0)" stroke="rgb(204, 204, 204)" stroke-width="1px"></line></g><g transform="translate(30, 0)"><text x="0" y="361.99356143971306" dx="0em" dy="0.3em" style="text-anchor: end; visibility: inherit; font-family: Roboto, sans-serif; font-size: 12px; font-weight: 200;" fill="rgb(50, 49, 63)" stroke="none" stroke-width="1px">0.8</text><text x="0" y="320.6574139432643" dx="0em" dy="0.3em" style="text-anchor: end; visibility: inherit; font-family: Roboto, sans-serif; font-size: 12px; font-weight: 200;" fill="rgb(50, 49, 63)" stroke="none" stroke-width="1px">1</text><text x="0" y="279.32126644681557" dx="0em" dy="0.3em" style="text-anchor: end; visibility: inherit; font-family: Roboto, sans-serif; font-size: 12px; font-weight: 200;" fill="rgb(50, 49, 63)" stroke="none" stroke-width="1px">1.2</text><text x="0" y="237.9851189503669" dx="0em" dy="0.3em" style="text-anchor: end; visibility: inherit; font-family: Roboto, sans-serif; font-size: 12px; font-weight: 200;" fill="rgb(50, 49, 63)" stroke="none" stroke-width="1px">1.4</text><text x="0" y="196.64897145391814" dx="0em" dy="0.3em" style="text-anchor: end; visibility: inherit; font-family: Roboto, sans-serif; font-size: 12px; font-weight: 200;" fill="rgb(50, 49, 63)" stroke="none" stroke-width="1px">1.6</text><text x="0" y="155.3128239574694" dx="0em" dy="0.3em" style="text-anchor: end; visibility: inherit; font-family: Roboto, sans-serif; font-size: 12px; font-weight: 200;" fill="rgb(50, 49, 63)" stroke="none" stroke-width="1px">1.8</text><text x="0" y="113.97667646102067" dx="0em" dy="0.3em" style="text-anchor: end; visibility: inherit; font-family: Roboto, sans-serif; font-size: 12px; font-weight: 200;" fill="rgb(50, 49, 63)" stroke="none" stroke-width="1px">2</text><text x="0" y="72.64052896457193" dx="0em" dy="0.3em" style="text-anchor: end; visibility: inherit; font-family: Roboto, sans-serif; font-size: 12px; font-weight: 200;" fill="rgb(50, 49, 63)" stroke="none" stroke-width="1px">2.2</text><text x="0" y="31.30438146812326" dx="0em" dy="0.3em" style="text-anchor: end; visibility: inherit; font-family: Roboto, sans-serif; font-size: 12px; font-weight: 200;" fill="rgb(50, 49, 63)" stroke="none" stroke-width="1px">2.4</text></g><line x1="40" y1="0" x2="40" y2="378" fill="rgb(0, 0, 0)" stroke="rgb(204, 204, 204)" stroke-width="1px"></line></g></g><g transform="translate(40, 0)" clip-path="url(#clip_0)"><clipPath id="clip_0"><rect width="721" height="378"></rect></clipPath><g><g><g><line x1="15.865761494657145" y1="0" x2="15.865761494657145" y2="378" fill="rgb(0, 0, 0)" stroke="rgb(60, 60, 60)" stroke-width="1px" opacity="0.25"></line><line x1="84.7054096862275" y1="0" x2="84.7054096862275" y2="378" fill="rgb(0, 0, 0)" stroke="rgb(60, 60, 60)" stroke-width="1px" opacity="0.25"></line><line x1="153.54505787779783" y1="0" x2="153.54505787779783" y2="378" fill="rgb(0, 0, 0)" stroke="rgb(60, 60, 60)" stroke-width="1px" opacity="0.25"></line><line x1="222.38470606936818" y1="0" x2="222.38470606936818" y2="378" fill="rgb(0, 0, 0)" stroke="rgb(60, 60, 60)" stroke-width="1px" opacity="0.25"></line><line x1="291.2243542609385" y1="0" x2="291.2243542609385" y2="378" fill="rgb(0, 0, 0)" stroke="rgb(60, 60, 60)" stroke-width="1px" opacity="0.25"></line><line x1="360.06400245250893" y1="0" x2="360.06400245250893" y2="378" fill="rgb(0, 0, 0)" stroke="rgb(60, 60, 60)" stroke-width="1px" opacity="0.25"></line><line x1="428.9036506440793" y1="0" x2="428.9036506440793" y2="378" fill="rgb(0, 0, 0)" stroke="rgb(60, 60, 60)" stroke-width="1px" opacity="0.25"></line><line x1="497.74329883564957" y1="0" x2="497.74329883564957" y2="378" fill="rgb(0, 0, 0)" stroke="rgb(60, 60, 60)" stroke-width="1px" opacity="0.25"></line><line x1="566.58294702722" y1="0" x2="566.58294702722" y2="378" fill="rgb(0, 0, 0)" stroke="rgb(60, 60, 60)" stroke-width="1px" opacity="0.25"></line><line x1="635.4225952187903" y1="0" x2="635.4225952187903" y2="378" fill="rgb(0, 0, 0)" stroke="rgb(60, 60, 60)" stroke-width="1px" opacity="0.25"></line><line x1="704.2622434103606" y1="0" x2="704.2622434103606" y2="378" fill="rgb(0, 0, 0)" stroke="rgb(60, 60, 60)" stroke-width="1px" opacity="0.25"></line></g><g><line x1="0" y1="361.99356143971306" x2="721.4" y2="361.99356143971306" fill="rgb(0, 0, 0)" stroke="rgb(60, 60, 60)" stroke-width="1px" opacity="0.25"></line><line x1="0" y1="320.6574139432643" x2="721.4" y2="320.6574139432643" fill="rgb(0, 0, 0)" stroke="rgb(60, 60, 60)" stroke-width="1px" opacity="0.25"></line><line x1="0" y1="279.32126644681557" x2="721.4" y2="279.32126644681557" fill="rgb(0, 0, 0)" stroke="rgb(60, 60, 60)" stroke-width="1px" opacity="0.25"></line><line x1="0" y1="237.9851189503669" x2="721.4" y2="237.9851189503669" fill="rgb(0, 0, 0)" stroke="rgb(60, 60, 60)" stroke-width="1px" opacity="0.25"></line><line x1="0" y1="196.64897145391814" x2="721.4" y2="196.64897145391814" fill="rgb(0, 0, 0)" stroke="rgb(60, 60, 60)" stroke-width="1px" opacity="0.25"></line><line x1="0" y1="155.3128239574694" x2="721.4" y2="155.3128239574694" fill="rgb(0, 0, 0)" stroke="rgb(60, 60, 60)" stroke-width="1px" opacity="0.25"></line><line x1="0" y1="113.97667646102067" x2="721.4" y2="113.97667646102067" fill="rgb(0, 0, 0)" stroke="rgb(60, 60, 60)" stroke-width="1px" opacity="0.25"></line><line x1="0" y1="72.64052896457193" x2="721.4" y2="72.64052896457193" fill="rgb(0, 0, 0)" stroke="rgb(60, 60, 60)" stroke-width="1px" opacity="0.25"></line><line x1="0" y1="31.30438146812326" x2="721.4" y2="31.30438146812326" fill="rgb(0, 0, 0)" stroke="rgb(60, 60, 60)" stroke-width="1px" opacity="0.25"></line></g></g></g><g><g><line x1="0" y1="527.3381514255079" x2="721.4" y2="527.3381514255079" fill="rgb(0, 0, 0)" stroke="rgb(153, 153, 153)" stroke-width="1.5px"></line></g></g><g><g><line x1="15.865761494657145" y1="0" x2="15.865761494657145" y2="378" fill="rgb(0, 0, 0)" stroke="rgb(153, 153, 153)" stroke-width="1.5px"></line></g></g><g><g><g><g><g><path stroke="rgb(51, 187, 238)" stroke-width="2px" d="M15.865761494657145,65.42461221394184L29.63369113297121,220.22194579001493L43.40162077128528,238.1124544257468L57.16955040959936,295.3817089010947L70.93748004791343,313.5055911722893L84.7054096862275,325.3355550207787L98.47333932454157,332.2876107482221L112.24126896285563,340.8937316829243L126.0091986011697,345.0211829244772L139.77712823948377,341.335976200422L153.54505787779783,345.30739331682867L167.31298751611192,340.4072491626317L181.080917154426,342.16999375186117L194.84884679274006,342.21721298458544L208.61677643105412,344.47101049205713L222.38470606936818,345.18563101673817L236.15263570768224,344.958047373287L249.92056534599635,345.953075979176L263.6884949843104,346.75550727632213L277.45642462262447,346.54556462980844L291.2243542609385,346.5712007433746L304.9922838992526,346.63057895932326L318.7602135375667,346.6309731715453L332.52814317588076,346.4408643274542L346.2960728141948,346.3500600059278L360.06400245250893,346.30110377560004L373.831932090823,346.338209001002L387.59986172913705,346.3822498976859L401.36779136745116,346.38071000619345L415.1357210057652,346.37094093456534L428.9036506440793,346.37193878425245L442.67158028239334,346.3773468831739L456.4395099207074,346.3918834588626L470.20743955902145,346.39557919844447L483.9753691973355,346.3967618351107L497.74329883564957,346.3993611719499L511.5112284739636,346.39822781181147L525.2791581122777,346.4016648496226L539.0470877505918,346.40560697184327L552.815017388906,346.4058779927459L566.58294702722,346.40465839868386L580.3508766655341,346.40644467281516L594.1188063038481,346.4072084589954L607.8867359421622,346.40686352330107L621.6546655804763,346.406875842433L635.4225952187903,346.4069867146205L649.1905248571044,346.4069620763566L662.9584544954184,346.4070606294121L676.7263841337325,346.4070236720163L690.4943137720466,346.40703599114823" style="fill: none;" fill="none"></path></g><g><path stroke="rgb(204, 51, 17)" stroke-width="2px" d="M15.865761494657145,33.716299961691725L29.63369113297121,179.09154257991491L43.40162077128528,298.6963191790125L57.16955040959936,303.08005764143576L70.93748004791343,315.13400794685L84.7054096862275,325.3355303825149L98.47333932454157,340.4270583267905L112.24126896285563,352.62004235527445L126.0091986011697,357.5202234668672L139.77712823948377,358.5427360561133L153.54505787779783,358.74731988023336L167.31298751611192,361.5627958893566L181.080917154426,362.42444525373617L194.84884679274006,361.3905128291821L208.61677643105412,360.89178509174155L222.38470606936818,360.84547747478075L236.15263570768224,360.6383805477451L249.92056534599635,361.4007623469558L263.6884949843104,361.51611869843765L277.45642462262447,361.5330082283268L291.2243542609385,361.41476919997103L304.9922838992526,361.002952938364L318.7602135375667,361.1544782612204L332.52814317588076,361.2794065782193L346.2960728141948,361.3079376877913L360.06400245250893,361.32252354000775L373.831932090823,361.3162284635866L387.59986172913705,361.29871065796857L401.36779136745116,361.34542480628335L415.1357210057652,361.35036477819114L428.9036506440793,361.3631150797485L442.67158028239334,361.38319526480996L456.4395099207074,361.4014029418166L470.20743955902145,361.40580087191904L483.9753691973355,361.40378053428094L497.74329883564957,361.4022283236566L511.5112284739636,361.3987789667135L525.2791581122777,361.39912390240784L539.0470877505918,361.39897607282455L552.815017388906,361.4000231990394L566.58294702722,361.39990000772L580.3508766655341,361.4001587094907L594.1188063038481,361.4011565591778L607.8867359421622,361.40098409133066L621.6546655804763,361.4010210487265L635.4225952187903,361.4010703252543L649.1905248571044,361.4010333678585L662.9584544954184,361.401119601782L676.7263841337325,361.4010703252543L690.4943137720466,361.4010703252543" style="fill: none;" fill="none"></path></g><g><path stroke="rgb(0, 119, 187)" stroke-width="2px" d="M15.865761494657145,11.45814164984977L29.63369113297121,210.94108136072L43.40162077128528,251.4975362137566L57.16955040959936,318.5443625182019L70.93748004791343,322.36262818633617L84.7054096862275,337.92700137184727L98.47333932454157,342.445523456821L112.24126896285563,346.9356869000699L126.0091986011697,348.77281440795036L139.77712823948377,350.59714233774565L153.54505787779783,350.4200917735105L167.31298751611192,347.3424646367137L181.080917154426,348.0211132961313L194.84884679274006,350.12426013911426L208.61677643105412,348.51272057531077L222.38470606936818,349.0251225492042L236.15263570768224,350.6816515828509L249.92056534599635,351.16082885790337L263.6884949843104,350.24783335159987L277.45642462262447,350.3041810610913L291.2243542609385,350.6672258793497L304.9922838992526,350.87369453065645L318.7602135375667,351.1353159356566L332.52814317588076,351.007665090499L346.2960728141948,351.0807545002964L360.06400245250893,351.023162558479L373.831932090823,350.931656046432L387.59986172913705,350.9330727466051L401.36779136745116,350.93291259788987L415.1357210057652,350.9095924811283L428.9036506440793,350.90247202286724L442.67158028239334,350.88182515773656L456.4395099207074,350.87932437395284L470.20743955902145,350.87092272597005L483.9753691973355,350.8641348842714L497.74329883564957,350.8659088392707L511.5112284739636,350.8636297998619L525.2791581122777,350.8633341406953L539.0470877505918,350.86178193007095L552.815017388906,350.861979036182L566.58294702722,350.8621515040291L580.3508766655341,350.863198630244L594.1188063038481,350.86377762944517L607.8867359421622,350.8644798199657L621.6546655804763,350.86457837302123L635.4225952187903,350.8647138834725L649.1905248571044,350.8648370747919L662.9584544954184,350.8647754791323L676.7263841337325,350.86475084086834L690.4943137720466,350.86475084086834" style="fill: none;" fill="none"></path></g><g><path stroke="rgb(255, 112, 67)" stroke-width="2px" d="M15.865761494657145,66.70392942759975L29.63369113297121,217.33478475213542L43.40162077128528,274.1349513214894L57.16955040959936,288.9006628642279L70.93748004791343,299.13852673911447L84.7054096862275,319.8675358415646L98.47333932454157,335.2392254844093L112.24126896285563,334.20423361450844L126.0091986011697,332.5851670610899L139.77712823948377,342.0437472877447L153.54505787779783,341.61395741263783L167.31298751611192,343.64233944387973L181.080917154426,342.2316140498227L194.84884679274006,343.7080373745133L208.61677643105412,347.06801901536454L222.38470606936818,346.73146033077614L236.15263570768224,346.6421343050825L249.92056534599635,346.7699822563511L263.6884949843104,346.75246445073304L277.45642462262447,346.9721022540832L291.2243542609385,347.18489062007495L304.9922838992526,347.1707852140042L318.7602135375667,347.32663455217136L332.52814317588076,347.3007643750983L346.2960728141948,347.22071465575516L360.06400245250893,347.298386782634L373.831932090823,347.22992936644596L387.59986172913705,347.21316302787625L401.36779136745116,347.25774596636546L415.1357210057652,347.28301250597343L428.9036506440793,347.29092138867867L442.67158028239334,347.28980034767216L456.4395099207074,347.30069046030667L470.20743955902145,347.3026861596809L483.9753691973355,347.3024151387782L497.74329883564957,347.30979429881L511.5112284739636,347.3113711476983L525.2791581122777,347.31409367585695L539.0470877505918,347.31507920641207L552.815017388906,347.3160524178353L566.58294702722,347.3164219917935L580.3508766655341,347.3174075223487L594.1188063038481,347.3180111598137L607.8867359421622,347.3180357980776L621.6546655804763,347.31826986158444L635.4225952187903,347.3183930529038L649.1905248571044,347.31843001029966L662.9584544954184,347.3183930529038L676.7263841337325,347.3184423294316L690.4943137720466,347.3183930529038" style="fill: none;" fill="none"></path></g></g></g></g></g></g><g transform="translate(40, 378)" clip-path="url(#clip_1)"><clipPath id="clip_1"><rect width="721" height="22"></rect></clipPath><g><g><line x1="15.865761494657145" y1="0" x2="15.865761494657145" y2="5" style="visibility: inherit;" fill="rgb(0, 0, 0)" stroke="rgb(204, 204, 204)" stroke-width="1px"></line><line x1="84.7054096862275" y1="0" x2="84.7054096862275" y2="5" style="visibility: inherit;" fill="rgb(0, 0, 0)" stroke="rgb(204, 204, 204)" stroke-width="1px"></line><line x1="153.54505787779783" y1="0" x2="153.54505787779783" y2="5" style="visibility: inherit;" fill="rgb(0, 0, 0)" stroke="rgb(204, 204, 204)" stroke-width="1px"></line><line x1="222.38470606936818" y1="0" x2="222.38470606936818" y2="5" style="visibility: inherit;" fill="rgb(0, 0, 0)" stroke="rgb(204, 204, 204)" stroke-width="1px"></line><line x1="291.2243542609385" y1="0" x2="291.2243542609385" y2="5" style="visibility: inherit;" fill="rgb(0, 0, 0)" stroke="rgb(204, 204, 204)" stroke-width="1px"></line><line x1="360.06400245250893" y1="0" x2="360.06400245250893" y2="5" style="visibility: inherit;" fill="rgb(0, 0, 0)" stroke="rgb(204, 204, 204)" stroke-width="1px"></line><line x1="428.9036506440793" y1="0" x2="428.9036506440793" y2="5" style="visibility: inherit;" fill="rgb(0, 0, 0)" stroke="rgb(204, 204, 204)" stroke-width="1px"></line><line x1="497.74329883564957" y1="0" x2="497.74329883564957" y2="5" style="visibility: inherit;" fill="rgb(0, 0, 0)" stroke="rgb(204, 204, 204)" stroke-width="1px"></line><line x1="566.58294702722" y1="0" x2="566.58294702722" y2="5" style="visibility: inherit;" fill="rgb(0, 0, 0)" stroke="rgb(204, 204, 204)" stroke-width="1px"></line><line x1="635.4225952187903" y1="0" x2="635.4225952187903" y2="5" style="visibility: inherit;" fill="rgb(0, 0, 0)" stroke="rgb(204, 204, 204)" stroke-width="1px"></line><line x1="704.2622434103606" y1="0" x2="704.2622434103606" y2="5" style="visibility: inherit;" fill="rgb(0, 0, 0)" stroke="rgb(204, 204, 204)" stroke-width="1px"></line></g><g transform="translate(0, 8)"><text x="15.865761494657145" y="0" dx="0em" dy="0.95em" style="text-anchor: middle; visibility: inherit; font-family: Roboto, sans-serif; font-size: 12px; font-weight: 200;" fill="rgb(50, 49, 63)" stroke="none" stroke-width="1px">0</text><text x="84.7054096862275" y="0" dx="0em" dy="0.95em" style="text-anchor: middle; visibility: inherit; font-family: Roboto, sans-serif; font-size: 12px; font-weight: 200;" fill="rgb(50, 49, 63)" stroke="none" stroke-width="1px">5</text><text x="153.54505787779783" y="0" dx="0em" dy="0.95em" style="text-anchor: middle; visibility: inherit; font-family: Roboto, sans-serif; font-size: 12px; font-weight: 200;" fill="rgb(50, 49, 63)" stroke="none" stroke-width="1px">10</text><text x="222.38470606936818" y="0" dx="0em" dy="0.95em" style="text-anchor: middle; visibility: inherit; font-family: Roboto, sans-serif; font-size: 12px; font-weight: 200;" fill="rgb(50, 49, 63)" stroke="none" stroke-width="1px">15</text><text x="291.2243542609385" y="0" dx="0em" dy="0.95em" style="text-anchor: middle; visibility: inherit; font-family: Roboto, sans-serif; font-size: 12px; font-weight: 200;" fill="rgb(50, 49, 63)" stroke="none" stroke-width="1px">20</text><text x="360.06400245250893" y="0" dx="0em" dy="0.95em" style="text-anchor: middle; visibility: inherit; font-family: Roboto, sans-serif; font-size: 12px; font-weight: 200;" fill="rgb(50, 49, 63)" stroke="none" stroke-width="1px">25</text><text x="428.9036506440793" y="0" dx="0em" dy="0.95em" style="text-anchor: middle; visibility: inherit; font-family: Roboto, sans-serif; font-size: 12px; font-weight: 200;" fill="rgb(50, 49, 63)" stroke="none" stroke-width="1px">30</text><text x="497.74329883564957" y="0" dx="0em" dy="0.95em" style="text-anchor: middle; visibility: inherit; font-family: Roboto, sans-serif; font-size: 12px; font-weight: 200;" fill="rgb(50, 49, 63)" stroke="none" stroke-width="1px">35</text><text x="566.58294702722" y="0" dx="0em" dy="0.95em" style="text-anchor: middle; visibility: inherit; font-family: Roboto, sans-serif; font-size: 12px; font-weight: 200;" fill="rgb(50, 49, 63)" stroke="none" stroke-width="1px">40</text><text x="635.4225952187903" y="0" dx="0em" dy="0.95em" style="text-anchor: middle; visibility: inherit; font-family: Roboto, sans-serif; font-size: 12px; font-weight: 200;" fill="rgb(50, 49, 63)" stroke="none" stroke-width="1px">45</text><text x="704.2622434103606" y="0" dx="0em" dy="0.95em" style="text-anchor: middle; visibility: inherit; font-family: Roboto, sans-serif; font-size: 12px; font-weight: 200;" fill="rgb(50, 49, 63)" stroke="none" stroke-width="1px">50</text></g><line x1="0" y1="0" x2="721.4" y2="0" fill="rgb(0, 0, 0)" stroke="rgb(204, 204, 204)" stroke-width="1px"></line></g></g></g></g></svg>