<svg viewBox="0 0 761.4000244140625 400" xmlns="http://www.w3.org/2000/svg"><g><g><g><g><g><line x1="50" y1="362.8846060357377" x2="45" y2="362.8846060357377" style="visibility: inherit;" fill="rgb(0, 0, 0)" stroke="rgb(204, 204, 204)" stroke-width="1px"></line><line x1="50" y1="326.26440556199253" x2="45" y2="326.26440556199253" style="visibility: inherit;" fill="rgb(0, 0, 0)" stroke="rgb(204, 204, 204)" stroke-width="1px"></line><line x1="50" y1="289.6442050882478" x2="45" y2="289.6442050882478" style="visibility: inherit;" fill="rgb(0, 0, 0)" stroke="rgb(204, 204, 204)" stroke-width="1px"></line><line x1="50" y1="253.0240046145027" x2="45" y2="253.0240046145027" style="visibility: inherit;" fill="rgb(0, 0, 0)" stroke="rgb(204, 204, 204)" stroke-width="1px"></line><line x1="50" y1="216.40380414075753" x2="45" y2="216.40380414075753" style="visibility: inherit;" fill="rgb(0, 0, 0)" stroke="rgb(204, 204, 204)" stroke-width="1px"></line><line x1="50" y1="179.78360366701241" x2="45" y2="179.78360366701241" style="visibility: inherit;" fill="rgb(0, 0, 0)" stroke="rgb(204, 204, 204)" stroke-width="1px"></line><line x1="50" y1="143.16340319326727" x2="45" y2="143.16340319326727" style="visibility: inherit;" fill="rgb(0, 0, 0)" stroke="rgb(204, 204, 204)" stroke-width="1px"></line><line x1="50" y1="106.5432027195221" x2="45" y2="106.5432027195221" style="visibility: inherit;" fill="rgb(0, 0, 0)" stroke="rgb(204, 204, 204)" stroke-width="1px"></line><line x1="50" y1="69.92300224577697" x2="45" y2="69.92300224577697" style="visibility: inherit;" fill="rgb(0, 0, 0)" stroke="rgb(204, 204, 204)" stroke-width="1px"></line><line x1="50" y1="33.302801772031835" x2="45" y2="33.302801772031835" style="visibility: inherit;" fill="rgb(0, 0, 0)" stroke="rgb(204, 204, 204)" stroke-width="1px"></line></g><g transform="translate(40, 0)"><text x="0" y="362.8846060357377" dx="0em" dy="0.3em" style="text-anchor: end; visibility: inherit; font-family: Roboto, sans-serif; font-size: 12px; font-weight: 200;" fill="rgb(50, 49, 63)" stroke="none" stroke-width="1px">0.8</text><text x="0" y="326.26440556199253" dx="0em" dy="0.3em" style="text-anchor: end; visibility: inherit; font-family: Roboto, sans-serif; font-size: 12px; font-weight: 200;" fill="rgb(50, 49, 63)" stroke="none" stroke-width="1px">0.81</text><text x="0" y="289.6442050882478" dx="0em" dy="0.3em" style="text-anchor: end; visibility: inherit; font-family: Roboto, sans-serif; font-size: 12px; font-weight: 200;" fill="rgb(50, 49, 63)" stroke="none" stroke-width="1px">0.82</text><text x="0" y="253.0240046145027" dx="0em" dy="0.3em" style="text-anchor: end; visibility: inherit; font-family: Roboto, sans-serif; font-size: 12px; font-weight: 200;" fill="rgb(50, 49, 63)" stroke="none" stroke-width="1px">0.83</text><text x="0" y="216.40380414075753" dx="0em" dy="0.3em" style="text-anchor: end; visibility: inherit; font-family: Roboto, sans-serif; font-size: 12px; font-weight: 200;" fill="rgb(50, 49, 63)" stroke="none" stroke-width="1px">0.84</text><text x="0" y="179.78360366701241" dx="0em" dy="0.3em" style="text-anchor: end; visibility: inherit; font-family: Roboto, sans-serif; font-size: 12px; font-weight: 200;" fill="rgb(50, 49, 63)" stroke="none" stroke-width="1px">0.85</text><text x="0" y="143.16340319326727" dx="0em" dy="0.3em" style="text-anchor: end; visibility: inherit; font-family: Roboto, sans-serif; font-size: 12px; font-weight: 200;" fill="rgb(50, 49, 63)" stroke="none" stroke-width="1px">0.86</text><text x="0" y="106.5432027195221" dx="0em" dy="0.3em" style="text-anchor: end; visibility: inherit; font-family: Roboto, sans-serif; font-size: 12px; font-weight: 200;" fill="rgb(50, 49, 63)" stroke="none" stroke-width="1px">0.87</text><text x="0" y="69.92300224577697" dx="0em" dy="0.3em" style="text-anchor: end; visibility: inherit; font-family: Roboto, sans-serif; font-size: 12px; font-weight: 200;" fill="rgb(50, 49, 63)" stroke="none" stroke-width="1px">0.88</text><text x="0" y="33.302801772031835" dx="0em" dy="0.3em" style="text-anchor: end; visibility: inherit; font-family: Roboto, sans-serif; font-size: 12px; font-weight: 200;" fill="rgb(50, 49, 63)" stroke="none" stroke-width="1px">0.89</text></g><line x1="50" y1="0" x2="50" y2="378" fill="rgb(0, 0, 0)" stroke="rgb(204, 204, 204)" stroke-width="1px"></line></g></g><g transform="translate(50, 0)" clip-path="url(#clip_0)"><clipPath id="clip_0"><rect width="711" height="378"></rect></clipPath><g><g><g><line x1="11.027247224183492" y1="0" x2="11.027247224183492" y2="378" fill="rgb(0, 0, 0)" stroke="rgb(60, 60, 60)" stroke-width="1px" opacity="0.25"></line><line x1="81.98483885113545" y1="0" x2="81.98483885113545" y2="378" fill="rgb(0, 0, 0)" stroke="rgb(60, 60, 60)" stroke-width="1px" opacity="0.25"></line><line x1="152.9424304780874" y1="0" x2="152.9424304780874" y2="378" fill="rgb(0, 0, 0)" stroke="rgb(60, 60, 60)" stroke-width="1px" opacity="0.25"></line><line x1="223.90002210503937" y1="0" x2="223.90002210503937" y2="378" fill="rgb(0, 0, 0)" stroke="rgb(60, 60, 60)" stroke-width="1px" opacity="0.25"></line><line x1="294.8576137319913" y1="0" x2="294.8576137319913" y2="378" fill="rgb(0, 0, 0)" stroke="rgb(60, 60, 60)" stroke-width="1px" opacity="0.25"></line><line x1="365.8152053589433" y1="0" x2="365.8152053589433" y2="378" fill="rgb(0, 0, 0)" stroke="rgb(60, 60, 60)" stroke-width="1px" opacity="0.25"></line><line x1="436.77279698589524" y1="0" x2="436.77279698589524" y2="378" fill="rgb(0, 0, 0)" stroke="rgb(60, 60, 60)" stroke-width="1px" opacity="0.25"></line><line x1="507.73038861284715" y1="0" x2="507.73038861284715" y2="378" fill="rgb(0, 0, 0)" stroke="rgb(60, 60, 60)" stroke-width="1px" opacity="0.25"></line><line x1="578.6879802397991" y1="0" x2="578.6879802397991" y2="378" fill="rgb(0, 0, 0)" stroke="rgb(60, 60, 60)" stroke-width="1px" opacity="0.25"></line><line x1="649.6455718667511" y1="0" x2="649.6455718667511" y2="378" fill="rgb(0, 0, 0)" stroke="rgb(60, 60, 60)" stroke-width="1px" opacity="0.25"></line></g><g><line x1="0" y1="362.8846060357377" x2="711.4" y2="362.8846060357377" fill="rgb(0, 0, 0)" stroke="rgb(60, 60, 60)" stroke-width="1px" opacity="0.25"></line><line x1="0" y1="326.26440556199253" x2="711.4" y2="326.26440556199253" fill="rgb(0, 0, 0)" stroke="rgb(60, 60, 60)" stroke-width="1px" opacity="0.25"></line><line x1="0" y1="289.6442050882478" x2="711.4" y2="289.6442050882478" fill="rgb(0, 0, 0)" stroke="rgb(60, 60, 60)" stroke-width="1px" opacity="0.25"></line><line x1="0" y1="253.0240046145027" x2="711.4" y2="253.0240046145027" fill="rgb(0, 0, 0)" stroke="rgb(60, 60, 60)" stroke-width="1px" opacity="0.25"></line><line x1="0" y1="216.40380414075753" x2="711.4" y2="216.40380414075753" fill="rgb(0, 0, 0)" stroke="rgb(60, 60, 60)" stroke-width="1px" opacity="0.25"></line><line x1="0" y1="179.78360366701241" x2="711.4" y2="179.78360366701241" fill="rgb(0, 0, 0)" stroke="rgb(60, 60, 60)" stroke-width="1px" opacity="0.25"></line><line x1="0" y1="143.16340319326727" x2="711.4" y2="143.16340319326727" fill="rgb(0, 0, 0)" stroke="rgb(60, 60, 60)" stroke-width="1px" opacity="0.25"></line><line x1="0" y1="106.5432027195221" x2="711.4" y2="106.5432027195221" fill="rgb(0, 0, 0)" stroke="rgb(60, 60, 60)" stroke-width="1px" opacity="0.25"></line><line x1="0" y1="69.92300224577697" x2="711.4" y2="69.92300224577697" fill="rgb(0, 0, 0)" stroke="rgb(60, 60, 60)" stroke-width="1px" opacity="0.25"></line><line x1="0" y1="33.302801772031835" x2="711.4" y2="33.302801772031835" fill="rgb(0, 0, 0)" stroke="rgb(60, 60, 60)" stroke-width="1px" opacity="0.25"></line></g></g></g><g><g><line x1="0" y1="3292.5006439353465" x2="711.4" y2="3292.5006439353465" fill="rgb(0, 0, 0)" stroke="rgb(153, 153, 153)" stroke-width="1.5px"></line></g></g><g><g><line x1="11.027247224183492" y1="0" x2="11.027247224183492" y2="378" fill="rgb(0, 0, 0)" stroke="rgb(153, 153, 153)" stroke-width="1.5px"></line></g></g><g><g><g><g><g><path stroke="rgb(204, 51, 17)" stroke-width="2px" d="M11.027247224183492,329.0930018745827L25.21876554957388,237.0204780170123L39.41028387496427,242.7156676763751L53.60180220035466,84.19897342836687L67.79332052574506,98.43694757677383L81.98483885113545,67.11340445027854L96.17635717652583,61.41821479091579L110.36787550191623,33.891319255059635L124.55939382730661,48.12929340346659L138.75091215269703,38.637237880060574L152.9424304780874,33.891319255059635L167.1339488034778,38.637237880060574L181.32546712886818,42.4341037441038L195.51698545425856,41.484832709741994L209.708503779649,42.4341037441038L223.90002210503937,36.73891408474101L238.09154043042975,38.637237880060574L252.28305875582012,31.99299545974007L266.4745770812105,36.73891408474101L280.66609540660096,36.73891408474101L294.8576137319913,31.99299545974007L309.0491320573817,33.891319255059635L323.24065038277206,36.73891408474101L337.4321687081625,35.789643050379205L351.62368703355287,35.789643050379205L365.8152053589433,36.73891408474101L380.0067236843336,35.789643050379205L394.198242009724,34.840590289421485L408.38976033511443,34.840590289421485L422.5812786605049,34.840590289421485L436.77279698589524,34.840590289421485L450.96431531128565,34.840590289421485L465.155833636676,34.840590289421485L479.3473519620664,34.840590289421485L493.5388702874568,34.840590289421485L507.73038861284715,34.840590289421485L521.9219069382375,34.840590289421485L536.113425263628,34.840590289421485L550.3049435890184,34.840590289421485L564.4964619144088,34.840590289421485L578.6879802397991,34.840590289421485L592.8794985651896,34.840590289421485L607.0710168905799,34.840590289421485L621.2625352159703,34.840590289421485L635.4540535413607,34.840590289421485L649.6455718667511,34.840590289421485L663.8370901921414,34.840590289421485L678.0286085175319,34.840590289421485L692.2201268429222,34.840590289421485L706.4116451683127,34.840590289421485" style="fill: none;" fill="none"></path></g><g><path stroke="rgb(255, 112, 67)" stroke-width="2px" d="M11.027247224183492,340.4833811933082L25.21876554957388,255.05531802946248L39.41028387496427,178.1700393546609L53.60180220035466,144.947954159442L67.79332052574506,72.80859410964133L81.98483885113545,68.0626754846404L96.17635717652583,64.26580962059717L110.36787550191623,55.723025131553L124.55939382730661,45.28169857378518L138.75091215269703,48.12929340346659L152.9424304780874,50.027835472190255L167.1339488034778,37.68818511910286L181.32546712886818,26.297587526973228L195.51698545425856,35.789643050379205L209.708503779649,37.68818511910286L223.90002210503937,30.094453391016412L238.09154043042975,30.094453391016412L252.28305875582012,29.145400630058692L266.4745770812105,23.449992697291812L280.66609540660096,25.34853476601547L294.8576137319913,22.500939936334092L309.0491320573817,24.39926373165366L323.24065038277206,24.39926373165366L337.4321687081625,26.297587526973228L351.62368703355287,27.246858561335035L365.8152053589433,26.297587526973228L380.0067236843336,23.449992697291812L394.198242009724,21.551668901972242L408.38976033511443,21.551668901972242L422.5812786605049,23.449992697291812L436.77279698589524,21.551668901972242L450.96431531128565,21.551668901972242L465.155833636676,21.551668901972242L479.3473519620664,21.551668901972242L493.5388702874568,21.551668901972242L507.73038861284715,21.551668901972242L521.9219069382375,21.551668901972242L536.113425263628,21.551668901972242L550.3049435890184,21.551668901972242L564.4964619144088,21.551668901972242L578.6879802397991,21.551668901972242L592.8794985651896,21.551668901972242L607.0710168905799,21.551668901972242L621.2625352159703,21.551668901972242L635.4540535413607,21.551668901972242L649.6455718667511,21.551668901972242L663.8370901921414,21.551668901972242L678.0286085175319,21.551668901972242L692.2201268429222,21.551668901972242L706.4116451683127,21.551668901972242" style="fill: none;" fill="none"></path></g><g><path stroke="rgb(0, 153, 136)" stroke-width="2px" d="M11.027247224183492,368.01027672916433L25.21876554957388,223.7315566295631L39.41028387496427,157.28760451252933L53.60180220035466,165.8303890015735L67.79332052574506,79.45305480336593L81.98483885113545,77.55451273464227L96.17635717652583,60.46894375655394L110.36787550191623,61.41821479091579L124.55939382730661,49.078564437828405L138.75091215269703,34.840590289421485L152.9424304780874,23.449992697291812L167.1339488034778,40.53577994878424L181.32546712886818,36.73891408474101L195.51698545425856,46.23096960814703L209.708503779649,36.73891408474101L223.90002210503937,29.145400630058692L238.09154043042975,25.34853476601547L252.28305875582012,32.94204822069783L266.4745770812105,34.840590289421485L280.66609540660096,33.891319255059635L294.8576137319913,34.840590289421485L309.0491320573817,32.94204822069783L323.24065038277206,32.94204822069783L337.4321687081625,32.94204822069783L351.62368703355287,31.99299545974007L365.8152053589433,32.94204822069783L380.0067236843336,32.94204822069783L394.198242009724,32.94204822069783L408.38976033511443,32.94204822069783L422.5812786605049,32.94204822069783L436.77279698589524,32.94204822069783L450.96431531128565,32.94204822069783L465.155833636676,32.94204822069783L479.3473519620664,32.94204822069783L493.5388702874568,32.94204822069783L507.73038861284715,32.94204822069783L521.9219069382375,32.94204822069783L536.113425263628,32.94204822069783L550.3049435890184,32.94204822069783L564.4964619144088,32.94204822069783L578.6879802397991,32.94204822069783L592.8794985651896,32.94204822069783L607.0710168905799,32.94204822069783L621.2625352159703,32.94204822069783L635.4540535413607,32.94204822069783L649.6455718667511,32.94204822069783L663.8370901921414,32.94204822069783L678.0286085175319,32.94204822069783L692.2201268429222,32.94204822069783L706.4116451683127,32.94204822069783" style="fill: none;" fill="none"></path></g><g><path stroke="rgb(51, 187, 238)" stroke-width="2px" d="M11.027247224183492,355.67062637607694L25.21876554957388,319.6009463511767L39.41028387496427,176.27149728593724L53.60180220035466,105.08140827049843L67.79332052574506,89.89416308772967L81.98483885113545,74.7069179049609L96.17635717652583,44.33242753942337L110.36787550191623,45.28169857378518L124.55939382730661,23.449992697291812L138.75091215269703,31.99299545974007L152.9424304780874,18.70407407229087L167.1339488034778,14.907208208247644L181.32546712886818,25.34853476601547L195.51698545425856,23.449992697291812L209.708503779649,18.70407407229087L223.90002210503937,22.500939936334092L238.09154043042975,15.856479242609494L252.28305875582012,25.34853476601547L266.4745770812105,26.297587526973228L280.66609540660096,19.653345106652676L294.8576137319913,18.70407407229087L309.0491320573817,21.551668901972242L323.24065038277206,15.856479242609494L337.4321687081625,20.602397867610435L351.62368703355287,17.75480303792906L365.8152053589433,20.602397867610435L380.0067236843336,18.70407407229087L394.198242009724,17.75480303792906L408.38976033511443,17.75480303792906L422.5812786605049,17.75480303792906L436.77279698589524,17.75480303792906L450.96431531128565,17.75480303792906L465.155833636676,17.75480303792906L479.3473519620664,17.75480303792906L493.5388702874568,17.75480303792906L507.73038861284715,17.75480303792906L521.9219069382375,17.75480303792906L536.113425263628,17.75480303792906L550.3049435890184,17.75480303792906L564.4964619144088,17.75480303792906L578.6879802397991,17.75480303792906L592.8794985651896,17.75480303792906L607.0710168905799,17.75480303792906L621.2625352159703,17.75480303792906L635.4540535413607,17.75480303792906L649.6455718667511,17.75480303792906L663.8370901921414,17.75480303792906L678.0286085175319,17.75480303792906L692.2201268429222,17.75480303792906L706.4116451683127,17.75480303792906" style="fill: none;" fill="none"></path></g><g><path stroke="rgb(238, 51, 119)" stroke-width="2px" d="M11.027247224183492,339.5343284323505L25.21876554957388,183.8652290140237L39.41028387496427,205.69671661711297L53.60180220035466,123.11624828294858L67.79332052574506,80.4021075643237L81.98483885113545,84.19897342836687L96.17635717652583,71.85932307527953L110.36787550191623,56.67207789251076L124.55939382730661,50.97688823314797L138.75091215269703,51.926159267509775L152.9424304780874,49.078564437828405L167.1339488034778,47.18002236910474L181.32546712886818,51.926159267509775L195.51698545425856,50.027835472190255L209.708503779649,57.62134892687257L223.90002210503937,47.18002236910474L238.09154043042975,60.46894375655394L252.28305875582012,54.773754097191194L266.4745770812105,55.723025131553L280.66609540660096,54.773754097191194L294.8576137319913,51.926159267509775L309.0491320573817,48.12929340346659L323.24065038277206,49.078564437828405L337.4321687081625,50.027835472190255L351.62368703355287,49.078564437828405L365.8152053589433,49.078564437828405L380.0067236843336,49.078564437828405L394.198242009724,49.078564437828405L408.38976033511443,46.23096960814703L422.5812786605049,49.078564437828405L436.77279698589524,49.078564437828405L450.96431531128565,49.078564437828405L465.155833636676,49.078564437828405L479.3473519620664,49.078564437828405L493.5388702874568,49.078564437828405L507.73038861284715,49.078564437828405L521.9219069382375,49.078564437828405L536.113425263628,49.078564437828405L550.3049435890184,49.078564437828405L564.4964619144088,49.078564437828405L578.6879802397991,49.078564437828405L592.8794985651896,49.078564437828405L607.0710168905799,49.078564437828405L621.2625352159703,49.078564437828405L635.4540535413607,49.078564437828405L649.6455718667511,49.078564437828405L663.8370901921414,49.078564437828405L678.0286085175319,49.078564437828405L692.2201268429222,49.078564437828405L706.4116451683127,49.078564437828405" style="fill: none;" fill="none"></path></g><g><path stroke="rgb(0, 119, 187)" stroke-width="2px" d="M11.027247224183492,336.68673360266905L25.21876554957388,243.6649387107369L39.41028387496427,186.71282384370505L53.60180220035466,143.99868312508013L67.79332052574506,64.26580962059717L81.98483885113545,67.11340445027854L96.17635717652583,48.12929340346659L110.36787550191623,53.824483062829344L124.55939382730661,35.789643050379205L138.75091215269703,26.297587526973228L152.9424304780874,21.551668901972242L167.1339488034778,33.891319255059635L181.32546712886818,26.297587526973228L195.51698545425856,14.907208208247644L209.708503779649,30.094453391016412L223.90002210503937,29.145400630058692L238.09154043042975,18.70407407229087L252.28305875582012,27.246858561335035L266.4745770812105,26.297587526973228L280.66609540660096,29.145400630058692L294.8576137319913,29.145400630058692L309.0491320573817,26.297587526973228L323.24065038277206,23.449992697291812L337.4321687081625,26.297587526973228L351.62368703355287,26.297587526973228L365.8152053589433,27.246858561335035L380.0067236843336,26.297587526973228L394.198242009724,28.196129595696842L408.38976033511443,27.246858561335035L422.5812786605049,27.246858561335035L436.77279698589524,27.246858561335035L450.96431531128565,27.246858561335035L465.155833636676,27.246858561335035L479.3473519620664,27.246858561335035L493.5388702874568,27.246858561335035L507.73038861284715,27.246858561335035L521.9219069382375,27.246858561335035L536.113425263628,27.246858561335035L550.3049435890184,27.246858561335035L564.4964619144088,27.246858561335035L578.6879802397991,27.246858561335035L592.8794985651896,27.246858561335035L607.0710168905799,27.246858561335035L621.2625352159703,27.246858561335035L635.4540535413607,27.246858561335035L649.6455718667511,27.246858561335035L663.8370901921414,27.246858561335035L678.0286085175319,27.246858561335035L692.2201268429222,27.246858561335035L706.4116451683127,27.246858561335035" style="fill: none;" fill="none"></path></g></g></g></g></g></g><g transform="translate(50, 378)" clip-path="url(#clip_1)"><clipPath id="clip_1"><rect width="711" height="22"></rect></clipPath><g><g><line x1="11.027247224183492" y1="0" x2="11.027247224183492" y2="5" style="visibility: inherit;" fill="rgb(0, 0, 0)" stroke="rgb(204, 204, 204)" stroke-width="1px"></line><line x1="81.98483885113545" y1="0" x2="81.98483885113545" y2="5" style="visibility: inherit;" fill="rgb(0, 0, 0)" stroke="rgb(204, 204, 204)" stroke-width="1px"></line><line x1="152.9424304780874" y1="0" x2="152.9424304780874" y2="5" style="visibility: inherit;" fill="rgb(0, 0, 0)" stroke="rgb(204, 204, 204)" stroke-width="1px"></line><line x1="223.90002210503937" y1="0" x2="223.90002210503937" y2="5" style="visibility: inherit;" fill="rgb(0, 0, 0)" stroke="rgb(204, 204, 204)" stroke-width="1px"></line><line x1="294.8576137319913" y1="0" x2="294.8576137319913" y2="5" style="visibility: inherit;" fill="rgb(0, 0, 0)" stroke="rgb(204, 204, 204)" stroke-width="1px"></line><line x1="365.8152053589433" y1="0" x2="365.8152053589433" y2="5" style="visibility: inherit;" fill="rgb(0, 0, 0)" stroke="rgb(204, 204, 204)" stroke-width="1px"></line><line x1="436.77279698589524" y1="0" x2="436.77279698589524" y2="5" style="visibility: inherit;" fill="rgb(0, 0, 0)" stroke="rgb(204, 204, 204)" stroke-width="1px"></line><line x1="507.73038861284715" y1="0" x2="507.73038861284715" y2="5" style="visibility: inherit;" fill="rgb(0, 0, 0)" stroke="rgb(204, 204, 204)" stroke-width="1px"></line><line x1="578.6879802397991" y1="0" x2="578.6879802397991" y2="5" style="visibility: inherit;" fill="rgb(0, 0, 0)" stroke="rgb(204, 204, 204)" stroke-width="1px"></line><line x1="649.6455718667511" y1="0" x2="649.6455718667511" y2="5" style="visibility: inherit;" fill="rgb(0, 0, 0)" stroke="rgb(204, 204, 204)" stroke-width="1px"></line></g><g transform="translate(0, 8)"><text x="11.027247224183492" y="0" dx="0em" dy="0.95em" style="text-anchor: middle; visibility: inherit; font-family: Roboto, sans-serif; font-size: 12px; font-weight: 200;" fill="rgb(50, 49, 63)" stroke="none" stroke-width="1px">0</text><text x="81.98483885113545" y="0" dx="0em" dy="0.95em" style="text-anchor: middle; visibility: inherit; font-family: Roboto, sans-serif; font-size: 12px; font-weight: 200;" fill="rgb(50, 49, 63)" stroke="none" stroke-width="1px">5</text><text x="152.9424304780874" y="0" dx="0em" dy="0.95em" style="text-anchor: middle; visibility: inherit; font-family: Roboto, sans-serif; font-size: 12px; font-weight: 200;" fill="rgb(50, 49, 63)" stroke="none" stroke-width="1px">10</text><text x="223.90002210503937" y="0" dx="0em" dy="0.95em" style="text-anchor: middle; visibility: inherit; font-family: Roboto, sans-serif; font-size: 12px; font-weight: 200;" fill="rgb(50, 49, 63)" stroke="none" stroke-width="1px">15</text><text x="294.8576137319913" y="0" dx="0em" dy="0.95em" style="text-anchor: middle; visibility: inherit; font-family: Roboto, sans-serif; font-size: 12px; font-weight: 200;" fill="rgb(50, 49, 63)" stroke="none" stroke-width="1px">20</text><text x="365.8152053589433" y="0" dx="0em" dy="0.95em" style="text-anchor: middle; visibility: inherit; font-family: Roboto, sans-serif; font-size: 12px; font-weight: 200;" fill="rgb(50, 49, 63)" stroke="none" stroke-width="1px">25</text><text x="436.77279698589524" y="0" dx="0em" dy="0.95em" style="text-anchor: middle; visibility: inherit; font-family: Roboto, sans-serif; font-size: 12px; font-weight: 200;" fill="rgb(50, 49, 63)" stroke="none" stroke-width="1px">30</text><text x="507.73038861284715" y="0" dx="0em" dy="0.95em" style="text-anchor: middle; visibility: inherit; font-family: Roboto, sans-serif; font-size: 12px; font-weight: 200;" fill="rgb(50, 49, 63)" stroke="none" stroke-width="1px">35</text><text x="578.6879802397991" y="0" dx="0em" dy="0.95em" style="text-anchor: middle; visibility: inherit; font-family: Roboto, sans-serif; font-size: 12px; font-weight: 200;" fill="rgb(50, 49, 63)" stroke="none" stroke-width="1px">40</text><text x="649.6455718667511" y="0" dx="0em" dy="0.95em" style="text-anchor: middle; visibility: inherit; font-family: Roboto, sans-serif; font-size: 12px; font-weight: 200;" fill="rgb(50, 49, 63)" stroke="none" stroke-width="1px">45</text></g><line x1="0" y1="0" x2="711.4" y2="0" fill="rgb(0, 0, 0)" stroke="rgb(204, 204, 204)" stroke-width="1px"></line></g></g></g></g></svg>