<svg viewBox="0 0 761.4000244140625 400" xmlns="http://www.w3.org/2000/svg"><g><g><g><g><g><line x1="40" y1="378" x2="35" y2="378" style="visibility: inherit;" fill="rgb(0, 0, 0)" stroke="rgb(204, 204, 204)" stroke-width="1px"></line><line x1="40" y1="343.6363636363637" x2="35" y2="343.6363636363637" style="visibility: inherit;" fill="rgb(0, 0, 0)" stroke="rgb(204, 204, 204)" stroke-width="1px"></line><line x1="40" y1="309.27272727272725" x2="35" y2="309.27272727272725" style="visibility: inherit;" fill="rgb(0, 0, 0)" stroke="rgb(204, 204, 204)" stroke-width="1px"></line><line x1="40" y1="274.90909090909093" x2="35" y2="274.90909090909093" style="visibility: inherit;" fill="rgb(0, 0, 0)" stroke="rgb(204, 204, 204)" stroke-width="1px"></line><line x1="40" y1="240.54545454545453" x2="35" y2="240.54545454545453" style="visibility: inherit;" fill="rgb(0, 0, 0)" stroke="rgb(204, 204, 204)" stroke-width="1px"></line><line x1="40" y1="206.18181818181824" x2="35" y2="206.18181818181824" style="visibility: inherit;" fill="rgb(0, 0, 0)" stroke="rgb(204, 204, 204)" stroke-width="1px"></line><line x1="40" y1="171.81818181818184" x2="35" y2="171.81818181818184" style="visibility: inherit;" fill="rgb(0, 0, 0)" stroke="rgb(204, 204, 204)" stroke-width="1px"></line><line x1="40" y1="137.45454545454547" x2="35" y2="137.45454545454547" style="visibility: inherit;" fill="rgb(0, 0, 0)" stroke="rgb(204, 204, 204)" stroke-width="1px"></line><line x1="40" y1="103.09090909090912" x2="35" y2="103.09090909090912" style="visibility: inherit;" fill="rgb(0, 0, 0)" stroke="rgb(204, 204, 204)" stroke-width="1px"></line><line x1="40" y1="68.72727272727275" x2="35" y2="68.72727272727275" style="visibility: inherit;" fill="rgb(0, 0, 0)" stroke="rgb(204, 204, 204)" stroke-width="1px"></line><line x1="40" y1="34.36363636363642" x2="35" y2="34.36363636363642" style="visibility: inherit;" fill="rgb(0, 0, 0)" stroke="rgb(204, 204, 204)" stroke-width="1px"></line><line x1="40" y1="0" x2="35" y2="0" style="visibility: inherit;" fill="rgb(0, 0, 0)" stroke="rgb(204, 204, 204)" stroke-width="1px"></line></g><g transform="translate(30, 0)"><text x="0" y="378" dx="0em" dy="0.3em" style="text-anchor: end; visibility: hidden; font-family: Roboto, sans-serif; font-size: 12px; font-weight: 200;" fill="rgb(50, 49, 63)" stroke="none" stroke-width="1px">0.9</text><text x="0" y="343.6363636363637" dx="0em" dy="0.3em" style="text-anchor: end; visibility: inherit; font-family: Roboto, sans-serif; font-size: 12px; font-weight: 200;" fill="rgb(50, 49, 63)" stroke="none" stroke-width="1px">1</text><text x="0" y="309.27272727272725" dx="0em" dy="0.3em" style="text-anchor: end; visibility: inherit; font-family: Roboto, sans-serif; font-size: 12px; font-weight: 200;" fill="rgb(50, 49, 63)" stroke="none" stroke-width="1px">1.1</text><text x="0" y="274.90909090909093" dx="0em" dy="0.3em" style="text-anchor: end; visibility: inherit; font-family: Roboto, sans-serif; font-size: 12px; font-weight: 200;" fill="rgb(50, 49, 63)" stroke="none" stroke-width="1px">1.2</text><text x="0" y="240.54545454545453" dx="0em" dy="0.3em" style="text-anchor: end; visibility: inherit; font-family: Roboto, sans-serif; font-size: 12px; font-weight: 200;" fill="rgb(50, 49, 63)" stroke="none" stroke-width="1px">1.3</text><text x="0" y="206.18181818181824" dx="0em" dy="0.3em" style="text-anchor: end; visibility: inherit; font-family: Roboto, sans-serif; font-size: 12px; font-weight: 200;" fill="rgb(50, 49, 63)" stroke="none" stroke-width="1px">1.4</text><text x="0" y="171.81818181818184" dx="0em" dy="0.3em" style="text-anchor: end; visibility: inherit; font-family: Roboto, sans-serif; font-size: 12px; font-weight: 200;" fill="rgb(50, 49, 63)" stroke="none" stroke-width="1px">1.5</text><text x="0" y="137.45454545454547" dx="0em" dy="0.3em" style="text-anchor: end; visibility: inherit; font-family: Roboto, sans-serif; font-size: 12px; font-weight: 200;" fill="rgb(50, 49, 63)" stroke="none" stroke-width="1px">1.6</text><text x="0" y="103.09090909090912" dx="0em" dy="0.3em" style="text-anchor: end; visibility: inherit; font-family: Roboto, sans-serif; font-size: 12px; font-weight: 200;" fill="rgb(50, 49, 63)" stroke="none" stroke-width="1px">1.7</text><text x="0" y="68.72727272727275" dx="0em" dy="0.3em" style="text-anchor: end; visibility: inherit; font-family: Roboto, sans-serif; font-size: 12px; font-weight: 200;" fill="rgb(50, 49, 63)" stroke="none" stroke-width="1px">1.8</text><text x="0" y="34.36363636363642" dx="0em" dy="0.3em" style="text-anchor: end; visibility: inherit; font-family: Roboto, sans-serif; font-size: 12px; font-weight: 200;" fill="rgb(50, 49, 63)" stroke="none" stroke-width="1px">1.9</text><text x="0" y="0" dx="0em" dy="0.3em" style="text-anchor: end; visibility: hidden; font-family: Roboto, sans-serif; font-size: 12px; font-weight: 200;" fill="rgb(50, 49, 63)" stroke="none" stroke-width="1px">2</text></g><line x1="40" y1="0" x2="40" y2="378" fill="rgb(0, 0, 0)" stroke="rgb(204, 204, 204)" stroke-width="1px"></line></g></g><g transform="translate(40, 0)" clip-path="url(#clip_0)"><clipPath id="clip_0"><rect width="721" height="378"></rect></clipPath><g><g><g><line x1="0" y1="0" x2="0" y2="378" fill="rgb(0, 0, 0)" stroke="rgb(60, 60, 60)" stroke-width="1px" opacity="0.25"></line><line x1="60.11666666666666" y1="0" x2="60.11666666666666" y2="378" fill="rgb(0, 0, 0)" stroke="rgb(60, 60, 60)" stroke-width="1px" opacity="0.25"></line><line x1="120.23333333333332" y1="0" x2="120.23333333333332" y2="378" fill="rgb(0, 0, 0)" stroke="rgb(60, 60, 60)" stroke-width="1px" opacity="0.25"></line><line x1="180.35" y1="0" x2="180.35" y2="378" fill="rgb(0, 0, 0)" stroke="rgb(60, 60, 60)" stroke-width="1px" opacity="0.25"></line><line x1="240.46666666666664" y1="0" x2="240.46666666666664" y2="378" fill="rgb(0, 0, 0)" stroke="rgb(60, 60, 60)" stroke-width="1px" opacity="0.25"></line><line x1="300.5833333333333" y1="0" x2="300.5833333333333" y2="378" fill="rgb(0, 0, 0)" stroke="rgb(60, 60, 60)" stroke-width="1px" opacity="0.25"></line><line x1="360.7" y1="0" x2="360.7" y2="378" fill="rgb(0, 0, 0)" stroke="rgb(60, 60, 60)" stroke-width="1px" opacity="0.25"></line><line x1="420.81666666666666" y1="0" x2="420.81666666666666" y2="378" fill="rgb(0, 0, 0)" stroke="rgb(60, 60, 60)" stroke-width="1px" opacity="0.25"></line><line x1="480.9333333333333" y1="0" x2="480.9333333333333" y2="378" fill="rgb(0, 0, 0)" stroke="rgb(60, 60, 60)" stroke-width="1px" opacity="0.25"></line><line x1="541.05" y1="0" x2="541.05" y2="378" fill="rgb(0, 0, 0)" stroke="rgb(60, 60, 60)" stroke-width="1px" opacity="0.25"></line><line x1="601.1666666666666" y1="0" x2="601.1666666666666" y2="378" fill="rgb(0, 0, 0)" stroke="rgb(60, 60, 60)" stroke-width="1px" opacity="0.25"></line><line x1="661.2833333333333" y1="0" x2="661.2833333333333" y2="378" fill="rgb(0, 0, 0)" stroke="rgb(60, 60, 60)" stroke-width="1px" opacity="0.25"></line><line x1="721.4" y1="0" x2="721.4" y2="378" fill="rgb(0, 0, 0)" stroke="rgb(60, 60, 60)" stroke-width="1px" opacity="0.25"></line></g><g><line x1="0" y1="378" x2="721.4" y2="378" fill="rgb(0, 0, 0)" stroke="rgb(60, 60, 60)" stroke-width="1px" opacity="0.25"></line><line x1="0" y1="343.6363636363637" x2="721.4" y2="343.6363636363637" fill="rgb(0, 0, 0)" stroke="rgb(60, 60, 60)" stroke-width="1px" opacity="0.25"></line><line x1="0" y1="309.27272727272725" x2="721.4" y2="309.27272727272725" fill="rgb(0, 0, 0)" stroke="rgb(60, 60, 60)" stroke-width="1px" opacity="0.25"></line><line x1="0" y1="274.90909090909093" x2="721.4" y2="274.90909090909093" fill="rgb(0, 0, 0)" stroke="rgb(60, 60, 60)" stroke-width="1px" opacity="0.25"></line><line x1="0" y1="240.54545454545453" x2="721.4" y2="240.54545454545453" fill="rgb(0, 0, 0)" stroke="rgb(60, 60, 60)" stroke-width="1px" opacity="0.25"></line><line x1="0" y1="206.18181818181824" x2="721.4" y2="206.18181818181824" fill="rgb(0, 0, 0)" stroke="rgb(60, 60, 60)" stroke-width="1px" opacity="0.25"></line><line x1="0" y1="171.81818181818184" x2="721.4" y2="171.81818181818184" fill="rgb(0, 0, 0)" stroke="rgb(60, 60, 60)" stroke-width="1px" opacity="0.25"></line><line x1="0" y1="137.45454545454547" x2="721.4" y2="137.45454545454547" fill="rgb(0, 0, 0)" stroke="rgb(60, 60, 60)" stroke-width="1px" opacity="0.25"></line><line x1="0" y1="103.09090909090912" x2="721.4" y2="103.09090909090912" fill="rgb(0, 0, 0)" stroke="rgb(60, 60, 60)" stroke-width="1px" opacity="0.25"></line><line x1="0" y1="68.72727272727275" x2="721.4" y2="68.72727272727275" fill="rgb(0, 0, 0)" stroke="rgb(60, 60, 60)" stroke-width="1px" opacity="0.25"></line><line x1="0" y1="34.36363636363642" x2="721.4" y2="34.36363636363642" fill="rgb(0, 0, 0)" stroke="rgb(60, 60, 60)" stroke-width="1px" opacity="0.25"></line><line x1="0" y1="0" x2="721.4" y2="0" fill="rgb(0, 0, 0)" stroke="rgb(60, 60, 60)" stroke-width="1px" opacity="0.25"></line></g></g></g><g><g><line x1="0" y1="687.2727272727273" x2="721.4" y2="687.2727272727273" fill="rgb(0, 0, 0)" stroke="rgb(153, 153, 153)" stroke-width="1.5px"></line></g></g><g><g><line x1="60.11666666666666" y1="0" x2="60.11666666666666" y2="378" fill="rgb(0, 0, 0)" stroke="rgb(153, 153, 153)" stroke-width="1.5px"></line></g></g><g><g><g><g><g><path stroke="rgb(204, 51, 17)" stroke-width="2px" d="M84.16333333333333,-45.16786531968554L96.18666666666667,217.41044087843466L108.21,219.40492760051382L120.23333333333332,261.2781702388417L132.25666666666666,271.08932603489274L144.28,280.19564411856913L156.30333333333334,275.9872230616483L168.32666666666665,288.70068311691284L180.35,286.30863449790263L192.37333333333333,278.762332092632L204.39666666666665,285.0777287916704L216.42,286.6730559955944L228.44333333333333,284.7745494409041L240.46666666666664,283.4053880518133L252.48999999999998,284.8350132595409L264.5133333333333,285.02627719532364L276.5366666666667,285.0710925188932L288.56,284.6384648843245L300.5833333333333,284.5037731257352L312.6066666666667,284.1590556231412L324.63,283.89839757572526L336.6533333333333,284.06885147094727L348.6766666666667,283.8825442574241L360.7,283.8734910704873L372.72333333333336,283.7934871153398L384.74666666666667,283.88885281302714L396.77000000000004,283.8512472672896L408.7933333333333,283.78173026171595L420.81666666666666,283.7715710293163L432.84,283.75829848376185L444.86333333333334,283.7598141756925L456.88666666666666,283.76227205449885L468.91,283.78312305970627L480.9333333333333,283.76620466058904L492.95666666666665,283.77574942328715L504.97999999999996,283.77296382730657L517.0033333333333,283.76935893839055L529.0266666666666,283.77009630203247L541.05,283.7694408676841L553.0733333333334,283.7709155949679L565.0966666666667,283.7723083929582L577.12,283.77251321619207L589.1433333333333,283.7727999687195L601.1666666666666,283.77284093336624L613.1899999999999,283.77288189801305L625.2133333333334,283.7727180394259L637.2366666666667,283.77296382730657L649.26,283.7730867212469" style="fill: none;" fill="none"></path></g><g><path stroke="rgb(255, 112, 67)" stroke-width="2px" d="M72.14,-117.81964952295478L84.16333333333333,97.41212758150971L96.18666666666667,102.6209053126249L108.21,237.88915937597105L120.23333333333332,246.24070384285668L132.25666666666666,245.64003922722557L144.28,255.60612331737173L156.30333333333334,271.3406031781977L168.32666666666665,269.38716303218496L180.35,262.6553197340532L192.37333333333333,268.10738650235265L204.39666666666665,269.5041580633684L216.42,267.1847397630865L228.44333333333333,266.7924623055892L240.46666666666664,269.26594864238393L252.48999999999998,269.01917761022395L264.5133333333333,268.5172787579623L276.5366666666667,270.0000351125544L288.56,269.66416597366333L300.5833333333333,270.00450025905263L312.6066666666667,269.46778145703405L324.63,269.42054921930486L336.6533333333333,269.69501235268336L348.6766666666667,269.6978389133107L360.7,269.915688904849L372.72333333333336,270.0718461383473L384.74666666666667,270.09851412339646L396.77000000000004,270.13030268929225L408.7933333333333,270.0580820170316L420.81666666666666,270.10064428502864L432.84,270.0580820170316L444.86333333333334,270.08147283033895L456.88666666666666,270.1116637750106L468.91,270.1183819770813L480.9333333333333,270.12632911855525L492.95666666666665,270.132146098397L504.97999999999996,270.1362835277211L517.0033333333333,270.12878699736166L529.0266666666666,270.126738765023L541.05,270.12817252766007L553.0733333333334,270.12833638624716L565.0966666666667,270.12878699736166L577.12,270.1296062902971L589.1433333333333,270.12985207817775L601.1666666666666,270.12981111353093L613.1899999999999,270.12985207817775L625.2133333333334,270.12985207817775L637.2366666666667,270.12985207817775L649.26,270.1297701488842" style="fill: none;" fill="none"></path></g><g><path stroke="rgb(0, 153, 136)" stroke-width="2px" d="M72.14,-42.05668232657695L84.16333333333333,93.62658457322559L96.18666666666667,68.64249229431157L108.21,198.95353252237496L120.23333333333332,231.94219871000814L132.25666666666666,261.7461093989286L144.28,274.8655291037126L156.30333333333334,271.33466330441564L168.32666666666665,278.77404798160904L180.35,281.6158884221857L192.37333333333333,283.2655347477306L204.39666666666665,280.9847461093556L216.42,276.81798609820277L228.44333333333333,280.60459418730306L240.46666666666664,280.13669599186295L252.48999999999998,281.868927045302L264.5133333333333,281.335526379672L276.5366666666667,280.9112964976918L288.56,280.7620622894981L300.5833333333333,279.5036283406344L312.6066666666667,279.7782553326L324.63,279.7545777667653L336.6533333333333,279.38315131447536L348.6766666666667,279.0206551551819L360.7,279.1782051866705L372.72333333333336,279.0934083678506L384.74666666666667,279.05510642311793L396.77000000000004,279.0458074483004L408.7933333333333,278.98321346803147L420.81666666666666,279.01803341778844L432.84,279.03257586739284L444.86333333333334,279.0743598071012L456.88666666666666,279.06444636258215L468.91,279.0647740797563L480.9333333333333,279.05707272616297L492.95666666666665,279.0613330494274L504.97999999999996,279.06092340295965L517.0033333333333,279.06121015548706L529.0266666666666,279.0585884180936L541.05,279.0590799938549L553.0733333333334,279.06014507467097L565.0966666666667,279.0606366504323L577.12,279.06166076660156L589.1433333333333,279.0619884837758L601.1666666666666,279.0624390948903L613.1899999999999,279.0622342716564L625.2133333333334,279.0623571655967L637.2366666666667,279.06231620094997L649.26,279.06231620094997" style="fill: none;" fill="none"></path></g><g><path stroke="rgb(51, 187, 238)" stroke-width="2px" d="M72.14,-176.78465366363525L84.16333333333333,36.26518249511723L96.18666666666667,197.05719709396362L108.21,246.90941073677757L120.23333333333332,252.0453533259305L132.25666666666666,284.46330005472356L144.28,280.1152714816007L156.30333333333334,302.6592226461931L168.32666666666665,303.8584217158231L180.35,299.2634992165999L192.37333333333333,308.392061103474L204.39666666666665,307.43234135887843L216.42,303.8172112811696L228.44333333333333,307.07934899763626L240.46666666666664,308.36055929010564L252.48999999999998,306.7286916212602L264.5133333333333,307.8157704526728L276.5366666666667,305.81026424061173L288.56,306.80177255110306L300.5833333333333,306.1534250866283L312.6066666666667,306.18074850602585L324.63,306.31916804747146L336.6533333333333,305.7005199519071L348.6766666666667,305.72882652282715L360.7,305.98059524189347L372.72333333333336,305.8781016956676L384.74666666666667,305.9369269284335L396.77000000000004,305.87974028153855L408.7933333333333,306.02598407051784L420.81666666666666,306.0908311063593L432.84,306.0879635810852L444.86333333333334,306.066170389002L456.88666666666666,306.0645318031311L468.91,306.07116807590836L480.9333333333333,306.0726018385454L492.95666666666665,306.0736259547147L504.97999999999996,306.07985258102417L517.0033333333333,306.0824333537709L529.0266666666666,306.0815321315419L541.05,306.0808766971935L553.0733333333334,306.0815321315419L565.0966666666667,306.0816550254822L577.12,306.08226949518377L589.1433333333333,306.0824333537709L601.1666666666666,306.0825562477112L613.1899999999999,306.08259721235794L625.2133333333334,306.08272010629827L637.2366666666667,306.08263817700475L649.26,306.08263817700475" style="fill: none;" fill="none"></path></g><g><path stroke="rgb(238, 51, 119)" stroke-width="2px" d="M60.11666666666666,-244.93958473205566L72.14,55.03743670203471L84.16333333333333,-26.7961224642667L96.18666666666667,172.3561705242504L108.21,228.57392159375277L120.23333333333332,251.6786378080195L132.25666666666666,247.13795250112364L144.28,256.4098087224093L156.30333333333334,260.6965951486068L168.32666666666665,257.1980504556136L180.35,269.9156069755554L192.37333333333333,269.5889139175415L204.39666666666665,269.06333749944514L216.42,272.35734571110123L228.44333333333333,267.42548899217087L240.46666666666664,269.4016235524958L252.48999999999998,267.3474513400685L264.5133333333333,267.91653221303767L276.5366666666667,269.04457569122314L288.56,268.7225116382946L300.5833333333333,269.3769628351385L312.6066666666667,269.73986864089966L324.63,270.2723271196539L336.6533333333333,269.43951585076076L348.6766666666667,269.7493314743042L360.7,269.78226705030966L372.72333333333336,269.5644580234181L384.74666666666667,269.5622049678456L396.77000000000004,269.5277946645563L408.7933333333333,269.45135463367814L420.81666666666666,269.4472581690008L432.84,269.50358455831355L444.86333333333334,269.5308670130643L456.88666666666666,269.54999750310725L468.91,269.56814484162766L480.9333333333333,269.5779763568532L492.95666666666665,269.56453995271164L504.97999999999996,269.56650625575674L517.0033333333333,269.56273750825363L529.0266666666666,269.57047982649374L541.05,269.5733883164146L553.0733333333334,269.5729377053001L565.0966666666667,269.57433050329035L577.12,269.57449436187744L589.1433333333333,269.574576291171L601.1666666666666,269.57469918511134L613.1899999999999,269.5749040083452L625.2133333333334,269.5750678669323L637.2366666666667,269.57510883157903L649.26,269.5750678669323" style="fill: none;" fill="none"></path></g><g><path stroke="rgb(0, 119, 187)" stroke-width="2px" d="M72.14,-38.19355227730489L84.16333333333333,56.005349375984906L96.18666666666667,177.5484395027161L108.21,238.68846156380394L120.23333333333332,245.91052878986707L132.25666666666666,271.035703312267L144.28,268.28214168548584L156.30333333333334,287.16434500434184L168.32666666666665,287.4422491680492L180.35,285.4514492641796L192.37333333333333,288.08568087491125L204.39666666666665,289.532593163577L216.42,286.7614167386835L228.44333333333333,286.57158656553787L240.46666666666664,283.7579298019409L252.48999999999998,286.57941081307155L264.5133333333333,288.0296822027727L276.5366666666667,288.5058552568609L288.56,287.5698950073936L300.5833333333333,287.6802537657998L312.6066666666667,287.99662373282695L324.63,287.26122639395976L336.6533333333333,287.74686228145254L348.6766666666667,287.6488748463717L360.7,287.5784975832159L372.72333333333336,287.49247182499283L384.74666666666667,287.40808465264064L396.77000000000004,287.5059491937811L408.7933333333333,287.4525312943892L420.81666666666666,287.4251669103449L432.84,287.4132052334872L444.86333333333334,287.44929508729416L456.88666666666666,287.44741071354264L468.91,287.4192680012096L480.9333333333333,287.4061183495955L492.95666666666665,287.3973519151861L504.97999999999996,287.4029231071472L517.0033333333333,287.4012025919828L529.0266666666666,287.40009654651993L541.05,287.4011206626892L553.0733333333334,287.40062908692795L565.0966666666667,287.40054715763443L577.12,287.40103873339564L589.1433333333333,287.40124355662954L601.1666666666666,287.4014074152166L613.1899999999999,287.4015712738037L625.2133333333334,287.4017760970376L637.2366666666667,287.40153030915695L649.26,287.40161223845047" style="fill: none;" fill="none"></path></g></g></g></g></g></g><g transform="translate(40, 378)" clip-path="url(#clip_1)"><clipPath id="clip_1"><rect width="721" height="22"></rect></clipPath><g><g><line x1="0" y1="0" x2="0" y2="5" style="visibility: inherit;" fill="rgb(0, 0, 0)" stroke="rgb(204, 204, 204)" stroke-width="1px"></line><line x1="60.11666666666666" y1="0" x2="60.11666666666666" y2="5" style="visibility: inherit;" fill="rgb(0, 0, 0)" stroke="rgb(204, 204, 204)" stroke-width="1px"></line><line x1="120.23333333333332" y1="0" x2="120.23333333333332" y2="5" style="visibility: inherit;" fill="rgb(0, 0, 0)" stroke="rgb(204, 204, 204)" stroke-width="1px"></line><line x1="180.35" y1="0" x2="180.35" y2="5" style="visibility: inherit;" fill="rgb(0, 0, 0)" stroke="rgb(204, 204, 204)" stroke-width="1px"></line><line x1="240.46666666666664" y1="0" x2="240.46666666666664" y2="5" style="visibility: inherit;" fill="rgb(0, 0, 0)" stroke="rgb(204, 204, 204)" stroke-width="1px"></line><line x1="300.5833333333333" y1="0" x2="300.5833333333333" y2="5" style="visibility: inherit;" fill="rgb(0, 0, 0)" stroke="rgb(204, 204, 204)" stroke-width="1px"></line><line x1="360.7" y1="0" x2="360.7" y2="5" style="visibility: inherit;" fill="rgb(0, 0, 0)" stroke="rgb(204, 204, 204)" stroke-width="1px"></line><line x1="420.81666666666666" y1="0" x2="420.81666666666666" y2="5" style="visibility: inherit;" fill="rgb(0, 0, 0)" stroke="rgb(204, 204, 204)" stroke-width="1px"></line><line x1="480.9333333333333" y1="0" x2="480.9333333333333" y2="5" style="visibility: inherit;" fill="rgb(0, 0, 0)" stroke="rgb(204, 204, 204)" stroke-width="1px"></line><line x1="541.05" y1="0" x2="541.05" y2="5" style="visibility: inherit;" fill="rgb(0, 0, 0)" stroke="rgb(204, 204, 204)" stroke-width="1px"></line><line x1="601.1666666666666" y1="0" x2="601.1666666666666" y2="5" style="visibility: inherit;" fill="rgb(0, 0, 0)" stroke="rgb(204, 204, 204)" stroke-width="1px"></line><line x1="661.2833333333333" y1="0" x2="661.2833333333333" y2="5" style="visibility: inherit;" fill="rgb(0, 0, 0)" stroke="rgb(204, 204, 204)" stroke-width="1px"></line><line x1="721.4" y1="0" x2="721.4" y2="5" style="visibility: inherit;" fill="rgb(0, 0, 0)" stroke="rgb(204, 204, 204)" stroke-width="1px"></line></g><g transform="translate(0, 8)"><text x="0" y="0" dx="0em" dy="0.95em" style="text-anchor: middle; visibility: hidden; font-family: Roboto, sans-serif; font-size: 12px; font-weight: 200;" fill="rgb(50, 49, 63)" stroke="none" stroke-width="1px">-5</text><text x="60.11666666666666" y="0" dx="0em" dy="0.95em" style="text-anchor: middle; visibility: inherit; font-family: Roboto, sans-serif; font-size: 12px; font-weight: 200;" fill="rgb(50, 49, 63)" stroke="none" stroke-width="1px">0</text><text x="120.23333333333332" y="0" dx="0em" dy="0.95em" style="text-anchor: middle; visibility: inherit; font-family: Roboto, sans-serif; font-size: 12px; font-weight: 200;" fill="rgb(50, 49, 63)" stroke="none" stroke-width="1px">5</text><text x="180.35" y="0" dx="0em" dy="0.95em" style="text-anchor: middle; visibility: inherit; font-family: Roboto, sans-serif; font-size: 12px; font-weight: 200;" fill="rgb(50, 49, 63)" stroke="none" stroke-width="1px">10</text><text x="240.46666666666664" y="0" dx="0em" dy="0.95em" style="text-anchor: middle; visibility: inherit; font-family: Roboto, sans-serif; font-size: 12px; font-weight: 200;" fill="rgb(50, 49, 63)" stroke="none" stroke-width="1px">15</text><text x="300.5833333333333" y="0" dx="0em" dy="0.95em" style="text-anchor: middle; visibility: inherit; font-family: Roboto, sans-serif; font-size: 12px; font-weight: 200;" fill="rgb(50, 49, 63)" stroke="none" stroke-width="1px">20</text><text x="360.7" y="0" dx="0em" dy="0.95em" style="text-anchor: middle; visibility: inherit; font-family: Roboto, sans-serif; font-size: 12px; font-weight: 200;" fill="rgb(50, 49, 63)" stroke="none" stroke-width="1px">25</text><text x="420.81666666666666" y="0" dx="0em" dy="0.95em" style="text-anchor: middle; visibility: inherit; font-family: Roboto, sans-serif; font-size: 12px; font-weight: 200;" fill="rgb(50, 49, 63)" stroke="none" stroke-width="1px">30</text><text x="480.9333333333333" y="0" dx="0em" dy="0.95em" style="text-anchor: middle; visibility: inherit; font-family: Roboto, sans-serif; font-size: 12px; font-weight: 200;" fill="rgb(50, 49, 63)" stroke="none" stroke-width="1px">35</text><text x="541.05" y="0" dx="0em" dy="0.95em" style="text-anchor: middle; visibility: inherit; font-family: Roboto, sans-serif; font-size: 12px; font-weight: 200;" fill="rgb(50, 49, 63)" stroke="none" stroke-width="1px">40</text><text x="601.1666666666666" y="0" dx="0em" dy="0.95em" style="text-anchor: middle; visibility: inherit; font-family: Roboto, sans-serif; font-size: 12px; font-weight: 200;" fill="rgb(50, 49, 63)" stroke="none" stroke-width="1px">45</text><text x="661.2833333333333" y="0" dx="0em" dy="0.95em" style="text-anchor: middle; visibility: inherit; font-family: Roboto, sans-serif; font-size: 12px; font-weight: 200;" fill="rgb(50, 49, 63)" stroke="none" stroke-width="1px">50</text><text x="721.4" y="0" dx="0em" dy="0.95em" style="text-anchor: middle; visibility: hidden; font-family: Roboto, sans-serif; font-size: 12px; font-weight: 200;" fill="rgb(50, 49, 63)" stroke="none" stroke-width="1px">55</text></g><line x1="0" y1="0" x2="721.4" y2="0" fill="rgb(0, 0, 0)" stroke="rgb(204, 204, 204)" stroke-width="1px"></line></g></g></g></g></svg>